<svg xmlns="http://www.w3.org/2000/svg" viewBox="0 0 43.72 38.00" data-guides="{&quot;vertical&quot;:[],&quot;horizontal&quot;:[]}"><defs/><path fill="#F6A6BF" stroke="none" fill-opacity="1" stroke-width="1" stroke-opacity="1" clip-rule="evenodd" fill-rule="evenodd" id="tSvg1947322ea8e" title="Path 1" d="M42.5441 31.3036C41.2752 30.7872 40.1181 30.0229 39.1385 29.0541C38.2311 28.195 37.4469 27.2105 36.8091 26.1296C36.2597 25.1536 35.7965 24.1301 35.4249 23.071C35.1369 22.3004 34.8949 21.5128 34.7002 20.7126C34.5967 20.2143 34.5303 19.8442 34.5012 19.6023C39.1593 17.2627 41.7519 13.9637 42.2791 9.7053C42.4188 8.8506 42.3882 7.9761 42.1889 7.1337C41.9895 6.2913 41.6257 5.4982 41.1188 4.8016C40.6264 4.1386 39.9823 3.6077 39.2423 3.2549C38.5024 2.9021 37.6889 2.7381 36.8725 2.777C35.9301 2.7842 34.9979 2.9751 34.1263 3.3394C33.3571 3.6223 32.6432 4.0412 32.0174 4.5767C31.5337 5.0266 31.3799 5.3564 31.556 5.5663C32.2764 6.5809 32.6608 7.8019 32.6538 9.0531C32.6917 10.3695 32.4598 11.6795 31.9728 12.9C31.4981 14.0875 30.7624 15.149 29.822 16.0031C28.9767 16.8292 27.853 17.2961 26.6805 17.3083C27.2079 12.9296 27.7353 8.5508 28.2628 4.1721C28.2785 4.1445 28.2867 4.1132 28.2867 4.0814C28.2867 4.0496 28.2785 4.0183 28.2628 3.9907C28.2173 3.9759 28.1718 3.9611 28.1263 3.9462C28.1126 3.9462 28.0989 3.9462 28.0852 3.9462C28.0554 3.9314 28.0257 3.9166 27.996 3.9018C27.2338 3.5994 26.3036 3.2768 25.2052 2.9339C24.1069 2.5911 22.3931 2.1862 20.0637 1.7194C17.908 1.2734 15.7162 1.0326 13.5166 1.0001C11.3729 1.0056 9.2491 1.4175 7.2541 2.2146C5.2354 2.945 3.4967 4.3075 2.2884 6.106C1.5859 7.1577 1.1561 8.3726 1.0389 9.6381C0.9091 10.9559 1.1054 12.2858 1.6101 13.5068C2.1171 14.7746 2.9807 15.8622 4.0929 16.6335C5.0678 17.3327 6.1879 17.7945 7.3665 17.9832C8.4113 18.1688 9.4832 18.123 10.5089 17.849C11.36 17.6151 12.1792 17.2751 12.9481 16.8367C13.5416 16.5109 14.0706 16.076 14.5081 15.5541C14.8301 15.183 15.07 14.7459 15.2114 14.2724C15.2509 14.1619 15.2595 14.0424 15.2362 13.9273C15.2129 13.8121 15.1585 13.7058 15.0793 13.6202C14.9329 13.4992 14.6839 13.3193 14.3323 13.0805C14.0072 12.8652 13.7243 12.5906 13.4978 12.2704C13.2161 12.0171 12.9976 11.6994 12.8601 11.3435C12.7226 10.9876 12.6702 10.6037 12.7071 10.2232C12.7968 9.4843 13.0688 8.7803 13.4978 8.1768C14.0198 7.4879 14.7426 6.9841 15.563 6.7373C16.555 6.4035 17.616 6.3409 18.6393 6.5559C18.6102 6.8583 17.9804 11.4238 16.75 20.2527C15.5196 29.0816 14.83 34.2634 14.6812 35.7982C14.6656 35.8257 14.6573 35.857 14.6573 35.8889C14.6573 35.9207 14.6656 35.952 14.6812 35.9796C14.7252 35.9947 14.7692 36.0098 14.8133 36.0249C17.9336 36.0249 21.054 36.0249 24.1744 36.0249C24.2065 36.0281 24.2389 36.0247 24.2698 36.0151C24.3006 36.0055 24.3293 35.9898 24.3542 35.9689C24.3791 35.948 24.3996 35.9223 24.4147 35.8933C24.4298 35.8643 24.4391 35.8326 24.4422 35.8C24.9839 31.2414 25.5256 26.6827 26.0674 22.124C26.7706 22.0345 27.1809 21.974 27.2981 21.9426C27.3855 24.4624 27.4748 26.022 27.5658 26.6213C27.9466 30.1601 28.8986 32.8441 30.4217 34.6734C31.9449 36.5027 34.2007 37.2525 37.1893 36.9229C38.4402 36.7769 39.6114 36.2247 40.5289 35.3483C41.3629 34.6333 42.0242 33.7334 42.462 32.7177C42.7815 31.8621 42.8083 31.3892 42.5423 31.2991C42.5429 31.3006 42.5435 31.3021 42.5441 31.3036Z"/></svg>