<svg xmlns="http://www.w3.org/2000/svg"><style>:root svg:not(:target){display:none}</style><svg viewBox="0 0 15 19" fill="none" id="address"><path fill-rule="evenodd" clip-rule="evenodd" d="M3.08 3a6.23 6.23 0 0 1 10.67 4.46c0 2.87-1.6 5.48-3.26 7.4a21.56 21.56 0 0 1-2.99 2.84c-.18-.13-.42-.33-.72-.58-.81-.7-1.57-1.45-2.27-2.26-1.66-1.92-3.26-4.53-3.26-7.4 0-1.67.66-3.27 1.83-4.45Zm4.12 15.78.3-.43.3.43a.52.52 0 0 1-.6 0Zm0 0 .3-.43.3.43.02-.02.07-.04.22-.17.79-.64a22.6 22.6 0 0 0 2.38-2.37c1.72-1.99 3.51-4.83 3.51-8.08a7.35 7.35 0 0 0-7.29-7.33 7.27 7.27 0 0 0-7.3 7.33c0 3.25 1.8 6.1 3.52 8.08a22.6 22.6 0 0 0 3.46 3.22l.01.01.01.01Zm-1.78-11.36a2.08 2.08 0 1 1 4.16 0 2.08 2.08 0 0 1-4.16 0Zm2.08-3.13a3.13 3.13 0 1 0 0 6.25 3.13 3.13 0 0 0 0-6.25Z" fill="#F6A6BF"></path></svg><svg viewBox="0 0 15 24" fill="none" id="arrow-left-small"><path d="m13 2-10 10 10 10" stroke="#fff" stroke-width="3"></path></svg><svg viewBox="0 0 27 52" fill="none" id="arrow-left"><path d="m26 1-25 25 25 25" stroke="#fff"></path></svg><svg viewBox="0 0 15 24" fill="none" id="arrow-right-small"><path d="m2 2 10 10-10 10" stroke="#F6A6BF" stroke-width="3"></path></svg><svg viewBox="0 0 27 52" fill="none" id="arrow-right"><path d="m1 1 25 25-25 25" stroke="#fff"></path></svg><svg viewBox="0 0 40 40" fill="none" id="cat"><path d="M7.42 40h23.2a4.29 4.29 0 0 0 4.3-4.29v-19.03a5.3 5.3 0 0 0 4.27-8.09l-1.25-2.02a5.3 5.3 0 0 0-4.5-2.52h-3.6v-1.58a2.46 2.46 0 0 0-2.46-2.47 6.11 6.11 0 0 0-6.1 6.12v8.64a10.7 10.7 0 0 0-7.39 3.95c-1.95 2.35-3.1 5.41-3.8 8.36a42.76 42.76 0 0 0-1.02 10.43h-1.65a4.93 4.93 0 0 1-3.6-8.3l2.3-2.46a8.97 8.97 0 0 0-.21-12.46l-2.26-2.26a1.25 1.25 0 1 0-1.77 1.77l2.26 2.26a6.47 6.47 0 0 1 .16 8.98l-2.3 2.47a7.43 7.43 0 0 0 5.42 12.5Zm19.93-37.5v2.8a1.25 1.25 0 0 0 1.25 1.25h4.83c.97 0 1.87.5 2.38 1.33l1.26 2.03a2.8 2.8 0 0 1-2.38 4.28h-1.03a1.25 1.25 0 0 0-1.25 1.25v20.27c0 .99-.8 1.79-1.79 1.79h-1.79v-1.79a7.33 7.33 0 0 0-7.32-7.33h-2.54a1.25 1.25 0 0 0 0 2.5h2.54a4.83 4.83 0 0 1 4.83 4.83v1.79h-14.77a42.57 42.57 0 0 1 .96-9.87c.64-2.76 1.68-5.4 3.28-7.32a8.3 8.3 0 0 1 6.71-3.11 1.25 1.25 0 0 0 1.25-1.25v-9.83c0-1.99 1.6-3.6 3.58-3.62Z" fill="#F6A6BF"></path></svg><svg viewBox="0 0 20 20" fill="none" id="clock"><path d="M10 1.25a8.75 8.75 0 1 0 0 17.5 8.75 8.75 0 0 0 0-17.5Zm0 16.02a7.27 7.27 0 1 1 0-14.54 7.27 7.27 0 0 1 0 14.54Z" fill="#F6A6BF"></path><path d="m13.41 12.47-2.78-2.01v-4.84a.16.16 0 0 0-.16-.15h-.94a.16.16 0 0 0-.15.16v5.37c0 .05.02.1.06.13l3.23 2.36c.07.05.17.03.22-.04l.56-.76a.16.16 0 0 0-.04-.22Z" fill="#F6A6BF"></path></svg><svg viewBox="0 0 45 45" fill="none" id="heart"><path d="M11.9 3.48c-2.74.4-4.65 1.13-6.47 2.5a13.68 13.68 0 0 0-5.11 13.85c.47 2.32 1.7 4.7 3.26 6.37.44.47 3.8 3.28 9.38 7.85l9 7.32c.42.29.71.26 1.22-.12.22-.18 4.18-3.4 8.78-7.17 5.97-4.88 8.6-7.1 9.23-7.74a13.58 13.58 0 0 0 3.55-6.83c.3-1.33.3-3.86 0-5.18a13.96 13.96 0 0 0-3.27-6.57 12.6 12.6 0 0 0-7.1-4.08 15.94 15.94 0 0 0-4.97-.04 12.92 12.92 0 0 0-6.24 3.01l-.71.62-.65-.6a12.65 12.65 0 0 0-5.97-2.99c-.82-.16-3.26-.3-3.92-.2Zm3.01 1.85c.51.07 1.33.26 1.83.43a10.5 10.5 0 0 1 4.43 2.72c.92.87.99.92 1.34.92.35 0 .41-.04 1.25-.87a10.86 10.86 0 0 1 5.77-3.13c1.03-.23 3.43-.23 4.47 0a11 11 0 0 1 5.9 3.27c.92.95 1.47 1.71 2.01 2.78 1.38 2.7 1.67 6.13.75 9.06a11.22 11.22 0 0 1-2.74 4.66c-.33.34-4.38 3.71-9.02 7.5l-8.42 6.89-.41-.34-8.59-7.03a235.6 235.6 0 0 1-8.7-7.27 12.08 12.08 0 0 1-2.78-5.57 14.69 14.69 0 0 1 0-4.92 11.8 11.8 0 0 1 1.93-4.43c.59-.82 1.72-2 2.44-2.54a11.32 11.32 0 0 1 8.54-2.13Z" fill="#F6A6BF"></path><path d="M17.53 10.93a3.53 3.53 0 0 0-2.3 4.96 4.25 4.25 0 0 0 1.69 1.64c.47.24.61.26 1.45.27.82 0 .97-.03 1.43-.24a4.03 4.03 0 0 0 1.76-1.73c.25-.54.28-.64.27-1.46 0-1.12-.2-1.69-.87-2.4a3.48 3.48 0 0 0-3.43-1.04Zm1.84 1.96c.69.49.94 1.42.59 2.18-.67 1.45-2.86 1.3-3.27-.24-.18-.7.07-1.52.6-1.9a1.84 1.84 0 0 1 2.08-.04Zm6.47-1.99a3.55 3.55 0 0 0-2.4 1.93c-.26.53-.28.64-.28 1.5 0 .85.02.96.27 1.49a3.55 3.55 0 0 0 4.13 1.9 3.6 3.6 0 0 0 2.33-2.14 3.71 3.71 0 0 0-.48-3.39 3.73 3.73 0 0 0-3.57-1.3Zm1.45 1.84c.71.31 1.19 1.15 1.05 1.84a1.75 1.75 0 0 1-2.92 1.04c-.39-.34-.55-.72-.55-1.3 0-1.27 1.28-2.1 2.42-1.58Zm-15.56 3.99c-.92.3-1.55.84-1.92 1.63-.27.6-.27 2 .02 2.57.32.66.76 1.1 1.4 1.41.53.27.66.3 1.38.3.73 0 .84-.03 1.35-.3a3.03 3.03 0 0 0-.04-5.43 3.52 3.52 0 0 0-2.19-.18Zm1.4 1.76c.85.35.98 1.64.21 2.17-.35.26-.93.32-1.27.13-.49-.24-.73-.62-.73-1.12 0-1 .87-1.56 1.8-1.18Zm18.14-1.68a3.1 3.1 0 0 0-1.75 1.8 3.18 3.18 0 0 0 .71 3.19 3.1 3.1 0 0 0 4.62-.39 3.2 3.2 0 0 0 .32-2.98 3.63 3.63 0 0 0-1.5-1.53 3.18 3.18 0 0 0-2.4-.09Zm1.79 1.76c.82.55.77 1.75-.11 2.19-1.1.57-2.3-.7-1.66-1.76a1.27 1.27 0 0 1 1.77-.43Zm-11.33.95a8.75 8.75 0 0 0-7.51 6.46c-.16.56-.2.92-.2 1.93 0 1.2 0 1.23.28 1.82.54 1.14 1.7 2 2.9 2.17.37.06 1.2 0 3-.17l2.47-.26 2.05.22c2.58.28 3.39.3 4 .06a3.78 3.78 0 0 0 2.24-2.03c.68-1.44.3-4.06-.88-6.02a10.8 10.8 0 0 0-2.22-2.47 8.7 8.7 0 0 0-6.13-1.71Zm2.57 1.93c3 .73 5.23 3.5 5.23 6.5 0 .91-.2 1.38-.77 1.82-.61.46-.87.47-3.64.2l-2.48-.26-2.5.25c-2.16.22-2.55.25-2.92.15-.94-.24-1.49-1.03-1.49-2.12a6.89 6.89 0 0 1 8.57-6.54Z" fill="#F6A6BF"></path></svg><svg viewBox="0 0 30 30" fill="none" id="instagram"><path d="M15 9a6 6 0 1 0-.02 12 6 6 0 0 0 .02-12Zm0 9.9a3.91 3.91 0 0 1 0-7.8 3.91 3.91 0 0 1 0 7.8Zm6.25-11.56a1.4 1.4 0 1 0 0 2.8 1.4 1.4 0 0 0 0-2.8Zm5.46 7.66c0-1.62.02-3.22-.07-4.83-.1-1.88-.52-3.54-1.9-4.91-1.37-1.38-3.03-1.8-4.9-1.9-1.62-.08-3.22-.07-4.84-.07-1.62 0-3.22-.01-4.83.08-1.88.09-3.54.51-4.91 1.89-1.38 1.37-1.8 3.03-1.9 4.9-.08 1.62-.07 3.23-.07 4.84 0 1.61-.01 3.22.08 4.83.09 1.88.52 3.54 1.89 4.91 1.37 1.38 3.03 1.8 4.9 1.9 1.63.08 3.23.07 4.84.07 1.62 0 3.22.01 4.84-.08 1.87-.09 3.53-.51 4.9-1.89 1.38-1.37 1.8-3.03 1.9-4.9.09-1.62.07-3.22.07-4.84Zm-2.58 6.9c-.21.54-.47.94-.88 1.35-.41.41-.81.67-1.34.88-1.54.62-5.2.48-6.91.48-1.7 0-5.37.14-6.91-.47a3.72 3.72 0 0 1-1.34-.89c-.42-.41-.67-.8-.89-1.34-.6-1.54-.47-5.2-.47-6.91 0-1.7-.14-5.37.47-6.91.22-.53.47-.93.89-1.34.4-.41.8-.67 1.34-.89 1.54-.6 5.2-.47 6.9-.47 1.72 0 5.38-.14 6.92.47.53.22.93.47 1.34.89.41.41.67.8.89 1.34.6 1.54.47 5.2.47 6.91 0 1.7.14 5.37-.48 6.9Z" fill="#fff"></path></svg><svg viewBox="0 0 187 36" fill="none" id="logo"><path fill-rule="evenodd" clip-rule="evenodd" d="M170.94 23.4c.17-1.76.7-3.47 1.54-5.03a3.14 3.14 0 0 1 2.99-1.8 2.82 2.82 0 0 1 2.48 2.2c.47 1.69.57 3.45.29 5.18a13.18 13.18 0 0 1-1.52 5.08 3.1 3.1 0 0 1-2.97 1.75 2.82 2.82 0 0 1-2.48-2.23 12.24 12.24 0 0 1-.33-5.14Zm15.95 1.18a11.35 11.35 0 0 0-6.2-11.85 11.3 11.3 0 0 0-4.6-1.2 12.6 12.6 0 0 0-9.21 2.93 12.28 12.28 0 0 0-4.6 8.32 11.32 11.32 0 0 0 6.24 11.86c1.44.72 3.01 1.12 4.62 1.19 3.34.31 6.66-.73 9.25-2.9a12.37 12.37 0 0 0 4.5-8.35Zm-26.1 6.98c-3.31-2.22-5.38-4.83-6.2-7.83 3.75-1.8 5.77-3.96 6.07-6.48a5.2 5.2 0 0 0-1.1-4.05 4.86 4.86 0 0 0-3.91-1.62c-1.2 0-2.36.36-3.34 1.04a3.07 3.07 0 0 0-1.63 2.2l.4.72c.29.48.53.98.72 1.5.2.62.18 1.27-.04 1.87-.29.81-.84 1.5-1.56 1.94-.87.57-1.84.95-2.86 1.12l.53-3.69a6.58 6.58 0 0 0-1.12-4.99 5.1 5.1 0 0 0-4.2-1.84 6.76 6.76 0 0 0-3.47 1 5.25 5.25 0 0 0-2.24 2.2.45.45 0 0 0-.04.33l.08.16a27.64 27.64 0 0 0 .97.67c.46.48.73 1.11.77 1.78.2 1.29.2 2.6.03 3.89l-1.81 13.35v.1l.13.08h8.44a.27.27 0 0 0 .18-.18l1.27-9.22a5 5 0 0 1 .8-.09 291.1 291.1 0 0 1 .11 2.32c0 .28.05.72.13 1.32a9.6 9.6 0 0 0 1.38 3.99c.31.36.64.7 1 1.03.37.37.82.65 1.31.83a10.08 10.08 0 0 0 3.93.6 8.02 8.02 0 0 0 5.23-2.48c.3-.25.5-.6.57-.97-.1-.26-.29-.47-.53-.6Zm-28.26-5.67c.24-2.07.88-6.53 1.94-13.36v-.1l-.13-.13h-8.84l-.22.27-1.5 12.37a7.43 7.43 0 0 1-1.14 3.15c-.73 1.17-1.49 1.68-2.28 1.53-.8-.15-1.1-1.02-.92-2.6l1.05-8.73a6.15 6.15 0 0 0-1.3-4.97 5.65 5.65 0 0 0-4.41-1.87 6.65 6.65 0 0 0-3.45 1.01 5.26 5.26 0 0 0-2.22 2.18.42.42 0 0 0-.05.27c.02.09.07.17.14.23.2.15.42.28.66.38.34.19.63.47.83.81.31.55.51 1.17.57 1.8.12 1.12.1 2.24-.04 3.35l-.84 7.02a7.3 7.3 0 0 0 1.13 5.35 4.8 4.8 0 0 0 4.01 2.07 7.75 7.75 0 0 0 4.04-1.26 11.45 11.45 0 0 0 3.7-3.91c.03 1.43.61 2.8 1.62 3.8a5.22 5.22 0 0 0 3.74 1.37 6.66 6.66 0 0 0 3.45-1.01 5.26 5.26 0 0 0 2.28-2.34l-.01-.17a.42.42 0 0 0-.2-.26c-.23-.15-.5-.35-.84-.6a2.88 2.88 0 0 1-.77-1.74 14.3 14.3 0 0 1 0-3.92Zm-27.2-24.61c-.22.11-.43.25-.64.4a8.33 8.33 0 0 1-3.3 1.42c-.95.2-1.93.28-2.91.24-2.02-.1-4.02-.4-5.98-.9a35.33 35.33 0 0 0-6.77-.94h-1.01c-3.9.12-6.77 1.53-8.61 4.23-.94 1.38-1.34 2.53-1.19 3.46.06.33.2.47.44.4.3-.16.6-.34.9-.53a9.72 9.72 0 0 1 2.4-1c1.17-.31 2.38-.47 3.6-.45 1.99.07 3.96.32 5.9.75 2.12.43 4.25.73 6.4.87 5.01.12 8.45-1.12 10.33-3.73a4.4 4.4 0 0 0 1.01-3.65c-.11-.5-.3-.7-.57-.57Zm-.4 24.56.84-7.02a7.16 7.16 0 0 0-1.08-5.35 4.84 4.84 0 0 0-4.06-2.07c-1.46.04-2.88.5-4.1 1.3a11.1 11.1 0 0 0-3.72 4.05 6.13 6.13 0 0 0-1.65-3.91 4.82 4.82 0 0 0-3.53-1.44 7.9 7.9 0 0 0-4.05 1.26c-1.53.97-2.8 2.32-3.69 3.91a5.62 5.62 0 0 0-1.6-3.8 5.2 5.2 0 0 0-3.76-1.37 6.76 6.76 0 0 0-3.47 1.01 4.95 4.95 0 0 0-2.26 2.34.42.42 0 0 0 .08.32 22.23 22.23 0 0 1 .96.72c.45.46.71 1.08.76 1.72.16 1.3.15 2.62-.03 3.92a454.2 454.2 0 0 1-1.89 13.36v.09l.13.13h8.84a.57.57 0 0 0 .15-.1.21.21 0 0 0 .07-.17l1.45-12.05a9.1 9.1 0 0 1 1.14-3.47c.76-1.16 1.52-1.67 2.29-1.52.85.15 1.17 1.02.96 2.6-.06.78-.17 1.85-.35 3.2a558.16 558.16 0 0 0-1.32 11.38l.13.13h8.84l.15-.1a.22.22 0 0 0 .07-.17l1.01-11.24.09-.81a7.9 7.9 0 0 1 1.14-3.47c.76-1.17 1.53-1.68 2.29-1.53.85.15 1.17 1.02.96 2.61l-1.05 8.73a6.16 6.16 0 0 0 1.3 4.97 5.6 5.6 0 0 0 4.37 1.87 6.77 6.77 0 0 0 3.47-1.01 5.04 5.04 0 0 0 2.2-2.14.38.38 0 0 0-.05-.52c-.2-.17-.42-.3-.66-.4a2.13 2.13 0 0 1-.83-.81 4.83 4.83 0 0 1-.6-1.8c-.12-1.12-.1-2.24.07-3.35Zm-53.47-2.43c.17-1.77.69-3.49 1.53-5.04a3.14 3.14 0 0 1 3-1.8 2.82 2.82 0 0 1 2.48 2.2c.47 1.68.57 3.45.28 5.17a13.18 13.18 0 0 1-1.52 5.08 3.1 3.1 0 0 1-2.96 1.76 2.83 2.83 0 0 1-2.48-2.23 12.26 12.26 0 0 1-.33-5.14Zm15.95 1.17a11.37 11.37 0 0 0-6.2-11.85 11.43 11.43 0 0 0-4.61-1.2 12.6 12.6 0 0 0-9.2 2.93 12.28 12.28 0 0 0-4.6 8.32 11.32 11.32 0 0 0 6.23 11.86c1.44.72 3.02 1.12 4.62 1.19 3.34.31 6.67-.73 9.25-2.9a12.37 12.37 0 0 0 4.5-8.35Zm-25.88 5.72a10.44 10.44 0 0 1-3.4-2.25c-.92-.86-1.7-1.85-2.34-2.93-.55-.97-1.01-2-1.38-3.06a14.68 14.68 0 0 1-.92-3.47c4.65-2.33 7.24-5.63 7.77-9.9a6.57 6.57 0 0 0-1.16-4.9 5.04 5.04 0 0 0-4.25-2.02c-.94 0-1.87.2-2.74.56-.77.28-1.48.7-2.11 1.24-.48.45-.64.78-.46.99a5.97 5.97 0 0 1 1.1 3.49 9.63 9.63 0 0 1-.68 3.84 8.4 8.4 0 0 1-2.16 3.1 4.56 4.56 0 0 1-3.14 1.31l1.59-13.14a.18.18 0 0 0 0-.18l-.14-.04h-.04l-.1-.05c-.75-.3-1.68-.62-2.78-.96-1.1-.35-2.81-.75-5.14-1.22a34.87 34.87 0 0 0-6.55-.72 17 17 0 0 0-6.26 1.22 10.15 10.15 0 0 0-4.97 3.89 7.63 7.63 0 0 0-1.25 3.53 8.06 8.06 0 0 0 .57 3.87 6.94 6.94 0 0 0 2.49 3.13 7.7 7.7 0 0 0 6.41 1.21c.85-.23 1.67-.57 2.44-1.01.6-.33 1.12-.76 1.56-1.28.32-.37.56-.81.7-1.28a.65.65 0 0 0-.13-.66c-.14-.12-.4-.3-.75-.54-.32-.21-.6-.49-.83-.8a2.42 2.42 0 0 1-.79-2.05 4.06 4.06 0 0 1 2.86-3.49c.99-.33 2.05-.4 3.07-.18-.03.3-.66 4.87-1.89 13.7a653.06 653.06 0 0 0-2.07 15.72l.14.05h9.36a.24.24 0 0 0 .18-.06.25.25 0 0 0 .08-.17l1.63-13.67c.7-.1 1.11-.15 1.23-.18.09 2.52.18 4.07.27 4.67.38 3.54 1.33 6.23 2.85 8.06 1.53 1.83 3.78 2.58 6.77 2.25a5.81 5.81 0 0 0 3.34-1.58 7.24 7.24 0 0 0 1.93-2.63c.32-.86.35-1.33.08-1.42Z" fill="#F6A6BF"></path></svg><svg viewBox="0 0 70 57" fill="none" id="paw-conture"><path d="M46.5.16c-5.61 1.46-8.97 8.46-6.61 13.73 3 6.65 12.01 5.78 15.37-1.47.71-1.54.78-1.89.78-4.17 0-2.2-.07-2.63-.68-3.9a8.38 8.38 0 0 0-3.63-3.7c-1.14-.59-3.85-.84-5.24-.5Zm3.82 4.3a3.9 3.9 0 0 1 1.9 3.24c.44 5.54-6.2 9.19-8.65 4.75-2.34-4.2 3.02-10.55 6.75-8Zm-31.61-3.88c-1.48.55-3.34 2.36-4.14 4.02-.6 1.27-.68 1.7-.68 3.9 0 2.28.07 2.63.78 4.17 1.58 3.43 4.65 5.66 8.04 5.83 2.29.13 3.82-.4 5.4-1.83 3.76-3.43 3.59-9.66-.36-13.68a8.12 8.12 0 0 0-6.06-2.73c-1.3-.05-2.3.07-2.98.32Zm4.75 4.05a6.51 6.51 0 0 1 3.42 5.36c.43 5.63-6.3 6.3-8.7.87-.98-2.21-.47-4.97 1.17-6.1 1.1-.75 2.82-.8 4.11-.13Zm36.73 12.26c-3.2.84-5.49 2.68-6.88 5.58-.87 1.77-.92 2.04-.92 4.13 0 1.86.1 2.45.56 3.4a8.3 8.3 0 0 0 3.53 3.64c1.12.6 1.54.67 3.6.67 2.2 0 2.42-.04 4.15-.91 6.9-3.48 7.82-12.71 1.63-15.82a8.16 8.16 0 0 0-5.67-.69Zm4.24 4.34c1.58 1.2 2.04 2.9 1.36 5-1.02 3.17-5.02 5.16-7.68 3.8-2.6-1.33-2.63-5.02-.02-7.6 1.78-1.77 4.82-2.34 6.34-1.2Zm-59.33-3.43a7.51 7.51 0 0 0-4.42 3.93c-.58 1.22-.68 1.71-.68 3.55 0 1.93.07 2.26.93 4 3.4 7.04 12.64 7.94 15.96 1.56.58-1.1.65-1.52.65-3.6-.02-2.06-.1-2.53-.7-3.77-1.4-2.93-4.22-5.27-7.17-5.89a7.8 7.8 0 0 0-4.58.23Zm5.16 4.13c2.8 1.36 4.29 4.91 3.07 7.3-.56 1.06-2.22 1.98-3.58 1.98-2.93 0-5.97-3.18-5.97-6.18a4.1 4.1 0 0 1 2.43-3.47c.83-.38 2.93-.18 4.05.37Zm21.32 1.49a12.95 12.95 0 0 0-7.87 6.77c-.85 1.8-.9 1.84-2.66 2.71a11.1 11.1 0 0 0-3.38 2.5 12.75 12.75 0 0 0 5.84 21.26c3.25.86 7.46.04 10.21-1.94l1.25-.92 1.24.92a12.8 12.8 0 0 0 10.06 1.96 12.75 12.75 0 0 0 9.65-12.51c0-4.64-2.9-9.26-7.06-11.3-1.8-.89-1.83-.91-2.66-2.7a12.88 12.88 0 0 0-8.3-6.88 16.8 16.8 0 0 0-6.32.13Zm6.4 4.1a9.23 9.23 0 0 1 5.3 5.93c.41 1.49.8 1.93 2.16 2.33a8.58 8.58 0 0 1 4.22 2.6c1.75 1.92 2.24 3.16 2.24 5.86 0 1.89-.1 2.44-.63 3.63a8.45 8.45 0 0 1-4.07 4.24c-1.46.75-1.83.82-3.83.82-1.9 0-2.36-.1-3.55-.67-.76-.4-1.98-1.31-2.73-2.06-1.83-1.84-2.4-1.84-4.27 0-.75.77-2 1.69-2.73 2.06-1.17.57-1.63.67-3.53.67-1.85 0-2.41-.1-3.56-.64a8.44 8.44 0 0 1-4.16-4.15c-.73-1.51-.8-1.86-.8-3.9.02-2.7.5-3.97 2.23-5.85a8.58 8.58 0 0 1 4.22-2.61c1.36-.4 1.75-.84 2.17-2.33a9.44 9.44 0 0 1 5.21-5.94 9.39 9.39 0 0 1 6.12 0Z" fill="#F6A6BF"></path></svg><svg viewBox="0 0 71 58" fill="none" id="paw-fill"><path d="M47.4.56c-5.61 1.46-8.97 8.46-6.61 13.73 3 6.65 12.01 5.78 15.37-1.47.71-1.54.78-1.88.78-4.17 0-2.2-.07-2.63-.68-3.9a8.38 8.38 0 0 0-3.63-3.7c-1.14-.59-3.85-.84-5.24-.49Zm-27.79.42c-1.48.55-3.33 2.36-4.14 4.02-.6 1.27-.68 1.7-.68 3.9 0 2.28.07 2.63.78 4.17 1.58 3.43 4.65 5.66 8.04 5.83 2.29.13 3.83-.4 5.4-1.83 3.76-3.43 3.6-9.66-.36-13.68a8.12 8.12 0 0 0-6.06-2.73c-1.3-.05-2.3.07-2.98.32Zm41.48 16.32a10 10 0 0 0-6.88 5.58c-.87 1.76-.92 2.03-.92 4.12 0 1.86.1 2.45.56 3.4a8.3 8.3 0 0 0 3.53 3.65c1.12.6 1.54.67 3.6.67 2.2 0 2.42-.05 4.15-.92 6.9-3.48 7.82-12.71 1.63-15.81a8.16 8.16 0 0 0-5.67-.7Zm-55.09.9a7.51 7.51 0 0 0-4.42 3.93c-.58 1.22-.68 1.71-.68 3.55 0 1.94.07 2.26.93 4 3.4 7.05 12.64 7.94 15.96 1.56.58-1.1.65-1.51.65-3.6-.02-2.06-.1-2.53-.7-3.77-1.4-2.93-4.22-5.26-7.17-5.89a7.8 7.8 0 0 0-4.58.23Zm18.61 12.4a12.97 12.97 0 0 1 7.87-6.78c1.56-.42 4.75-.5 6.31-.13 3.44.8 6.82 3.6 8.31 6.88.83 1.79.85 1.81 2.66 2.7a12.96 12.96 0 0 1 7.06 11.3c0 5.98-3.97 11.15-9.65 12.51-3.36.8-7.36.03-10.06-1.96l-1.24-.92-1.25.92a12.97 12.97 0 0 1-10.2 1.94 12.75 12.75 0 0 1-5.85-21.25 11.04 11.04 0 0 1 3.38-2.5c1.76-.88 1.8-.93 2.66-2.71Z" fill="#F6A6BF"></path></svg><svg viewBox="0 0 22 22" fill="none" id="phone"><path d="M7.19 2.33a4.51 4.51 0 0 0-3.28.36 3.16 3.16 0 0 0-1.66 2.75c-.05 1.98.4 4.64 2.23 7.76a17.9 17.9 0 0 0 5.43 6.03c1.04.7 2.19.71 3.17.26a4.3 4.3 0 0 0 2.16-2.44 2.02 2.02 0 0 0-.13-1.69l-1.05-1.87a2.75 2.75 0 0 0-3.38-1.22l-.73.28c-.36.13-.69.07-.87-.11a4.75 4.75 0 0 1-1.27-2.34c-.06-.28.07-.6.38-.84l.66-.5a2.75 2.75 0 0 0 .73-3.57l-1.07-1.86a2.12 2.12 0 0 0-1.32-1Zm-3.84 3.14c.02-.85.45-1.46 1.1-1.82a3.42 3.42 0 0 1 2.47-.26c.27.07.5.25.64.49l1.06 1.86a1.65 1.65 0 0 1-.43 2.14l-.66.5a1.95 1.95 0 0 0-.8 1.97c.25 1.08.8 2.1 1.58 2.87.57.56 1.4.6 2.03.35l.73-.28a1.65 1.65 0 0 1 2.03.74l1.05 1.87c.13.24.15.52.06.77a3.2 3.2 0 0 1-1.59 1.82c-.66.3-1.4.3-2.1-.17a17 17 0 0 1-5.1-5.67c-1.71-2.95-2.12-5.4-2.07-7.18Zm10.67-3.2a.55.55 0 0 0-.54.96l.43.24a9.35 9.35 0 0 1 4.76 7.24l.03.34a.55.55 0 1 0 1.1-.1l-.04-.35a10.45 10.45 0 0 0-5.32-8.1l-.42-.23Z" fill="#F6A6BF"></path><path d="M12.73 5.22a.55.55 0 0 1 .75-.2l.14.1a7.15 7.15 0 0 1 3.37 4.95l.05.29a.55.55 0 1 1-1.08.18l-.05-.3a6.05 6.05 0 0 0-2.86-4.19l-.13-.08a.55.55 0 0 1-.2-.75Z" fill="#F6A6BF"></path></svg></svg>