<svg viewBox="0 0 320 304" fill="none" xmlns="http://www.w3.org/2000/svg"><path fill-rule="evenodd" clip-rule="evenodd" d="M160.15 43.67c28.66 2.95 52.62-29.45 81.13-25.27 30.87 4.52 72.26 17.96 78.1 48.6 6.69 35.08-42.75 57.28-51.3 91.95-5.67 23.06 24.68 49.2 11.64 69.05-13.3 20.27-48.33 5.89-69.07 18.44-21.43 12.97-26.7 46.14-50.5 53.93-24.24 7.94-53.94 2.55-74.04-13.16-19.9-15.55-16.54-46.8-30-68.17-14.23-22.58-42.82-34.63-50.81-60.09-8.82-28.08-6.22-59.36 4.74-86.68 11.68-29.16 27.85-65.78 58.71-71.66 33.65-6.41 57.32 39.54 91.4 43.06Z" fill="#F9EAEF" fill-opacity=".2"/><g opacity=".2" fill="#F6A6BF"><path d="M154.7 99.33c-3.32.78-5.4 1.9-7.65 4.14a18.38 18.38 0 0 0-5 8.77c-.46 1.8-.41 6.5.06 8.74.21.97.47 2.39.54 3.12l.17 1.32-1.13.17c-6.6.92-12.84 3.19-17.8 6.5-2.41 1.6-5.93 4.84-7.25 6.64-.6.8-.95 1.1-1.14.94-.64-.54-4.14-1.7-6.12-2.08-2.55-.45-3.45-.33-4.94.62-1.25.8-2.34 2.72-2.81 4.94-.45 2.17-.14 8.93.59 12.95.54 2.97 2.13 9.64 2.67 11.2.19.5-.05 1.13-1.35 3.66l-1.53 3.07-1.3-.16c-1.73-.19-6-.24-6.5-.05-.6.24-1.11 1.47-.95 2.22.29 1.3.8 1.5 4.16 1.68a26 26 0 0 1 3.2.28c.06.05 0 .4-.15.78-.42 1.07-1.18 5.94-1.18 7.47 0 1.37-.02 1.4-.76 1.66-.42.16-1.7.73-2.81 1.27-2.03 1.04-2.58 1.61-2.58 2.72 0 .61 1.23 1.87 1.85 1.87.28 0 1.37-.43 2.43-.95 2.08-.99 2.32-.97 2.34.24.03.33.43 1.75.9 3.19l.87 2.57-2.03 2.04a12.9 12.9 0 0 0-2.76 3.57c-2.89 5.97-1.44 10.72 4.09 13.47 2.93 1.46 5.7 1.94 10.87 1.96 4.96 0 6.54-.33 10.23-2.13l2.22-1.06 2.74.7c7.07 1.83 12.58 2.49 20.73 2.49s13.66-.66 20.72-2.48l2.75-.71 2.22 1.06c3.68 1.8 5.27 2.13 10.23 2.13 5.15-.03 7.82-.5 10.82-1.94 5.56-2.72 7.02-7.5 4.14-13.5a13 13 0 0 0-2.79-3.59l-2.06-2.05.48-1.14c.23-.63.7-2.15 1.01-3.38.31-1.22.62-2.26.67-2.31.04-.07.94.33 2 .85a9.5 9.5 0 0 0 2.41.97c.62 0 1.87-1.23 1.87-1.87 0-1.11-.54-1.68-2.57-2.72a60.7 60.7 0 0 0-2.8-1.27c-.75-.26-.77-.29-.77-1.66 0-1.53-.76-6.4-1.18-7.47-.15-.37-.22-.73-.15-.78.05-.07 1.5-.18 3.2-.28 3.35-.19 3.87-.38 4.15-1.68.17-.75-.35-1.98-.94-2.22-.5-.19-4.78-.14-6.5.05l-1.3.16-1.51-3.04-1.5-3.05.86-3.1c3.64-13.33 3.85-22.69.52-26.02-1.37-1.37-2.67-1.7-5.13-1.32-1.98.3-4.47 1.06-6.05 1.87l-1 .51-.82-1.15a36.48 36.48 0 0 0-7.3-6.64 41.64 41.64 0 0 0-14.16-5.87l-2.2-.44-.26-2.58a61.86 61.86 0 0 0-.68-4.59c-.45-2.22-.35-3.54.33-4.91.61-1.23 1.94-2.34 2.98-2.55 1.46-.26 4 .64 6.45 2.31 1.51 1.04 2.6 1.42 4.09 1.42 4.49 0 7.28-4.6 5.3-8.7a6.17 6.17 0 0 0-2.23-2.48c-2-1.49-5.79-3.38-8.06-4-2.3-.63-6.24-.82-8.15-.37Zm7.9 4.54c2.06.68 5.32 2.48 6.48 3.57a2 2 0 0 1 .14 2.76c-.71.9-1.92.85-3.31-.16a20.7 20.7 0 0 0-6.24-2.8c-3.7-.68-6.85.86-8.72 4.26-1.4 2.58-1.58 4.42-.87 8.18.26 1.3.54 3.07.61 3.95l.17 1.6h-4.02l-.14-1.37a71.6 71.6 0 0 0-.66-3.94c-.86-4.61-.22-8.16 2.07-11.54 3.31-4.84 8.56-6.47 14.5-4.51Zm-9.6 25.73c9.1 1.19 17.05 5.18 21.94 11.02l.92 1.1-1.73 1.03c-.92.54-2.95 1.84-4.49 2.85l-2.78 1.87-1.7-.68c-5.96-2.46-12.01-3.5-19.08-3.29a43.91 43.91 0 0 0-15.62 3.14l-2.06.8-2.2-1.48c-1.22-.83-3.25-2.13-4.5-2.89l-2.3-1.36.69-.86a29.32 29.32 0 0 1 7.8-6.5c6.92-4.1 16.4-5.88 25.12-4.75Zm-43.38 12.18c1.08.26 2.62.75 3.42 1.13 2.27 1.04 7.4 4.04 11.16 6.55 2.08 1.4 3.59 2.24 3.97 2.24.33 0 1.4-.33 2.34-.73a41 41 0 0 1 18.4-3.45c5.84.19 9.72 1 15.02 3.14 1.44.57 2.9 1.04 3.28 1.04.42 0 1.51-.59 3.17-1.75 8.41-5.79 16.3-9.45 18.22-8.43 1.2.66 1.68 5.67.99 10.89a97.02 97.02 0 0 1-2.55 11.89c-1.25 4.27-1.25 4.23.14 6.69a43.04 43.04 0 0 1 1.54 2.95l.35.83-2.74.8c-3.14.9-8.34 3.38-9.62 4.56-.9.85-1.04 1.5-.57 2.37.76 1.44 1.75 1.44 4.35-.05 3.24-1.87 9.57-4.16 10.04-3.64.4.47 1.66 7.47 1.38 7.75a14.5 14.5 0 0 1-2.34-.26c-2.82-.4-7.54-.69-8.35-.47-.66.16-1.34 1.2-1.34 2.03 0 .28.28.8.66 1.16.61.61.8.66 3.47.8 2.81.17 7.4.76 7.66 1 .17.18-.38 2.76-1 4.56-.54 1.67-.3 1.6-2.88.9a19.68 19.68 0 0 0-7.8-.03c-7.04 1.82-12.62 8.41-12.1 14.27.1.85.22 1.85.29 2.18.16.59.12.61-2.65 1.23-6.47 1.48-10.54 1.91-17.91 1.91-7.38 0-11.44-.43-17.92-1.91-2.76-.62-2.8-.64-2.64-1.23.07-.33.19-1.33.28-2.18.52-5.93-4.96-12.38-12.1-14.27a19.7 19.7 0 0 0-7.8.02c-2.5.69-2.34.73-2.76-.54a25.03 25.03 0 0 1-1.14-4.5c0-.4.26-.51 1.61-.72 2.36-.43 5.65-.76 7.33-.76 1.34 0 1.58-.07 2.2-.69.37-.37.68-.92.68-1.2 0-.83-.69-1.87-1.35-2.03-.8-.22-5.53.07-8.34.47-1.23.19-2.3.3-2.34.26-.28-.28.97-7.28 1.37-7.75.47-.52 6.8 1.77 10.05 3.64 2.6 1.49 3.59 1.49 4.34.05.78-1.45-.04-2.42-3.66-4.26a38.55 38.55 0 0 0-8.04-3.14l-1.22-.29.35-.85c.19-.5.88-1.8 1.51-2.93a9.62 9.62 0 0 0 1.19-2.72c0-.37-.43-2.15-.97-3.97a96.1 96.1 0 0 1-2.6-12.45c-.38-3.26-.2-8.34.35-9.4.73-1.38.8-1.4 3.62-.71Zm5.05 58.51c5.16 1.51 9.36 6.64 8.63 10.56-.3 1.64-2.88 3.7-5.34 4.26l-.6.14v-3.05c0-2.88-.02-3.07-.56-3.64a1.95 1.95 0 0 0-2.88 0c-.5.54-.57.83-.64 3.12-.1 3.33-.14 3.55-1.11 4-.69.33-.9.33-1.56.07-1.09-.45-1.4-1.42-1.4-4.3 0-2.16-.04-2.46-.52-2.96-.73-.78-2.05-.73-2.8.07-.55.57-.58.76-.58 3.64v3.05l-.59-.14c-2.5-.57-5-2.55-5.34-4.2-.42-2.3.62-4.88 2.84-7.12a12.15 12.15 0 0 1 9.03-3.88c1.27 0 2.64.14 3.42.38Zm72.56 0c4.32 1.28 8.27 5.25 8.65 8.72.19 1.66-.1 2.67-1.14 3.78a9.8 9.8 0 0 1-4.23 2.32l-.59.14v-3.05c0-2.88-.02-3.07-.57-3.64a2 2 0 0 0-2.78-.1c-.5.48-.55.72-.55 2.96 0 2.9-.3 3.88-1.4 4.33-.66.26-.87.26-1.55-.07-.97-.45-1.02-.67-1.11-4-.07-2.3-.15-2.58-.64-3.12a1.95 1.95 0 0 0-2.88 0c-.55.57-.57.76-.57 3.64l.02 3.05-.61-.14a9.88 9.88 0 0 1-4.35-2.48c-1.35-1.56-1.42-3.53-.24-5.94 1.28-2.67 4.26-5.17 7.35-6.21a14 14 0 0 1 7.19-.19Z"/><path d="M123.42 170.16c-2.27.59-3.36 1.13-3.78 1.89-.64 1.13.33 2.81 1.63 2.81.35 0 1.25-.21 2.03-.5.78-.28 2.3-.54 3.45-.6 3.45-.22 5.15.72 6.5 3.63a6 6 0 0 0 1.25 1.96c.8.43 1.66.26 2.41-.47.88-.88.83-1.58-.19-3.66a9.78 9.78 0 0 0-5.98-5.18c-1.77-.52-5.12-.47-7.32.12Zm39.04-.14c-3.24.99-6.31 4.4-6.64 7.32-.1.88-.03 1.11.5 1.63 1.18 1.19 2.86.57 3.47-1.27a7.33 7.33 0 0 1 3.19-3.57c1.32-.62 4.02-.6 6.14.05 2.7.8 3.31.82 4 .11.61-.59.78-1.53.47-2.38-.21-.55-1.63-1.2-3.78-1.78-2.15-.54-5.8-.61-7.35-.11Zm-20.04 12.03c-2.1 1.01-3.2 3.04-2.67 5.05.19.8.7 1.54 2.15 3.1a28.93 28.93 0 0 0 2.79 2.62l.9.6.02 3.54c0 3.24-.05 3.66-.52 4.6-.3.57-.83 1.24-1.16 1.5-1.3.94-3.4.94-4.68 0-1.25-.95-1.51-1.59-1.68-4-.14-2-.2-2.34-.68-2.72-.9-.73-2.06-.66-2.79.17-.47.52-.54.85-.54 2.7 0 2.69.59 4.37 2.1 5.97a7.96 7.96 0 0 0 11.2.64l.8-.69.53.55a8.88 8.88 0 0 0 4.08 2.03 7.97 7.97 0 0 0 7.3-2.53c1.52-1.6 2.11-3.28 2.11-5.98 0-1.84-.07-2.17-.52-2.7-.76-.82-1.91-.89-2.81-.16-.47.38-.55.71-.69 2.72-.16 2.41-.42 3.05-1.68 4a4.22 4.22 0 0 1-4.67 0 5.21 5.21 0 0 1-1.14-1.5c-.5-.94-.54-1.36-.54-4.6l.02-3.55.9-.59c.47-.33 1.72-1.51 2.79-2.62 1.44-1.56 1.96-2.3 2.15-3.1.45-1.72-.3-3.5-1.94-4.63-.92-.64-.92-.64-5.67-.68-3.71-.05-4.92 0-5.46.26Zm9 3.94c.22.36-3.23 3.76-3.8 3.76-.57 0-4.02-3.4-3.8-3.76.11-.16 1.32-.26 3.8-.26 2.48 0 3.69.1 3.8.26Z"/></g></svg>