<svg xmlns="http://www.w3.org/2000/svg" viewBox="0 0 507 351" data-guides="{&quot;vertical&quot;:[],&quot;horizontal&quot;:[]}"><defs><linearGradient id="a" x1="295.982" x2="291.999" y1="117.88" y2="117.88" gradientUnits="userSpaceOnUse"><stop offset="0" stop-color="hsl(344.448,78.03%,66.08000000000001%)" transform="translate(-5000 -5000)"/><stop offset="1" stop-color="hsl(330.156,81.03%,50.39%)" transform="translate(-5000 -5000)"/></linearGradient></defs><path fill="#FAF7F5" d="M342.28 28.32c-74.12 6.4-148.25 12.8-222.37 19.22-72.2 6.25-125.66 69.88-119.41 142.1 6.25 72.26 69.83 125.75 142.02 119.5l222.41-19.26c72.19-6.25 125.64-69.88 119.41-142.12-6.26-72.24-69.85-125.74-142.06-119.44Z"/><path fill="#FFFEF1" d="M139.28 323.5c4.22 10.19-.8 21.94-11.17 26.26-10.37 4.33-22.22-.48-26.44-10.7-4.22-10.2.8-21.94 11.17-26.26s22.22.5 26.44 10.7Z"/><path fill="#28AFC9" d="M118.36 336.63a20.68 20.68 0 0 1-21.08-12.59 20.38 20.38 0 0 1 .13-15.86 21 21 0 0 1 30.8-9.36 21 21 0 0 1 7.77 9.22 20.84 20.84 0 0 1-11.46 27.07 21.07 21.07 0 0 1-6.16 1.52Zm-2.68-32.53a12.47 12.47 0 0 0-10.3 7.48 11.73 11.73 0 0 0-.08 9.18 12.27 12.27 0 1 0 10.38-16.63v-.03Z"/><path fill="#FFFEF1" d="M443.55 43.44c18.08-11.84 41.41-8.16 52.13 8.21 10.71 16.38 4.75 39.26-13.34 51.1-18.08 11.84-41.41 8.16-52.13-8.2-10.71-16.37-4.74-39.26 13.34-51.1Z"/><path fill="#28AFC9" d="M451.98 119.85c-13.39 1.23-26.53-4.23-33.89-15.48-10.98-16.8-5.01-40.24 13.32-52.24a41.39 41.39 0 0 1 29.13-6.52c10.14 1.6 18.68 7 24.04 15.2 5.37 8.2 6.9 18.2 4.3 28.13a41.43 41.43 0 0 1-17.62 24.1 42.24 42.24 0 0 1-19.28 6.8Zm-15.82-60.47c-14.33 9.4-19.18 27.44-10.8 40.23 8.36 12.8 26.8 15.56 41.15 6.17a32.8 32.8 0 0 0 13.99-19.04c1.96-7.53.84-15.06-3.18-21.18-4-6.13-10.44-10.17-18.12-11.38a32.8 32.8 0 0 0-23.04 5.2Z"/><path fill="#FFFEF1" d="m63.83 50.86-17.6 4.03a14.45 14.45 0 0 0-10.88 17.32l5.15 22.56a14.48 14.48 0 0 0 17.32 10.9c5.86-1.35 11.73-2.7 17.6-4.03 4.2-.96 8.53-1.1 12.78-.43l62.77 9.87-23.17-101.54-52.25 36.16a33.78 33.78 0 0 1-11.72 5.16Z"/><path fill="#EB4D86" d="m156.63 116.37-69.1-10.88c-3.71-.58-7.5-.45-11.17.39l-17.6 4.02a18.81 18.81 0 0 1-22.5-14.15l-5.15-22.57a18.85 18.85 0 0 1 14.14-22.52l17.6-4.02a29.43 29.43 0 0 0 10.24-4.47l57.52-39.85 26.02 114.05Zm-77.18-19.76a37.7 37.7 0 0 1 9.43.3l56.45 8.9-20.32-89.06-47 32.55a37.9 37.9 0 0 1-13.22 5.84l-17.6 3.98a10.14 10.14 0 0 0-7.62 12.13l5.15 22.56a10.14 10.14 0 0 0 12.12 7.62l17.6-4.02c1.65-.37 3.32-.64 5-.8Z"/><path fill="#FAF7F5" d="m35.02 70.78-4.23.97a8.66 8.66 0 0 0-6.53 10.4l1.94 8.5a8.68 8.68 0 0 0 10.39 6.5l4.22-.96-5.8-25.4Z"/><path fill="#28AFC9" d="M35.84 101.66a13.03 13.03 0 0 1-13.87-10.07l-1.93-8.46a13.03 13.03 0 0 1 9.79-15.6l8.45-1.92 7.72 33.85-8.45 1.94c-.56.12-1.14.21-1.71.26Zm-4.08-25.64a4.35 4.35 0 0 0-3.26 5.2l1.93 8.46a4.36 4.36 0 0 0 5.2 3.27c-1.3-5.64-2.59-11.29-3.87-16.93Z"/><path fill="#fff" d="m56.39 105.98 5.8 25.4a13.03 13.03 0 1 0 25.38-5.8l-5.8-25.4-25.38 5.8Z"/><path fill="#F6A6BF" d="M76.45 145.76a17.36 17.36 0 0 1-18.5-13.42c-2.26-9.87-4.5-19.75-6.75-29.62l33.82-7.73 6.75 29.62a17.39 17.39 0 0 1-15.32 21.15Zm-14.86-36.52 4.82 21.15a8.68 8.68 0 0 0 16.92-3.86l-4.83-21.15-16.91 3.86Z"/><path fill="#FAF7F5" d="M75.97 74.8a85.36 85.36 0 0 1-1.9-28.2 33.63 33.63 0 0 1-10.24 4.26l-17.6 4.03a14.45 14.45 0 0 0-10.88 17.32l5.16 22.56a14.48 14.48 0 0 0 17.31 10.9c5.86-1.35 11.73-2.7 17.6-4.03a34 34 0 0 1 11.11-.63 85.56 85.56 0 0 1-10.56-26.21Z"/><path fill="#F6A6BF" d="M56.27 110.3a18.8 18.8 0 0 1-20.02-14.55l-5.15-22.57a18.85 18.85 0 0 1 14.13-22.53l17.6-4.01c3.18-.74 6.2-2 8.97-3.73l7.58-4.7-.99 8.88c-.89 8.95-.3 18 1.76 26.75a81.4 81.4 0 0 0 10 24.87l4.73 7.57-8.87-.94c-3.23-.36-6.5-.18-9.68.54l-17.6 4.02a19 19 0 0 1-2.46.4Zm13.05-56.55c-1.48.55-3 1-4.54 1.35l-17.6 4.02a10.14 10.14 0 0 0-7.61 12.13l5.15 22.56a10.14 10.14 0 0 0 12.12 7.62l17.6-4.02c1.54-.35 3.1-.6 4.67-.75a96.52 96.52 0 0 1-9.79-42.91Z"/><path fill="#fff" d="M171.96 52.87c6.93 30.4-.94 58.09-17.56 61.88-16.61 3.8-35.74-17.74-42.67-48.12s.93-58.09 17.56-61.89c16.62-3.8 35.74 17.75 42.67 48.13Z"/><path fill="#F6A6BF" d="M152.5 119.44c-18.45 1.7-37.82-20.25-45.02-51.84-3.54-15.39-3.54-30.7 0-43.03 3.78-13.28 11.18-21.81 20.84-24.02 19.29-4.42 40.29 18.15 47.87 51.38 3.53 15.4 3.53 30.71 0 43.07-3.78 13.28-11.18 21.81-20.83 24.02-.95.2-1.9.35-2.86.42Zm-20.54-110.74c-.57.06-1.15.15-1.71.28-6.44 1.47-11.56 7.84-14.42 17.93-3.12 11-3.09 24.76.1 38.78 6.29 27.52 23.47 48.05 37.49 44.86 6.43-1.47 11.55-7.84 14.42-17.94 3.13-11 3.08-24.76-.11-38.78-6.02-26.41-22.08-46.4-35.77-45.13Z"/><path fill="#F6A6BF" d="M157.97 56.06c4.63 20.26 1.15 38.32-7.77 40.36-8.92 2.04-19.89-12.73-24.51-33-4.63-20.28-1.14-38.33 7.77-40.36 8.91-2.04 19.9 12.75 24.51 33Z"/><path fill="#F6A6BF" d="M149.6 100.9c-5.6.52-11.51-2.98-16.74-10.02-4.99-6.7-9.03-16.1-11.4-26.46-2.36-10.36-2.8-20.6-1.24-28.8 1.82-9.42 6.17-15.39 12.26-16.76 6.1-1.37 12.6 2.08 18.3 9.77 5 6.7 9.03 16.1 11.4 26.46 5.33 23.32.58 42.9-11.03 45.56-.51.12-1.03.2-1.55.26Zm-14.77-73.65c-.13 0-.27.02-.4.04-2.42.55-4.6 4.36-5.67 9.94-1.36 7.04-.95 16 1.16 25.22 2.1 9.22 5.61 17.47 9.9 23.22 3.38 4.56 6.99 7.05 9.4 6.5 4.84-1.11 9.05-15.37 4.52-35.17-2.1-9.22-5.62-17.47-9.9-23.23-3.2-4.28-6.6-6.74-9.01-6.52Z"/><path fill="#fff" d="M152.81 55.93a19.68 19.68 0 0 0-20.32-15.28 19.64 19.64 0 0 0-8.74 2.64 75.91 75.91 0 0 0 1.97 20.15 78.52 78.52 0 0 0 5.63 16.4 19.64 19.64 0 0 0 21.49-23.92h-.03Z"/><path fill="#F6A6BF" d="M135.9 84.23c-1.7.15-3.4.13-5.08-.08l-2.37-.27-1.03-2.15a82.25 82.25 0 0 1-5.96-17.32 80.3 80.3 0 0 1-1.96-23.68l2.04-1.2a24.02 24.02 0 0 1 35.5 15.43 24.07 24.07 0 0 1-18.07 28.8c-1.01.22-2.04.38-3.07.47Zm-1.73-8.59a15.33 15.33 0 0 0 12.57-23.32 15.34 15.34 0 0 0-18.75-6.3 73.8 73.8 0 0 0 1.93 16.46 77.15 77.15 0 0 0 4.25 13.16Z"/><path fill="#EB4D86" d="m321.88 321.2-86.42 7.48a4.33 4.33 0 1 1-.8-8.65l86.42-7.48a4.33 4.33 0 1 1 .8 8.64Z"/><path fill="#F6A6BF" d="M76.4 313.41a4.3 4.3 0 0 1-2.81-.7 135.76 135.76 0 0 1-42.37-179.74 4.34 4.34 0 1 1 7.53 4.29 127.04 127.04 0 0 0 39.66 168.23 4.33 4.33 0 0 1-2.02 7.95l.01-.03Z"/><path fill="#FFFEF1" d="M400.04 56.84c-.44.04-.9.02-1.33-.08a126.51 126.51 0 0 0-38.19-2.46 4.34 4.34 0 0 1-.8-8.64c13.66-1.2 27.42-.31 40.8 2.62a4.34 4.34 0 0 1-.48 8.56Z"/><path fill="#F6A6BF" d="m383.91 315.82-.76.07-27.28 2.36a4.34 4.34 0 0 1-.8-8.64l27.28-2.36.7-.07c69.33-6.4 120.74-67.86 114.72-137.36a126.36 126.36 0 0 0-13.95-47.92 4.35 4.35 0 0 1 7.69-4.02 135.1 135.1 0 0 1 14.98 51.16c6.45 74.27-48.51 139.94-122.58 146.78Z"/><path fill="#241D50" clip-rule="evenodd" fill-rule="evenodd" d="M275.37 119.28v.26a.25.25 0 0 1 0-.26Zm.03.26c1.35 2.04 35.83-3.9 35.83-3.9s18.92 32.76 2.92 67.81c-10.96 22.84-20.17 37.75-18.82 63.47 10.4 2.14 9.54 9.67 2.97 9.37-1.23 0-7.23.1-8.08.03-8.03-.71-2.85-33.54-.98-43.8.4-1.9.57-3.06.57-3.06l-.57 3.05c-1.6 7.55-6.93 27.06-20.65 34.2 1.02-.57 6.34-.2 9.97 1.49 6.89 3.21 11.6 9.15-3.4 8.09-18.69.43-36.68-.04-36.68-.04s-49.49-26.57-6.91-70.21c21.53-22.07 48.66-9.62 43.82-66.5Z"/><path fill="#241D50" clip-rule="evenodd" fill-rule="evenodd" d="M289.24 212.54c.34-1.91.57-3.05.57-3.05Z"/><path fill="#2A2460" d="M183.1 130.46c23.03 7.14 29.75 41.56 34.25 91.07.64 7.01 3.88 28.2 25.93 33.82l-.22.53c-30.59 2.86-43.8-25.87-45.68-51.06-3.41-37.5-8.16-62.52-28.39-56.03-8.8 3.9-13.5-26.43 14.1-18.33Z"/><path fill="#2A2460" clip-rule="evenodd" fill-rule="evenodd" d="M252.2 92.03c5.94.68 16.23 2.03 17.33 3.37 8.85-10.42 26.56-11.31 31.66-11.34l21.85-18.37a2.6 2.6 0 0 1 4.22 1.48c1.49 7.55 4.41 22.44 4.17 22.89 25.16 36.73-24.08 53.79-43.49 52-22.68-4.35-27.98-11.89-30.62-19.27-3.04-8.57-1.8-10.08-1.8-10.08l-6.09-17.13a2.65 2.65 0 0 1 2.77-3.55Z"/><path fill="#fff" d="M289.1 124.87c1.97.89 3.38 1 3.97.32.71-.82.36-2.61.13-3.15l-.12-.15a.71.71 0 0 1 0-.87.71.71 0 0 1 .84-.27c.21.1.38.26.49.46 1.42 1.85 2.9 2.7 4.27 2.54 3.27-.37 5.64-5.79 5.64-5.86a.74.74 0 0 1 .4-.38.72.72 0 0 1 .94.4.72.72 0 0 1-.01.55c-.1.26-2.7 6.24-6.77 6.74a5.15 5.15 0 0 1-3.95-1.34 3.38 3.38 0 0 1-1.17 2.64 3.6 3.6 0 0 1-2.9.47 11.1 11.1 0 0 1-2.36-.79.7.7 0 0 1-.38-.4.7.7 0 0 1 .01-.56.7.7 0 0 1 .41-.38.72.72 0 0 1 .56.03Z"/><path fill="url(#a)" clip-rule="evenodd" fill-rule="evenodd" d="M292 116.39c-.14 0 8.03-6.68 1.37 4.9Z"/><path fill="#fff" clip-rule="evenodd" fill-rule="evenodd" d="M348.38 103.97c-.91-.18-14.78-1.37-30.62 9.53Zm.76 11.13c-.79-.43-13.14-5.6-30.68-.25Zm-72.29 10.6c-14.08 1.2-21.18 8.65-21.07 8.64Zm.22 1.06c-12.49 5.18-16.82 14.09-16.72 14.05Zm46.71-55.02c3.62.68 1.38 15.85 1.38 15.85a26.1 26.1 0 0 0-14.43-4.43s9.43-12.09 13.05-11.42Zm-67.46 25.24c2.42-.71 9.97 2.14 9.97 2.14-4.77.84-7.58 6.67-7.58 6.67s-4.83-8.11-2.4-8.81Z"/></svg>