<svg viewBox="0 0 225 156" fill="none" xmlns="http://www.w3.org/2000/svg"><path d="m156.82 21.94-98.55-.58c-32-.18-58.09 25.82-58.27 58.07-.18 32.27 25.61 58.56 57.6 58.75l98.58.56c32 .18 58.08-25.82 58.27-58.08.17-32.26-25.62-58.56-57.63-58.72Z" fill="#FAF7F5"/><path d="M55.6 144.4a9 9 0 0 1-5.97 11.18 8.88 8.88 0 0 1-11.2-5.82 9 9 0 0 1 5.98-11.17 8.89 8.89 0 0 1 11.2 5.81Z" fill="#FFFEF1"/><path d="M45.87 149.37a9.09 9.09 0 0 1-8.76-6.44 9.14 9.14 0 0 1 .7-7.02 9.3 9.3 0 0 1 8.98-4.88 9.22 9.22 0 0 1 7.98 6.4 9.3 9.3 0 0 1-.7 7.03 9.2 9.2 0 0 1-8.2 4.9Zm.14-14.53a5.47 5.47 0 0 0-1.04 10.83 5.37 5.37 0 0 0 5.32-2.05 5.48 5.48 0 0 0-4.28-8.76v-.02Z" fill="#28AFC9"/><path d="M200.74 32.78c8.43-4.5 18.54-1.93 22.59 5.77 4.04 7.7.5 17.58-7.94 22.09-8.43 4.5-18.54 1.92-22.59-5.77-4.04-7.69-.5-17.58 7.94-22.1Z" fill="#FFFEF1"/><path d="M201.35 66.97c-5.94 0-11.5-2.96-14.28-8.24-4.14-7.9-.57-18.03 7.98-22.6 4-2.19 8.66-2.79 13.07-1.7a15.33 15.33 0 0 1 9.96 7.72c2.02 3.85 2.3 8.34.75 12.64a18.4 18.4 0 0 1-8.73 9.96 18.54 18.54 0 0 1-8.75 2.22Zm-4.5-27.43c-6.69 3.57-9.55 11.37-6.4 17.38 3.17 6 11.17 7.99 17.86 4.41a14.55 14.55 0 0 0 6.92-7.86c1.17-3.25.98-6.64-.54-9.51a11.54 11.54 0 0 0-7.5-5.78 14.4 14.4 0 0 0-10.35 1.36Z" fill="#28AFC9"/><path d="m33.47 20.54-7.9 1.06a6.35 6.35 0 0 0-5.32 4.73 6.49 6.49 0 0 0-.16 2.5l1.35 10.2a6.47 6.47 0 0 0 4.68 5.38c.81.22 1.66.27 2.49.16l7.9-1.06c1.88-.25 3.8-.14 5.64.33l27.2 6.94-6.07-45.93-24.45 13.88a14.84 14.84 0 0 1-5.36 1.8Z" fill="#FFFEF1"/><path d="m71.63 53.35-29.95-7.64c-1.6-.41-3.28-.51-4.92-.29l-7.9 1.06a8.26 8.26 0 0 1-6.14-1.65 8.4 8.4 0 0 1-3.19-5.53l-1.35-10.21c-.28-2.2.3-4.42 1.64-6.19a8.3 8.3 0 0 1 5.5-3.21l7.9-1.06a13.2 13.2 0 0 0 4.68-1.56l26.9-15.3 6.83 51.58Zm-33.14-11.9c1.4 0 2.78.17 4.13.52l24.46 6.25-5.32-40.3-21.99 12.5a16.68 16.68 0 0 1-6.05 2.05l-7.9 1.04a4.47 4.47 0 0 0-3.84 5.07l1.35 10.2a4.52 4.52 0 0 0 5.02 3.88l7.9-1.07c.74-.1 1.49-.15 2.24-.15Z" fill="#EB4D86"/><path d="m20 28.19-1.9.25a3.8 3.8 0 0 0-3.2 2.83 4 4 0 0 0-.1 1.5l.51 3.85a3.87 3.87 0 0 0 4.3 3.31l1.9-.25-1.51-11.5Z" fill="#FAF7F5"/><path d="M19.1 41.9a5.72 5.72 0 0 1-5.68-5.03l-.5-3.83a5.84 5.84 0 0 1 2.8-5.77 5.71 5.71 0 0 1 2.13-.73l3.8-.51 2.02 15.3-3.8.52c-.25.03-.5.05-.76.05Zm-.75-11.53a1.9 1.9 0 0 0-1.6 1.42c-.06.25-.08.5-.04.75l.5 3.83a1.94 1.94 0 0 0 2.15 1.66l-1-7.66Z" fill="#28AFC9"/><path d="m27.97 44.65 1.52 11.49a5.83 5.83 0 0 0 4.22 4.83 5.7 5.7 0 0 0 6.05-2.08 5.81 5.81 0 0 0 1.13-4.28l-1.53-11.49-11.4 1.53Z" fill="#fff"/><path d="M35.18 63.1a7.63 7.63 0 0 1-5.05-1.92 7.75 7.75 0 0 1-2.55-4.79l-1.76-13.4 15.18-2.04 1.77 13.4a7.78 7.78 0 0 1-1.51 5.71 7.65 7.65 0 0 1-6.08 3.04Zm-5.06-16.8 1.27 9.58a3.87 3.87 0 0 0 4.29 3.25 3.82 3.82 0 0 0 3.3-4.27l-1.27-9.57-7.59 1.02Z" fill="#F6A6BF"/><path d="M37.84 31.64c-.59-4.18-.48-8.43.31-12.57a14.77 14.77 0 0 1-4.68 1.47l-7.9 1.06a6.35 6.35 0 0 0-5.32 4.73 6.49 6.49 0 0 0-.16 2.5l1.35 10.2a6.47 6.47 0 0 0 4.68 5.38c.81.22 1.66.27 2.49.16l7.9-1.06a14.9 14.9 0 0 1 4.91.17 38.28 38.28 0 0 1-3.58-12.04Z" fill="#FAF7F5"/><path d="M27.74 46.56c-2 0-3.95-.74-5.46-2.08a8.4 8.4 0 0 1-2.75-5.19l-1.35-10.2c-.29-2.2.3-4.43 1.64-6.19a8.3 8.3 0 0 1 5.49-3.21l7.9-1.06c1.42-.2 2.8-.64 4.1-1.29l3.51-1.77-.79 3.9a36.54 36.54 0 0 0-.3 11.92 36.17 36.17 0 0 0 3.38 11.42l1.77 3.55-3.86-.78a12.8 12.8 0 0 0-4.28-.16l-7.9 1.06c-.37.05-.73.08-1.1.08Zm8.03-24.52c-.67.18-1.36.32-2.05.41l-7.9 1.06a4.47 4.47 0 0 0-3.84 5.07l1.35 10.2a4.52 4.52 0 0 0 5.02 3.88l7.9-1.07c.7-.09 1.4-.14 2.09-.14a43.24 43.24 0 0 1-2.57-19.4Z" fill="#F6A6BF"/><path d="M80.94 25.85c1.81 13.75-2.77 25.7-10.23 26.7-7.46 1-15-9.33-16.81-23.07-1.82-13.74 2.76-25.7 10.23-26.7 7.46-1 15 9.33 16.8 23.07Z" fill="#fff"/><path d="M69.68 54.55c-8.18 0-15.8-10.52-17.7-24.81-.92-6.96-.3-13.75 1.76-19.06 2.2-5.73 5.8-9.21 10.13-9.8 8.66-1.16 16.98 9.7 18.96 24.73.93 6.96.31 13.75-1.74 19.08-2.2 5.73-5.8 9.2-10.13 9.79-.43.05-.85.07-1.28.07Zm-4.54-49.9c-.25 0-.51.01-.76.05-2.9.39-5.4 3-7.07 7.35-1.82 4.75-2.36 10.85-1.53 17.19 1.65 12.45 8.37 22.24 14.67 21.4 2.89-.38 5.4-3 7.07-7.35 1.82-4.75 2.36-10.85 1.52-17.19-1.58-11.95-7.83-21.45-13.9-21.45Z" fill="#F6A6BF"/><path d="M74.66 26.7c1.21 9.15-1.05 17.02-5.06 17.55-4 .54-8.22-6.45-9.44-15.62-1.2-9.17 1.06-17.03 5.06-17.56 4-.54 8.23 6.46 9.44 15.62Z" fill="#F6A6BF"/><path d="M69.16 46.22c-2.48 0-4.94-1.8-6.96-5.13-1.92-3.17-3.31-7.5-3.93-12.19-.62-4.69-.4-9.24.62-12.81 1.18-4.1 3.33-6.56 6.07-6.92 2.73-.36 5.45 1.44 7.65 5.08 1.92 3.17 3.32 7.5 3.94 12.18 1.4 10.55-1.49 19.03-6.7 19.74-.23.03-.46.04-.7.05Zm-3.51-33.24h-.18c-1.09.15-2.2 1.74-2.9 4.17-.88 3.07-1.06 7.05-.5 11.22.54 4.17 1.75 7.97 3.4 10.7 1.3 2.16 2.8 3.4 3.88 3.26 2.17-.3 4.6-6.44 3.4-15.4-.54-4.17-1.76-7.97-3.4-10.69-1.23-2.03-2.64-3.26-3.7-3.26Z" fill="#F6A6BF"/><path d="M72.4 26.42a8.8 8.8 0 0 0-4.44-6.53 8.62 8.62 0 0 0-7.83-.26c-.39 3-.37 6.02.05 9a34.9 34.9 0 0 0 1.8 7.5 8.6 8.6 0 0 0 7.72-2.13 8.76 8.76 0 0 0 2.7-7.58Z" fill="#fff"/><path d="M63.81 38.27c-.75 0-1.5-.09-2.23-.24l-1.03-.22-.37-1a36.86 36.86 0 0 1-1.91-7.92 36 36 0 0 1-.05-9.53l.14-1.04.95-.45a10.54 10.54 0 0 1 13.22 3.66 10.75 10.75 0 0 1-.33 12.54 10.6 10.6 0 0 1-8.39 4.2Zm-.41-3.88a6.72 6.72 0 0 0 6.68-4.3 6.88 6.88 0 0 0-4.4-9.07 6.72 6.72 0 0 0-3.8 0 34.54 34.54 0 0 0 1.52 13.37Z" fill="#F6A6BF"/><path d="m135.98 150.85-38.3-.22a1.9 1.9 0 0 1-1.91-1.93 1.9 1.9 0 0 1 1.92-1.93l38.3.22c.5 0 .99.2 1.35.56a1.94 1.94 0 0 1-1.36 3.3Z" fill="#EB4D86"/><path d="M28.36 137.37a1.9 1.9 0 0 1-1.2-.44 60.75 60.75 0 0 1-11.35-81.36 1.92 1.92 0 0 1 1.99-.8 1.9 1.9 0 0 1 1.48 1.57 1.95 1.95 0 0 1-.33 1.45 56.85 56.85 0 0 0 10.62 76.15 1.93 1.93 0 0 1-1.21 3.44v-.01Z" fill="#F6A6BF"/><path d="M181.07 36.93c-.2 0-.4-.03-.59-.09a55.48 55.48 0 0 0-16.69-2.65c-.5 0-1-.2-1.35-.56a1.94 1.94 0 0 1 1.35-3.3 59.4 59.4 0 0 1 17.83 2.83 1.92 1.92 0 0 1 1.32 2.13 1.94 1.94 0 0 1-1.87 1.64Z" fill="#FFFEF1"/><path d="M163.48 151h-.34l-12.1-.06a1.94 1.94 0 0 1 0-3.86l12.1.06h.3c30.75 0 55.85-25.12 56.02-56.16a56.6 56.6 0 0 0-4.2-21.8 1.95 1.95 0 0 1 1.06-2.5 1.9 1.9 0 0 1 2.49 1.03 60.51 60.51 0 0 1 4.51 23.28c-.17 33.17-27 60.02-59.84 60.02Z" fill="#F6A6BF"/><path fill-rule="evenodd" clip-rule="evenodd" d="m123.72 59.5-.02.11a.12.12 0 0 1 .02-.11Zm.97 1.38c.45.96 15.15.59 15.15.59s6 15.16-2.7 29.1c-5.9 9.06-10.6 14.84-11.52 25.9 4.21 1.56 3.42 4.72.7 4.18-.52-.08-3.03-.4-3.38-.5-3.3-.8.76-14.48 2.14-18.74.27-.79.4-1.27.4-1.27l-.4 1.27c-1.1 3.12-4.46 11.1-10.59 13.3.46-.18 2.65.3 4.07 1.25 2.68 1.8 4.3 4.63-1.89 3.24-7.8-.99-15.28-2.31-15.28-2.31s-19.08-14.44 1.19-30.39c10.25-8.06 20.83-1.05 22.1-25.62Z" fill="#241D50"/><path fill-rule="evenodd" clip-rule="evenodd" d="m126.03 101.37.38-1.3s-.13.49-.38 1.3Z" fill="#241D50"/><path d="M84.26 61.12c9.1 4.52 9.9 19.7 8.92 41.22-.14 3.05-.01 12.34 8.77 16.14l-.12.21c-12.8-.7-16.61-13.85-15.94-24.78.74-16.3.22-27.33-8.51-25.81-3.86 1.12-4.06-12.2 6.88-6.98Z" fill="#2A2460"/><path fill-rule="evenodd" clip-rule="evenodd" d="M115.48 45.9c2.48.65 6.77 1.85 7.15 2.48 4.37-3.83 11.94-3.12 14.1-2.82l10.34-6.36a1.11 1.11 0 0 1 1.1-.05 1.12 1.12 0 0 1 .6.92c.2 3.26.57 9.69.44 9.86 8.53 16.95-13.35 21.09-21.49 19.15-9.36-3.21-11.18-6.7-11.86-9.96-.8-3.78-.18-4.34-.18-4.34l-1.58-7.56a1.1 1.1 0 0 1 .81-1.31c.19-.05.38-.05.57 0Z" fill="#2A2460"/><path d="M129.56 62.3c.8.49 1.4.62 1.68.37.36-.29.31-1.05.24-1.28l-.04-.07a.29.29 0 0 1 .05-.35c.04-.05.1-.09.18-.1.07 0 .14 0 .2.03.08.06.14.13.18.22.5.85 1.09 1.28 1.7 1.3 1.42.04 2.75-2.04 2.75-2.07a.32.32 0 0 1 .09-.09.32.32 0 0 1 .35-.01.3.3 0 0 1 .14.18v.12a.3.3 0 0 1-.04.11c-.05.1-1.52 2.4-3.3 2.36a2.34 2.34 0 0 1-1.62-.78 1.34 1.34 0 0 1-.66 1.01 1.61 1.61 0 0 1-1.27.02 4.8 4.8 0 0 1-1.06-.54.3.3 0 0 1-.06-.22.3.3 0 0 1 .05-.11.3.3 0 0 1 .2-.13.32.32 0 0 1 .24.04Z" fill="#fff"/><path fill-rule="evenodd" clip-rule="evenodd" d="M131.17 58.93c-.06 0 3.8-2.3.3 2.14 0 0-4.57-3.07-.3-2.14Z" fill="url(#a)"/><path fill-rule="evenodd" clip-rule="evenodd" d="M156.42 56.12c-.38-.12-6.34-1.38-13.83 2.09 0 0 7.91-4.82 13.83-2.1Zm-.14 4.54c-.32-.2-5.48-2.77-13.44-1.59 0 0 8.75-2.26 13.44 1.6Zm-32.18 2.09c-6.16-.32-9.66 2.27-9.61 2.27 2.96-3.36 9.61-2.27 9.61-2.27Zm.06.47c-5.6 1.4-7.96 4.87-7.92 4.86 1.66-4.06 7.92-4.86 7.92-4.86Z" fill="#fff"/><path opacity=".21" fill-rule="evenodd" clip-rule="evenodd" d="M146.96 40.7c1.49.5-.34 6.78-.34 6.78a11.17 11.17 0 0 0-5.82-2.77s4.68-4.53 6.16-4.02Zm-30.57 8.15c1.07-.15 4.1 1.5 4.1 1.5-2.06.07-3.6 2.34-3.6 2.34s-1.58-3.7-.5-3.84Z" fill="#fff"/><defs><linearGradient id="a" x1="132.773" y1="59.803" x2="129.304" y2="59.32" gradientUnits="userSpaceOnUse"><stop stop-color="#EC6588"/><stop offset="1" stop-color="#E71A80"/></linearGradient></defs></svg>