<svg viewBox="0 0 300 285" fill="none" xmlns="http://www.w3.org/2000/svg"><path fill-rule="evenodd" clip-rule="evenodd" d="M150.14 40.94c26.87 2.77 49.33-27.61 76.06-23.7 28.94 4.25 67.74 16.85 73.22 45.58 6.27 32.88-40.08 53.7-48.09 86.2-5.32 21.61 23.13 46.13 10.91 64.73-12.48 19-45.31 5.52-64.76 17.29-20.09 12.16-25.02 43.25-47.34 50.56-22.72 7.44-50.57 2.39-69.4-12.34-18.66-14.58-15.52-43.88-28.14-63.91-13.34-21.17-40.14-32.46-47.63-56.33-8.27-26.33-5.83-55.65 4.44-81.27 10.95-27.34 26.12-61.66 55.04-67.18 31.55-6 53.74 37.07 85.69 40.37Z" fill="#F9EAEF" fill-opacity=".3"/><path d="M121.7 107.48c-7.03 8.31-4.63 22.77 4.71 28.36 11.83 7.06 24.77-4 22.1-18.84-.59-3.15-.85-3.76-3.32-7.3-2.4-3.42-2.97-3.99-5.28-5.3a15.78 15.78 0 0 0-9.6-1.8c-2.4.31-6.84 2.85-8.6 4.88Zm10.55 2.52c2.92.02 4.65.81 6.45 2.98 6.67 8.1.42 20.89-8.18 16.67-8.15-3.97-6.78-19.59 1.73-19.65Zm-52.86 28.09c-1.7 2.45-2.59 7.25-2.02 10.69.43 2.61.77 3.34 3.17 6.76 2.47 3.54 2.96 4 5.72 5.61 6.15 3.6 13.3 3.74 18.7.36 3.66-2.28 5.46-4.74 6.34-8.67 2.06-9.35-4.95-18.8-15.38-20.77-4.83-.91-8.4-.25-12.3 2.31a15.23 15.23 0 0 0-4.23 3.7Zm11.7 1.14c4.17-.52 8.2 1.18 11.06 4.61 6.78 8.25-2.85 16.54-12.45 10.73-3.9-2.37-6.1-7.19-4.82-10.71.88-2.34 3.5-4.28 6.2-4.63Zm69.83-20.63c-4 4.75-5.54 10.06-4.53 16.05.56 3.68.78 4.15 3.04 7.38 2.02 2.88 2.81 3.7 4.55 4.66a15.64 15.64 0 0 0 9.4 1.83c2.36-.28 3.08-.62 6.27-2.85 3.38-2.36 3.66-2.68 5.38-5.89 6.86-12.8-1.72-28.1-14.61-26.22a15.27 15.27 0 0 0-9.5 5.04Zm11.24 2.15c3.73.14 6.3 2.29 7.5 6.25 1.87 6.02-2.13 13.4-7.7 14.15-5.44.78-9.49-4.92-8.27-11.72.83-4.65 4.9-8.82 8.47-8.68Zm-95.08 58.68a14.15 14.15 0 0 0-2.55 10.82c.42 2.51.8 3.39 2.8 6.23 2.1 3 2.56 3.42 5.75 5.19 12.9 7.22 28.09-1.35 26.28-14.8-.29-2.31-.63-3.05-2.89-6.27-2.27-3.16-2.9-3.82-5.18-5.08-5.3-3.03-12.19-3.6-17.4-1.38a14.6 14.6 0 0 0-6.81 5.29Zm12.42.8c5.79-.9 11.92 2.98 12.63 7.99.3 2.25-1.26 5.46-3.36 6.93-4.5 3.15-12.64 1.52-15.9-3.13-1.47-2.11-1.49-5.65 0-8 .87-1.47 4.3-3.42 6.63-3.79Zm34.44-20.68c-4 4.81-5.96 12.41-4.77 18.97.62 3.69.6 3.81-1.16 7.05a20.78 20.78 0 0 0-2.5 7.53c-2.84 18.3 14.75 32.89 32.02 26.57 5.94-2.15 11.54-7.96 13.63-14l.92-2.76 2.9.08c6.32.16 13.3-2.96 17.63-7.82 7.26-8.23 7.78-20.5 1.3-29.76a24.49 24.49 0 0 0-23.12-9.85c-3.74.56-3.8.54-7.02-1.33-5.84-3.47-14.1-4.15-20.24-1.68-2.8 1.1-7.64 4.66-9.59 7Zm14.3-.57c4.7-1.22 10.7.24 14.58 3.48 2.25 1.85 3.33 2.12 5.87 1.27a16.11 16.11 0 0 1 9.31-.52c4.77 1.07 6.87 2.47 9.8 6.65 2.04 2.92 2.48 3.87 2.95 6.3.74 4 .2 7.47-1.67 10.95-1.44 2.73-1.92 3.23-5 5.39-2.93 2.05-3.75 2.4-6.2 2.8-1.6.2-4.47.1-6.44-.25-4.8-.87-5.67-.26-6.57 4.6a24 24 0 0 1-1.97 6.13c-1.18 2.15-1.78 2.8-4.71 4.85-2.85 2-3.82 2.45-6.18 2.84a15.9 15.9 0 0 1-10.9-1.93c-2.77-1.55-3.26-2-5.47-5.16-2.89-4.21-3.51-6.7-2.9-11.48a16.1 16.1 0 0 1 3.68-8.58c1.67-2.08 1.78-3.2.8-5.95-1.67-4.72-1-10.86 1.61-14.8 1.94-2.9 5.96-5.78 9.42-6.6Z" fill="#fff"/><path d="M184.46 139.6c.02.49.02.97 0 1.44a11.93 11.93 0 0 1-5.28 9.87l-3.22-7.15-10.32-22.9a17.37 17.37 0 0 1-1.3-9.29 12.88 12.88 0 0 1 6.16-9.24 14 14 0 0 1 9.94-1.76c7.07 1.42 6.67 8.12 2.15 9.87-2.75 1.3-4.62 2.99-5.14 5.24-.38 1.63-.06 3.55 1.12 5.84.36.7.72 1.4 1.05 2.1 2.7 5.79 4.65 11.25 4.84 15.98" fill="#8C8CAA"/><path d="M183.1 110.44c-2.76 1.3-4.62 2.99-5.14 5.24-1.02-6.16-8.84-6.95-13.12-4.1a12.88 12.88 0 0 1 6.17-9.25 14 14 0 0 1 8.7-1.94c8.34.85 8.16 8.2 3.39 10.05" fill="#fff"/><path d="M178.97 128.39a22.28 22.28 0 0 0-3.3-4.01 89.94 89.94 0 0 1-2.11-8.7c-.46-2.3-.44-3.93-.08-5.18a6.47 6.47 0 0 1 4.13 3.85c-.09.19-.16.37-.23.57-.67 2-.33 4.33 1.02 6.95a57.8 57.8 0 0 1 1.87 3.9c-.53.82-.97 1.7-1.3 2.62" fill="#626299"/><path d="M177.6 114.35a6.47 6.47 0 0 0-4.12-3.85c.83-2.84 3.39-3.72 5.98-5.72 1.77-1.35 1.87-2.55 1.48-3.44 2.69.58 4.4 2.03 4.66 4.02a4.18 4.18 0 0 1-2.78 4.37l-.05.02c-2.65 1.26-4.35 2.76-5.16 4.6" fill="#B2B2D4"/><path d="M180.01 149.71c-.32-.76-.72-1.49-1.17-2.18l-.07-.1a17.26 17.26 0 0 0 4.64-2.24 10.85 10.85 0 0 1-3.4 4.52Z" fill="#626299"/><path d="M179.68 151.66a.75.75 0 0 1-.71-1 .75.75 0 0 1 .28-.37c6.59-4.63 6.65-12.5.19-26.35-.33-.7-.69-1.4-1.03-2.07-1.36-2.62-1.7-4.95-1.03-6.95.71-2.1 2.47-3.79 5.4-5.17l.04-.02a4.18 4.18 0 0 0 2.78-4.37c-.3-2.3-2.54-3.87-5.98-4.22-2.87-.3-5.79.36-8.22 1.84-5.75 3.5-7.54 10.4-4.55 17.6a.75.75 0 0 1-.16.83.75.75 0 0 1-1.08 0 .75.75 0 0 1-.16-.26c-3.29-7.9-1.26-15.55 5.17-19.46a14.8 14.8 0 0 1 9.16-2.06c4.92.5 7 3.19 7.32 5.53a5.68 5.68 0 0 1-3.7 5.97c-2.52 1.2-4.02 2.6-4.58 4.28-.55 1.61-.24 3.5.93 5.77.35.69.72 1.4 1.06 2.13 3.12 6.69 4.68 11.78 4.9 16.04.28 5.36-1.55 9.34-5.6 12.18a.75.75 0 0 1-.42.13" fill="#000072"/><path d="M153.36 119.56c-.16-.22-4.5-4.86-4.5-4.86l-1.57 1.46-.8 5.5 6.87-2.1" fill="#9191B7"/><path d="M177.52 147.01a.5.5 0 0 1-.05.02l-.17-.29.22.27Z" fill="#8C8CAA"/><path d="M177.52 147.01a.5.5 0 0 1-.05.02l-.17-.29.22.27Z" fill="#8C8CAA"/><path d="M192.63 160.52a15.5 15.5 0 0 1-4.63 2.21l-4.65 2.73c-.2.12-.4.22-.6.32-.57.29-1.16.52-1.77.69-8.31 2.34-19.81 1.74-32.1.42-8.5 1.41-16.26 1.32-23.17-.42a5.24 5.24 0 0 1-.22-.06 7.5 7.5 0 0 1 .44 1.99 2.22 2.22 0 0 1-1.22 1.94c-.2.1-.41.2-.63.29-3.1 1.3-7.23 1.2-11.94.31l-1.25-.25a6.5 6.5 0 0 0-.77-.12c-5.95-.73-8.53-4.58-5.8-13.33l.09-.29 14.44-12.03 27.9-23.26c4.91-1.55 10.93-1.7 16.01 1.22l-.54-.9c2.05-1.38 5.12-1.53 8.3-.17 3.07 1.32 6.25 4.05 8.69 8.43.16-.67.37-1.33.63-1.97a10.54 10.54 0 0 1 3.48-4.63 7.11 7.11 0 0 1 4.72-1.44 4.83 4.83 0 0 1 4.15 2.97 5.72 5.72 0 0 1-.24 4.89l-3.87 7.44-2.02 3.86c-1.97 3.07-5.03 4.67-8.54 5.65l-.22-.27.17.29a.5.5 0 0 0 .05-.02c.26.32.5.64.72.98a15.22 15.22 0 0 1 2.3 6.6c.1-.13.21-.24.32-.36 3.32-3.48 7.34-4.06 10.15-2.94 3.36 1.34 5 5.11 1.62 9.23Z" fill="#8C8CAA"/><path d="m179.2 131.32-.3-.4c.04.03.08.04.12.05l.19.35Zm-.84-1.04c-4.35-5.17-8.67-7.4-12.96-7.4-.38 0-.75.02-1.13.06-.35-.25-.7-.47-1.05-.67a6.53 6.53 0 0 1 2.96-.65c.73 0 1.46.09 2.17.26 3.81.9 7.45 3.96 10.01 8.4" fill="#CBCBD9"/><path d="m162.43 121.85.33 1.03-.54-.9.21-.13Z" fill="#fff"/><path d="m180.5 155.98-.21-.69c.06.02.13.04.2.04l.01.66Zm-.93-2.66c-2.54-6.19-6.63-9.03-12.04-9.03-1.76 0-3.65.3-5.68.88 1.3-.7 2.69-1.22 4.11-1.5a12.67 12.67 0 0 1 3.35-.22c1.11.1 2.2.35 3.23.77.26.1.5.24.75.35l.72.4.69.45c.21.18.45.32.65.5a10.66 10.66 0 0 1 1.68 1.72 13.7 13.7 0 0 1 2.54 5.68" fill="#CBCBD9"/><path d="M192.63 160.52c-1.2.92-2.8 1.62-4.63 2.21l-4.65 2.73c-.2.12-.4.22-.6.32 3.13-3.27 1.28-8.2-1.9-11.55h.01c7.3-7.66 17.95-1.26 11.77 6.29Zm-19.88-16.96c-3.09-1.43-6.27-.6-6.27-.6a26.24 26.24 0 0 0-12.46 7.3 29.2 29.2 0 0 1-17.43 8.41c-7.53.8-14.17-1.38-20.2-5.6l2.46-8.16 27.9-23.25c4.91-1.55 10.93-1.7 16.02 1.22 7.06 4.94 10.16 11.95 9.98 20.69m19.2-13.51-3.87 7.44c-.24-3.8-4.35-6.62-8.6-6.6 0 0-.1-1.14.36-2.63a8.44 8.44 0 0 1 3.49-4.63c3.3-2.39 7.42-1.82 8.86 1.53a5.72 5.72 0 0 1-.24 4.89Z" fill="#fff"/><path d="M101.57 93.2c1.75-7.14 4.1-13.63 8.55-17.77a3.4 3.4 0 0 1 4.61 0c5.6 5.14 9.5 11.7 11.73 19.68l-24.89-1.9" fill="#8C8CAA"/><path d="M104.99 82.84Z" fill="#CCECFB"/><path d="M101.82 92.2a54.9 54.9 0 0 1 3.17-9.36 23.25 23.25 0 0 1 5.23-7.5 3.37 3.37 0 0 1 4.51.09 38.52 38.52 0 0 1 5.03 5.61 38.85 38.85 0 0 0-3.8-4.03 3.42 3.42 0 0 0-4.62 0c-3.77 3.51-6.03 8.7-7.7 14.56a26.49 26.49 0 0 0-1.82.63" fill="#CBCBD9"/><path d="M147.29 119.33c-.84 4.96-3.5 9.44-6.72 13.77l-11.84 12.27a65.85 65.85 0 0 1-20.09 10.79c-2.87.85-5.9 1.08-8.86.63-6.59-1.02-11.11-4.66-13.21-12.63a14.24 14.24 0 0 0-1.67-3.89 37.74 37.74 0 0 1-3.65-7.17c-8.2-3.84-13.87-8.37-16.95-13.63-.58-1-.5-2.24.23-3.13 3.08-3.76 9.36-6.78 19.66-8.82 12.4-17.11 31.86-22.67 48.56-7.83.88.79 1.84 1.48 2.86 2.07a44.32 44.32 0 0 1 9.5 7.07 8.26 8.26 0 0 1 2.27 4.67 19 19 0 0 1-.1 5.83" fill="#8C8CAA"/><path d="m65.07 119.27-.15-.25a2 2 0 0 1 .08-2.04c.08-.13.26-.32.41-.49a15.57 15.57 0 0 1 2.64-2.31 27.26 27.26 0 0 1 5.07-2.7 61.61 61.61 0 0 1 11.21-3.22.76.76 0 0 0 .46-.28v-.01a47.06 47.06 0 0 1 8.31-8.76 37.19 37.19 0 0 1 4.98-3.39 31.1 31.1 0 0 1 5.47-2.43 27.06 27.06 0 0 1 11.76-1.22c1.98.25 3.92.71 5.8 1.4 1.4.5 2.77 1.12 4.08 1.83a27.85 27.85 0 0 0-11.94-2.74c-10.44 0-20.46 6.11-27.93 16.4-10.3 2.05-16.57 5.07-19.66 8.83-.32.4-.53.88-.59 1.39" fill="#CBCBD9"/><path d="M147.29 119.33c-.84 4.96-3.5 9.44-6.72 13.77l-11.84 12.27a65.84 65.84 0 0 1-20.1 10.79c-3.68-3.86-3.03-8.4.76-13.44a6.86 6.86 0 0 0 1.35-4.62l-.3-4.2a5.68 5.68 0 0 1 1.35-4.1l.02-.03a1.91 1.91 0 0 0 .29-2.01c-.83-1.85-.59-3.35.73-4.34 1.23-.94 2.6-.52 3.6.12a1.9 1.9 0 0 0 1.68.16l1.86-.68a6.73 6.73 0 0 1 4.64 0l.76.28c.89.32 1.86.3 2.73-.04a22.95 22.95 0 0 0 5.09-2.9c3.81-2.8 9.95-6.79 14.1-1.03" fill="#fff"/><path d="m121.75 92.88-12.15-1.65c.35-4.68 1.05-8.99 3-11.95a1.1 1.1 0 0 1 1.7-.13 31.5 31.5 0 0 1 7.45 13.73" fill="#F47DEE"/><path d="M109.75 89.46c.4-3.98 1.14-7.6 2.85-10.18-1.7 2.59-2.45 6.2-2.85 10.18" fill="#626299"/><path d="M121.46 91.87a27.7 27.7 0 0 0-2.63-.78 29.48 29.48 0 0 0-5.17-7.55 1.1 1.1 0 0 0-1.7.13 16.68 16.68 0 0 0-2.21 5.8c.4-4 1.14-7.6 2.85-10.18a1.08 1.08 0 0 1 1.34-.4c.14.06.26.15.37.26a31.1 31.1 0 0 1 7.15 12.72" fill="#AA57C9"/><path d="M80.34 115.3c-1.23 4-1.07 8.39 0 13-4.4-1.75-8.02-4.23-10.39-7.92a.97.97 0 0 1 .25-1.31c2.7-1.94 6.15-3.13 10.14-3.78Z" fill="#F47DEE"/><path d="M71.8 121.62a16.2 16.2 0 0 1-1.2-1.65.21.21 0 0 1 .04-.29c2.26-1.61 5.1-2.74 8.66-3.44a20.6 20.6 0 0 0-.43 2.4 21.73 21.73 0 0 0-7.07 2.98" fill="#AA57C9"/><path d="M124.01 130.01c1.84 4.86-1.72 7.12-5.42 5.03l2.36-2.85 3.06-2.18Z" fill="#EF3062"/><path d="M140.3 132.9a79.16 79.16 0 0 0 3.14-5.23 31.4 31.4 0 0 0 2.38-5.5c.59-1.9.94-3.86.97-5.84l-.02-.74c0-.24-.01-.49-.03-.73l-.07-.74c-.03-.24-.04-.5-.08-.72a7.52 7.52 0 0 0-1.78-3.73l-.23-.25-.26-.26a34.44 34.44 0 0 0-2.81-2.49 47.13 47.13 0 0 0-6.3-4.19 18.05 18.05 0 0 1-2.65-1.84l-1.17-1c-.76-.66-1.57-1.25-2.38-1.85l-1.24-.85c-.2-.15-.42-.27-.63-.4l-.64-.4a32 32 0 0 0-5.4-2.57 26.64 26.64 0 0 0-17.56-.17c-1.9.63-3.72 1.45-5.47 2.43a37.2 37.2 0 0 0-4.97 3.38 47.05 47.05 0 0 0-8.3 8.76l-.01.01a.76.76 0 0 1-.46.29 61.7 61.7 0 0 0-11.21 3.21c-1.78.74-3.5 1.62-5.07 2.7a15.5 15.5 0 0 0-2.64 2.31c-.15.18-.33.36-.4.5a2 2 0 0 0-.09 2.04l.17.27.18.3c.13.2.25.41.39.6.27.4.54.8.84 1.16.14.2.29.38.44.57l.46.55a29.72 29.72 0 0 0 4.2 3.95 51.91 51.91 0 0 0 9.97 5.99c.2.09.33.25.4.44.42 1.2.99 2.37 1.6 3.52a48.1 48.1 0 0 0 1.97 3.39 15.07 15.07 0 0 1 1.73 3.82l.28.95c.1.31.17.63.28.93.21.6.41 1.21.68 1.79.23.6.54 1.15.83 1.71l.49.81.26.4.28.38c.73 1 1.61 1.9 2.6 2.66.99.76 2.1 1.34 3.28 1.79a18.84 18.84 0 0 0 11.26.64 22 22 0 0 0 1.84-.53l1.85-.67a64.9 64.9 0 0 0 7.2-3.2 71.52 71.52 0 0 0 3.45-1.88 98.45 98.45 0 0 0 6.68-4.25.32.32 0 0 1 .4.5 56.6 56.6 0 0 1-17.18 10.27c-.62.25-1.26.47-1.89.7a21.15 21.15 0 0 1-10.2 1.01 20.38 20.38 0 0 1-4.02-1.02 14.28 14.28 0 0 1-6.63-5.03l-.3-.43a4.5 4.5 0 0 1-.3-.43l-.53-.9c-.32-.62-.66-1.23-.9-1.87-.3-.63-.5-1.28-.74-1.93l-.3-.99c-.1-.32-.2-.66-.27-.95a13.47 13.47 0 0 0-1.51-3.43 55.53 55.53 0 0 1-2-3.51 26.64 26.64 0 0 1-1.62-3.77l.4.44a53.14 53.14 0 0 1-10.28-6.16 31.17 31.17 0 0 1-4.4-4.16l-.5-.58-.46-.6c-.32-.4-.6-.82-.9-1.24-.15-.2-.27-.42-.4-.64l-.21-.32c-.07-.12-.13-.2-.2-.36a3.52 3.52 0 0 1 .15-3.58c.2-.29.37-.45.54-.65a16.97 16.97 0 0 1 2.9-2.55 28.8 28.8 0 0 1 5.36-2.86c3.72-1.53 7.6-2.5 11.5-3.3l-.46.3a54.16 54.16 0 0 1 3.94-4.85 43.2 43.2 0 0 1 4.56-4.3 38.86 38.86 0 0 1 5.17-3.56 31.87 31.87 0 0 1 5.76-2.59c2-.67 4.08-1.13 6.18-1.36a27.72 27.72 0 0 1 12.5 1.53c1.98.72 3.88 1.64 5.69 2.72l.67.42c.22.13.45.27.66.42l1.3.9c.83.63 1.68 1.25 2.46 1.95l1.17 1a17.97 17.97 0 0 0 2.38 1.69 48.56 48.56 0 0 1 6.48 4.36 35.47 35.47 0 0 1 2.94 2.63l.28.28c.1.1.2.2.28.31a9.06 9.06 0 0 1 2.12 4.52c.05.28.06.54.09.8l.07.8.03.8c0 .27.02.54.01.8a21.17 21.17 0 0 1-1.09 6.27c-.16.5-.36 1-.54 1.49-.22.48-.42.97-.65 1.44-.46.94-.97 1.86-1.52 2.74a40.27 40.27 0 0 1-3.7 5 .32.32 0 0 1-.44.05.32.32 0 0 1-.07-.44" fill="#000072"/><path d="M126.46 95.87a.76.76 0 0 1-.73-.56c-2.17-7.8-6.05-14.3-11.51-19.32a2.66 2.66 0 0 0-3.59 0c-4.64 4.31-6.81 11.21-8.32 17.4a.76.76 0 0 1-1.18.42.76.76 0 0 1-.29-.79c1.56-6.4 3.83-13.56 8.76-18.14a4.17 4.17 0 0 1 5.64 0c5.68 5.2 9.7 11.95 11.94 20.03a.75.75 0 0 1-.72.96Z" fill="#000072"/><path d="M121.75 93.64a.76.76 0 0 1-.73-.56c-1.46-5.4-3.83-9.79-7.26-13.41a.35.35 0 0 0-.29-.11.32.32 0 0 0-.24.14c-2 3.02-2.58 7.55-2.88 11.58a.78.78 0 0 1-.26.52.76.76 0 0 1-.84.1.77.77 0 0 1-.37-.44.76.76 0 0 1-.04-.29c.32-4.23.94-9 3.13-12.3a1.82 1.82 0 0 1 1.37-.82 1.85 1.85 0 0 1 1.52.58 32.41 32.41 0 0 1 7.62 14.05.76.76 0 0 1-.73.96Zm-42.45 22.61c-3.56.69-6.4 1.82-8.66 3.43a.22.22 0 0 0-.08.14c0 .05 0 .1.03.15 1.9 2.97 4.76 5.29 8.7 7.07-.77-4.02-.77-7.57 0-10.8Zm1.04 12.8a.76.76 0 0 1-.28-.05c-4.94-1.97-8.46-4.66-10.74-8.22a1.72 1.72 0 0 1 .44-2.33c2.7-1.92 6.12-3.2 10.46-3.9a.76.76 0 0 1 .84.96c-1.11 3.64-1.1 7.77.02 12.62a.75.75 0 0 1-.74.92Zm15.59 9.3c-.33-.6-.5-1.3-.52-2.02-.02-.73.1-1.45.36-2.12a6.72 6.72 0 0 1 2.71-3.28 8.14 8.14 0 0 1 3.95-1.27 9.24 9.24 0 0 1 2.97.35c.31.09.62.2.92.33.1.03.17.1.22.19.05.09.06.19.05.28a.44.44 0 0 1-.4.38h-.02c-.62.05-1.2.08-1.78.16-.57.07-1.13.17-1.68.3a9.12 9.12 0 0 0-2.93 1.25 6.98 6.98 0 0 0-2.1 2.19 6.16 6.16 0 0 0-.91 3.05v.02a.44.44 0 0 1-.63.38.44.44 0 0 1-.2-.19Zm22.15-12.32a1.03 1.03 0 0 1 1.71.65c.14 1.27-.21 2.15-.84 2.78-.65.66-1.63 1.02-3.13.96a1.04 1.04 0 0 1-.65-1.81l2.9-2.58Zm14.54-13.71a15.9 15.9 0 0 0-3.44-.03c-1.06.13-2 .47-2.77 1.04a5.92 5.92 0 0 0-1.81 2.33 16.5 16.5 0 0 0-1.01 3.29.44.44 0 0 1-.16.25.44.44 0 0 1-.54.02.45.45 0 0 1-.17-.24 7.62 7.62 0 0 1-.08-3.98c.18-.7.46-1.36.85-1.97a6.02 6.02 0 0 1 5.64-2.78c1.35.08 2.65.52 3.78 1.25a.44.44 0 0 1 .17.52.44.44 0 0 1-.45.3h-.01Z" fill="#000072"/><path d="m118.58 126.6-2.91 2.57a.27.27 0 0 0-.08.3.28.28 0 0 0 .26.2c1.18.04 2.02-.2 2.57-.74.53-.54.72-1.22.62-2.17 0-.05-.02-.1-.05-.13a.25.25 0 0 0-.12-.08.28.28 0 0 0-.3.05Zm-2.44 4.58h-.35a1.79 1.79 0 0 1-1.12-3.14l2.9-2.57a1.79 1.79 0 0 1 1.85-.33 1.76 1.76 0 0 1 1.13 1.45c.15 1.4-.2 2.55-1.06 3.4-.8.8-1.9 1.2-3.35 1.2Z" fill="#000072"/><path d="m119.42 129.1.97 1.1.5.6a2.06 2.06 0 0 1 .4 1.58l-.02.12a4.58 4.58 0 0 1-1.54 2.63 5.15 5.15 0 0 1-2.31 1.08 4.1 4.1 0 0 1-.86.06 2.73 2.73 0 0 1-1.72-.59 1.62 1.62 0 0 1-.51-.86c-.06-.3-.05-.61.04-.91a.32.32 0 0 1 .36-.24.3.3 0 0 1 .2.11c.05.06.08.14.08.22v.03c0 .2.03.4.1.55.07.14.19.26.33.33.15.08.32.14.5.15.2.03.39.03.58 0 .82-.1 1.62-.5 2.2-1.06a3.34 3.34 0 0 0 .88-1.52l.07-.29a.66.66 0 0 0 .01-.1v-.05a.47.47 0 0 0-.09-.24l-.45-.57-.9-1.17a.76.76 0 0 1 .67-1.2c.2.01.38.1.5.24Z" fill="#000072"/><path d="m119.9 130.89.58-.5v.01h.01l.02.02.03.03.08.06c.04.04.1.07.15.1a1.49 1.49 0 0 0 1.35.1l.15-.09.08-.04.1-.08c.25-.19.5-.4.71-.64.43-.47.78-1.02.89-1.58a1.8 1.8 0 0 0 .02-.62l-.06-.2a2.22 2.22 0 0 0-.5-.78l-.01-.03a.33.33 0 0 1 .38-.51c.4.2.76.5 1.01.86.27.4.39.9.38 1.37 0 .46-.1.91-.27 1.34a5.23 5.23 0 0 1-1.56 2.05l-.12.11-.16.11a2.93 2.93 0 0 1-2.6.3 2.7 2.7 0 0 1-1.1-.75l-.06-.07-.03-.04-.02-.02-.01-.01.57-.5Z" fill="#000072"/><path d="M121.3 136.58c-.98 0-2.05-.3-3.09-.89l.75-1.31c1.51.86 3.08.9 3.98.13.95-.8 1.08-2.35.36-4.23l1.42-.53c.95 2.5.66 4.66-.8 5.9-.7.62-1.62.93-2.62.93Z" fill="#000072"/><path d="M124.51 132.31c-1.88-.26-3.52.76-3.77 3.5l-1.76-.57 1.81-3.6 3.29-1.44.43 2.11Z" fill="#000072"/><path d="M94.59 120.57c1.21.95.28 2.33-.98 3.94-1.26 1.62-2.37 2.86-3.58 1.9-1.21-.94-.7-2.64.56-4.25 1.26-1.62 2.78-2.53 4-1.59Z" fill="#fff"/><path d="M160.26 127.1c-4.2 3.74-11.93.1-9.15-8.26l.09-.26-1.06-2-2.6-1.34c3.4-1.68 8.22-1.58 11.4.83h.01a8.32 8.32 0 0 1 3.2 5.55 6.08 6.08 0 0 1-1.89 5.48" fill="#8C8CAA"/><path d="M122.73 102.37c.96 1.2-.25 2.33-1.85 3.62-1.59 1.29-2.95 2.24-3.92 1.05-.97-1.2-.08-2.74 1.51-4.03 1.6-1.29 3.28-1.84 4.26-.64Zm37.53 24.73c-4.2 3.74-11.93.1-9.15-8.26 1.48-1.8 4.61-4.33 7.84-2.77a8.32 8.32 0 0 1 3.2 5.55 6.08 6.08 0 0 1-1.89 5.48Z" fill="#fff"/><path d="M156.4 129.32a6.5 6.5 0 0 1-3.65-1.11c-2.25-1.52-4.03-4.9-2.26-9.88a.75.75 0 0 1 .67-.5.75.75 0 0 1 .55.19.74.74 0 0 1 .25.52c0 .1-.01.2-.05.3-1.25 3.53-.62 6.56 1.68 8.11a5.04 5.04 0 0 0 6.17-.42 5.3 5.3 0 0 0 1.64-4.8 7.53 7.53 0 0 0-4.06-5.78 10.95 10.95 0 0 0-9.47-.04.76.76 0 1 1-.66-1.35 12.5 12.5 0 0 1 10.83.05 9 9 0 0 1 4.85 6.9 6.8 6.8 0 0 1-2.12 6.15 6.54 6.54 0 0 1-4.36 1.66" fill="#000072"/><path d="M155.42 122.82c.4.42.72.9.97 1.42.26.55.39 1.15.39 1.75 0 .66-.2 1.3-.59 1.84-.42.59-1.06.98-1.77 1.1h-.04a.76.76 0 1 1-.14-1.5 1.33 1.33 0 0 0 .94-.4c.27-.28.46-.67.52-1.11.06-.46.02-.93-.12-1.37a4.72 4.72 0 0 0-.65-1.31l-.01-.02a.33.33 0 0 1-.06-.23.33.33 0 0 1 .35-.27c.08 0 .16.04.21.1Zm3.98-1.4a5.19 5.19 0 0 1 1.74 3.01 4.32 4.32 0 0 1-.85 3.6.75.75 0 0 1-1.11.1.77.77 0 0 1-.19-.85c.04-.1.1-.19.18-.26a3.17 3.17 0 0 0 .9-2.44 4.5 4.5 0 0 0-1.12-2.68.32.32 0 0 1 .44-.47m13.94 23.07a.75.75 0 0 1-.75-.69c-.91-10.25-4.61-17.37-10.71-20.57a.76.76 0 0 1 .7-1.33c4.59 2.4 10.3 8.13 11.51 21.77a.76.76 0 0 1-.17.55.75.75 0 0 1-.51.27h-.07m-26.58-22.08a.75.75 0 0 1-.74-.64.76.76 0 0 1 .52-.84 24.6 24.6 0 0 1 4-.9.76.76 0 0 1 .7 1.2.75.75 0 0 1-.5.3c-1.27.17-2.52.45-3.75.84a.76.76 0 0 1-.23.04" fill="#000072"/><path d="M177.47 147.78a.76.76 0 0 1-.2-1.48c3.9-1.08 6.5-2.77 8.14-5.32l5.87-11.27c.72-1.36.8-2.91.22-4.24a4.18 4.18 0 0 0-4.41-2.51c-2.72.23-5.99 2.63-7.15 7.46a.75.75 0 0 1-1.39.2c-2.57-4.63-6.3-7.8-10.2-8.74-2.21-.52-4.24-.26-5.7.73a.75.75 0 0 1-1.06-.2.75.75 0 0 1 .2-1.05c1.83-1.24 4.28-1.57 6.9-.95 3.88.92 7.56 3.8 10.28 7.98 1.72-4.73 5.27-6.7 7.99-6.94a5.7 5.7 0 0 1 5.93 3.42 6.43 6.43 0 0 1-.27 5.54l-5.89 11.3a.91.91 0 0 1-.03.06c-1.86 2.9-4.73 4.8-9.02 5.98a.76.76 0 0 1-.2.03" fill="#000072"/><path d="m179.91 129.96.93 3.45a.33.33 0 0 1-.6.25l-1.73-3.14a.76.76 0 0 1 .3-1.02.76.76 0 0 1 1.1.46Zm8.42-3.29a4.3 4.3 0 0 1 1.02-2.04c.3-.32.66-.57 1.07-.73a3 3 0 0 1 1.36-.13.76.76 0 1 1-.28 1.49l-.05-.02a1.57 1.57 0 0 0-.68-.09c-.25.04-.49.13-.7.28-.24.18-.45.39-.63.62-.2.25-.36.52-.5.8v.03a.33.33 0 0 1-.4.17.32.32 0 0 1-.22-.38m-3.71-1.35a5.42 5.42 0 0 1 1.13-2.56c.34-.4.76-.7 1.23-.92.48-.23 1-.3 1.52-.34a.76.76 0 0 1 .79 1 .75.75 0 0 1-.39.43.75.75 0 0 1-.4.08h-.06a2.57 2.57 0 0 0-1.93.51c-.3.25-.54.54-.75.86-.2.33-.38.69-.5 1.06l-.01.03a.32.32 0 0 1-.63-.14Z" fill="#000072"/><path d="M125.93 168.4a2.22 2.22 0 0 1-1.23 1.94c-3.17 1.6-7.53 1.56-12.56.6-2.59-3.83-1.08-8.35 3.22-9.36 0 0 9.5-.72 10.57 6.82Z" fill="#fff"/><path d="M159.33 145.98c.92-.79 1.92-1.48 2.98-2.06 1.07-.6 2.21-1.05 3.4-1.37 2.38-.63 4.99-.57 7.36.3 1.2.42 2.3 1.06 3.28 1.87.96.8 1.8 1.75 2.5 2.81a16.28 16.28 0 0 1 2.44 6.96l-1.31-.41c.68-.74 1.42-1.43 2.24-2.03.84-.6 1.74-1.07 2.7-1.43a9 9 0 0 1 6.12-.12c1 .36 1.94.92 2.68 1.72a5.62 5.62 0 0 1 1.07 6.11 10.07 10.07 0 0 1-1.69 2.78c-.75.58-1.56 1.02-2.37 1.39-.81.36-1.64.68-2.49.95l.15-.07-4.34 2.55c-.35.2-.76.44-1.17.63-.4.2-.82.36-1.25.5-.44.15-.85.24-1.26.35-.42.1-.83.22-1.26.3l-1.25.25-1.27.2c-.42.08-.84.13-1.26.17l-1.27.15c-.85.07-1.7.16-2.54.2l-1.27.06-1.27.04c-3.38.1-6.76-.04-10.13-.25-3.36-.21-6.7-.53-10.05-.9h.2a69.37 69.37 0 0 1-11.86.99 49.16 49.16 0 0 1-11.84-1.48.75.75 0 0 1-.43-1.19.74.74 0 0 1 .5-.29c.1-.01.2 0 .3.02 3.74.96 7.61 1.4 11.48 1.43 3.88.03 7.76-.34 11.6-.97a.78.78 0 0 1 .2 0c3.34.35 6.67.67 10 .88 3.33.22 6.67.34 9.99.25l1.25-.04 1.24-.06c.83-.04 1.65-.12 2.47-.2.42-.03.82-.09 1.24-.13.4-.05.82-.1 1.22-.17l1.22-.2 1.21-.25c.4-.07.8-.18 1.2-.28.4-.1.8-.2 1.16-.31a9.31 9.31 0 0 0 2.13-1l4.34-2.55a10.6 10.6 0 0 0 4.55-2.16l-.12.12a8.47 8.47 0 0 0 1.33-2.24c.3-.8.42-1.62.3-2.42a4.08 4.08 0 0 0-1.06-2.12 5.27 5.27 0 0 0-2.1-1.34 7.5 7.5 0 0 0-5.08.12c-.83.31-1.62.73-2.34 1.24-.72.53-1.38 1.14-2 1.8l-.01.02a.76.76 0 0 1-1.3-.43 14.44 14.44 0 0 0-2.22-6.3 11.46 11.46 0 0 0-2.22-2.45c-.2-.18-.44-.33-.65-.5-.22-.16-.46-.3-.69-.46l-.72-.4c-.25-.1-.5-.24-.75-.34a10.68 10.68 0 0 0-3.22-.77 12.3 12.3 0 0 0-3.36.21 16.5 16.5 0 0 0-6.23 2.83.32.32 0 0 1-.4-.52m-44.85 16.47a.75.75 0 0 1-.4-.12 39.8 39.8 0 0 1-6.76-5.4.75.75 0 0 1-.17-.83.75.75 0 0 1 1.23-.25 38.34 38.34 0 0 0 6.5 5.2.75.75 0 0 1-.4 1.4Z" fill="#000072"/><path d="M105.13 157.18a27.1 27.1 0 0 0-.86 3.33 13.36 13.36 0 0 0-.27 3.34c.06 1.1.3 2.16.81 3.05.5.89 1.3 1.58 2.25 2.05.95.47 2.04.72 3.15.87l.93.15.86.18 1.71.3c2.29.35 4.6.54 6.84.28 1.12-.13 2.2-.38 3.22-.79l.37-.17.19-.09.14-.07c.16-.1.31-.24.43-.4a1.46 1.46 0 0 0 .28-.8v-.15l-.02-.16a6.21 6.21 0 0 0-3.67-4.83 10.3 10.3 0 0 0-3.15-.86 16.2 16.2 0 0 0-3.34-.02c-2.24.2-4.44.85-6.53 1.85a.33.33 0 0 1-.35-.55 12.6 12.6 0 0 1 3.15-1.85 14.4 14.4 0 0 1 7.27-1c1.25.14 2.47.5 3.62 1.04l.84.47.4.27c.14.09.27.19.39.29.24.21.5.4.73.65l.34.35.3.4a7.73 7.73 0 0 1 1.53 4.14 2.96 2.96 0 0 1-1.44 2.45l-.25.13-.22.1-.43.2c-1.17.48-2.4.76-3.62.9a27 27 0 0 1-7.25-.3c-.6-.09-1.18-.2-1.77-.3l-.88-.18c-.28-.06-.53-.1-.8-.14a11.42 11.42 0 0 1-3.64-1.01 7.18 7.18 0 0 1-1.63-1.1c-.5-.45-.92-.97-1.26-1.55a8.32 8.32 0 0 1-1-3.73 14.6 14.6 0 0 1 .29-3.69c.22-1.19.53-2.36.9-3.51a.75.75 0 0 1 .95-.5.76.76 0 0 1 .5.96" fill="#000072"/><path d="M118.13 166.43c.58.13 1.12.42 1.54.84.43.43.75.96.91 1.54.17.59.2 1.26-.04 1.9-.13.33-.31.63-.55.89-.24.25-.52.46-.84.61l-.02.02a.76.76 0 1 1-.58-1.4c.35-.12.62-.32.8-.63.18-.32.24-.73.18-1.15a2.56 2.56 0 0 0-.5-1.2 2.4 2.4 0 0 0-1.07-.8.32.32 0 0 1-.06-.58.32.32 0 0 1 .23-.04m4.4-.8c.47.24.9.55 1.28.92.4.39.71.86.91 1.38a3.04 3.04 0 0 1-.81 3.38l-.03.03a.78.78 0 0 1-.55.19.78.78 0 0 1-.52-.26.78.78 0 0 1-.2-.55.77.77 0 0 1 .35-.6c.3-.18.53-.45.66-.77s.16-.71.07-1.1c-.1-.41-.27-.8-.53-1.13a4.5 4.5 0 0 0-.96-.94h-.01a.32.32 0 0 1-.08-.44.32.32 0 0 1 .42-.12m58.77-11.06c-.1 1.6-.5 3.13-1.1 4.54a.32.32 0 0 1-.16.17.32.32 0 0 1-.23.02.32.32 0 0 1-.22-.38c.3-1.45.39-2.9.2-4.3a.76.76 0 0 1 .94-.86.78.78 0 0 1 .47.36c.05.09.08.19.09.29v.16Zm5.1-1.38a4.39 4.39 0 0 1 .96-1.13 4.93 4.93 0 0 1 2.73-1.22c.25-.05.5-.04.76-.05.26 0 .51.02.77.04a.76.76 0 0 1 .46 1.32.76.76 0 0 1-.65.18l-.09-.02c-.2-.04-.39-.1-.58-.12-.2-.02-.4-.06-.59-.06a3.88 3.88 0 0 0-2.29.62 4.65 4.65 0 0 0-.93.8l-.02.02a.32.32 0 0 1-.44.05.33.33 0 0 1-.09-.43m3.38 2.55a5.86 5.86 0 0 1 2.2-1.24 3.76 3.76 0 0 1 2.74.28.76.76 0 1 1-.77 1.3l-.04-.02a2.35 2.35 0 0 0-1.73-.5 5.22 5.22 0 0 0-2 .68l-.02.02a.32.32 0 0 1-.23.05.32.32 0 0 1-.16-.56m-48.53-49.95a3.9 3.9 0 0 1 .3-.8 8.9 8.9 0 0 1 3.66-4.06c.9-.5 1.87-.88 2.88-1.1 1-.2 2-.31 3.02-.3a.22.22 0 0 1 .02.44c-.98.05-1.94.22-2.88.5-.92.26-1.8.67-2.59 1.2a7.99 7.99 0 0 0-3.07 4.1l-.08.3a.67.67 0 0 1-.27.42.66.66 0 0 1-.72.01.64.64 0 0 1-.28-.4.65.65 0 0 1 0-.26v-.05h.01Zm3.84 3.24.14-.17.13-.16.28-.3c.18-.18.39-.35.58-.52a8.86 8.86 0 0 1 4.2-1.9c.5-.05 1-.13 1.5-.11h.39l.37.01.75.08a6 6 0 0 1 .74.12l.73.15 1.42.44a.21.21 0 0 1 .14.25.22.22 0 0 1-.25.16h-.02c-.47-.1-.93-.23-1.4-.32l-.7-.1c-.25-.02-.48-.06-.72-.06l-.7-.02c-.12 0-.24 0-.36.02l-.35.02c-.47.02-.92.13-1.38.21a8.28 8.28 0 0 0-3.57 1.94c-.16.16-.32.31-.47.48a3.51 3.51 0 0 0-.3.39l-.07.11a.64.64 0 0 1-.4.3.65.65 0 0 1-.73-.95l.03-.05.02-.02m1.89 3.97.15-.11.15-.1.3-.18.59-.31.6-.27c.22-.08.42-.17.64-.23a8.92 8.92 0 0 1 2.6-.44c.22-.01.44 0 .65.02.22 0 .44 0 .66.05l.64.1.63.15c.43.1.82.27 1.23.41l.15.06.14.07.29.14.57.28a.22.22 0 0 1-.01.4.22.22 0 0 1-.16 0l-.02-.01-.57-.22-.29-.11-.14-.06-.15-.04c-.4-.1-.78-.24-1.18-.29l-.6-.09-.6-.04c-.2-.02-.4 0-.6 0a7.96 7.96 0 0 0-2.88.63l-.53.25a12.78 12.78 0 0 0-1 .6l-.23.17a1.6 1.6 0 0 0-.1.08l-.1.08a.65.65 0 1 1-.85-.97l.02-.02m-57.2 35.32a7.23 7.23 0 0 0-1.3.15 9.13 9.13 0 0 0-3.69 1.46 6.98 6.98 0 0 0-2.93 4.35.22.22 0 0 1-.1.14c-.04.03-.1.04-.16.03a.22.22 0 0 1-.17-.26 7.71 7.71 0 0 1 2.85-4.95 9.92 9.92 0 0 1 2.55-1.47 12.06 12.06 0 0 1 2.87-.74.65.65 0 1 1 .14 1.29h-.06m3.27 3.72-.12.06-.13.07c-.1.06-.18.1-.27.17-.18.1-.36.23-.53.35l-.5.41c-.16.15-.33.28-.47.44a8.2 8.2 0 0 0-1.52 2.1c-.11.2-.18.4-.27.6-.09.2-.18.4-.23.62l-.2.63-.13.65-.06.33-.03.33-.06.67v.67l.02.68v.02a.21.21 0 0 1-.12.2.21.21 0 0 1-.24-.03.21.21 0 0 1-.07-.15l-.07-.7-.04-.34a2.27 2.27 0 0 1-.02-.35v-.7l.01-.36.04-.35c.03-.24.05-.48.09-.71l.15-.7c.04-.24.12-.46.2-.7.07-.22.14-.45.25-.67.35-.9.88-1.72 1.5-2.46.15-.2.32-.36.49-.54.17-.18.35-.34.53-.5a5.72 5.72 0 0 1 1.04-.78c.05-.05.1-.08.18-.12h.01a.65.65 0 1 1 .57 1.16m3.77 2.37a5.43 5.43 0 0 0-.24 1.06l-.08.56-.04.56c-.05.76 0 1.52.12 2.27l.04.28.07.28.13.56c.12.36.22.73.38 1.08.28.72.7 1.38 1.13 2.02v.01a.22.22 0 0 1-.34.26 11 11 0 0 1-1.37-2.01c-.2-.36-.35-.74-.51-1.12-.08-.2-.14-.4-.2-.59l-.1-.3-.07-.3c-.22-.8-.33-1.62-.36-2.45v-.62a16.85 16.85 0 0 1 .09-1.25l.11-.66a.65.65 0 0 1 1.18-.2.65.65 0 0 1 .07.55v.01" fill="#000072"/><path d="M118.22 127.3c-.03 1.13-.7 1.57-1.72 1.6a.21.21 0 0 1-.2-.15.21.21 0 0 1-.01-.12.22.22 0 0 1 .06-.11l1.52-1.38a.21.21 0 0 1 .35.17Z" fill="#fff"/><path d="M102.86 156.2a18.85 18.85 0 0 1-6.23-1.05 5.42 5.42 0 0 1 .18-.74l.01-.01.02-.06a.65.65 0 0 0-.64-.8.65.65 0 0 0-.63.51l-.11.63a12.3 12.3 0 0 1-3.28-2.12l.34-.23.27-.16.13-.07.12-.06a.66.66 0 0 0 .25-.19.64.64 0 0 0 .07-.72.64.64 0 0 0-.39-.3.65.65 0 0 0-.5.04v.01l-.19.1-.16.11a5.78 5.78 0 0 0-.8.62 13.7 13.7 0 0 1-.95-1.16l-.28-.38c-.1-.13-.18-.26-.26-.4l-.49-.8-.3-.59h.1c.2-.03.44-.06.63-.06h.06a.63.63 0 0 0 .45-.22.65.65 0 0 0-.52-1.08h-.06a8.19 8.19 0 0 0-1.2.22c-.26-.57-.45-1.18-.67-1.78l-.28-.92-.27-.96a15.1 15.1 0 0 0-1.74-3.81 54.34 54.34 0 0 1-1.97-3.4 26.2 26.2 0 0 1-1.6-3.51.78.78 0 0 0-.4-.44l-.48-.23-.56-3.16a.75.75 0 0 0 .55-.9 36.3 36.3 0 0 1-.48-2.43c7.55 13.72 16.62 19.05 25.56 19.05.63 0 1.27-.03 1.9-.09-2.4 4-2.61 7.64 0 10.84-.18.06-.37.1-.55.15-1.52.36-3.08.55-4.65.55Zm43.77-37.69a6 6 0 0 0-5.23-2.1 51.74 51.74 0 0 0 2.82-7.35l.1.1.26.26.24.25a7.63 7.63 0 0 1 1.77 3.73c.04.22.05.48.08.72l.08.74.02.73c.01.25.03.5.02.74-.01.73-.06 1.46-.16 2.18" fill="#626299"/><path d="M108.06 155.5c-2.61-3.2-2.4-6.85 0-10.84 13.68-1.13 26.77-14.27 33.34-28.24l.63-.03a6 6 0 0 1 4.6 2.12 21.74 21.74 0 0 1-.8 3.65 31.74 31.74 0 0 1-2.39 5.51 77.85 77.85 0 0 1-3.13 5.24.32.32 0 0 0 .05.4l-11.42 11.84a.33.33 0 0 0-.4-.04 98.57 98.57 0 0 1-6.68 4.25c-1.14.65-2.29 1.3-3.47 1.88-1.16.6-2.35 1.17-3.55 1.7a60.6 60.6 0 0 1-3.64 1.5c-.6.24-1.23.45-1.85.67l-1.29.4" fill="#B2B2D4"/><path d="M102.79 157.02a19.54 19.54 0 0 1-6.3-1.02l.08-.53.06-.32a19.1 19.1 0 0 0 12.72-.04c.62-.22 1.24-.43 1.85-.67a65.98 65.98 0 0 0 7.2-3.2 71.07 71.07 0 0 0 3.46-1.88 98.04 98.04 0 0 0 6.67-4.24.32.32 0 0 1 .21-.06c.08 0 .15.04.2.1l-.2.21a67.32 67.32 0 0 1-9.63 6.3 72.24 72.24 0 0 1-10.45 4.44l-.28-.27a.76.76 0 0 0-1.26.71c-.65.14-1.3.25-1.96.33a.76.76 0 0 0-.67-.68.75.75 0 0 0-.8.52l-.09.28-.81.02Zm-7.41-1.45a13.6 13.6 0 0 1-3.88-2.48l.5-.4.18-.13a11.97 11.97 0 0 0 3.28 2.12v.03l-.07.63-.01.23Zm-4.68-3.28a15.7 15.7 0 0 1-2.54-3.76 8.58 8.58 0 0 1 .88-.15l.3.6.5.8c.07.14.16.27.25.4l.28.38c.3.4.61.78.95 1.15l-.08.06-.53.5-.01.02Zm-3.02-4.82a24.84 24.84 0 0 1-1.11-3.3 14.23 14.23 0 0 0-1.67-3.9 37.71 37.71 0 0 1-3.64-7.17l-.16-.91.48.22c.18.1.33.26.4.45.42 1.2.98 2.36 1.59 3.51.6 1.16 1.28 2.28 1.97 3.4a15.07 15.07 0 0 1 1.74 3.81l.27.96.28.93c.22.6.41 1.2.68 1.77a15.18 15.18 0 0 0-.83.23Zm52.68-14.15a.33.33 0 0 1-.05-.41 79.16 79.16 0 0 0 3.14-5.24 31.4 31.4 0 0 0 2.57-6.17.76.76 0 0 0 .52.88c-1.22 3.78-3.42 7.3-5.97 10.72l-.2.22Zm5.68-11.9a21.76 21.76 0 0 0 .75-5.09l-.02-.74c0-.24 0-.49-.02-.73l-.08-.74c-.03-.24-.04-.5-.08-.72a7.5 7.5 0 0 0-1.77-3.73l-.24-.25-.26-.27-.1-.1c.1-.28.17-.57.25-.86l.64.64.07.07-.1.13-.02.02a.64.64 0 0 0 .1.88.64.64 0 0 0 .85 0 8.1 8.1 0 0 1 1.25 2.87l-.13.1-.16.1-.02.02-.05.05a.64.64 0 0 0-.15.7.65.65 0 0 0 .72.4l.02.26-.28.13a.76.76 0 0 0-.4.85.76.76 0 0 0 .73.58h.02a19.32 19.32 0 0 1-.57 4.81l-.46.14a.75.75 0 0 0-.5.49m-65.5 7.6-.93-5.21c.33.64.66 1.27 1 1.88.12.79.28 1.6.47 2.43a.76.76 0 0 1-.54.9Z" fill="#000072"/><path d="M147.54 116a.76.76 0 0 1-.68-1.09c.07-.15.2-.28.35-.35l.28-.14c.04.53.07 1.05.07 1.57h-.02m-1 6.39a.76.76 0 0 1-.52-.88l.02-.07a.74.74 0 0 1 .49-.49l.46-.14a21.9 21.9 0 0 1-.45 1.58m-39.42 34.17a.75.75 0 0 1 1.26-.7l.28.26-.79.26-.75.18m-3.52.45.09-.28a.76.76 0 0 1 1.25-.3c.12.12.2.28.22.46-.52.06-1.04.1-1.56.12m42-46.92a.64.64 0 0 1-.57-.33.65.65 0 0 1 .03-.7l.02-.02.1-.13c.3.32.58.66.83 1.02a.65.65 0 0 1-.42.16m1.76 4.1a.65.65 0 0 1-.45-1.12l.05-.04.02-.01.15-.12.14-.1a8.51 8.51 0 0 1 .2 1.38.63.63 0 0 1-.1 0Zm-59.19 34.35c-.17-.34-.33-.7-.48-1.06l.53-.16.3-.07a10.61 10.61 0 0 1 1.18-.21h.07a.65.65 0 0 1 .68.6.65.65 0 0 1-.62.69h-.05c-.19 0-.43.03-.64.05l-.1.01-.56.09-.31.06m3.34 4.57c-.28-.26-.54-.53-.8-.8l.01-.02c.17-.18.35-.34.53-.5l.08-.07a8.65 8.65 0 0 1 1.14-.83h.02a.65.65 0 0 1 .88.26.65.65 0 0 1-.26.87l-.06.03-.12.06-.13.07c-.1.06-.18.1-.27.17-.12.06-.23.14-.34.22l-.19.13-.49.4m5 2.91c-.39-.13-.76-.27-1.12-.43l.01-.24.07-.62v-.03l.11-.63a.65.65 0 1 1 1.25.35v.02a5.52 5.52 0 0 0-.25 1.05l-.07.53" fill="#000072"/><path d="M166.76 167.3c-2.6 0-5.2-.12-7.81-.28a236.71 236.71 0 0 1-10.07-.89l-.13.01c-3.68.6-7.4.97-11.12.97h-.47c-3.75-.03-7.5-.44-11.13-1.34a7.5 7.5 0 0 0-.88-1.46l-.3-.39-.34-.35c-.21-.25-.48-.44-.72-.65l-.4-.3-.4-.27c-.27-.15-.55-.32-.83-.46-1.15-.54-2.37-.9-3.63-1.05a13.64 13.64 0 0 0-3.71.04l-.16.02a38.14 38.14 0 0 1-5.31-4.13l.52-.17 1.89-.7a61.53 61.53 0 0 0 5.34-2.35c5 3.35 10.44 5.3 16.45 5.3.86 0 1.73-.05 2.62-.13 2.16.66 4.57.9 7.05.9 4.15 0 8.47-.69 12.07-1.34 1.5-.26 3.03-.4 4.56-.39 9.13 0 17.68 4.25 17.68 4.25h.16c2.66 0 4.82-.66 6.57-1.65a6.2 6.2 0 0 1-.49 3.85l-.48.29a9.3 9.3 0 0 1-2.13 1c-.36.12-.77.21-1.17.31-.4.1-.79.21-1.2.29l-1.2.24-1.22.2c-.4.07-.82.12-1.23.17l-1.23.14c-.83.07-1.65.16-2.48.19l-1.24.07-1.25.03c-.72.02-1.45.03-2.18.03" fill="#626299"/><path d="M183.77 164.34c.6-1.2.71-2.52.48-3.86 4.08-2.32 5.87-6.47 6.49-8.3h.02c.2.03.38.08.58.12l.06.02a4.39 4.39 0 0 1 1.97 2.05h-.03a4.11 4.11 0 0 0-2.55.63c-.36.2-.7.45-1.01.74a.32.32 0 0 0-.04.44.32.32 0 0 0 .43.07l.02-.01a5.22 5.22 0 0 1 2-.69 2.88 2.88 0 0 1 .94.1c.21.05.41.15.6.27 0 .65-.12 1.28-.35 1.88-.3.77-.75 1.5-1.28 2.17-.6.46-1.28.83-2 1.16a22.67 22.67 0 0 1-2.48.95l-3.85 2.26m-50.23-5.5c-6 0-11.44-1.94-16.44-5.3a56.48 56.48 0 0 0 10.7-6.95c.1 7.2 3.6 10.67 8.37 12.13-.89.08-1.76.12-2.63.12Z" fill="#B2B2D4"/><path d="m109.35 156.77-.66-.62.92-.3a65.08 65.08 0 0 0 9.5-4.17 56.92 56.92 0 0 0 8.69-5.59v.5a56.57 56.57 0 0 1-16.04 9.3c-.63.25-1.26.47-1.9.7l-.52.18m57.48 11.29c-5.56 0-11.64-.5-17.94-1.17-3.91.65-7.66.97-11.25.98-3.97 0-7.72-.41-11.27-1.24-.1-.3-.2-.58-.33-.86 3.63.9 7.38 1.3 11.13 1.34h.47a68.4 68.4 0 0 0 11.25-.98h.08c3.33.36 6.66.67 9.99.89a125.15 125.15 0 0 0 10 .25l1.24-.04c.41-.01.82-.04 1.24-.07.83-.03 1.65-.12 2.48-.19.4-.03.82-.1 1.23-.14.4-.05.82-.1 1.23-.17l1.22-.2 1.2-.24c.41-.07.8-.18 1.2-.28.4-.1.8-.2 1.17-.32a9.14 9.14 0 0 0 2.12-1l.49-.28 3.85-2.26.15-.07c.8-.25 1.57-.55 2.33-.89.72-.32 1.4-.7 2-1.15.53-.68.99-1.4 1.28-2.17.23-.6.35-1.24.34-1.88l.2.13.03.02a.77.77 0 0 0 .54.14 7.3 7.3 0 0 1-1.86 4.3c-1.19.93-2.8 1.63-4.62 2.22l-4.66 2.73a10.38 10.38 0 0 1-2.37 1c-4.05 1.15-8.86 1.6-14.16 1.6Zm27.44-13.49a3.3 3.3 0 0 0-.9-.21 4.4 4.4 0 0 0-1.96-2.05h.03l.1.02h.04a.76.76 0 0 0 .67-.4 5.06 5.06 0 0 1 2.02 2.64" fill="#000072"/><path d="m113.64 161.09-5.5-4.7-.23.04-.06-.05h.02l.77-.22.05-.01a38.3 38.3 0 0 0 5.96 4.75c-.34.05-.68.11-1.01.19" fill="#000072"/><path d="m126.36 166.63-.8-.2.15.03-1.06-1.37c-2.32-3.21-6.9-3.53-8.62-3.53-.42 0-.67.02-.67.02-.4.1-.78.22-1.15.38l-.64-.56.28-.13-.21-.18c.33-.08.67-.14 1.01-.2l.17-.01a13.6 13.6 0 0 1 3.71-.04c1.26.15 2.48.5 3.62 1.05.3.14.57.3.85.46l.4.28.39.28c.24.22.5.4.72.66l.34.35c.11.12.2.26.3.39a7.5 7.5 0 0 1 1.2 2.32m65.22-14.29h-.04l-.1-.02h-.03l-.06-.01c-.2-.04-.39-.1-.58-.13h-.02c.17-.49.25-.81.27-.89.43.17.84.4 1.23.65a.77.77 0 0 1-.67.4m-1.57 3.96a.33.33 0 0 1-.3-.2.33.33 0 0 1 .08-.37 5.8 5.8 0 0 1 2.2-1.24 3.93 3.93 0 0 1 1.37-.13h.02c.3.03.6.1.9.21.16.53.24 1.09.22 1.64a.75.75 0 0 1-.54-.13l-.03-.03-.2-.13a1.96 1.96 0 0 0-.59-.28 2.77 2.77 0 0 0-.95-.09 5.26 5.26 0 0 0-2 .68l-.01.02a.32.32 0 0 1-.17.05m-81.3-.15-.04-.04a72.44 72.44 0 0 0 10.45-4.43 65.03 65.03 0 0 1-10.42 4.47Z" fill="#000072"/><path d="m107.87 156.37.79-.26.03.04-.05.01c-.25.08-.51.15-.77.21" fill="#000072"/><path d="M177.8 146.15a12.07 12.07 0 0 0-3.76-2.9 42.3 42.3 0 0 0-1.44-7.77c2.3 2.1 4.44 3.33 6.38 3.33 1.46 0 2.8-.7 4-2.29l2.1-3.9a6.94 6.94 0 0 1 2.78 3.66l-2.45 4.7c-1.57 2.43-4 4.08-7.61 5.17" fill="#626299"/><path d="M187.86 136.27a6.93 6.93 0 0 0-2.79-3.66l2.16-4.04c.53-.56.9-1.1 1.15-1.64a.33.33 0 0 0 .55-.06l.02-.02c.13-.28.3-.55.49-.8a3 3 0 0 1 .63-.62 1.65 1.65 0 0 1 .84-.29c.16 0 .32.03.47.08.05.08.08.17.12.25.57 1.33.5 2.87-.22 4.24l-3.42 6.56" fill="#B2B2D4"/><path d="M174.04 143.25c-.27-.13-.54-.24-.81-.35a41 41 0 0 0-2.08-8.84c.5.5.97.98 1.45 1.42a42.4 42.4 0 0 1 1.44 7.77m4.27 3.53a7.8 7.8 0 0 0-.51-.63c3.61-1.09 6.04-2.74 7.61-5.17l2.45-4.7 3.42-6.57a4.92 4.92 0 0 0 .1-4.49l.08.03h.04c.04.02.1.03.14.03h.07a.8.8 0 0 0 .47-.15l.02.04a5.72 5.72 0 0 1-.24 4.89l-3.88 7.44-2.01 3.86c-1.83 2.84-4.58 4.42-7.76 5.42" fill="#000072"/><path d="M188.84 125.33a4.7 4.7 0 0 0-.36-2.3c.7.12 1.36.43 1.9.9-.4.15-.74.4-1.03.7-.2.21-.36.45-.5.7Z" fill="#B2B2D4"/><path d="M190.38 123.92a4.1 4.1 0 0 0-1.9-.9h.07l.06-.01a.76.76 0 0 0 .67-.56c.77.25 1.46.7 2 1.3-.29 0-.58.05-.86.15l-.04.02" fill="#000072"/><path d="M188.64 127.06a.32.32 0 0 1-.25-.13c.24-.5.4-1.04.46-1.6a2.9 2.9 0 0 1 1.53-1.4l.05-.03c.27-.1.56-.15.86-.15.37.4.67.87.89 1.38a.8.8 0 0 1-.47.16h-.07a.72.72 0 0 1-.14-.03l-.04-.02-.07-.02a1.79 1.79 0 0 0-.48-.08 1.64 1.64 0 0 0-.84.29c-.24.18-.45.38-.63.62-.2.25-.36.52-.5.8v.03a.32.32 0 0 1-.3.19m-.09-4.06h-.07a4.7 4.7 0 0 0-.44-.8c.43.03.84.11 1.24.25a.76.76 0 0 1-.67.55h-.06m-10.31 24.99-.27-.07a9.67 9.67 0 0 0-4.67-4.44l-.08-.59a10.96 10.96 0 0 1 4.57 3.24c.18.2.35.42.52.64l-.79.23c.26.31.5.64.72.98Z" fill="#000072"/><path d="M165.09 142.73c4.44-4.13 2.25-12.76 1.2-16.04 3.29 3.63 5.4 9.03 6.17 15.95a12.19 12.19 0 0 0-6.76-.09l-.61.18" fill="#B2B2D4"/><path d="m173.13 142.86-.06-.02a11 11 0 0 0-.61-.2c-.78-6.92-2.88-12.32-6.18-15.95-.26-.82-.45-1.3-.45-1.3a24.04 24.04 0 0 1 5.33 8.67l-.11-.12 2.08 8.92" fill="#000072"/><path d="M162.76 144.2a7.57 7.57 0 0 0 2.33-1.47l.61-.18a12.59 12.59 0 0 1 7.37.3l.06.01.14.61.03.02.03.26a9.16 9.16 0 0 0-4.15-.93c-2.06 0-4.22.56-6.42 1.38" fill="#000072"/><path d="m173.22 142.9-.1-.04-2.08-8.92.11.12c1 2.72 1.66 5.69 2.07 8.84" fill="#000072"/><path d="m173.3 143.49-.03-.01-.15-.62.1.04.08.59Z" fill="#000072"/><path d="M156.4 127.81h-.2c.38-.53.58-1.17.57-1.82a4 4 0 0 0-.23-1.38 3.6 3.6 0 0 0 2.9-2.03c.37.6.58 1.3.63 2 .03.46-.04.92-.2 1.36a2.9 2.9 0 0 1-.62 1c-.84.57-1.83.87-2.84.87Zm-1.96-.4a5.3 5.3 0 0 1-3.14-4.6 6.8 6.8 0 0 0 4.31 1.85c.12.4.15.84.09 1.26-.06.44-.25.83-.52 1.1-.2.2-.46.35-.74.4Zm6.7-2.94v-.04a5.4 5.4 0 0 0-1.41-2.7c.25-1.13.12-2.61-.57-4.48a7.64 7.64 0 0 1 2.3 5.38c0 .63-.1 1.25-.31 1.84" fill="#B2B2D4"/><path d="M157.1 128.52c-.48 0-.97-.04-1.44-.13.2-.16.38-.34.53-.56l.02-.02h.2c1.01 0 2-.3 2.84-.87l-.09.08a.76.76 0 0 0-.14.9 7.4 7.4 0 0 1-1.83.6h-.09Zm-3.39-.85c-2.94-1.75-3.08-5.6-3.08-5.6.2.27.43.52.67.74a5.3 5.3 0 0 0 3.14 4.6l-.2.02-.1.01a.75.75 0 0 0-.43.23Zm7.41-1.37v-.01c.13-.6.14-1.22.02-1.82.21-.59.32-1.2.32-1.84a.75.75 0 0 0 .4.62l.4.21a5.6 5.6 0 0 1-1.14 2.84Zm.34-3.77a7.64 7.64 0 0 0-2.3-5.28c-.27-.73-.59-1.44-.95-2.14a9.9 9.9 0 0 1 3.95 6.02l-.37.23c-.13.38-.24.77-.33 1.17" fill="#000072"/><path d="M155.66 128.39a5.9 5.9 0 0 1-1.95-.72.75.75 0 0 1 .53-.24c.07 0 .13 0 .2-.02.28-.04.55-.18.75-.39.26-.27.45-.66.5-1.1.07-.42.04-.85-.07-1.26a7 7 0 0 0 .92-.05c.16.45.24.91.24 1.38a3.16 3.16 0 0 1-.59 1.84c-.15.21-.33.4-.53.56m3.37-.46a.75.75 0 0 1 .14-.91l.08-.08c.28-.29.5-.63.63-1 .16-.44.22-.9.2-1.36a4.65 4.65 0 0 0-.63-2c.12-.27.22-.55.28-.84a5.4 5.4 0 0 1 1.41 2.7v.03c.12.6.12 1.22-.01 1.82a5.74 5.74 0 0 1-2.1 1.63m3.24-4.46-.4-.21a.75.75 0 0 1-.34-.97.75.75 0 0 0 .78.45c0 .25-.02.49-.05.73" fill="#000072"/><path d="M162.22 122.74a.76.76 0 0 1-.43-1.38l.37-.23c.1.53.16 1.06.15 1.6a.7.7 0 0 1-.09.01" fill="#000072"/><path d="m111.63 170.07-.49-.1-.93-.15a10.2 10.2 0 0 1-3.15-.87 5.2 5.2 0 0 1-2.25-2.05 6.8 6.8 0 0 1-.81-3.05 13.56 13.56 0 0 1 .27-3.34c.18-.95.41-1.88.7-2.8.9-.1 1.8-.26 2.68-.47a40.2 40.2 0 0 0 4.97 4.11c-.46.15-.91.3-1.36.5a12.5 12.5 0 0 0-3.14 1.85.33.33 0 0 0 .12.56.3.3 0 0 0 .23-.01 15.9 15.9 0 0 1 1.59-.69c-.22 1.14.13 2.1.84 2.9a6.6 6.6 0 0 0 .73 3.61" fill="#626299"/><path d="m104.96 157.7.17-.52a.82.82 0 0 0 .03-.13l1.97-.44c.04.11.1.22.19.3.1.12.22.22.33.33-.88.21-1.78.37-2.69.47" fill="#000072"/><path d="M118.38 170.85c-1.55 0-3.11-.16-4.67-.4l-1.71-.3-.37-.08a6.59 6.59 0 0 1-.73-3.62c1.42 1.57 4.29 2.4 7.04 2.4.52 0 1.03-.03 1.53-.1l.06.3c.06.42 0 .84-.18 1.15a1.4 1.4 0 0 1-.8.63l-.06.02h-.1Zm2.15-.11v-.03a3.06 3.06 0 0 0-.02-2.12 6.92 6.92 0 0 0 2.82-1.22c.17.27.3.56.36.88.09.39.06.77-.07 1.1-.13.32-.36.6-.66.78a.7.7 0 0 0-.17.16c-.73.2-1.48.36-2.24.44h-.02Zm4.4-1.58c.01-.42-.06-.84-.2-1.23a3.85 3.85 0 0 0-.75-1.2c.18-.24.34-.5.45-.78a6.12 6.12 0 0 1 .74 2.32c.01.05 0 .1 0 .14 0 .27-.09.53-.24.76" fill="#B2B2D4"/><path d="M112.62 161.36a40.2 40.2 0 0 1-4.97-4.12l-.33-.33a.74.74 0 0 1-.19-.3l.78-.18 5.4 4.74c-.23.05-.46.12-.69.19" fill="#000072"/><path d="M118.03 171.6a34.9 34.9 0 0 1-7.14-.9c-.25-.06-.51-.1-.77-.13-5.96-.73-8.53-4.58-5.8-13.33l.84-.19c0 .05-.02.09-.03.13l-.17.53a26.02 26.02 0 0 0-.93 4.48c-.04.55-.05 1.1-.03 1.66a7 7 0 0 0 .8 3.05c.52.89 1.3 1.58 2.26 2.05.95.47 2.04.73 3.15.87l.93.15.49.1.37.08 1.71.3c1.56.24 3.12.4 4.67.4h.1l-.03.02a.76.76 0 0 0-.42.74Zm2-.05c.22-.24.39-.51.5-.81h.02c.76-.09 1.5-.24 2.24-.45a.76.76 0 0 0-.1.81c-.87.23-1.75.38-2.65.45Zm4.6-1.17a2.88 2.88 0 0 0 .3-1.21c.15-.23.24-.5.25-.76v-.15l-.02-.16a6.26 6.26 0 0 0-.73-2.16c.11-.27.18-.56.21-.86l.01.01a7.3 7.3 0 0 1 1.28 3.3v-.05.05a2.22 2.22 0 0 1-1.22 1.95l-.09.04Zm.94-3.95-.08-.02.08.02Zm-17.24-2.15a.32.32 0 0 1-.3-.22.32.32 0 0 1 .1-.36 12.6 12.6 0 0 1 4.5-2.35 16 16 0 0 1 .68-.19l.26.24-3.33 1.53c-.08.2-.13.41-.18.63-.53.2-1.06.43-1.59.68a.32.32 0 0 1-.14.04" fill="#000072"/><path d="M118.4 171.61h-.37a.76.76 0 0 1 .42-.74l.04-.02a.58.58 0 0 1 .06-.02c.35-.12.62-.32.8-.63.18-.32.24-.73.18-1.15-.01-.1-.03-.2-.06-.29.36-.04.7-.1 1.04-.17l.07.22c.17.59.2 1.26-.04 1.9l-.01.03c-.11.3-.28.57-.5.8-.52.05-1.06.07-1.62.07m4.29-.51a.75.75 0 0 1 .09-.81.76.76 0 0 1 .17-.16c.3-.19.53-.46.66-.78s.15-.71.07-1.1c-.07-.31-.2-.61-.36-.88a4 4 0 0 0 .65-.65c.32.36.57.77.74 1.21a3.21 3.21 0 0 1 .14 1.78c-.05.23-.13.46-.24.67a10.93 10.93 0 0 1-1.93.72m-9.39-9.93-5.4-4.74.23-.05 5.5 4.7-.32.08m12.62 7.24a7.3 7.3 0 0 0-1.28-3.3l1.06 1.37-.14-.04-.08-.02a7.46 7.46 0 0 1 .44 1.93v.06Zm-12.36-7-.26-.23.33-.08.21.19-.28.12" fill="#000072"/><path d="M144.78 92.22a.74.74 0 0 1-.67-1.03l1.21-2.75a1.37 1.37 0 0 0-.34-1.58 9.4 9.4 0 0 1 4.96-16.4 9.38 9.38 0 0 1 10.63 8.4 9.44 9.44 0 0 1-10.94 10.24c-.28 0-.56.1-.79.26l-3.62 2.71a.73.73 0 0 1-.44.15" fill="#FF0660"/><path d="M151.22 69.64a10.19 10.19 0 0 0-10.09 11.4c.3 2.46 1.5 4.73 3.36 6.37a.63.63 0 0 1 .16.73l-1.21 2.76a1.47 1.47 0 0 0 2.22 1.77l3.62-2.71a.58.58 0 0 1 .43-.12 10.17 10.17 0 0 0 11.6-11.04 10.16 10.16 0 0 0-10.1-9.15Zm0 1.47a8.68 8.68 0 1 1-1.3 17.28 2.02 2.02 0 0 0-1.52.39l-3.62 2.7 1.21-2.75a2.1 2.1 0 0 0-.53-2.42 8.65 8.65 0 0 1-2.87-5.45 8.72 8.72 0 0 1 8.63-9.75" fill="#000072"/><path d="m145.24 90.46.75-1.73a2.1 2.1 0 0 0-.15-1.99 2.2 2.2 0 0 0-.61-.94l-.07-.07c.87.59 1.97.95 3.4.95 1.16 0 2.53-.24 4.17-.8a8.72 8.72 0 0 0 5.02-11.79l.01.02-.02-.03c.47.54.88 1.13 1.2 1.77l.06.13.06.17.07.19.08.2.05.17.1.36.03.12.07.28c0 .05.02.1.03.14l.04.28.03.13a9.13 9.13 0 0 1 .08.85v.15c0 .1.01.19 0 .28v.43l-.02.19-.01.23-.03.2-.03.22c0 .07-.02.13-.03.2l-.04.22-.04.19-.05.21-.06.2-.05.2-.07.2-.06.2-.08.19-.07.19-.09.2-.08.17a6 6 0 0 1-.1.2l-.08.17-.1.2-.1.16a61.07 61.07 0 0 1-.45.68 3.74 3.74 0 0 1-.24.33l-.15.17-.11.14-.16.17-.12.13a7.9 7.9 0 0 1-.46.45l-.13.11-.18.16-.13.1-.2.15a6.9 6.9 0 0 1-.34.24l-.13.09-.22.14-.12.07c-.08.05-.16.1-.24.13l-.12.07-.24.12-.13.06-.26.11-.12.05-.27.1-.1.05-.3.1-.1.02-.3.09-.09.02-.33.07-.06.01a8.56 8.56 0 0 1-2.97.08 2 2 0 0 0-1.52.39l-2.93 2.19Zm-.09-4.72-.31-.23-.18-.25c.16.17.32.33.5.48Zm-.49-.48-.35-.39-.27-.48.62.87" fill="#C30C58"/><path d="m144.54 90.97 1.21-2.75c.2-.46.24-.99.09-1.48a2.11 2.11 0 0 1 .15 2l-.75 1.72-.7.51Zm14.4-15.12a8.63 8.63 0 0 0-1.2-1.77 8.36 8.36 0 0 0-.28-.55c.3.32.56.67.8 1.04v.02l.16.24.04.08.14.24.03.06a8.86 8.86 0 0 1 .28.57l.03.07" fill="#110864"/><path d="M145.17 86.04a8.65 8.65 0 0 1-1.93-9.68 8.7 8.7 0 0 1 7.57-5.24h.4a8.68 8.68 0 0 1 6.53 2.97 8.67 8.67 0 0 0-14.62 7.34c.13 1.03.44 2.03.92 2.95-.3-.41-.6-.82-.7-.93l.13.22a9 9 0 0 0 .85 1.2c.25.41.53.8.85 1.17" fill="#FF83B0"/><path d="M143.24 76.36Zm6.8-5.17Z" fill="#8080B9"/><path d="M144.31 84.86a8.7 8.7 0 0 1-.97-1.41c.1.11.4.52.7.93l.27.48Zm13.45-10.75-.02-.02.02.02Z" fill="#E186AC"/><path d="M147.82 77.05c.83-.9 2.25-.8 3.16.04l.14.13.13-.14c.84-.9 2.24-1.12 3.15-.28a2.22 2.22 0 0 1 .12 3.16l-.13.14-2.64 2.84a.6.6 0 0 1-.4.2.58.58 0 0 1-.43-.17l-2.84-2.63-.14-.13a2.23 2.23 0 0 1-.12-3.15Z" fill="#fff"/></svg>