<svg viewBox="0 0 276 215" fill="none" xmlns="http://www.w3.org/2000/svg"><path d="M253.48 146.2a40.5 40.5 0 0 1 .01 2.99c-.31 8.3-3.54 15.36-11.04 20.63l-6.73-14.94-21.56-47.84c-2.8-6.73-3.67-13.39-2.75-19.42a26.94 26.94 0 0 1 12.9-19.3 29.26 29.26 0 0 1 20.76-3.7c14.78 2.98 13.95 16.98 4.5 20.62-5.75 2.73-9.64 6.25-10.73 10.96-.8 3.4-.13 7.43 2.34 12.22.75 1.44 1.5 2.9 2.19 4.38 5.64 12.09 9.7 23.5 10.12 33.39" fill="#8C8CAA"/><path d="M250.63 85.24c-5.76 2.73-9.65 6.25-10.74 10.96-2.12-12.88-18.46-14.52-27.42-8.57 1.22-8 5.62-14.88 12.9-19.31a29.26 29.26 0 0 1 18.17-4.08c17.44 1.78 17.06 17.16 7.1 21" fill="#fff"/><path d="M242.02 122.76c-2.07-3.18-4.4-6-6.92-8.39-.84-2.67-2.37-8.19-4.4-18.17-.97-4.79-.92-8.2-.16-10.83 3.86 1.33 7.08 3.95 8.62 8.06-.17.38-.33.78-.46 1.18-1.41 4.17-.7 9.06 2.13 14.53.72 1.4 1.47 2.86 2.16 4.32l1.74 3.83a26.5 26.5 0 0 0-2.71 5.47" fill="#626299"/><path d="M239.16 93.43c-1.54-4.1-4.76-6.73-8.62-8.06 1.72-5.92 7.08-7.76 12.5-11.93 3.7-2.84 3.9-5.35 3.09-7.2 5.6 1.22 9.18 4.24 9.74 8.4.51 3.85-1.87 7.6-5.8 9.13a1.9 1.9 0 0 0-.12.04c-5.54 2.63-9.08 5.78-10.8 9.62" fill="#B2B2D4"/><path d="M244.19 167.32a31.3 31.3 0 0 0-2.45-4.56l-.15-.22a36 36 0 0 0 9.7-4.67 22.68 22.68 0 0 1-7.1 9.45Z" fill="#626299"/><path d="M243.5 171.4a1.58 1.58 0 0 1-.9-2.88c13.77-9.67 13.88-26.13.39-55.05-.69-1.47-1.44-2.92-2.16-4.33-2.83-5.47-3.54-10.36-2.13-14.53 1.48-4.38 5.16-7.9 11.25-10.8l.11-.04c3.94-1.52 6.32-5.28 5.8-9.14-.64-4.79-5.3-8.09-12.49-8.82-6-.62-12.1.75-17.18 3.85-12.02 7.33-15.76 21.76-9.51 36.77a1.58 1.58 0 1 1-2.92 1.21c-6.88-16.53-2.64-32.5 10.79-40.68a30.94 30.94 0 0 1 19.14-4.3c10.29 1.06 14.65 6.66 15.3 11.56.72 5.29-2.46 10.41-7.74 12.48-5.25 2.5-8.38 5.4-9.56 8.93-1.14 3.38-.5 7.33 1.95 12.07.74 1.44 1.5 2.92 2.21 4.44 6.53 13.98 9.78 24.63 10.25 33.54.58 11.19-3.24 19.5-11.69 25.43-.26.2-.58.3-.9.3" fill="#000072"/><path d="M188.49 104.3c-.34-.45-9.4-10.15-9.4-10.15l-3.29 3.05-1.66 11.5 14.34-4.4" fill="#9191B7"/><path d="M238.99 161.68a1.1 1.1 0 0 1-.11.03l-.36-.6.47.57Z" fill="#8C8CAA"/><path d="M238.99 161.68a1.1 1.1 0 0 1-.11.03l-.36-.6.47.57Z" fill="#8C8CAA"/><path d="M270.56 189.9c-2.5 1.93-5.87 3.4-9.67 4.63l-9.73 5.7a20.9 20.9 0 0 1-4.95 2.11c-17.38 4.9-41.4 3.65-67.09.87-17.78 2.96-33.97 2.78-48.42-.88l-.45-.11c.42 1.1.72 2.26.88 3.44.04.23.05.47.04.7a4.62 4.62 0 0 1-2.56 4.07c-.42.22-.85.41-1.3.6-6.5 2.72-15.12 2.53-24.95.66-.86-.16-1.74-.34-2.62-.52-.53-.12-1.07-.2-1.61-.27-12.44-1.52-17.83-9.56-12.12-27.84l.19-.6 30.18-25.16 58.3-48.6c10.26-3.23 22.83-3.57 33.46 2.54l-1.14-1.86c4.29-2.9 10.7-3.21 17.35-.36 6.42 2.75 13.06 8.46 18.16 17.61.33-1.4.77-2.77 1.3-4.11a22.05 22.05 0 0 1 7.3-9.7 15 15 0 0 1 9.85-3 10.1 10.1 0 0 1 8.68 6.22 11.95 11.95 0 0 1-.5 10.21l-8.1 15.54-4.21 8.08c-4.12 6.42-10.5 9.76-17.85 11.8a31.9 31.9 0 0 0-.47-.56l.37.6.1-.03c.54.66 1.03 1.34 1.5 2.05a31.73 31.73 0 0 1 4.81 13.77c.22-.25.44-.5.67-.73 6.94-7.29 15.34-8.49 21.2-6.15 7.03 2.8 10.44 10.68 3.4 19.28Z" fill="#8C8CAA"/><path d="M242.5 128.89c-.2-.28-.43-.55-.64-.82l.25.1.4.72Zm-1.76-2.18c-9.1-10.8-18.13-15.45-27.09-15.45-.78 0-1.57.03-2.35.1-.74-.5-1.47-.97-2.2-1.39 1.8-.9 3.9-1.36 6.18-1.36 1.53 0 3.04.2 4.53.56 7.97 1.89 15.57 8.27 20.93 17.54" fill="#CBCBD9"/><path d="m207.44 109.1.7 2.14-1.14-1.86.44-.28Z" fill="#fff"/><path d="M245.21 180.43c-.14-.5-.3-.97-.45-1.45.14.05.28.08.42.09.02.45.03.9.03 1.36Zm-1.95-5.57c-5.3-12.93-13.85-18.87-25.17-18.87-3.66 0-7.62.63-11.85 1.84a31.36 31.36 0 0 1 8.58-3.15 26.66 26.66 0 0 1 7-.44c2.32.19 4.6.73 6.74 1.61.54.21 1.05.5 1.57.72.51.28 1.01.55 1.51.84.48.32.98.61 1.44.95.45.36.94.66 1.37 1.05a23.8 23.8 0 0 1 2.99 2.95c.11.25.3.48.52.64.4.5.76 1 1.12 1.53a28.63 28.63 0 0 1 4.18 10.34" fill="#CBCBD9"/><path d="M270.56 189.9c-2.5 1.93-5.87 3.4-9.67 4.63l-9.74 5.7a20 20 0 0 1-1.26.68c6.56-6.85 2.69-17.16-3.93-24.14 15.27-16.02 37.52-2.65 24.6 13.13Zm-41.56-35.42c-6.44-3-13.1-1.25-13.1-1.25-10.39 2.95-17.69 6.97-26.03 15.25a61.05 61.05 0 0 1-36.42 17.57c-15.74 1.68-29.62-2.9-42.22-11.73l5.15-17.02 58.31-48.6c10.25-3.23 22.82-3.57 33.46 2.54 14.75 10.33 21.23 24.98 20.86 43.24m40.13-28.23-8.1 15.54c-.49-7.94-9.09-13.83-17.98-13.8 0 0-.2-2.36.76-5.47a17.65 17.65 0 0 1 6.6-9.17 24 24 0 0 0 .7-.52c6.9-4.99 15.5-3.8 18.52 3.2a11.95 11.95 0 0 1-.5 10.22Z" fill="#fff"/><path d="M80.27 49.23c3.65-14.94 8.55-28.49 17.86-37.14a7.11 7.11 0 0 1 9.64 0c11.7 10.74 19.86 24.45 24.5 41.13l-52-3.99" fill="#8C8CAA"/><path d="M87.4 27.58c2.8-6.04 6.25-11.33 10.73-15.5-4.48 4.17-7.94 9.46-10.72 15.5Z" fill="#CCECFB"/><path d="M80.8 47.14c1.77-6.99 3.87-13.63 6.6-19.56 2.8-6.04 6.25-11.33 10.73-15.5l.22-.19a7.13 7.13 0 0 1 9.42.2 80.56 80.56 0 0 1 10.51 11.73 81.2 81.2 0 0 0-7.96-8.43 7.14 7.14 0 0 0-9.64 0c-7.9 7.34-12.61 18.2-16.09 30.44a57.25 57.25 0 0 0-3.8 1.3" fill="#CBCBD9"/><path d="M175.8 103.82c-1.74 10.37-7.3 19.74-14.04 28.79l-24.74 25.63a137.57 137.57 0 0 1-39.97 21.91 42.5 42.5 0 0 1-20.54 1.95c-13.75-2.12-23.21-9.72-27.6-26.38a29.75 29.75 0 0 0-3.5-8.13c-3.04-4.91-6.03-10.33-7.6-14.98-17.13-8.03-29-17.5-35.44-28.5a5.73 5.73 0 0 1 .48-6.52c6.45-7.85 19.58-14.17 41.08-18.44 25.94-35.76 66.6-47.38 101.5-16.36a35.44 35.44 0 0 0 5.96 4.32c7.1 4.06 13.39 8.49 18.52 13.45.45.43.9.87 1.34 1.33a17.26 17.26 0 0 1 4.75 9.75 40.5 40.5 0 0 1-.2 12.18" fill="#8C8CAA"/><path d="M3.99 103.71c-.12-.19-.27-.4-.33-.54a4.18 4.18 0 0 1 .18-4.25c.17-.27.54-.66.86-1.02a32.56 32.56 0 0 1 5.52-4.83 57.16 57.16 0 0 1 10.59-5.64c7.47-3.09 15.43-5.1 23.43-6.72.38-.08.72-.3.95-.6l.02-.02c5.05-6.78 10.78-13.07 17.35-18.31 3.27-2.64 6.75-5 10.4-7.08a66.62 66.62 0 0 1 11.43-5.08 56.55 56.55 0 0 1 17.94-2.96 55.88 55.88 0 0 1 18.76 3.32 64.33 64.33 0 0 1 8.54 3.85 58.2 58.2 0 0 0-24.97-5.74c-21.8 0-42.74 12.78-58.36 34.3-21.5 4.27-34.63 10.58-41.08 18.43a5.62 5.62 0 0 0-1.23 2.9" fill="#CBCBD9"/><path d="M175.8 103.82c-1.74 10.37-7.3 19.74-14.04 28.79l-24.74 25.63a137.57 137.57 0 0 1-39.97 21.91c-.67.23-1.34.45-2.02.65-7.71-8.08-6.36-17.58 1.56-28.1a14.34 14.34 0 0 0 2.84-9.65l-.63-8.76c-.22-3.11.79-6.19 2.81-8.56l.06-.07a3.98 3.98 0 0 0 .6-4.22c-1.74-3.86-1.23-7 1.51-9.06 2.57-1.97 5.43-1.09 7.55.25a3.95 3.95 0 0 0 3.49.34l3.89-1.43a14.05 14.05 0 0 1 9.7-.02l1.6.6a8 8 0 0 0 5.7-.09c2.47-.97 6.21-2.8 10.63-6.04 7.97-5.86 20.8-14.2 29.45-2.17" fill="#fff"/><path d="m122.43 48.57-25.4-3.47c.74-9.77 2.19-18.77 6.28-24.96a2.28 2.28 0 0 1 3.56-.28c7.62 8.04 12.6 17.74 15.56 28.7" fill="#F47DEE"/><path d="M97.35 41.42c.83-8.34 2.4-15.88 5.96-21.28-3.57 5.4-5.13 12.94-5.96 21.27" fill="#626299"/><path d="M121.83 46.45a58.07 58.07 0 0 0-5.5-1.64 61.58 61.58 0 0 0-10.8-15.78 2.3 2.3 0 0 0-3.57.29c-2.2 3.32-3.63 7.46-4.6 12.1.82-8.33 2.38-15.88 5.95-21.27a2.24 2.24 0 0 1 1.89-1.01 2.3 2.3 0 0 1 1.68.72c7.12 7.52 11.94 16.49 14.95 26.59" fill="#AA57C9"/><path d="M35.9 95.4c-2.58 8.38-2.25 17.53 0 27.17-9.2-3.65-16.77-8.84-21.71-16.55a2.03 2.03 0 0 1 .52-2.73c5.65-4.06 12.85-6.55 21.18-7.9Z" fill="#F47DEE"/><path d="M18.05 108.6a33.8 33.8 0 0 1-2.53-3.43.44.44 0 0 1 .11-.6c4.72-3.38 10.65-5.74 18.08-7.19-.4 1.65-.69 3.33-.88 5.01-5.62 1.37-10.6 3.4-14.78 6.22" fill="#AA57C9"/><path d="M127.15 126.16c3.85 10.14-3.6 14.87-11.33 10.5l4.94-5.97 6.4-4.53Z" fill="#EF3062"/><path d="M161.21 132.2c2.3-3.6 4.57-7.21 6.56-10.94a65.58 65.58 0 0 0 4.97-11.51 43.04 43.04 0 0 0 2.01-12.18c.02-.52-.02-1.03-.03-1.55 0-.5-.02-1.02-.06-1.54l-.16-1.53c-.05-.5-.09-1.04-.17-1.51a15.68 15.68 0 0 0-3.7-7.79l-.5-.53c-.16-.18-.36-.37-.54-.55l-1.12-1.1a71.27 71.27 0 0 0-4.76-4.1 98.62 98.62 0 0 0-13.16-8.75 37.02 37.02 0 0 1-5.53-3.86c-.87-.75-1.64-1.39-2.45-2.07-1.58-1.39-3.28-2.62-4.96-3.88l-2.6-1.77c-.42-.3-.87-.57-1.32-.84l-1.34-.81a66.86 66.86 0 0 0-11.27-5.4 55.88 55.88 0 0 0-12.1-2.9 55.66 55.66 0 0 0-24.6 2.54 66.62 66.62 0 0 0-11.43 5.08 77.71 77.71 0 0 0-10.39 7.07c-6.58 5.24-12.3 11.54-17.35 18.31l-.02.03c-.23.3-.57.52-.95.6-8 1.62-15.96 3.63-23.44 6.71a57.21 57.21 0 0 0-10.59 5.64 32.46 32.46 0 0 0-5.52 4.83c-.31.36-.68.75-.85 1.02a4.18 4.18 0 0 0-.18 4.26c.07.14.23.39.36.6l.39.62c.27.42.5.86.8 1.26.58.8 1.13 1.65 1.76 2.42.3.4.6.8.92 1.18l.97 1.15a62 62 0 0 0 8.76 8.27c6.36 4.99 13.48 9.03 20.85 12.5.4.2.69.52.83.93.88 2.5 2.07 4.94 3.34 7.35a109.8 109.8 0 0 0 4.12 7.08 31.5 31.5 0 0 1 3.62 7.98l.58 2c.2.65.36 1.3.58 1.94.45 1.25.87 2.53 1.43 3.74.49 1.24 1.13 2.4 1.73 3.58l1.03 1.69c.16.28.34.56.54.82l.58.8a27.32 27.32 0 0 0 5.44 5.56c2.06 1.58 4.4 2.8 6.84 3.73 2.45.95 5.04 1.6 7.67 2.03a40.87 40.87 0 0 0 19.72-1.8c1.29-.46 2.59-.9 3.86-1.4 2.57-.96 5.1-2 7.6-3.13a126.4 126.4 0 0 0 7.43-3.55c2.46-1.22 4.85-2.57 7.24-3.93a205.5 205.5 0 0 0 13.95-8.88.68.68 0 0 1 .83 1.07 118.34 118.34 0 0 1-28.14 18.18 131.74 131.74 0 0 1-7.76 3.27c-1.3.52-2.63.99-3.94 1.47a44.2 44.2 0 0 1-21.31 2.12 42.53 42.53 0 0 1-8.41-2.15 29.78 29.78 0 0 1-13.86-10.51l-.64-.9a9.3 9.3 0 0 1-.6-.9l-1.13-1.89c-.66-1.29-1.36-2.57-1.89-3.9-.6-1.32-1.04-2.69-1.53-4.04-.23-.68-.41-1.37-.62-2.05l-.57-2a28.08 28.08 0 0 0-3.15-7.17c-1.47-2.4-2.87-4.83-4.17-7.34a55.62 55.62 0 0 1-3.4-7.86l.83.92h-.01c-7.53-3.55-14.85-7.69-21.47-12.89a64.94 64.94 0 0 1-9.19-8.68l-1.03-1.22c-.34-.4-.65-.83-.98-1.25-.67-.83-1.26-1.72-1.87-2.59-.31-.43-.57-.9-.86-1.34l-.42-.68c-.15-.24-.27-.42-.44-.74a7.34 7.34 0 0 1 .34-7.5c.4-.58.76-.93 1.12-1.35a35.52 35.52 0 0 1 6.08-5.33 60.25 60.25 0 0 1 11.19-5.96c7.78-3.2 15.89-5.24 24.03-6.9l-.97.62c2.54-3.54 5.3-6.92 8.23-10.13a90.24 90.24 0 0 1 9.54-8.98 81.2 81.2 0 0 1 10.81-7.46c3.82-2.2 7.85-4 12.03-5.4a61.2 61.2 0 0 1 12.91-2.83 58.04 58.04 0 0 1 26.11 3.18 68.74 68.74 0 0 1 11.9 5.7l1.4.86c.47.29.94.57 1.4.89l2.7 1.87c1.74 1.33 3.5 2.63 5.14 4.08.82.7 1.7 1.44 2.44 2.1.78.65 1.59 1.28 2.42 1.87.83.6 1.69 1.14 2.57 1.65.94.54 1.87 1.1 2.8 1.66 3.72 2.26 7.33 4.71 10.75 7.45a74.47 74.47 0 0 1 6.13 5.49l.58.6.6.64a18.92 18.92 0 0 1 4.42 9.45c.1.59.12 1.13.18 1.68l.16 1.67c.04.55.04 1.11.06 1.67.02.56.04 1.11.02 1.67-.1 4.46-.86 8.87-2.28 13.1-.34 1.05-.76 2.07-1.14 3.1-.45 1-.87 2.03-1.35 3.01a59.96 59.96 0 0 1-3.18 5.74 83.74 83.74 0 0 1-7.71 10.46.68.68 0 0 1-.93.1.68.68 0 0 1-.16-.92" fill="#000072"/><path d="M132.27 54.8a1.58 1.58 0 0 1-1.52-1.16c-4.54-16.31-12.63-29.9-24.05-40.39a5.55 5.55 0 0 0-7.5 0c-9.7 9.02-14.24 23.44-17.4 36.36a1.58 1.58 0 0 1-3.07-.75c3.27-13.38 8-28.34 18.32-37.93a8.72 8.72 0 0 1 11.78 0c11.86 10.89 20.26 24.97 24.96 41.87a1.57 1.57 0 0 1-1.53 2Z" fill="#000072"/><path d="M122.43 50.14a1.58 1.58 0 0 1-1.53-1.17c-3.04-11.28-8-20.45-15.17-28.03a.7.7 0 0 0-.88-.13.67.67 0 0 0-.22.2c-4.17 6.31-5.39 15.78-6.03 24.21a1.58 1.58 0 0 1-3.15-.24c.67-8.84 1.97-18.8 6.55-25.71a3.8 3.8 0 0 1 2.86-1.7 3.86 3.86 0 0 1 3.16 1.2c7.43 7.85 12.8 17.74 15.93 29.37a1.58 1.58 0 0 1-1.52 2Zm-88.72 47.24c-7.43 1.45-13.37 3.81-18.08 7.19a.44.44 0 0 0-.11.6c3.97 6.2 9.94 11.05 18.2 14.77-1.63-8.39-1.63-15.81 0-22.56Zm2.18 26.77c-.2 0-.4-.04-.58-.11-10.33-4.11-17.67-9.73-22.45-17.17a3.6 3.6 0 0 1 .93-4.87c5.63-4.03 12.77-6.7 21.85-8.17a1.58 1.58 0 0 1 1.77 2.02c-2.34 7.61-2.33 16.24.02 26.36a1.58 1.58 0 0 1-1.54 1.94Zm32.58 19.44a9.51 9.51 0 0 1-1.09-4.24c-.03-1.51.23-3.02.77-4.43a14.05 14.05 0 0 1 5.66-6.86 17.01 17.01 0 0 1 8.25-2.63 19 19 0 0 1 4.19.24 17.11 17.11 0 0 1 3.94 1.16.92.92 0 0 1 .28 1.53.93.93 0 0 1-.55.25h-.05c-1.29.1-2.52.18-3.73.33a32.4 32.4 0 0 0-3.5.64 19.07 19.07 0 0 0-6.12 2.62 14.6 14.6 0 0 0-4.4 4.56 12.9 12.9 0 0 0-1.9 6.38v.05a.93.93 0 0 1-1.74.4Zm46.28-25.75a2.17 2.17 0 0 1 3.6 1.35c.28 2.66-.46 4.5-1.76 5.8-1.37 1.38-3.41 2.15-6.55 2.02a2.17 2.17 0 0 1-1.36-3.8l6.07-5.37Zm30.39-28.66a33.97 33.97 0 0 0-7.18-.07c-2.22.28-4.2 1-5.8 2.18a12.4 12.4 0 0 0-3.78 4.88 35.13 35.13 0 0 0-2.11 6.86v.02a.93.93 0 0 1-1.8.05c-.8-2.7-.85-5.58-.17-8.32.36-1.45.96-2.84 1.76-4.1a12.6 12.6 0 0 1 7.36-5.38c1.44-.39 2.94-.54 4.44-.45 2.8.18 5.52 1.09 7.88 2.63a.92.92 0 0 1 .38 1.07.93.93 0 0 1-.96.63h-.02Z" fill="#000072"/><path d="m115.8 119.02-6.08 5.38a.56.56 0 0 0-.16.63.57.57 0 0 0 .54.4c2.47.1 4.23-.4 5.36-1.55 1.11-1.1 1.53-2.55 1.3-4.52a.52.52 0 0 0-.34-.45.6.6 0 0 0-.62.1Zm-5.1 9.58-.72-.01a3.76 3.76 0 0 1-2.35-6.56l6.08-5.38a3.76 3.76 0 0 1 6.2 2.36c.32 2.92-.42 5.31-2.2 7.1-1.67 1.67-3.97 2.5-7.01 2.5Z" fill="#000072"/><path d="M117.55 124.24c.7.76 1.37 1.54 2.04 2.33l1.02 1.22a4.28 4.28 0 0 1 .87 3.3l-.05.25a9.62 9.62 0 0 1-3.21 5.5 10.53 10.53 0 0 1-4.84 2.27c-.6.1-1.2.15-1.8.13a5.7 5.7 0 0 1-3.59-1.24 3.4 3.4 0 0 1-1.07-1.8 3.9 3.9 0 0 1 .1-1.9.6.6 0 0 1 .27-.39.68.68 0 0 1 1.05.57v.06c0 .44.07.84.22 1.15.15.3.38.54.68.7.32.18.67.29 1.04.32.4.05.82.05 1.23 0a8.07 8.07 0 0 0 4.58-2.22 6.99 6.99 0 0 0 1.85-3.18c.07-.2.09-.4.14-.6 0-.05.03-.12.03-.14v-.19a.99.99 0 0 0-.2-.5l-.93-1.17c-.63-.81-1.27-1.63-1.87-2.47a1.58 1.58 0 0 1 2.44-2Z" fill="#000072"/><path d="M118.58 127.98c2.39-2.05.66-.56 1.2-1.02l.02.02.04.03.07.06.15.12a3.04 3.04 0 0 0 1 .51 3.1 3.1 0 0 0 2.14-.1c.11-.05.22-.1.33-.17l.15-.1.2-.15c.54-.4 1.04-.85 1.5-1.34a7.2 7.2 0 0 0 1.85-3.3 3.71 3.71 0 0 0 .04-1.3l-.1-.43a4.6 4.6 0 0 0-1.04-1.63l-.05-.05a.68.68 0 0 1 .8-1.07c.86.4 1.59 1.03 2.12 1.81.56.83.8 1.87.8 2.85a7.6 7.6 0 0 1-.58 2.8 10.92 10.92 0 0 1-3.26 4.3l-.25.22-.33.23a6.1 6.1 0 0 1-5.44.62 5.74 5.74 0 0 1-2.3-1.57l-.13-.15-.06-.07-.03-.04-.02-.02v-.01c.53-.47-1.2 1.02 1.19-1.04h-.02Z" fill="#000072"/><path d="M121.48 139.87c-2.05 0-4.26-.61-6.44-1.84l1.56-2.75c3.16 1.8 6.43 1.9 8.33.27 1.96-1.69 2.24-4.9.75-8.83l2.95-1.12c1.99 5.24 1.39 9.74-1.64 12.35a8.3 8.3 0 0 1-5.5 1.93h-.01Z" fill="#000072"/><path d="M128.2 130.96c-3.94-.56-7.35 1.58-7.87 7.33l-3.7-1.2 3.8-7.52 6.87-3.03.9 4.42Z" fill="#000072"/><path d="M65.67 106.43c2.53 1.98.59 4.86-2.04 8.23-2.63 3.38-4.96 5.96-7.5 3.98-2.52-1.97-1.44-5.53 1.19-8.9 2.63-3.38 5.81-5.3 8.35-3.31Z" fill="#fff"/><path d="M202.92 120.07c-8.78 7.82-24.95.22-19.13-17.26l.18-.54-2.22-4.17-5.42-2.82c7.11-3.5 17.17-3.3 23.83 1.74h.01a17.39 17.39 0 0 1 6.68 11.6 12.7 12.7 0 0 1-3.93 11.44" fill="#8C8CAA"/><path d="M124.47 68.4c2.02 2.5-.52 4.86-3.85 7.55-3.33 2.7-6.17 4.69-8.2 2.19-2.02-2.5-.16-5.72 3.16-8.41 3.33-2.7 6.86-3.84 8.89-1.34Zm78.45 51.67c-8.78 7.82-24.95.22-19.13-17.26 3.1-3.77 9.64-9.04 16.37-5.78h.01c3.38 2.56 5.89 6.38 6.68 11.59a12.7 12.7 0 0 1-3.93 11.45Z" fill="#fff"/><path d="M194.85 124.72a13.7 13.7 0 0 1-7.64-2.34c-4.7-3.16-8.42-10.25-4.73-20.64a1.57 1.57 0 0 1 1.41-1.05 1.56 1.56 0 0 1 1.14.4 1.58 1.58 0 0 1 .43 1.7c-2.62 7.39-1.3 13.73 3.51 16.97a10.54 10.54 0 0 0 12.9-.87c2.73-2.44 4-6.19 3.42-10.04a15.73 15.73 0 0 0-8.48-12.09c-5.79-3.02-13.74-3.05-19.79-.07a1.58 1.58 0 1 1-1.4-2.84c6.91-3.4 16.01-3.35 22.65.11a18.8 18.8 0 0 1 10.14 14.42c.75 4.91-.91 9.72-4.44 12.87a13.67 13.67 0 0 1-9.11 3.47" fill="#000072"/><path d="M192.8 111.12c.82.88 1.5 1.88 2.02 2.97a8.5 8.5 0 0 1 .8 3.67 6.6 6.6 0 0 1-1.21 3.84 5.75 5.75 0 0 1-3.71 2.3l-.08.01a1.57 1.57 0 0 1-1.6-.73 1.56 1.56 0 0 1-.2-1.2 1.56 1.56 0 0 1 .72-.98 1.6 1.6 0 0 1 .8-.24 2.79 2.79 0 0 0 1.96-.86 4.1 4.1 0 0 0 1.07-2.3c.14-.96.06-1.94-.24-2.87a9.88 9.88 0 0 0-1.37-2.74l-.01-.02a.68.68 0 0 1 1.05-.85Zm8.3-2.91a11.2 11.2 0 0 1 3.65 6.29 9 9 0 0 1-1.77 7.51l-.02.02a1.58 1.58 0 0 1-2.3.2 1.58 1.58 0 0 1-.04-2.32 6.06 6.06 0 0 0 1.5-2.27c.32-.9.45-1.88.39-2.84a9.4 9.4 0 0 0-2.35-5.6v-.02a.68.68 0 0 1 .94-.97m29.12 48.23a1.58 1.58 0 0 1-1.57-1.44c-1.9-21.44-9.64-36.3-22.38-43a1.58 1.58 0 1 1 1.47-2.79c9.58 5.03 21.53 17.01 24.05 45.5a1.57 1.57 0 0 1-1.43 1.72h-.14m-55.54-46.15a1.58 1.58 0 0 1-.47-3.09 51.3 51.3 0 0 1 8.36-1.88 1.58 1.58 0 0 1 .44 3.12c-2.66.37-5.29.97-7.85 1.78a1.6 1.6 0 0 1-.48.07" fill="#000072"/><path d="M238.88 163.29a1.58 1.58 0 0 1-.42-3.1c8.15-2.26 13.56-5.8 17-11.12l12.28-23.55a10.3 10.3 0 0 0 .45-8.86c-1.57-3.65-5.02-5.62-9.22-5.25-5.69.49-12.5 5.5-14.93 15.6a1.59 1.59 0 0 1-2.24 1.04 1.58 1.58 0 0 1-.67-.65c-5.38-9.64-13.15-16.29-21.32-18.23-4.62-1.1-8.85-.56-11.92 1.52a1.58 1.58 0 0 1-2.44-1.61c.08-.41.32-.77.67-1 3.8-2.59 8.93-3.3 14.42-1.99 8.1 1.93 15.79 7.93 21.48 16.67 3.59-9.88 10.99-14.01 16.68-14.5 5.54-.47 10.28 2.26 12.4 7.15a13.44 13.44 0 0 1-.56 11.57l-12.3 23.62a1.9 1.9 0 0 1-.08.12c-3.89 6.04-9.88 10.02-18.86 12.51-.14.04-.28.06-.42.06" fill="#000072"/><path d="m243.97 126.04 1.95 7.22c.04.16.02.33-.05.48a.69.69 0 0 1-.84.34.69.69 0 0 1-.37-.31l-3.62-6.55a1.59 1.59 0 1 1 2.93-1.17Zm17.59-6.88c.18-.76.44-1.5.78-2.21.35-.75.8-1.43 1.36-2.04a6 6 0 0 1 2.24-1.52c.91-.35 1.9-.37 2.83-.28a1.59 1.59 0 1 1-.59 3.1l-.09-.02a3.27 3.27 0 0 0-1.42-.2c-.53.09-1.03.29-1.46.6-.5.36-.95.8-1.33 1.3-.4.51-.75 1.07-1.03 1.67l-.03.04a.68.68 0 0 1-.83.35.68.68 0 0 1-.44-.79m-7.75-2.8c.14-.97.4-1.91.78-2.81.4-.93.92-1.8 1.58-2.56a7.33 7.33 0 0 1 2.57-1.9c1-.5 2.1-.64 3.17-.73a1.6 1.6 0 0 1 1.55.86 1.57 1.57 0 0 1-.2 1.76 1.6 1.6 0 0 1-1.33.55l-.14-.01a5.9 5.9 0 0 0-2.1.1c-.72.18-1.37.51-1.94.98-.6.5-1.13 1.1-1.55 1.78a9.7 9.7 0 0 0-1.06 2.23l-.02.05a.67.67 0 0 1-.8.45.68.68 0 0 1-.51-.75Z" fill="#000072"/><path d="M131.17 206.37a4.62 4.62 0 0 1-2.56 4.07c-6.63 3.34-15.75 3.25-26.26 1.26-5.4-8.02-2.26-17.47 6.72-19.57 0 0 19.86-1.52 22.1 14.24Z" fill="#fff"/><path d="M200.96 159.52a37.95 37.95 0 0 1 6.22-4.3 31.44 31.44 0 0 1 7.1-2.85 25.88 25.88 0 0 1 15.4.6c2.5.9 4.81 2.23 6.84 3.92a26.34 26.34 0 0 1 5.22 5.87 34.04 34.04 0 0 1 5.12 14.55l-2.74-.86a31.5 31.5 0 0 1 4.68-4.24 24.45 24.45 0 0 1 5.65-2.99 18.8 18.8 0 0 1 12.78-.25c2.08.75 4.05 1.92 5.6 3.6a11.74 11.74 0 0 1 3.03 6.1c.36 2.29 0 4.61-.79 6.67a21.1 21.1 0 0 1-3.29 5.56 1.4 1.4 0 0 1-.24.24l-.01.01a25.37 25.37 0 0 1-4.95 2.9 50.2 50.2 0 0 1-5.2 1.98l.31-.14-9.07 5.32a22.72 22.72 0 0 1-5.05 2.37c-.92.3-1.77.49-2.64.72-.88.23-1.74.46-2.62.62l-2.63.54-2.64.42c-.88.15-1.76.25-2.64.36-.89.1-1.77.23-2.66.3-1.76.16-3.53.34-5.3.42-.89.04-1.77.1-2.66.13l-2.65.09c-7.07.19-14.13-.1-21.16-.53a471.09 471.09 0 0 1-21.02-1.87h.43a144.86 144.86 0 0 1-24.78 2.06c-8.32-.07-16.66-1-24.75-3.09a1.6 1.6 0 0 1-1-.72 1.56 1.56 0 0 1-.17-1.2 1.57 1.57 0 0 1 1.95-1.14 99.8 99.8 0 0 0 24 2.99c8.09.06 16.2-.7 24.23-2.02.14-.03.28-.03.43-.01 6.95.74 13.91 1.4 20.88 1.84 6.96.45 13.93.72 20.88.53l2.6-.08c.86-.03 1.73-.1 2.6-.14 1.73-.08 3.45-.25 5.17-.4.86-.07 1.72-.2 2.58-.3.85-.1 1.71-.2 2.56-.34l2.55-.41 2.53-.52c.84-.15 1.67-.38 2.5-.59.83-.2 1.68-.4 2.43-.66a19.25 19.25 0 0 0 4.45-2.1l9.07-5.31c.1-.06.2-.1.31-.14a47.08 47.08 0 0 0 4.86-1.85 22.3 22.3 0 0 0 4.33-2.52l-.25.25a17.66 17.66 0 0 0 2.78-4.68c.63-1.66.88-3.4.62-5.06a8.54 8.54 0 0 0-2.21-4.44 11.02 11.02 0 0 0-4.37-2.79 15.66 15.66 0 0 0-10.64.25 21.36 21.36 0 0 0-4.89 2.59 28.28 28.28 0 0 0-4.16 3.77l-.03.04a1.58 1.58 0 0 1-2.72-.9c-.58-4.7-2.03-9.3-4.64-13.16a23.99 23.99 0 0 0-4.63-5.13c-.43-.39-.92-.69-1.37-1.05-.46-.34-.96-.63-1.44-.95l-1.5-.83c-.53-.23-1.04-.51-1.58-.72a22.27 22.27 0 0 0-6.73-1.61c-2.35-.18-4.7-.03-7.01.44-4.65.92-9.06 3.1-13.02 5.9a.68.68 0 0 1-.84-1.07m-93.72 34.41c-.3 0-.6-.08-.84-.24a83.25 83.25 0 0 1-14.13-11.3 1.57 1.57 0 0 1 0-2.24 1.58 1.58 0 0 1 2.23 0 80.05 80.05 0 0 0 13.59 10.87 1.58 1.58 0 0 1-.85 2.91Z" fill="#000072"/><path d="M87.7 182.93a56.69 56.69 0 0 0-1.8 6.96 37.77 37.77 0 0 0-.5 3.5 28 28 0 0 0-.07 3.48c.13 2.28.62 4.5 1.7 6.36a10.8 10.8 0 0 0 4.7 4.29 21.3 21.3 0 0 0 6.58 1.82c.65.1 1.34.2 1.95.32l1.8.36c1.18.23 2.38.45 3.57.63 4.77.74 9.61 1.14 14.3.6 2.33-.27 4.6-.79 6.72-1.66l.77-.35.4-.18c.13-.06.18-.1.29-.16a3.05 3.05 0 0 0 1.49-2.51l-.01-.3a12.97 12.97 0 0 0-2.55-6.36 13.62 13.62 0 0 0-5.16-4.08 21.6 21.6 0 0 0-6.58-1.79 32.89 32.89 0 0 0-6.97-.04 39.96 39.96 0 0 0-13.65 3.87.69.69 0 0 1-.87-.25.68.68 0 0 1 .15-.9c1.96-1.6 4.2-2.89 6.56-3.87a30.03 30.03 0 0 1 15.2-2.11c2.62.32 5.17 1.06 7.56 2.2.6.3 1.18.64 1.76.97l.84.57c.28.19.55.39.81.6.51.45 1.06.85 1.52 1.36l.7.74c.23.26.43.54.64.8a16.15 16.15 0 0 1 3.12 7.47c.03.15.05.39.07.59.02.2.01.41 0 .62a6.2 6.2 0 0 1-3 5.12c-.17.09-.38.22-.52.28l-.45.2-.9.42c-2.45 1-5.02 1.58-7.58 1.88-5.12.58-10.2.15-15.14-.62a114.3 114.3 0 0 1-3.7-.64l-1.84-.38c-.59-.11-1.12-.18-1.69-.28a23.86 23.86 0 0 1-7.59-2.12 15.11 15.11 0 0 1-3.41-2.3 13.3 13.3 0 0 1-2.63-3.24 17.4 17.4 0 0 1-2.1-7.78c-.06-1.3-.03-2.6.08-3.9.13-1.29.28-2.57.53-3.82a56.5 56.5 0 0 1 1.9-7.34 1.58 1.58 0 1 1 3 .96" fill="#000072"/><path d="M114.87 202.26c1.21.27 2.33.88 3.21 1.75.9.9 1.56 2 1.91 3.22.36 1.23.4 2.64-.1 3.99a5.46 5.46 0 0 1-1.14 1.84c-.5.53-1.1.97-1.75 1.29l-.05.02a1.58 1.58 0 1 1-1.2-2.92c.72-.24 1.3-.66 1.67-1.32.36-.65.5-1.53.37-2.4a5.36 5.36 0 0 0-1.05-2.5 5 5 0 0 0-2.24-1.67.68.68 0 0 1-.12-1.22.68.68 0 0 1 .49-.08m9.19-1.68c.98.5 1.89 1.15 2.68 1.92.83.82 1.48 1.8 1.9 2.9a6.5 6.5 0 0 1 .3 3.7c-.3 1.3-1 2.47-2 3.36l-.06.05a1.58 1.58 0 0 1-1.75.24 1.59 1.59 0 0 1-.16-2.76c.62-.39 1.1-.96 1.37-1.63.27-.68.32-1.49.15-2.3a6.15 6.15 0 0 0-1.11-2.37 9.26 9.26 0 0 0-2.02-1.95l-.01-.01a.68.68 0 0 1 .7-1.15m122.82-23.13a28.7 28.7 0 0 1-2.29 9.5.68.68 0 0 1-1.3-.4c.64-3.03.83-6.08.43-9a1.58 1.58 0 0 1 1.98-1.79 1.6 1.6 0 0 1 1.16 1.36c.02.1.02.2.02.3v.03Zm10.67-2.87a9.19 9.19 0 0 1 2-2.37 10.65 10.65 0 0 1 5.7-2.55c.53-.1 1.06-.09 1.6-.11.54 0 1.06.05 1.6.08a1.59 1.59 0 1 1-.4 3.15l-.18-.04c-.4-.08-.8-.2-1.22-.27-.4-.03-.82-.12-1.22-.1a8.19 8.19 0 0 0-4.79 1.28 9.6 9.6 0 0 0-1.95 1.66l-.04.05a.67.67 0 0 1-.91.11.68.68 0 0 1-.19-.9m7.06 5.33a12.32 12.32 0 0 1 4.6-2.59 8.28 8.28 0 0 1 2.85-.27c1 .07 1.96.42 2.88.86a1.59 1.59 0 1 1-1.4 2.85 1.62 1.62 0 0 1-.22-.13l-.08-.05a4.95 4.95 0 0 0-3.61-1.04 9 9 0 0 0-2.13.47c-.72.25-1.4.57-2.04.96l-.05.02a.68.68 0 0 1-.9-.16.68.68 0 0 1 .1-.91m-101.44-104.37a16.59 16.59 0 0 1 1.36-3.17 18.6 18.6 0 0 1 6.9-6.98 21.07 21.07 0 0 1 6.04-2.3c2.07-.45 4.19-.66 6.31-.63a.45.45 0 0 1 .03.9c-2.04.12-4.05.47-6.01 1.04a19.63 19.63 0 0 0-5.41 2.52 16.67 16.67 0 0 0-5.66 6.59 16.35 16.35 0 0 0-.77 2l-.15.61v.01a1.35 1.35 0 0 1-1.05 1.08 1.36 1.36 0 0 1-1.6-1.67h.01Zm8.02 6.78c.1-.16.2-.26.29-.38l.28-.32c.19-.22.38-.42.58-.61.38-.4.81-.75 1.22-1.11.86-.68 1.74-1.32 2.7-1.83a19.42 19.42 0 0 1 6.06-2.12c1.06-.11 2.1-.3 3.17-.25h.79c.26 0 .52 0 .79.03l1.56.16c.52.03 1.03.15 1.54.26l1.53.31c1 .28 1.99.61 2.97.9a.45.45 0 0 1-.23.88l-.05-.01c-.98-.22-1.95-.47-2.92-.67l-1.49-.2c-.49-.06-.98-.13-1.47-.13l-1.48-.04c-.25 0-.5 0-.74.03l-.73.06c-.98.03-1.93.27-2.88.43a17.32 17.32 0 0 0-7.48 4.04c-.33.34-.67.67-.96 1.02a7.08 7.08 0 0 0-.64.8l-.16.24a1.36 1.36 0 0 1-1.85.5 1.35 1.35 0 0 1-.43-1.96l.03-.03m3.95 8.29.33-.24.3-.2.61-.38c.4-.24.83-.45 1.24-.66.42-.21.85-.39 1.28-.56.44-.16.87-.34 1.31-.47a18.6 18.6 0 0 1 5.44-.92c.46-.03.91 0 1.37.03.46.02.92.02 1.37.1l1.34.21c.45.1.88.22 1.32.33.89.18 1.72.56 2.56.86l.32.11.3.15.6.3 1.2.59a.45.45 0 0 1-.36.82l-.05-.01-1.2-.47-.59-.23-.3-.12-.3-.08c-.83-.21-1.63-.5-2.47-.6-.42-.07-.83-.15-1.25-.2l-1.25-.08c-.42-.04-.84 0-1.25 0a16.57 16.57 0 0 0-6.02 1.32c-.38.15-.75.35-1.12.52a16 16 0 0 0-2.09 1.25c-.17.11-.32.23-.48.35a3.6 3.6 0 0 0-.22.18l-.2.17a1.35 1.35 0 1 1-1.78-2.04l.04-.03m-119.53 73.8a24.45 24.45 0 0 0-5.4.98 18.65 18.65 0 0 0-5.02 2.4 14.61 14.61 0 0 0-6.14 9.07.45.45 0 0 1-.88-.17c.32-1.98.93-3.94 1.95-5.72a16.17 16.17 0 0 1 4-4.64c1.6-1.3 3.42-2.3 5.32-3.06a25.2 25.2 0 0 1 6.01-1.56 1.36 1.36 0 0 1 .28 2.7h-.13m6.84 7.78-.25.13-.28.15c-.19.1-.37.2-.56.33-.38.23-.74.5-1.1.75l-1.05.85c-.32.31-.67.6-.98.93a17.15 17.15 0 0 0-3.17 4.4c-.24.39-.38.82-.57 1.24a7.4 7.4 0 0 0-.48 1.29l-.4 1.32-.28 1.36-.13.69c-.04.22-.04.46-.07.69l-.11 1.4c-.02.23-.03.46-.01.7l.01.7.03 1.41v.05a.45.45 0 0 1-.42.47c-.06 0-.12 0-.18-.02a.46.46 0 0 1-.3-.4l-.15-1.46-.07-.73a4.76 4.76 0 0 1-.04-.73v-1.48c.01-.24 0-.5.02-.74l.08-.73c.06-.5.1-.99.17-1.48l.32-1.46c.1-.5.26-.96.42-1.44.16-.48.3-.97.52-1.42a19.2 19.2 0 0 1 3.14-5.15c.31-.4.68-.75 1.02-1.13.36-.36.73-.71 1.11-1.06.4-.32.78-.66 1.2-.96a11.2 11.2 0 0 1 .98-.67l.37-.23.03-.01a1.35 1.35 0 1 1 1.18 2.44m7.89 4.96c-.1.3-.2.7-.28 1.06l-.23 1.15c-.07.38-.1.77-.16 1.16l-.1 1.18c-.09 1.59 0 3.18.26 4.74l.09.6.13.57c.1.39.17.78.28 1.16.25.76.47 1.54.8 2.26.59 1.5 1.45 2.88 2.35 4.23l.02.03a.45.45 0 0 1-.12.6.45.45 0 0 1-.6-.07 23.02 23.02 0 0 1-2.87-4.2c-.42-.75-.73-1.55-1.07-2.34-.16-.4-.28-.82-.42-1.22l-.2-.62-.15-.63c-.44-1.67-.7-3.4-.75-5.13l-.01-1.3a18.66 18.66 0 0 1 .43-3.99 1.35 1.35 0 1 1 2.62.72l-.02.04" fill="#000072"/><path d="M115.06 120.5c-.08 2.36-1.46 3.27-3.6 3.31a.46.46 0 0 1-.26-.07.46.46 0 0 1-.19-.48.45.45 0 0 1 .14-.23l3.17-2.88c.07-.05.15-.1.24-.1a.44.44 0 0 1 .44.2c.04.08.06.16.06.25Z" fill="#fff"/><path d="M82.96 180.88a39.6 39.6 0 0 1-13.02-2.2 11.37 11.37 0 0 1 .38-1.53l.01-.04.04-.12a1.35 1.35 0 0 0-1.33-1.66 1.35 1.35 0 0 0-1.32 1.06c-.1.48-.17.88-.23 1.3a25.6 25.6 0 0 1-6.85-4.42c.23-.16.46-.33.7-.47l.56-.34.28-.15.25-.12a1.42 1.42 0 0 0 .53-.4 1.36 1.36 0 0 0-1.2-2.2c-.18.02-.35.07-.5.16l-.03.01-.38.23-.34.22-.63.45c-.37.26-.7.55-1.04.83a29.2 29.2 0 0 1-2-2.42l-.57-.8c-.2-.25-.38-.53-.54-.81l-1.03-1.69-.63-1.23.2-.02c.45-.05.94-.1 1.32-.1h.02l.11-.01a1.36 1.36 0 0 0 1.29-1.42 1.36 1.36 0 0 0-1.43-1.29h-.14a17.01 17.01 0 0 0-2.48.45c-.55-1.2-.96-2.46-1.41-3.7-.22-.63-.39-1.3-.58-1.93l-.58-2a31.5 31.5 0 0 0-3.63-7.98 113.98 113.98 0 0 1-4.12-7.09 54.76 54.76 0 0 1-3.33-7.35c-.15-.4-.44-.73-.83-.92l-1.01-.48-1.18-6.6a1.58 1.58 0 0 0 1.14-1.88c-.4-1.74-.74-3.43-1-5.08 15.78 28.68 34.73 39.8 53.41 39.8 1.33 0 2.66-.06 4-.17-5.02 8.34-5.48 15.97-.02 22.66l-1.15.3a41.6 41.6 0 0 1-9.7 1.16Zm91.46-78.76c-2.92-3.21-6.22-4.44-9.6-4.44-.44 0-.88.02-1.32.06 2.4-5.11 4.4-10.28 5.9-15.37l.2.2c.18.18.38.37.54.55a15.92 15.92 0 0 1 2.2 2.88 15.6 15.6 0 0 1 2 5.44c.09.46.11 1 .17 1.5l.16 1.54c.03.51.03 1.03.06 1.54.02.52.05 1.03.03 1.55a38.47 38.47 0 0 1-.33 4.55" fill="#626299"/><path d="M93.82 179.43c-5.46-6.7-5-14.32.01-22.66 28.58-2.37 55.93-29.82 69.67-59.03.44-.04.88-.06 1.31-.06 3.39 0 6.7 1.23 9.61 4.44a45.32 45.32 0 0 1-1.68 7.63 66.22 66.22 0 0 1-4.97 11.52 163.23 163.23 0 0 1-6.56 10.94.68.68 0 0 0 .1.85l-23.85 24.72a.68.68 0 0 0-.86-.07 206.08 206.08 0 0 1-13.94 8.88c-2.4 1.36-4.78 2.7-7.24 3.93a129.68 129.68 0 0 1-7.42 3.55 122.8 122.8 0 0 1-7.61 3.13c-1.28.5-2.58.94-3.87 1.4a42 42 0 0 1-2.7.82" fill="#B2B2D4"/><path d="M82.8 182.59a41.07 41.07 0 0 1-13.14-2.13c.05-.37.09-.74.15-1.1l.13-.68a40.06 40.06 0 0 0 13.02 2.2 41.6 41.6 0 0 0 13.56-2.27c1.3-.46 2.6-.9 3.87-1.4a148.54 148.54 0 0 0 15.03-6.68c2.45-1.23 4.85-2.57 7.23-3.93 4.77-2.74 9.39-5.75 13.95-8.88a.68.68 0 0 1 .86.07l-.44.46a140.6 140.6 0 0 1-20.1 13.18 151.1 151.1 0 0 1-21.85 9.27l-.57-.56a1.58 1.58 0 0 0-2.65 1.48c-1.35.29-2.72.51-4.09.68a1.58 1.58 0 0 0-3.07-.33c-.07.2-.13.39-.18.59l-1.7.03Zm-15.48-3.02c-2.98-1.26-5.72-3-8.1-5.18.33-.3.68-.56 1.02-.83l.4-.29a25.6 25.6 0 0 0 6.86 4.43l-.02.06a21.93 21.93 0 0 0-.16 1.8Zm-9.78-6.85a32.7 32.7 0 0 1-5.3-7.86 24.95 24.95 0 0 1 1.83-.31l.63 1.23 1.03 1.69c.16.28.34.55.54.82l.58.8a28.8 28.8 0 0 0 1.99 2.4l-.17.14c-.38.35-.75.7-1.1 1.06l-.04.03Zm-6.31-10.09a51.84 51.84 0 0 1-2.32-6.9 29.74 29.74 0 0 0-3.49-8.13c-3.05-4.91-6.03-10.33-7.61-14.99l-.34-1.91 1 .48h.01c.39.19.68.52.83.92a54.8 54.8 0 0 0 3.33 7.35 109.8 109.8 0 0 0 4.13 7.09 31.5 31.5 0 0 1 3.62 7.98l.58 2c.2.64.36 1.3.58 1.93.45 1.24.86 2.51 1.4 3.7a33.17 33.17 0 0 0-1.72.48Zm110.1-29.56a.68.68 0 0 1-.11-.86 165.7 165.7 0 0 0 6.55-10.95 65.58 65.58 0 0 0 5.38-12.9 1.58 1.58 0 0 0 1.08 1.85c-2.55 7.9-7.13 15.24-12.47 22.4l-.44.45Zm11.86-24.86c.55-2 .96-4.04 1.24-6.1.2-1.5.3-3.02.32-4.54.02-.52-.02-1.03-.03-1.55 0-.51-.02-1.03-.05-1.54l-.16-1.53c-.06-.5-.1-1.05-.18-1.51a15.72 15.72 0 0 0-3.7-7.79c-.15-.19-.32-.35-.49-.53a9.5 9.5 0 0 0-.55-.55l-.2-.2a41 41 0 0 0 .52-1.81c.45.43.9.88 1.34 1.33l.15.14-.22.29-.03.03a1.36 1.36 0 0 0 1.98 1.83 17.26 17.26 0 0 1 2.62 6l-.3.2-.32.24-.04.03-.1.1a1.35 1.35 0 0 0 .94 2.32c.08 0 .16 0 .24-.02l.05.53-.6.28a1.59 1.59 0 0 0-.27 2.66c.28.22.62.34.98.34h.04a40.51 40.51 0 0 1-1.2 10.05l-.95.3a1.57 1.57 0 0 0-1.03 1m-136.9 15.89-1.95-10.9c.69 1.35 1.38 2.66 2.09 3.94.26 1.65.6 3.34 1 5.08a1.58 1.58 0 0 1-1.14 1.88Z" fill="#000072"/><path d="M176.33 96.85a1.58 1.58 0 0 1-.7-3l.59-.27c.1 1.1.14 2.2.15 3.27h-.04m-2.1 13.36a1.58 1.58 0 0 1-.02-3.02l.96-.29a45.4 45.4 0 0 1-.94 3.31m-82.38 71.4a1.58 1.58 0 0 1 2.65-1.47l.57.56-1.64.54-1.58.37m-7.35.94c.06-.2.13-.39.18-.59a1.58 1.58 0 0 1 3.08.33 39.4 39.4 0 0 1-3.26.26m87.76-98.05a1.35 1.35 0 0 1-1.1-2.15l.02-.03.22-.29c.63.67 1.21 1.38 1.73 2.14-.24.21-.55.32-.87.32m3.67 8.58a1.36 1.36 0 0 1-.84-2.43l.04-.03.33-.23.29-.2c.1.48.2.97.26 1.46l.16 1.4-.24.03Zm-123.69 71.79c-.35-.72-.69-1.46-1.01-2.23l1.12-.32.6-.15a19.95 19.95 0 0 1 2.63-.46 1.36 1.36 0 0 1 .13 2.71h-.12c-.39.01-.88.06-1.32.11l-.2.03a29.95 29.95 0 0 0-1.83.3m6.97 9.53a27.62 27.62 0 0 1-1.67-1.67l.03-.03c.36-.36.73-.7 1.1-1.05l.17-.14c.33-.28.67-.57 1.04-.83.2-.16.42-.3.63-.45l.34-.22c.12-.07.22-.14.38-.22l.03-.02a1.36 1.36 0 0 1 2 1.05 1.35 1.35 0 0 1-.83 1.4l-.25.12-.28.15-.56.33c-.24.15-.47.3-.7.47l-.4.29c-.35.27-.7.54-1.03.82m10.45 6.08a29.8 29.8 0 0 1-2.34-.9l.03-.49c.03-.44.07-.87.13-1.31l.01-.06c.06-.43.12-.82.23-1.3a1.35 1.35 0 1 1 2.61.71v.04a11.56 11.56 0 0 0-.4 1.53l-.12.68-.15 1.1" fill="#000072"/><path d="M216.5 204.07a262 262 0 0 1-16.33-.58 492.06 492.06 0 0 1-21.05-1.86l-.26.03a143 143 0 0 1-23.25 2.02h-.98a100.2 100.2 0 0 1-23.25-2.8c-.5-1.08-1.1-2.1-1.83-3.06-.21-.27-.41-.55-.63-.8l-.71-.74c-.46-.52-1-.92-1.52-1.36a8.23 8.23 0 0 0-.81-.6l-.84-.58c-.58-.32-1.16-.67-1.76-.97a24.45 24.45 0 0 0-7.57-2.2c-2.58-.32-5.2-.3-7.77.09l-.33.04a79.62 79.62 0 0 1-11.1-8.63l1.1-.36c1.31-.48 2.64-.95 3.94-1.47a127.6 127.6 0 0 0 11.17-4.9c10.46 7 21.8 11.07 34.36 11.07 1.8 0 3.64-.09 5.5-.26 4.5 1.37 9.54 1.9 14.71 1.9 8.68 0 17.72-1.46 25.24-2.82 3.14-.55 6.33-.82 9.52-.81 19.08 0 36.94 8.88 36.94 8.88h.34c5.57 0 10.09-1.38 13.73-3.46.48 2.8.23 5.56-1.01 8.05l-1.02.6a19.24 19.24 0 0 1-4.44 2.1c-.75.25-1.61.44-2.44.66-.83.21-1.66.43-2.5.59l-2.53.51-2.55.41c-.85.15-1.7.25-2.56.35-.86.1-1.72.22-2.58.3-1.72.14-3.44.32-5.17.4-.87.04-1.73.1-2.6.13l-2.6.08c-1.52.04-3.04.06-4.56.06" fill="#626299"/><path d="M252.03 197.89c1.25-2.5 1.5-5.26 1.02-8.06 8.51-4.86 12.26-13.53 13.56-17.35h.03c.4.06.81.18 1.21.26l.13.02a9.22 9.22 0 0 1 4.1 4.28h-.04a8.02 8.02 0 0 0-2.85.27 12.27 12.27 0 0 0-4.6 2.6.67.67 0 0 0 .33 1.17c.17.03.34 0 .49-.1l.04-.02c.64-.39 1.33-.7 2.04-.96a8.95 8.95 0 0 1 2.6-.49c.51 0 1.02.07 1.51.2.45.13.86.32 1.24.59.02 1.34-.23 2.68-.72 3.93a17.52 17.52 0 0 1-2.67 4.54 22.6 22.6 0 0 1-4.18 2.4 46.94 46.94 0 0 1-4.87 1.86c-.1.04-.2.08-.3.14l-8.06 4.72m-104.96-11.49c-12.57 0-23.91-4.06-34.37-11.07a117.75 117.75 0 0 0 22.36-14.53c.2 15.06 7.51 22.3 17.5 25.34a59.1 59.1 0 0 1-5.5.26Z" fill="#B2B2D4"/><path d="M96.5 182.06a79.4 79.4 0 0 1-1.36-1.3c.64-.18 1.28-.38 1.9-.6 6.85-2.38 13.5-5.3 19.87-8.73 6.37-3.34 12.44-7.2 18.16-11.68v1.06a117.85 117.85 0 0 1-25.77 16.16 130.82 130.82 0 0 1-7.76 3.27c-1.3.52-2.63.98-3.95 1.46-.36.13-.72.25-1.09.36m120.12 23.6c-11.62 0-24.34-1.03-37.5-2.45a144.85 144.85 0 0 1-23.5 2.06c-8.3 0-16.14-.87-23.56-2.6-.19-.61-.42-1.2-.69-1.8a100.03 100.03 0 0 0 23.26 2.8h.98a142.88 142.88 0 0 0 23.51-2.04h.17c6.96.76 13.92 1.41 20.88 1.86a262 262 0 0 0 16.33.58c1.51 0 3.03-.02 4.55-.06l2.6-.08c.87-.03 1.73-.09 2.6-.14 1.73-.07 3.45-.25 5.18-.4.86-.07 1.71-.2 2.57-.3.86-.09 1.72-.2 2.56-.34l2.56-.41 2.52-.52c.85-.15 1.67-.38 2.5-.59.83-.2 1.69-.4 2.44-.66a19.25 19.25 0 0 0 4.44-2.1l1.02-.59 8.06-4.72c.1-.06.2-.1.3-.14a47.08 47.08 0 0 0 4.87-1.85 22.6 22.6 0 0 0 4.18-2.4 17.5 17.5 0 0 0 2.67-4.55c.5-1.25.74-2.58.72-3.93l.4.27.08.06a1.62 1.62 0 0 0 1.11.28c-.1 2.75-1.27 5.83-3.87 9-2.5 1.92-5.86 3.39-9.67 4.62l-9.73 5.7a20.7 20.7 0 0 1-4.95 2.11c-8.47 2.4-18.53 3.32-29.58 3.32Zm57.35-28.18a6.89 6.89 0 0 0-1.88-.44 9.21 9.21 0 0 0-4.1-4.28h.05l.22.04h.09a1.59 1.59 0 0 0 1.4-.83 10.59 10.59 0 0 1 4.22 5.5" fill="#000072"/><path d="m105.47 191.1-11.5-9.84-.46.1-.12-.1.04-.01 1.6-.44.11-.04a79.63 79.63 0 0 0 12.45 9.93c-.7.1-1.41.24-2.12.4" fill="#000072"/><path d="m132.07 202.67-1.66-.4.3.06-2.22-2.87c-4.84-6.72-14.44-7.38-18.02-7.38-.88 0-1.4.04-1.4.04-.82.2-1.62.46-2.4.8l-1.33-1.17.59-.27-.45-.38c.7-.16 1.4-.3 2.12-.4l.34-.05a28.8 28.8 0 0 1 7.76-.08c2.63.32 5.19 1.06 7.57 2.2.6.3 1.18.64 1.77.97l.83.57c.28.19.56.39.81.6.52.45 1.07.85 1.52 1.36l.71.74c.23.26.43.54.63.8a15.72 15.72 0 0 1 2.52 4.86m136.29-29.87h-.1c-.07 0-.14 0-.21-.02l-.06-.01-.13-.03c-.4-.08-.8-.2-1.21-.26h-.03c.34-1.02.51-1.7.55-1.85a13 13 0 0 1 2.58 1.36 1.6 1.6 0 0 1-1.4.82m-3.29 8.27a.68.68 0 0 1-.63-.43.68.68 0 0 1 .18-.75 12.27 12.27 0 0 1 4.6-2.59 8.22 8.22 0 0 1 2.85-.27h.05c.64.06 1.27.2 1.87.44.35 1.1.5 2.26.46 3.42a1.57 1.57 0 0 1-1.11-.28l-.08-.06-.4-.27a4.1 4.1 0 0 0-1.23-.58 5.82 5.82 0 0 0-1.99-.18c-.73.07-1.44.23-2.13.47-.71.25-1.4.57-2.04.96l-.04.02c-.1.07-.23.1-.36.1m-169.91-.31-.07-.08c7.58-2.56 14.89-5.6 21.85-9.26a135.93 135.93 0 0 1-19.87 8.73c-.63.22-1.26.42-1.9.6Zm-1.71.47 1.64-.54.07.07-.1.03-1.6.45" fill="#000072"/><path d="M239.56 159.87a25.35 25.35 0 0 0-3.04-2.98 22.95 22.95 0 0 0-4.81-3.07 88.47 88.47 0 0 0-3.01-16.25c4.79 4.38 9.27 6.97 13.32 6.97 3.06 0 5.88-1.48 8.38-4.78l4.36-8.17a14.51 14.51 0 0 1 5.83 7.65l-5.12 9.84c-3.3 5.08-8.37 8.53-15.91 10.8" fill="#626299"/><path d="M260.59 139.24c-.9-3.06-3.02-5.7-5.83-7.65l4.51-8.45a13.8 13.8 0 0 0 2.4-3.42.68.68 0 0 0 1.16-.12l.02-.04a9 9 0 0 1 1.03-1.68c.38-.5.83-.93 1.33-1.3a3.44 3.44 0 0 1 1.75-.6c.34 0 .67.06.99.17l.24.5a10.3 10.3 0 0 1-.45 8.87l-7.15 13.72" fill="#B2B2D4"/><path d="M231.7 153.81c-.55-.26-1.12-.5-1.7-.72a85.64 85.64 0 0 0-4.33-18.48 69.28 69.28 0 0 0 3.03 2.96 88.52 88.52 0 0 1 3 16.24m8.93 7.39c-.35-.46-.7-.9-1.07-1.33 7.54-2.27 12.62-5.72 15.9-10.8l5.13-9.83 7.15-13.72a10.3 10.3 0 0 0 .21-9.37l.15.04.09.03c.1.03.19.05.29.06h.15c.35 0 .7-.12.97-.33l.04.09a11.95 11.95 0 0 1-.5 10.21l-8.1 15.54-4.2 8.08c-3.82 5.93-9.56 9.24-16.21 11.32" fill="#000072"/><path d="M262.65 116.37c.16-1.65-.1-3.3-.76-4.82 1.46.27 2.82.92 3.96 1.88a6 6 0 0 0-2.15 1.48c-.4.44-.76.93-1.05 1.46Z" fill="#B2B2D4"/><path d="M265.85 113.43a8.52 8.52 0 0 0-3.96-1.88v-.03h.26a1.6 1.6 0 0 0 1.4-1.17 9.88 9.88 0 0 1 4.19 2.7 5.2 5.2 0 0 0-1.8.34l-.1.03" fill="#000072"/><path d="M262.22 120a.68.68 0 0 1-.54-.28 10 10 0 0 0 .97-3.35c.3-.53.65-1.02 1.05-1.46a6 6 0 0 1 2.15-1.48l.1-.04a5.2 5.2 0 0 1 1.8-.33c.77.86 1.4 1.83 1.85 2.88-.27.22-.62.34-.97.34h-.15l-.3-.06-.08-.03-.15-.04c-.32-.1-.65-.16-.99-.18a3.43 3.43 0 0 0-1.75.6c-.5.38-.95.81-1.32 1.31-.4.52-.75 1.08-1.04 1.68l-.02.04a.68.68 0 0 1-.61.4m-.2-8.47h-.14a9.96 9.96 0 0 0-.92-1.7 12 12 0 0 1 2.6.53 1.6 1.6 0 0 1-1.41 1.17h-.13m-21.54 52.2c-.2-.05-.38-.1-.57-.13a20.21 20.21 0 0 0-9.75-9.28l-.16-1.23a22.95 22.95 0 0 1 6.52 3.8 25.27 25.27 0 0 1 4.1 4.3c-.53.16-1.08.33-1.64.48.54.66 1.03 1.35 1.5 2.06Z" fill="#000072"/><path d="M213 152.73c9.27-8.64 4.7-26.67 2.5-33.53 6.88 7.6 11.28 18.9 12.9 33.34a26.28 26.28 0 0 0-15.4.19" fill="#B2B2D4"/><path d="m229.8 153.01-.12-.04c-.42-.15-.85-.3-1.28-.43-1.62-14.45-6.02-25.74-12.9-33.34-.55-1.7-.95-2.72-.95-2.72 5 5.1 8.58 11.22 11.13 18.13l-.23-.24 4.35 18.64" fill="#000072"/><path d="M208.14 155.8c1.8-.72 3.44-1.76 4.86-3.07.43-.13.85-.26 1.28-.37a26.27 26.27 0 0 1 14.12.18c.43.13.86.27 1.28.43l.11.04.3 1.28.07.03.06.54a19.15 19.15 0 0 0-8.66-1.95c-4.32 0-8.83 1.2-13.42 2.89m21.86-2.71-.2-.08-4.36-18.64.23.24a85.76 85.76 0 0 1 4.33 18.48" fill="#000072"/><path d="m230.16 154.32-.07-.03-.3-1.28.21.08.16 1.23Z" fill="#000072"/><path d="m194.86 121.56-.42-.01a6.62 6.62 0 0 0 1.19-3.8c0-.98-.16-1.96-.5-2.88 2.64-.37 4.91-1.74 6.08-4.25a9.36 9.36 0 0 1 1.3 4.17c.06.97-.07 1.94-.4 2.85-.29.78-.74 1.5-1.32 2.1a10.52 10.52 0 0 1-5.93 1.82Zm-4.12-.84c-.62-.26-1.2-.58-1.77-.96-2.87-1.93-4.5-4.96-4.79-8.65a14.2 14.2 0 0 0 9.02 3.85c.24.86.3 1.76.18 2.64a4.1 4.1 0 0 1-1.08 2.3 2.8 2.8 0 0 1-1.56.82Zm14.02-6.14-.01-.08a11.29 11.29 0 0 0-2.96-5.64c.53-2.37.26-5.47-1.17-9.38a15.95 15.95 0 0 1 4.8 11.25c0 1.31-.22 2.61-.66 3.85" fill="#B2B2D4"/><path d="M196.32 123.03c-1.02 0-2.03-.08-3.03-.27.43-.33.8-.72 1.12-1.16l.03-.05.42.01c2.12 0 4.18-.64 5.93-1.83a6.9 6.9 0 0 1-.17.17 1.58 1.58 0 0 0-.3 1.9c-1.22.56-2.5.98-3.83 1.24h-.17Zm-7.1-1.77c-6.13-3.66-6.43-11.69-6.43-11.69.43.55.9 1.06 1.4 1.54.29 3.7 1.91 6.72 4.78 8.65.56.38 1.16.7 1.78.96-.14.03-.28.04-.41.04l-.22.02c-.34.05-.66.22-.9.47Zm15.5-2.87v-.02a9.5 9.5 0 0 0 .04-3.79c.44-1.23.66-2.53.67-3.84a1.58 1.58 0 0 0 .83 1.27l.84.45a11.7 11.7 0 0 1-2.4 5.93h.01Zm.7-7.88a15.96 15.96 0 0 0-4.81-11.03 39.75 39.75 0 0 0-1.98-4.46 20.67 20.67 0 0 1 8.24 12.57l-.76.48c-.27.8-.5 1.62-.69 2.44" fill="#000072"/><path d="M193.29 122.76a12.31 12.31 0 0 1-4.07-1.5 1.58 1.58 0 0 1 1.12-.5 2.8 2.8 0 0 0 1.97-.86 4.1 4.1 0 0 0 1.07-2.3 6.4 6.4 0 0 0-.18-2.64l.43.01c.5 0 1.01-.03 1.51-.1.33.92.5 1.9.49 2.88 0 1.36-.41 2.69-1.18 3.8l-.04.05c-.31.44-.7.83-1.12 1.16m7.04-.96a1.58 1.58 0 0 1 .3-1.9l.16-.17a6.03 6.03 0 0 0 1.33-2.1c.32-.9.46-1.87.4-2.84a9.36 9.36 0 0 0-1.3-4.17c.25-.56.45-1.15.58-1.76a11.3 11.3 0 0 1 2.95 5.63l.01.09a9.52 9.52 0 0 1-.04 3.79v.01a12 12 0 0 1-4.39 3.41m6.77-9.33-.83-.45a1.58 1.58 0 0 1-.72-2.01 1.59 1.59 0 0 0 1.65.94c0 .51-.04 1.02-.1 1.52" fill="#000072"/><path d="M207 110.96a1.57 1.57 0 0 1-1.49-2.1c.11-.33.33-.6.6-.79.26-.17.51-.33.77-.48.22 1.1.33 2.23.32 3.35l-.2.02" fill="#000072"/><path d="m101.28 209.87-1.02-.2c-.61-.13-1.3-.23-1.95-.33a20.7 20.7 0 0 1-6.58-1.82 10.87 10.87 0 0 1-4.7-4.29 14.22 14.22 0 0 1-1.7-6.36 28.67 28.67 0 0 1 .57-6.98c.37-1.98.86-3.94 1.45-5.86 1.9-.21 3.77-.53 5.62-.97a83.86 83.86 0 0 0 10.39 8.6 26.64 26.64 0 0 0-9.42 4.89.68.68 0 0 0 .73 1.14c1.1-.52 2.2-1 3.33-1.43a6.79 6.79 0 0 0 1.75 6.05c-.24 2.42.24 5.03 1.53 7.56" fill="#626299"/><path d="M87.35 184.03a78.93 78.93 0 0 1 .4-1.37l4.13-.93c.08.24.21.47.4.65l.69.68a45.1 45.1 0 0 1-5.62.97" fill="#000072"/><path d="M115.4 211.5c-3.24 0-6.52-.34-9.77-.84-1.2-.19-2.38-.4-3.58-.64l-.77-.15a13.78 13.78 0 0 1-1.52-7.57c2.96 3.27 8.96 5.01 14.72 5.01 1.07 0 2.13-.06 3.2-.18l.12.6c.12.88-.02 1.75-.38 2.4a2.84 2.84 0 0 1-1.67 1.31 1.8 1.8 0 0 0-.13.06h-.23Zm4.48-.25.02-.04a6.38 6.38 0 0 0-.05-4.44c2.3-.5 4.35-1.35 5.88-2.56.36.57.61 1.2.76 1.85a4 4 0 0 1-.15 2.3 3.44 3.44 0 0 1-1.37 1.63 1.71 1.71 0 0 0-.36.32c-1.53.45-3.1.76-4.69.94h-.04Zm9.2-3.28a6.67 6.67 0 0 0-.44-2.58 8.07 8.07 0 0 0-1.55-2.52c.39-.5.7-1.04.94-1.62.78 1.4 1.3 2.93 1.52 4.51l.04.34v.3c-.02.56-.2 1.11-.5 1.58" fill="#B2B2D4"/><path d="M103.36 191.66a83.87 83.87 0 0 1-10.39-8.6l-.7-.69c-.18-.18-.31-.4-.39-.64l1.62-.37 11.28 9.9c-.48.12-.95.25-1.42.4" fill="#000072"/><path d="M114.67 213.08a73 73 0 0 1-12.31-1.39c-.87-.16-1.74-.34-2.62-.52a17.1 17.1 0 0 0-1.62-.27c-12.44-1.52-17.82-9.56-12.12-27.84l1.76-.4-.06.27-.35 1.1a54.56 54.56 0 0 0-1.45 5.86 37.77 37.77 0 0 0-.49 3.5 28 28 0 0 0-.07 3.48c.13 2.28.61 4.5 1.69 6.37a10.8 10.8 0 0 0 4.7 4.28c1.99.98 4.26 1.52 6.58 1.82.65.1 1.34.2 1.96.32l1.01.21.77.16c1.2.22 2.39.45 3.58.63 3.25.5 6.53.85 9.76.85h.23c-.03 0-.06.02-.08.03a1.59 1.59 0 0 0-.87 1.55v-.01Zm4.18-.12c.45-.5.8-1.08 1.04-1.7h.04c1.58-.18 3.15-.5 4.68-.94a1.58 1.58 0 0 0-.2 1.7c-1.82.48-3.68.8-5.56.94Zm9.59-2.44a5.93 5.93 0 0 0 .65-2.55c.31-.46.49-1.01.5-1.58v-.3a13.1 13.1 0 0 0-1.55-4.85c.23-.57.38-1.19.43-1.8l.03.02a15.26 15.26 0 0 1 2.67 6.9v-.12.12a4.62 4.62 0 0 1-2.56 4.07l-.17.09Zm1.97-8.26-.16-.04.16.04Zm-36.03-4.5a.67.67 0 0 1-.64-.45.68.68 0 0 1 .21-.76c1.96-1.61 4.2-2.9 6.57-3.88a32.5 32.5 0 0 1 4.27-1.42l.56.5-6.98 3.18a9 9 0 0 0-.36 1.33c-1.12.43-2.23.9-3.32 1.43-.1.05-.2.07-.3.07" fill="#000072"/><path d="m115.44 213.09-.77-.01a1.59 1.59 0 0 1 .87-1.54l.08-.04.13-.05c.72-.24 1.3-.66 1.67-1.31a4 4 0 0 0 .38-2.41l-.12-.6c.74-.1 1.46-.2 2.16-.36.06.15.1.3.15.46.36 1.23.4 2.64-.1 3.99l-.01.04a5.5 5.5 0 0 1-1.03 1.7c-1.1.08-2.24.13-3.4.13m8.95-1.07a1.58 1.58 0 0 1 .57-2.03c.62-.39 1.1-.96 1.37-1.63.27-.68.32-1.49.15-2.3a5.88 5.88 0 0 0-.76-1.84c.5-.4.96-.85 1.35-1.35.67.74 1.2 1.6 1.56 2.52a6.69 6.69 0 0 1 .3 3.72c-.11.49-.28.96-.5 1.4a23.1 23.1 0 0 1-4.03 1.5m-19.62-20.75-11.28-9.9.46-.1 11.5 9.83-.68.16" fill="#000072"/><path d="M131.17 206.37a15.26 15.26 0 0 0-2.68-6.9l2.2 2.87-.29-.08-.16-.04c.43 1.11.72 2.27.89 3.44.03.2.04.4.04.59v.12Zm-25.82-14.62-.56-.49.69-.16.45.39-.59.27" fill="#000072"/><path d="M170.56 47.18a1.53 1.53 0 0 1-1.4-2.15l2.53-5.76a2.85 2.85 0 0 0-.72-3.3 19.64 19.64 0 0 1-6.52-12.35 19.75 19.75 0 0 1 19.56-22.09 19.6 19.6 0 0 1 19.56 17.75 19.73 19.73 0 0 1-22.88 21.38c-.6 0-1.17.2-1.65.55l-7.55 5.66c-.27.2-.6.31-.93.31" fill="#FF0660"/><path d="M184 0a21.29 21.29 0 0 0-21.08 23.81 21.2 21.2 0 0 0 7.04 13.32 1.31 1.31 0 0 1 .32 1.53l-2.52 5.76a3.06 3.06 0 0 0 4.65 3.69l7.56-5.66a1.22 1.22 0 0 1 .89-.24 21.23 21.23 0 1 0 3.15-42.2v-.01Zm0 3.07c9.2 0 17.11 6.97 18.04 16.37a18.21 18.21 0 0 1-20.73 19.73 4.22 4.22 0 0 0-3.19.81l-7.56 5.67 2.53-5.76a4.4 4.4 0 0 0-1.1-5.06 18.07 18.07 0 0 1-6.02-11.4 18.22 18.22 0 0 1 18.04-20.36" fill="#000072"/><path d="m171.51 43.49 1.58-3.6a4.4 4.4 0 0 0-.32-4.16 4.35 4.35 0 0 0-1.28-1.97l-.15-.14a12.39 12.39 0 0 0 7.1 1.99c2.43 0 5.31-.51 8.74-1.7a18.15 18.15 0 0 0 10.48-24.63l.03.05-.04-.05v-.01a18.08 18.08 0 0 1 2.5 3.7l.11.27.15.36.14.38.15.45.11.33.22.76.06.25.14.59a14.51 14.51 0 0 1 .16.88l.05.27a18.45 18.45 0 0 1 .17 1.77v.3l.02.6v.37l-.02.53-.03.38-.04.5-.05.4-.06.48-.07.4-.09.46c-.02.14-.06.27-.09.4l-.1.45-.1.4-.13.44c-.04.14-.1.27-.13.4a10.01 10.01 0 0 1-.3.82l-.15.4-.18.4-.17.39-.2.4-.18.36a18.87 18.87 0 0 1-2.17 3.22l-.24.29-.32.36-.25.27a17.02 17.02 0 0 1-.97.94l-.26.23-.4.33-.26.21-.41.32-.27.2-.44.3-.27.18-.46.29-.26.16-.49.27-.26.13c-.17.1-.34.18-.51.26l-.26.12-.54.24-.25.1-.57.22-.23.08-.6.2-.21.07-.64.18-.18.04a18 18 0 0 1-.7.16l-.11.02a18.04 18.04 0 0 1-6.2.16 4.22 4.22 0 0 0-3.2.81l-6.1 4.58v-.01Zm-.18-9.86c-.22-.15-.44-.3-.65-.47l-.38-.53c.33.35.68.68 1.03 1Zm-1.03-1c-.25-.26-.49-.53-.72-.81-.2-.33-.4-.66-.57-1l1.3 1.82" fill="#C30C58"/><path d="m170.06 44.57 2.53-5.75c.43-.97.5-2.07.18-3.09a4.4 4.4 0 0 1 .32 4.16l-1.58 3.6-1.44 1.08Zm30.09-31.6a18.09 18.09 0 0 0-2.51-3.7c-.18-.4-.38-.78-.58-1.16.6.69 1.16 1.41 1.66 2.18l.02.04.32.52.1.15.28.5.07.13c.16.31.32.63.46.94l.12.25.06.14" fill="#110864"/><path d="M171.37 34.26a18.08 18.08 0 0 1-4.03-20.22 18.19 18.19 0 0 1 15.83-10.95h.04l.8-.02a18.14 18.14 0 0 1 13.64 6.23 18.12 18.12 0 0 0-14.98-4.88 18.21 18.21 0 0 0-13.65 26.38 39 39 0 0 0-1.46-1.95l.27.47c.52.88 1.1 1.71 1.76 2.5.53.86 1.13 1.68 1.79 2.44" fill="#FF83B0"/><path d="M167.34 14.04Zm14.22-10.8Z" fill="#8080B9"/><path d="M169.58 31.8a18.29 18.29 0 0 1-1.76-2.49l-.27-.47c.22.25.83 1.09 1.46 1.96.18.34.37.68.57 1Zm28.1-22.47-.03-.04-.01-.01.05.05Z" fill="#E186AC"/><path d="M176.9 15.48c1.75-1.89 4.72-1.67 6.6.08l.3.27.27-.3c1.75-1.89 4.7-2.32 6.59-.57a4.67 4.67 0 0 1 .25 6.6l-.28.29-5.5 5.94a1.22 1.22 0 0 1-1.33.32 1.18 1.18 0 0 1-.4-.25l-5.95-5.5-.3-.28a4.67 4.67 0 0 1-.25-6.6Z" fill="#fff"/></svg>