<svg viewBox="0 0 91 30" fill="none" xmlns="http://www.w3.org/2000/svg"><path opacity=".14" d="M85.84 17.21c-3.75-2.12-8.23-2.73-12.56-2.48-4.32.25-8.55 1.32-12.73 2.4a5.32 5.32 0 0 0-1.4-6.4 5.68 5.68 0 0 0-6.7-.17c-1.8-4.47-4.52-9.3-9.3-10.37-3.58-.8-7.39.95-9.82 3.62-2.44 2.66-3.72 6.16-4.59 9.64a8.44 8.44 0 0 0-8.58-1.6 8.35 8.35 0 0 0-3.65 2.64 8.03 8.03 0 0 0-1.7 4.1c-2.14-2-4.65-3.88-7.57-4.2-3.68-.38-6.73 2.43-7.18 5.87-.5 3.87 2.6 7.7 5.96 9.38a8 8 0 0 0 .78.36h77.85a37.9 37.9 0 0 1 4.44-1.23c.26-.22.5-.47.72-.73 1.41-1.69 1.5-4.18.6-6.2-.89-2-2.64-3.53-4.57-4.63Z" fill="url(#a)"/><defs><linearGradient id="a" x1=".001" y1="15.001" x2="91.001" y2="15.001" gradientUnits="userSpaceOnUse"><stop stop-color="#81CCE3"/><stop offset=".23" stop-color="#68C1D7"/><stop offset=".72" stop-color="#27A4B9"/><stop offset="1" stop-color="#0093A7"/></linearGradient></defs></svg>