<svg viewBox="0 0 834 370" fill="none" xmlns="http://www.w3.org/2000/svg"><g clip-path="url(#a)"><path d="M541.4 127.57h-24.36v179.7h24.37v-179.7Z" fill="url(#b)"/><path d="M612.29 12.66h-34.33v298.27h34.33v-298.27Z" fill="url(#c)"/><path d="M641.38 291.37h-153.45a17.98 17.98 0 0 0-17.97 17.99v5.59c0 9.93 8.05 17.98 17.97 17.98h153.45c9.92 0 17.97-8.05 17.97-17.98v-5.6c0-9.93-8.05-17.98-17.97-17.98Z" fill="#241D50"/><path d="M465.56 167.9h198.2a5.58 5.58 0 0 1 5.57 5.58v9.65a5.56 5.56 0 0 1-5.56 5.56h-198.22a5.55 5.55 0 0 1-5.55-5.56v-9.65a5.58 5.58 0 0 1 5.56-5.57Z" fill="url(#d)"/><path d="M644.23 0h-97.26a9.52 9.52 0 0 0-9.52 9.53v2.94a9.52 9.52 0 0 0 9.52 9.53h97.26a9.52 9.52 0 0 0 9.51-9.53v-2.94a9.52 9.52 0 0 0-9.51-9.53Z" fill="#241D50"/><path d="M551.77 113.24a27.2 27.2 0 0 1-3.77 13.92h-38.6a27.31 27.31 0 0 1-3.77-13.92c0-14.06 10.32-25.47 23.07-25.47 12.74 0 23.07 11.4 23.07 25.47Z" fill="#353063"/><path d="M554.46 65.76h-52.87a20.07 20.07 0 0 0-20.09 20.15v23.36a20.12 20.12 0 0 0 20.09 20.1h52.87a20.08 20.08 0 0 0 20.08-20.1v-23.36a20.14 20.14 0 0 0-12.39-18.61 20.06 20.06 0 0 0-7.7-1.54Zm-6.46 61.4h-38.6a27.31 27.31 0 0 1-3.77-13.92c0-14.06 10.32-25.47 23.07-25.47 12.74 0 23.07 11.4 23.07 25.47a27.2 27.2 0 0 1-3.77 13.92Z" fill="#241D50"/><path d="M741.4 273.67c.97-3.21-1-20.37-39.82-28.3-38.83-7.91-82.32-13.9-110.5-9.07-32.86 5.68-35.85 32.84-31.87 44.16 3.99 11.32 172.23 26 182.19-6.8Z" fill="url(#e)"/><path d="M604.28 256.56c30.57 5.64 78.02 29.7 112.56 12.84 46.04-22.47 38.88 47.1 18.41 57.8-20.47 10.7-151.52 13.47-167.8 2.13-15.36-10.7-17.74-49.04-6.17-67.42 8.29-13.11 35.75-6.68 43-5.35Z" fill="url(#f)"/><path d="M668.8 225.34c-18.36 1.55-53.19 6.28-53.19 6.28-7.92.75-2.98 22.95 18.53 33.35 21.5 10.4 56.44 15.26 67.6-4.95 11.18-20.21-14.6-36.25-32.95-34.68Z" fill="#fff"/><path d="M691.01 314.07c-19.84-5.2 11.17-29.33 14.17-52.29 2.99-22.95-12.8-18.92-12.8-18.92 13.11 15.8-17.7 40.91-26.36 56.52-8.66 15.6 15.26 30.02 30.45 30.18 15.19.16 14.4-10.3-5.46-15.49Zm-75.03-16.94c10.13 5.62 1.65-25 14.74-30.64 9.44-4.08.93-16.3.93-16.3s-38.82 34.07-15.67 46.94Z" fill="#fff"/><path fill-rule="evenodd" clip-rule="evenodd" d="M635.24 215.19c.07-.32-4.66-9.22-7.07-13.73a1.72 1.72 0 0 0-2.97-.12l-10.33 15.89c-3.2 1.03-14.28 5.04-17.9 13.38-.95-.67-7.74.5-11.65 1.23a1.74 1.74 0 0 0-1.42 1.96c.05.3.16.58.34.82l7.18 9.7s-.5 1.2 3.09 6.05c3.09 4.18 7.92 7.94 23.16 6.3 12.7-2.64 40.68-23.02 17.57-41.48Z" fill="#fff"/><path d="M623.96 237.72a.46.46 0 0 0-.36.1.47.47 0 0 0-.17.32c0 .04-.45 3.98-2.43 4.82-.87.38-1.99.12-3.23-.77a.66.66 0 0 0-.4-.2.48.48 0 0 0-.48.32.48.48 0 0 0 .16.55l.1.07c.26.29.82 1.37.53 2.03-.24.54-1.15.74-2.58.56a.48.48 0 0 0-.44.78c.08.1.2.17.32.18.55.06 1.1.06 1.65 0a2.38 2.38 0 0 0 1.75-.85 2.2 2.2 0 0 0 .23-1.9 3.4 3.4 0 0 0 2.77.08c2.5-1.1 2.98-5.4 3-5.6a.47.47 0 0 0-.42-.5Z" fill="#2A2460"/><path fill-rule="evenodd" clip-rule="evenodd" d="M615.3 239.6c-.09 0 3.81-5.8 1.82 2.86 0-.03-8.4-1.4-1.82-2.85Z" fill="url(#g)"/><path opacity=".43" fill-rule="evenodd" clip-rule="evenodd" d="M631.11 232.74c7.93-10 17-11.92 17.6-12-9.98-.33-17.6 12-17.6 12Zm.7.72c10.11-6.8 18.95-5.92 19.54-5.8-9.1-3.22-19.54 5.8-19.54 5.8Zm-36.05 24.54c-.06 0 3-6.07 11.72-9.57.03 0-9.88 2.67-11.72 9.58Zm4.16 3.23c-.05.04.98-6.45 7.92-12.17-.02 0-8.26 5.29-7.92 12.17Z" fill="#2A2460"/><path opacity=".13" fill-rule="evenodd" clip-rule="evenodd" d="M626.87 205.04c-2.43.28-6.1 9.8-6.1 9.8 3.27-1 6.76-1 10.03 0 0 0-1.5-10.07-3.93-9.8Zm-37.97 29.13c-1.42.92 3.21 5.14 3.21 5.14s.66-4.24 3.53-5.7c-.02 0-5.34-.35-6.75.56Z" fill="#2A2460"/><path fill-rule="evenodd" clip-rule="evenodd" d="M304.4 207.8v.24a.22.22 0 0 0 .04-.12.22.22 0 0 0-.04-.12Zm-.02.24c-1.26 1.89-33.22-3.61-33.22-3.61s-17.56 30.37-2.72 62.88c10.17 21.18 18.7 35 17.45 58.85-9.64 1.99-8.84 8.96-2.75 8.69 1.14 0 6.71.1 7.5.03 7.44-.66 2.64-31.1.9-40.63-.37-1.76-.52-2.82-.52-2.82l.52 2.82c1.48 7 6.42 25.1 19.15 31.71-.94-.52-5.88-.19-9.25 1.39-6.38 2.98-10.75 8.48 3.16 7.5 17.33.4 34.02-.04 34.02-.04s45.89-24.64 6.4-65.1c-19.96-20.47-45.12-8.92-40.64-61.67Z" fill="#241D50"/><path fill-rule="evenodd" clip-rule="evenodd" d="m291.54 294.28-.52-2.83s.15 1.07.52 2.83Z" fill="#241D50"/><path d="M389.98 218.17c-21.37 6.62-27.6 38.53-31.77 84.45-.6 6.5-3.6 26.15-24.05 31.36.08.16.14.32.2.49 28.37 2.65 40.63-23.99 42.37-47.35 3.16-34.78 7.56-57.98 26.32-51.96 8.16 3.63 12.52-24.5-13.07-17Z" fill="#2A2460"/><path fill-rule="evenodd" clip-rule="evenodd" d="M325.9 182.53c-5.52.63-15.06 1.88-16.07 3.13-8.21-9.67-24.64-10.5-29.36-10.52l-20.27-17.04a2.4 2.4 0 0 0-3.9 1.37c-1.4 7-4.1 20.82-3.88 21.23-23.33 34.06 22.33 49.88 40.33 48.22 21.03-4.03 25.95-11.02 28.4-17.87 2.81-7.94 1.66-9.34 1.66-9.34l5.65-15.89a2.47 2.47 0 0 0-2.57-3.29Z" fill="#2A2460"/><path d="M291.67 212.98c-1.83.83-3.13.93-3.68.3-.66-.76-.33-2.43-.12-2.92l.11-.14a.66.66 0 0 0 0-.8.66.66 0 0 0-.78-.26.97.97 0 0 0-.45.43c-1.32 1.71-2.69 2.5-3.96 2.35-3.03-.34-5.23-5.36-5.23-5.43a.66.66 0 0 0-.63-.4.65.65 0 0 0-.25.05.66.66 0 0 0-.36.37.67.67 0 0 0 0 .51c.1.24 2.51 5.79 6.29 6.24a4.76 4.76 0 0 0 3.66-1.24 3.14 3.14 0 0 0 1.08 2.45 3.34 3.34 0 0 0 2.7.43c.75-.15 1.48-.4 2.18-.72a.65.65 0 0 0 .36-.37.66.66 0 0 0-.02-.52.65.65 0 0 0-.38-.36.65.65 0 0 0-.52.03Z" fill="#fff"/><path fill-rule="evenodd" clip-rule="evenodd" d="M288.99 205.12c.13 0-7.45-6.2-1.27 4.54 0 0 10.67-5.25 1.26-4.54Z" fill="url(#h)"/><path fill-rule="evenodd" clip-rule="evenodd" d="M236.7 193.6c.84-.17 13.7-1.27 28.4 8.84 0 0-15.18-13.32-28.4-8.84Zm-.7 10.32c.73-.4 12.18-5.2 28.45-.23 0 0-17.62-7.77-28.45.23Zm67.04 9.83c13.05 1.12 19.63 8.02 19.54 8.01-5.23-8.48-19.54-8-19.54-8Zm-.21.98c11.58 4.8 15.6 13.07 15.5 13.03-2.33-9.33-15.5-13.03-15.5-13.03Z" fill="#fff"/><path opacity=".21" fill-rule="evenodd" clip-rule="evenodd" d="M259.51 163.71c-3.36.63-1.28 14.7-1.28 14.7a24.2 24.2 0 0 1 13.39-4.1s-8.75-11.22-12.1-10.6Zm62.56 23.41c-2.25-.66-9.24 1.98-9.24 1.98 4.42.78 7.03 6.2 7.03 6.2s4.47-7.53 2.21-8.18Z" fill="#fff"/><path d="M447.74 333.67c-6 0-12.14-1.84-17.4-3.75l-1.89-.7c-8.35-3.08-17-6.25-25.25-4.08a41.24 41.24 0 0 0-7.74 3.23 73.12 73.12 0 0 1-4.8 2.24c-3.95 1.62-9.65 2.96-14.43.21a1.22 1.22 0 0 1 .29-2.25 1.22 1.22 0 0 1 .93.13c4.13 2.37 9.48.8 12.3-.36a86.9 86.9 0 0 0 4.62-2.16 43.33 43.33 0 0 1 8.2-3.4c9-2.38 18.01.93 26.72 4.14l1.88.67c8.2 2.99 18.66 5.8 26.75 1.04a1.24 1.24 0 0 1 1.41.02 1.23 1.23 0 0 1 .22 1.79c-.1.13-.24.23-.4.31a22.1 22.1 0 0 1-11.4 2.92Z" fill="url(#i)"/><path d="M476.05 326.87a24.66 24.66 0 0 0 0-34.81 24.52 24.52 0 0 0-34.73 0 24.66 24.66 0 0 0 0 34.8 24.52 24.52 0 0 0 34.73 0Z" fill="url(#j)"/><path d="M61.52 307.84s36.26-12.92 87.72-.9c-52.9 18.36-83.71.97-87.72.9Z" fill="url(#k)"/><path d="M57 332.93h98.57a5.3 5.3 0 0 0 .97-5.22l-7.3-20.76s-27.5 9.15-87.72.9l-6.44 19.19a5.23 5.23 0 0 0 1.91 5.9Z" fill="url(#l)"/><path opacity=".42" d="M677.85 370h-355.3a4.28 4.28 0 0 1-4.27-4.3 4.33 4.33 0 0 1 4.27-4.3h355.3a4.27 4.27 0 0 1 4.27 4.3 4.32 4.32 0 0 1-4.27 4.3Z" fill="url(#m)"/><path d="M829.38 341.54h-824.76a4.5 4.5 0 0 1-3.23-1.33 4.78 4.78 0 0 1-1.39-3.3 4.78 4.78 0 0 1 1.38-3.3 4.5 4.5 0 0 1 3.24-1.34h824.76c1.2 0 2.37.48 3.23 1.35a4.79 4.79 0 0 1 1.38 3.3 4.8 4.8 0 0 1-1.38 3.28 4.5 4.5 0 0 1-3.23 1.34Z" fill="url(#n)"/></g><defs><linearGradient id="b" x1="517.037" y1="217.421" x2="541.406" y2="217.421" gradientUnits="userSpaceOnUse"><stop stop-color="#82CDE4"/><stop offset=".23" stop-color="#69C2D8"/><stop offset=".72" stop-color="#28A6BA"/><stop offset="1" stop-color="#0094A7"/></linearGradient><linearGradient id="c" x1="578.199" y1="190.957" x2="612.537" y2="190.957" gradientUnits="userSpaceOnUse"><stop stop-color="#7BCBE2"/><stop offset="1" stop-color="#0096AB"/></linearGradient><linearGradient id="d" x1="460" y1="168.122" x2="669.325" y2="168.122" gradientUnits="userSpaceOnUse"><stop stop-color="#80CDE4"/><stop offset="1" stop-color="#0095A9"/></linearGradient><linearGradient id="e" x1="557.841" y1="264.156" x2="741.572" y2="264.156" gradientUnits="userSpaceOnUse"><stop stop-color="#E71A80"/><stop offset="1" stop-color="#EC6588"/></linearGradient><linearGradient id="f" x1="554.019" y1="295.219" x2="751.167" y2="295.219" gradientUnits="userSpaceOnUse"><stop stop-color="#EC6588"/><stop offset="1" stop-color="#E71A80"/></linearGradient><linearGradient id="g" x1="-10211.4" y1="2246.67" x2="-10250.1" y2="2258.33" gradientUnits="userSpaceOnUse"><stop stop-color="#EC6588"/><stop offset="1" stop-color="#E71A80"/></linearGradient><linearGradient id="h" x1="285.294" y1="206.498" x2="292.861" y2="206.498" gradientUnits="userSpaceOnUse"><stop stop-color="#EC6588"/><stop offset="1" stop-color="#E71A80"/></linearGradient><linearGradient id="i" x1="18188.8" y1="3333.7" x2="28922.2" y2="3333.7" gradientUnits="userSpaceOnUse"><stop stop-color="#EC6588"/><stop offset="1" stop-color="#E71A80"/></linearGradient><linearGradient id="j" x1="434.132" y1="309.462" x2="483.24" y2="309.462" gradientUnits="userSpaceOnUse"><stop stop-color="#E71A80"/><stop offset="1" stop-color="#EC6588"/></linearGradient><linearGradient id="k" x1="61.508" y1="307.877" x2="149.168" y2="309.626" gradientUnits="userSpaceOnUse"><stop stop-color="#82CDE4"/><stop offset=".23" stop-color="#69C2D8"/><stop offset=".72" stop-color="#28A6BA"/><stop offset="1" stop-color="#0094A7"/></linearGradient><linearGradient id="l" x1="54.929" y1="319.115" x2="156.964" y2="321.15" gradientUnits="userSpaceOnUse"><stop stop-color="#0094A7"/><stop offset=".28" stop-color="#28A6BA"/><stop offset=".77" stop-color="#69C2D8"/><stop offset="1" stop-color="#82CDE4"/></linearGradient><linearGradient id="m" x1="318.279" y1="365.698" x2="682.122" y2="365.698" gradientUnits="userSpaceOnUse"><stop stop-color="#EC6588"/><stop offset="1" stop-color="#E71A80"/></linearGradient><linearGradient id="n" x1="0" y1="336.907" x2="834" y2="336.907" gradientUnits="userSpaceOnUse"><stop stop-color="#A775B0"/><stop offset="1" stop-color="#7E468E"/></linearGradient><clipPath id="a"><path fill="#fff" d="M0 0h834v370h-834z"/></clipPath></defs></svg>