<svg viewBox="0 0 381 379" fill="none" xmlns="http://www.w3.org/2000/svg"><g clip-path="url(#a)"><path fill-rule="evenodd" clip-rule="evenodd" d="M380.23 157.6c-3.26 36.71-35.2 64.4-60.52 62.14-25.33-2.25-50.91-33.84-47.65-70.56 3.26-36.72 34.13-64.66 59.45-62.41 25.33 2.25 51.98 34.1 48.72 70.83Zm-143.62-24.06c-25.38 1.53-55.47-27.05-57.73-63.85-2.25-36.8 24.2-67.87 49.57-69.4 25.38-1.54 55.47 27.04 57.73 63.84 2.25 36.8-24.2 67.87-49.57 69.4Zm-100.54 17.97c-24.26 7.58-58.27-8.64-69.32-43.83-11.04-35.18 5.06-76 29.32-83.57 24.26-7.58 56.73 8.65 67.78 43.83 11.04 35.18-3.52 76-27.78 83.57Zm-36.46 27.6c15.45 33.48 5.93 73.53-17.17 84.13-23.09 10.62-59.95-3.33-75.4-36.82-15.46-33.48-3.64-73.83 19.45-84.44 23.1-10.6 57.67 3.64 73.12 37.12Zm29.93 67.48c34.61-102.8 82.1-109.13 140.24-35.48 6.71 8.5 14.8 15.86 24.17 21.3 74.25 42.98 60.97 113.43.93 115.66-7.19.27-14.34-.82-21.31-2.61-23.76-6.12-46.87-4.5-68.85 10.42-75.8 63.61-152.26-20.74-88.88-86.3a60.84 60.84 0 0 0 13.7-23Z" fill="#28AFC9"/><path d="M185.71 259.52c1.85.04 3.37.51 4.56 1.43a6.62 6.62 0 0 1 2.39 3.86 6.74 6.74 0 0 1-1.27 6.2c-1.44 1.76-3.82 3.05-7.17 3.87l-12.89 3.18-6.7-27.19 12.16-3c3.05-.75 5.59-.73 7.6.07 2 .8 3.28 2.3 3.83 4.53.35 1.43.3 2.74-.14 3.95a6.5 6.5 0 0 1-2.37 3.1Zm-13.25 1.74 6.76-1.67c1.63-.4 2.8-1.03 3.5-1.89.69-.85.88-1.92.56-3.19-.3-1.26-.97-2.12-1.98-2.55-1.03-.47-2.35-.5-3.98-.1l-6.76 1.67 1.9 7.73Zm10.65 9.77c3.57-.88 5.03-2.66 4.37-5.35-.65-2.65-2.77-3.53-6.34-2.65l-7.77 1.92 1.97 8 7.77-1.92Zm26.12-2.02a12.5 12.5 0 0 1-6.12.06 10.32 10.32 0 0 1-4.93-2.78 11.01 11.01 0 0 1-2.8-5.16 10.8 10.8 0 0 1 .1-5.83 10.4 10.4 0 0 1 3.03-4.74 12.61 12.61 0 0 1 5.49-2.8 11.4 11.4 0 0 1 5.66-.07 8.28 8.28 0 0 1 4.38 2.7l-3.2 3.1a5.9 5.9 0 0 0-2.77-1.58c-1-.28-2.04-.28-3.1-.02a6.29 6.29 0 0 0-4.06 2.9 6.46 6.46 0 0 0-.63 5.14 6.68 6.68 0 0 0 2.91 4.3 6.42 6.42 0 0 0 4.98.63 6.32 6.32 0 0 0 2.74-1.42 6.2 6.2 0 0 0 1.71-2.73l4.27 1.26a8.75 8.75 0 0 1-2.65 4.48 11.3 11.3 0 0 1-5.01 2.56Zm29.65-18.47c.09.34.18.82.28 1.46l-16.28 4a5.91 5.91 0 0 0 3.12 3.1 7.7 7.7 0 0 0 4.83.22 7.78 7.78 0 0 0 5.07-3.64l3.34 2.35a9.02 9.02 0 0 1-2.9 3.4c-1.3.92-2.83 1.6-4.61 2.04-2.28.56-4.4.6-6.36.12a10.25 10.25 0 0 1-4.97-2.77 11.24 11.24 0 0 1-2.75-5.17c-.5-2.02-.5-3.95.02-5.78.53-1.86 1.5-3.44 2.9-4.75a11.5 11.5 0 0 1 5.19-2.72 10.9 10.9 0 0 1 5.73.03 9.45 9.45 0 0 1 4.66 2.85 11.52 11.52 0 0 1 2.73 5.26Zm-12.17-4.25a5.93 5.93 0 0 0-4.66 6.5l11.77-2.9a5.9 5.9 0 0 0-2.8-3.18 5.95 5.95 0 0 0-4.3-.42Zm-5.59-5.96a2.33 2.33 0 0 1-2.9-1.76 2.33 2.33 0 0 1 1.75-2.94 2.33 2.33 0 0 1 1.83.25c.55.33.9.85 1.08 1.55a2.33 2.33 0 0 1-1.76 2.9Zm7.54-1.86a2.33 2.33 0 0 1-2.9-1.75c-.18-.7-.1-1.32.23-1.87.34-.55.84-.91 1.51-1.08a2.33 2.33 0 0 1 1.83.25c.55.33.91.85 1.08 1.55a2.33 2.33 0 0 1-1.75 2.9Zm-55.41 79.57c-2.1.51-4.1.53-6 .04a10.52 10.52 0 0 1-4.9-2.8 11.24 11.24 0 0 1-2.75-5.17c-.5-2.04-.5-3.98.05-5.82a10.39 10.39 0 0 1 3.03-4.74 12.1 12.1 0 0 1 5.33-2.76 12.2 12.2 0 0 1 6.05-.04 10.1 10.1 0 0 1 4.85 2.8 10.8 10.8 0 0 1 2.79 5.12 11 11 0 0 1-.08 5.87 10.11 10.11 0 0 1-3 4.73 12.22 12.22 0 0 1-5.37 2.77Zm-1.03-4.16a6.11 6.11 0 0 0 4-2.88 6.62 6.62 0 0 0 .58-5.13 6.62 6.62 0 0 0-2.9-4.26 6.1 6.1 0 0 0-4.87-.7 6.1 6.1 0 0 0-3.99 2.88 6.72 6.72 0 0 0-.55 5.12 6.71 6.71 0 0 0 2.87 4.28 6.11 6.11 0 0 0 4.86.7Zm22.45-23.4 4.86-1.2 2.07 8.43 10.45-2.58-2.08-8.43 4.86-1.2 5.1 20.75-4.85 1.2-2.02-8.2-10.44 2.57 2.01 8.2-4.85 1.2-5.1-20.75Zm34.34-8.71c3.05-.75 5.56-.6 7.53.49 2 1.05 3.35 3.05 4.08 6l3 12.16-4.6 1.13-.61-2.53a5.93 5.93 0 0 1-2.05 2.73 10.2 10.2 0 0 1-3.79 1.67c-1.55.39-2.98.46-4.27.23a6.83 6.83 0 0 1-3.26-1.54 5.97 5.97 0 0 1-1.73-3 5.62 5.62 0 0 1 .96-4.97c1.12-1.48 3.16-2.6 6.14-3.33l5.36-1.32-.08-.3c-.35-1.46-1.07-2.46-2.14-3.02-1.05-.57-2.42-.64-4.13-.22a11.5 11.5 0 0 0-3.32 1.4 8.72 8.72 0 0 0-2.47 2.2l-2.77-3.06c.88-1.1 2.03-2.05 3.45-2.87a17.99 17.99 0 0 1 4.7-1.85Zm3.7 17.87a6.47 6.47 0 0 0 3.02-1.6 4.75 4.75 0 0 0 1.43-2.91l-.6-2.41-5 1.23c-2.8.7-3.97 1.95-3.52 3.8.22.87.74 1.49 1.56 1.83.83.35 1.87.37 3.1.06Zm26.41-2.76c-2.15.53-4.19.55-6.12.07a10.33 10.33 0 0 1-4.93-2.78 11 11 0 0 1-2.8-5.16c-.5-2.05-.47-4 .1-5.83a10.4 10.4 0 0 1 3.03-4.75 12.6 12.6 0 0 1 5.49-2.8 11.4 11.4 0 0 1 5.67-.07 8.28 8.28 0 0 1 4.37 2.71l-3.2 3.1a5.9 5.9 0 0 0-2.77-1.59c-1-.27-2.03-.28-3.1-.02a6.3 6.3 0 0 0-4.06 2.9 6.46 6.46 0 0 0-.63 5.14 6.67 6.67 0 0 0 2.92 4.3 6.41 6.41 0 0 0 4.97.64 6.3 6.3 0 0 0 2.74-1.42 6.21 6.21 0 0 0 1.72-2.73l4.26 1.26a8.75 8.75 0 0 1-2.64 4.48c-1.33 1.2-3 2.06-5.02 2.55Zm32.74-147.52a6.86 6.86 0 0 1-3.01-1.52 5.93 5.93 0 0 1-1.82-5.91 5.98 5.98 0 0 1 4.27-4.46c1.07-.3 2.2-.3 3.37-.02 1.18.27 2.19.79 3.01 1.53a5.81 5.81 0 0 1 1.82 5.9 5.93 5.93 0 0 1-4.27 4.48 6.98 6.98 0 0 1-3.37 0Zm.45-1.89a3.95 3.95 0 0 0 4-1.13 4.43 4.43 0 0 0 .99-4.18 3.79 3.79 0 0 0-1.11-1.8 4.24 4.24 0 0 0-1.96-1.03 4.23 4.23 0 0 0-2.21.04c-.7.2-1.3.57-1.8 1.11-.5.54-.84 1.19-1.02 1.96-.19.77-.18 1.52.03 2.23a3.95 3.95 0 0 0 3.08 2.8Zm18.53-3.13-2.08 8.83-2.06-.48 1.68-7.09-4.36-1.02-1.67 7.08-2.07-.49 2.09-8.83 8.47 2Zm10.8 2.54-2.09 8.84-2.06-.49 1.67-7.08-3.31-.78-.5 1.73a19.7 19.7 0 0 1-1.03 2.87c-.33.75-.75 1.3-1.25 1.68-.48.36-1.05.47-1.71.31a4.7 4.7 0 0 1-1.1-.45l.5-1.72c.16.07.28.12.4.15.41.1.77 0 1.05-.28.3-.29.52-.66.69-1.11.17-.46.39-1.12.64-1.98l.95-3.37 7.15 1.68Zm6.1 1.34c1.3.3 2.22.85 2.76 1.65.55.78.67 1.8.38 3.05l-1.23 5.18-1.95-.46.25-1.07c-.34.32-.77.53-1.3.63-.5.1-1.1.06-1.76-.1a4.37 4.37 0 0 1-1.66-.74 2.9 2.9 0 0 1-.93-1.22c-.17-.47-.2-.95-.07-1.46a2.4 2.4 0 0 1 1.32-1.7c.71-.34 1.7-.37 2.97-.07l2.28.54.03-.13c.15-.62.07-1.14-.22-1.56-.29-.41-.8-.7-1.52-.88-.5-.12-1-.16-1.53-.12-.51.05-.96.17-1.36.37l-.46-1.7a5.16 5.16 0 0 1 1.87-.42c.7-.03 1.4.04 2.13.2Zm-2.06 7.48c.52.12 1 .11 1.45-.03.47-.14.84-.42 1.1-.82l.25-1.03-2.14-.5c-1.19-.28-1.88-.03-2.06.75-.09.38-.01.71.24 1 .24.3.63.5 1.16.63Zm15.2-2.42-3.1-.73-1.66 7.08-2.07-.49 1.67-7.08-3.11-.74.41-1.75 8.28 1.95-.42 1.76Zm1.92-1.4 2.06.49-1.37 5.82 6.25-4.67 1.9.44-2.1 8.84-2.06-.5 1.37-5.81-6.24 4.67-1.9-.45 2.09-8.83Zm18.2 6.14-3.1-.73-1.67 7.09-2.06-.5 1.67-7.07-3.11-.74.4-1.75 8.28 1.95-.41 1.75Zm5.66 2.56c1.12.27 1.92.72 2.4 1.37.49.65.62 1.44.4 2.37a2.79 2.79 0 0 1-1.52 2.01c-.79.38-1.78.42-2.98.12l-4.13-1 2.08-8.83 2.07.5-.68 2.89 2.36.57Zm-1.52 4.3c.6.16 1.1.14 1.48-.05.38-.19.63-.53.75-1.04.12-.5.05-.9-.2-1.2-.26-.3-.7-.54-1.33-.7l-1.88-.46-.7 3 1.88.46Zm-279.49-82.34a3.9 3.9 0 0 1 2.2.84c.6.47.98 1.1 1.15 1.87.19.82.08 1.6-.32 2.33a5.3 5.3 0 0 1-1.83 1.86c-.82.53-1.75.9-2.8 1.14a9.56 9.56 0 0 1-5.63-.34l.4-2.03a7.55 7.55 0 0 0 4.44.31 5.05 5.05 0 0 0 2.42-1.17c.6-.56.82-1.19.66-1.9-.13-.6-.48-1-1.04-1.2-.57-.2-1.29-.2-2.16 0l-3.18.7-.44-1.98 2.98-.67a3.04 3.04 0 0 0 1.67-.87c.36-.4.48-.88.36-1.4a1.69 1.69 0 0 0-1.2-1.3 4.26 4.26 0 0 0-2.33-.03c-.61.14-1.22.37-1.83.7-.62.31-1.17.7-1.67 1.17l-1.26-1.87a10.1 10.1 0 0 1 4.33-2.16 8.2 8.2 0 0 1 2.9-.16c.93.12 1.72.42 2.35.9a3.03 3.03 0 0 1 1.22 1.85c.15.68.1 1.31-.15 1.9-.25.59-.66 1.1-1.24 1.5Zm8.34-5.45c1.53-.35 2.79-.24 3.76.32.98.55 1.64 1.56 1.97 3.05l1.37 6.1-2.3.52-.29-1.27a3 3 0 0 1-1.05 1.34c-.5.36-1.13.63-1.91.8-.78.17-1.5.2-2.14.07a3.42 3.42 0 0 1-1.61-.8c-.42-.42-.7-.93-.83-1.52a2.81 2.81 0 0 1 .53-2.48c.57-.73 1.6-1.26 3.1-1.6l2.7-.6-.04-.16a2.17 2.17 0 0 0-1.04-1.53c-.51-.29-1.2-.34-2.06-.15-.59.13-1.14.35-1.68.66-.51.31-.93.67-1.25 1.08l-1.35-1.56c.45-.54 1.03-1 1.75-1.4a9.04 9.04 0 0 1 2.37-.87Zm1.66 8.97c.6-.14 1.12-.4 1.53-.77.41-.4.66-.88.74-1.44l-.27-1.2-2.52.55c-1.4.32-2 .94-1.8 1.86.1.44.36.76.77.94.4.18.92.2 1.55.06Zm14.93-12.56 2.33 10.42-2.19.49-.7-3.14-2.75.61-1.42 3.62-2.62.59 1.68-4.03a3.65 3.65 0 0 1-2-.8 3.46 3.46 0 0 1-1.04-1.88 3.37 3.37 0 0 1 .65-3.06 5.8 5.8 0 0 1 3.28-1.75l4.78-1.07Zm-4.25 3.1c-1.57.35-2.22 1.12-1.96 2.3.26 1.17 1.15 1.59 2.68 1.25l2.6-.58-.8-3.53-2.52.56Zm16.2-.53c1.38.1 2.2.8 2.5 2.07.2.93.01 1.73-.58 2.4a5.48 5.48 0 0 1-2.95 1.46l-5.3 1.19-2.34-10.43 5.1-1.14a5.55 5.55 0 0 1 3.14.04c.82.3 1.33.89 1.52 1.75.12.53.08 1.03-.12 1.48-.19.45-.51.85-.97 1.18Zm-5.37.53 2.55-.58c1.27-.28 1.8-.85 1.6-1.73-.19-.84-.91-1.12-2.17-.84l-2.56.57.58 2.58Zm3.75 3.67c1.34-.3 1.91-.89 1.72-1.76-.1-.46-.34-.76-.7-.91-.36-.17-.88-.17-1.54-.03l-2.87.65.6 2.67 2.79-.62Zm10.77-4.93-1.9.42.94 4.18-2.44.54-2.34-10.42 2.44-.55.95 4.22 1.95-.44 2.14-4.9 2.62-.59-2.67 5.87 5.25 4.5-2.87.64-4.07-3.47Zm10-8.92c1.53-.35 2.79-.24 3.76.32.98.55 1.64 1.56 1.97 3.05l1.37 6.1-2.3.52-.29-1.27c-.2.53-.55.97-1.05 1.35-.5.35-1.13.62-1.91.8a5.2 5.2 0 0 1-2.14.06 3.42 3.42 0 0 1-1.62-.8 3 3 0 0 1-.83-1.52 2.8 2.8 0 0 1 .54-2.48c.57-.73 1.6-1.26 3.1-1.6l2.7-.6-.04-.15c-.16-.73-.5-1.24-1.04-1.53-.52-.3-1.2-.35-2.06-.16-.59.13-1.15.35-1.68.66-.52.31-.93.67-1.25 1.08l-1.36-1.56c.46-.54 1.04-1 1.76-1.4.72-.39 1.5-.68 2.37-.87Zm1.66 8.97c.6-.13 1.12-.4 1.53-.77.41-.4.66-.87.74-1.44l-.27-1.2-2.52.56c-1.4.31-2 .93-1.8 1.85.1.45.36.76.76.94.41.18.93.2 1.56.06Zm-65.29 30.59.84-.22.51 1.96 2.63-.69-.51-1.95.83-.22 1.21 4.61-.83.22-.51-1.93-2.63.69.5 1.93-.83.22-1.2-4.62Zm7.56-2.02c.64-.17 1.17-.14 1.59.08.42.23.72.65.88 1.27l.73 2.78-.8.21-.15-.6c-.09.24-.24.46-.47.65-.23.17-.52.3-.87.4a2 2 0 0 1-1.35-.05 1.25 1.25 0 0 1-.72-.86c-.1-.4-.04-.77.2-1.09.22-.33.66-.58 1.3-.74l1.33-.35-.05-.17c-.09-.36-.27-.6-.53-.74s-.59-.15-1-.05a2.45 2.45 0 0 0-1.33.88l-.5-.53c.18-.26.42-.48.73-.66.3-.2.64-.34 1.01-.43Zm.88 4.11c.32-.08.57-.22.77-.42.2-.21.3-.46.34-.75l-.16-.64-1.3.34c-.7.18-1 .51-.87.99.06.23.2.4.42.48.21.08.48.09.8 0Zm7.34-6.06c.43-.1.84-.11 1.23-.01s.72.3 1 .6c.27.28.47.64.58 1.08.12.44.12.87.01 1.27-.1.4-.32.73-.63 1.02-.31.29-.7.5-1.16.61-.79.21-1.46.1-2.03-.32a3.72 3.72 0 0 1-1.23-2.1 3.83 3.83 0 0 1 0-2.38 2.9 2.9 0 0 1 1.5-1.54l1.98-1.02.33.73-1.84.93c-.56.3-.95.64-1.17 1.03-.2.4-.26.9-.14 1.51.12-.34.31-.64.58-.89.28-.24.6-.41 1-.52Zm.86 3.87a1.49 1.49 0 0 0 1.13-1.1c.06-.26.06-.55-.02-.85-.12-.46-.36-.8-.71-1-.35-.2-.75-.25-1.2-.13-.46.12-.8.36-1 .7-.2.36-.25.77-.13 1.22.08.3.21.56.4.76a1.6 1.6 0 0 0 1.53.4Zm4.95-5.6a2.5 2.5 0 0 1 1.28-.02c.4.1.75.3 1.04.6.3.3.5.7.63 1.16.12.46.13.9.02 1.31-.1.4-.3.76-.61 1.05a2.5 2.5 0 0 1-2.09.66c-.3-.06-.58-.19-.84-.38l.63 2.39-.84.22-1.65-6.3.8-.22.19.73c.12-.3.3-.55.55-.76.25-.2.55-.35.9-.44Zm.97 4a1.52 1.52 0 0 0 1.15-1.13c.07-.3.07-.6-.01-.91a1.74 1.74 0 0 0-.43-.8c-.2-.2-.44-.35-.71-.42a1.61 1.61 0 0 0-.85 0 1.6 1.6 0 0 0-1.14 1.14c-.07.27-.07.57.02.9.08.31.22.58.42.8a1.52 1.52 0 0 0 1.55.41Zm5.79-.74c-.46.12-.9.13-1.32.02a2.33 2.33 0 0 1-1.7-1.75 2.47 2.47 0 0 1-.01-1.3c.11-.4.32-.76.64-1.05.31-.3.7-.51 1.16-.63a2.5 2.5 0 0 1 1.3-.02c.42.1.78.3 1.08.61a2.56 2.56 0 0 1 .63 2.43c-.1.41-.32.76-.63 1.06-.3.3-.7.5-1.15.63Zm-.2-.73a1.53 1.53 0 0 0 1.15-1.13c.07-.29.06-.59-.02-.9a1.79 1.79 0 0 0-.42-.8c-.2-.21-.44-.36-.7-.43a1.61 1.61 0 0 0-.85.01 1.53 1.53 0 0 0-1.16 1.13 1.93 1.93 0 0 0 .45 1.7c.2.2.44.35.7.43.28.07.56.07.86-.01Zm2.58-4.88.83-.22.52 1.96 2.63-.7-.52-1.95.84-.22 1.2 4.61-.83.22-.5-1.93-2.63.69.5 1.93-.83.22-1.21-4.61Zm5.92-1.56.84-.22.88 3.37 1.95-4.1.76-.2 1.2 4.6-.83.23-.88-3.36-1.94 4.1-.77.2-1.2-4.62Zm8.48-2.27a2.5 2.5 0 0 1 1.28-.01c.4.1.76.3 1.05.6.3.3.5.69.62 1.15.12.47.13.9.02 1.32-.1.4-.3.75-.6 1.04a2.5 2.5 0 0 1-2.1.66c-.3-.05-.58-.18-.84-.37l.63 2.38-.84.22-1.65-6.3.8-.21.19.73c.12-.3.3-.56.56-.76.24-.2.54-.36.88-.45Zm.98 4c.3-.08.54-.21.74-.4a1.72 1.72 0 0 0 .39-1.63 1.73 1.73 0 0 0-.43-.8c-.2-.21-.44-.35-.71-.42a1.61 1.61 0 0 0-.84 0 1.6 1.6 0 0 0-1.15 1.13c-.07.28-.06.58.02.9.08.32.22.59.42.8a1.52 1.52 0 0 0 1.56.42Zm5.78-.73c-.46.12-.9.12-1.31.02a2.33 2.33 0 0 1-1.71-1.75 2.47 2.47 0 0 1-.01-1.3c.11-.4.33-.76.64-1.06.31-.3.7-.5 1.16-.62a2.5 2.5 0 0 1 1.3-.02c.42.1.78.3 1.08.61a2.56 2.56 0 0 1 .63 2.43c-.1.4-.32.76-.63 1.06-.3.3-.69.5-1.15.63Zm-.2-.74a1.52 1.52 0 0 0 1.15-1.13c.07-.28.07-.58-.02-.9a1.79 1.79 0 0 0-.42-.8c-.2-.2-.43-.35-.7-.42a1.61 1.61 0 0 0-.85 0c-.3.08-.55.22-.75.42-.2.2-.33.43-.4.72-.08.28-.07.58.01.9a2 2 0 0 0 .43.8c.2.2.44.35.7.42.28.08.56.07.86 0Zm6.3-3.48c.64 0 1.04.3 1.2.89.1.4.03.76-.22 1.06-.24.3-.67.53-1.27.69l-2.22.58-1.21-4.61 2.14-.57c.55-.14 1-.15 1.36-.02.36.12.6.37.7.75.06.24.04.47-.04.69-.08.2-.23.39-.44.54Zm-2.38.38 1.25-.33c.32-.09.55-.2.68-.37a.6.6 0 0 0 .12-.57c-.12-.44-.5-.57-1.15-.4l-1.25.32.35 1.35Zm1.86 1.63c.35-.1.6-.22.74-.37a.6.6 0 0 0 .13-.58c-.07-.24-.2-.4-.39-.47-.19-.08-.45-.07-.8.02l-1.38.37.36 1.38 1.34-.35Zm3.78-5.28c.64-.17 1.17-.14 1.59.08.42.23.71.65.88 1.27l.73 2.79-.8.2-.16-.6c-.08.25-.23.46-.47.65a2.2 2.2 0 0 1-.87.4 2 2 0 0 1-1.34-.04 1.24 1.24 0 0 1-.72-.87c-.1-.4-.04-.77.19-1.09.23-.32.67-.57 1.31-.74l1.33-.35-.05-.16c-.1-.36-.27-.61-.53-.75s-.59-.15-1-.04a2.46 2.46 0 0 0-1.33.88l-.51-.54c.19-.25.43-.47.74-.66.3-.19.64-.33 1.01-.43Zm.87 4.11c.32-.08.58-.22.78-.42.2-.2.3-.46.34-.74l-.17-.65-1.28.34c-.71.19-1 .52-.88 1 .06.22.2.38.41.47.22.09.48.09.8 0Zm2.62-4.98.84-.22.51 1.96 2.63-.7-.51-1.95.83-.22 1.21 4.62-.83.21-.51-1.93-2.63.7.5 1.92-.83.22-1.2-4.61Zm5.93-1.56.83-.21.88 3.36 1.95-4.1.76-.2 1.21 4.6-.84.23-.88-3.36-1.94 4.1-.76.2-1.21-4.62Zm10.82-.34c.02.06.04.15.05.26l-3.74.98c.16.4.42.67.79.84.37.17.78.19 1.24.07a1.8 1.8 0 0 0 1.18-.9l.6.41a2 2 0 0 1-.63.76c-.28.21-.6.37-.99.47-.49.13-.94.14-1.37.04a2.28 2.28 0 0 1-1.73-1.75 2.56 2.56 0 0 1-.02-1.29c.1-.41.31-.76.6-1.05.3-.3.68-.5 1.12-.62.44-.11.86-.12 1.26 0 .4.1.74.31 1.02.62.3.3.5.7.63 1.16Zm-2.72-1.07c-.4.1-.7.31-.9.63-.21.31-.28.67-.23 1.08l2.96-.78a1.5 1.5 0 0 0-1.83-.93Zm-135.79 119.91 6.75 12.27-2.28 1.25-2.9-5.26-6.33 3.5 2.89 5.25-2.28 1.26-6.75-12.27 2.28-1.25 2.78 5.06 6.35-3.49-2.8-5.06 2.29-1.26Zm14.18 8.33a6.1 6.1 0 0 1-2.9.8 5.2 5.2 0 0 1-4.72-2.86 5.2 5.2 0 0 1 .12-5.5 6.06 6.06 0 0 1 2.22-2.02 6.1 6.1 0 0 1 2.92-.8c.98-.01 1.88.23 2.7.72a5.4 5.4 0 0 1 2.01 2.11c.5.93.75 1.87.72 2.85-.02.95-.3 1.84-.83 2.67a6.1 6.1 0 0 1-2.24 2.03Zm-1.03-1.87a3.06 3.06 0 0 0 1.55-1.9c.23-.83.1-1.69-.38-2.56a3.31 3.31 0 0 0-1.95-1.69 3.05 3.05 0 0 0-2.44.3 3.05 3.05 0 0 0-1.56 1.9c-.22.82-.08 1.67.4 2.55a3.36 3.36 0 0 0 1.94 1.7 3.1 3.1 0 0 0 2.44-.3Zm17.32-7.25-3.42-6.2-.28 6.95-.94.52-5.99-3.53 3.43 6.22-2 1.1-5.15-9.36 2.3-1.26 6.54 4.02.27-7.77 2.05-1.13 5.17 9.34-1.98 1.1Zm11.13-12.16c.08.15.19.37.32.67l-7.34 4.04c.5.62 1.14.98 1.9 1.1.77.09 1.56-.08 2.36-.53a3.9 3.9 0 0 0 1.99-2.41l1.91.7c-.14.73-.46 1.4-.97 2.02a6.63 6.63 0 0 1-1.96 1.58 6.6 6.6 0 0 1-3.05.88 5.13 5.13 0 0 1-4.76-2.84 5.6 5.6 0 0 1-.73-2.79c.01-.96.27-1.85.78-2.67a5.75 5.75 0 0 1 2.15-1.98c.92-.5 1.84-.75 2.78-.73.94 0 1.81.26 2.62.77.8.5 1.47 1.23 2 2.19Zm-6.43-.48c-.7.39-1.18.92-1.44 1.61-.25.68-.24 1.39.03 2.13l5.3-2.92a2.94 2.94 0 0 0-1.76-1.17 2.98 2.98 0 0 0-2.13.35Zm11.35-8.53c.9-.5 1.83-.75 2.76-.75.94 0 1.82.25 2.62.75a5.7 5.7 0 0 1 2 2.17c.52.94.78 1.9.77 2.86a4.88 4.88 0 0 1-.77 2.61c-.5.8-1.2 1.44-2.1 1.94a4.3 4.3 0 0 1-3.7.39l2.5 4.54-2.19 1.2-7.02-12.75 2.08-1.15.68 1.23a3.9 3.9 0 0 1 .78-1.73c.41-.52.94-.96 1.59-1.31Zm4 7.84a2.99 2.99 0 0 0 1.53-1.9c.23-.82.1-1.67-.38-2.55a3.3 3.3 0 0 0-1.95-1.68 2.99 2.99 0 0 0-2.43.28 3.12 3.12 0 0 0-1.65 2.72c0 .58.16 1.16.48 1.74.32.58.73 1.03 1.22 1.34.49.3 1 .47 1.56.48.55 0 1.09-.14 1.62-.43Zm6.29-13.51c1.38-.76 2.61-1 3.7-.74 1.1.25 2.01 1.04 2.75 2.37l3.02 5.49-2.07 1.13-.63-1.13a2.96 2.96 0 0 1-.63 1.58c-.38.48-.92.91-1.62 1.3-.7.38-1.38.6-2.03.66a3.42 3.42 0 0 1-1.78-.32 2.99 2.99 0 0 1-1.22-1.22 2.81 2.81 0 0 1-.18-2.53c.35-.86 1.2-1.66 2.54-2.4l2.42-1.33-.08-.14c-.36-.66-.84-1.05-1.43-1.18-.57-.14-1.25 0-2.02.43-.53.29-1 .65-1.42 1.1-.42.44-.72.9-.9 1.39l-1.74-1.12a5.8 5.8 0 0 1 1.3-1.84 9 9 0 0 1 2.02-1.5Zm4.1 8.15c.55-.3.97-.69 1.25-1.16.3-.5.4-1.03.32-1.6l-.6-1.08-2.26 1.25c-1.26.69-1.67 1.45-1.21 2.28.22.4.55.63 1 .69.44.06.94-.07 1.5-.38Zm-49.01 41.83 1.35-.75 2.98 5.41 1.57-7.92 1.22-.67 4.1 7.43-1.35.74-2.98-5.4-1.57 7.9-1.23.68-4.09-7.43Zm24.87-5.56 1.63 2.96-1.28.7-.98-1.78-6.65 3.67-4.1-7.43 1.35-.74 3.44 6.25 4.07-2.24-3.44-6.25 1.34-.74 3.44 6.25 1.18-.64Zm7.08-7.15c.06.1.13.25.2.42l-6.03 3.32c.45.61 1.02.98 1.73 1.12.71.12 1.43-.02 2.16-.43a3.14 3.14 0 0 0 1.65-2.07l1.22.46a3.7 3.7 0 0 1-.76 1.59c-.39.48-.89.88-1.5 1.22-.79.44-1.57.66-2.35.68a4.05 4.05 0 0 1-3.74-2.27c-.4-.72-.6-1.46-.6-2.22.01-.75.21-1.45.6-2.07.39-.64.94-1.16 1.65-1.55a3.98 3.98 0 0 1 4.2.08c.64.4 1.16.98 1.57 1.72Zm-5.15-.67a2.7 2.7 0 0 0-1.3 1.49c-.21.63-.18 1.28.1 1.96l4.76-2.63a2.68 2.68 0 0 0-3.56-.82Zm5.17-4.23 1.35-.74 1.74 3.15 4.23-2.33-1.74-3.15 1.35-.75 4.09 7.43-1.35.74-1.71-3.1-4.23 2.32 1.71 3.12-1.35.74-4.09-7.43Zm14.28-4.58c.94-.5 1.78-.68 2.5-.53.73.14 1.3.6 1.72 1.37.45.8.52 1.57.22 2.3-.3.73-.95 1.36-1.95 1.9l-3.14 1.71-4.09-7.43 1.35-.74 1.38 2.51 2.01-1.09Zm2.6-4.72 1.35-.74 4.1 7.43-1.35.74-4.1-7.43Zm-.77 8.8c.6-.33 1-.7 1.17-1.12.18-.43.13-.9-.14-1.39-.27-.48-.62-.75-1.05-.8-.43-.06-.96.08-1.58.4l-1.7.9 1.6 2.92 1.7-.91Zm131.34-156.41c.9.25 1.57.67 2.03 1.26.47.57.7 1.3.69 2.16 0 1.23-.47 2.18-1.38 2.85-.9.68-2.22 1.01-3.94 1l-6.64-.04.08-14 6.26.04c1.57 0 2.8.33 3.67.96a3.07 3.07 0 0 1 1.3 2.67c0 .73-.18 1.36-.54 1.9a3.2 3.2 0 0 1-1.53 1.2Zm-6.64-.77 3.48.02c.84 0 1.49-.16 1.93-.5.44-.32.66-.82.67-1.47 0-.65-.22-1.15-.66-1.48a3.05 3.05 0 0 0-1.91-.53l-3.48-.02-.03 3.98Zm3.97 6.04c1.84.01 2.76-.68 2.77-2.06 0-1.36-.9-2.05-2.75-2.06l-4-.02-.02 4.12 4 .02Zm8.11-8.63 2.5.01-.04 7.04 5.94-7h2.28l-.06 10.69-2.5-.02.04-7.04-5.92 7.01-2.3-.01.06-10.68Zm25.4 8.7-.03 4.5h-2.34l.01-2.39-8.24-.05-.01 2.38-2.32-.01.02-4.5h.5c.68-.02 1.15-.45 1.4-1.29.25-.85.42-2.05.51-3.6l.16-3.66 8.8.06-.05 8.56h1.58Zm-8.22-4.76a21.82 21.82 0 0 1-.32 3 3.14 3.14 0 0 1-.8 1.71l5.25.03.04-6.44-4.1-.02-.07 1.72Zm20.47 1.68c0 .17-.02.42-.05.74l-8.38-.05c.14.78.52 1.41 1.13 1.88.62.46 1.4.7 2.32.7a3.9 3.9 0 0 0 2.9-1.15l1.33 1.55c-.48.57-1.09 1-1.82 1.3a7 7 0 0 1-2.49.42 6.6 6.6 0 0 1-3.1-.72 5.13 5.13 0 0 1-2.76-4.8c0-1.04.24-1.97.71-2.8a5.1 5.1 0 0 1 2-1.94c.84-.46 1.78-.7 2.84-.69 1.04.01 1.96.25 2.77.72.83.46 1.46 1.1 1.91 1.95.46.83.7 1.8.69 2.89Zm-5.38-3.56a2.96 2.96 0 0 0-3.06 2.58l6.06.04c-.1-.77-.43-1.4-.97-1.88a2.98 2.98 0 0 0-2.03-.74Zm12.84 9.02a6.06 6.06 0 0 1-2.92-.72 5.2 5.2 0 0 1-2.73-4.8 5.2 5.2 0 0 1 2.79-4.74 6.07 6.07 0 0 1 2.92-.68c1.1 0 2.07.25 2.94.72a5.05 5.05 0 0 1 2 1.95c.5.83.74 1.77.73 2.82 0 1.06-.26 2-.76 2.84a5.06 5.06 0 0 1-2.03 1.93 6.1 6.1 0 0 1-2.94.68Zm.01-2.14c.92 0 1.68-.3 2.29-.9.6-.62.9-1.42.91-2.42 0-1-.29-1.81-.89-2.43a3.06 3.06 0 0 0-2.27-.93c-.92 0-1.68.3-2.29.9a3.36 3.36 0 0 0-.89 2.42c0 1 .28 1.8.87 2.43.6.61 1.35.92 2.27.93Zm-62.94 16.33h.96l-.01 2.25 3.02.02.01-2.25h.96l-.03 5.3h-.96l.02-2.22-3.03-.02v2.22h-.97l.03-5.3Zm8.7 0c.73 0 1.3.19 1.68.55.39.36.58.9.58 1.61l-.02 3.2h-.91v-.7c-.16.24-.39.43-.7.56-.29.13-.64.19-1.04.19a2.2 2.2 0 0 1-1.43-.44 1.39 1.39 0 0 1-.52-1.14c0-.46.17-.83.51-1.11.34-.29.89-.43 1.63-.42h1.52v-.18c0-.42-.12-.74-.36-.96-.24-.22-.59-.33-1.06-.33a2.73 2.73 0 0 0-1.68.56l-.4-.72c.28-.22.6-.39.99-.5.38-.12.78-.17 1.21-.17Zm-.25 4.67c.37 0 .69-.08.95-.24.27-.16.47-.4.59-.7v-.73l-1.48-.01c-.81 0-1.22.26-1.22.81 0 .27.1.48.3.63.21.16.5.23.86.24Zm6.95-4.4c.49 0 .93.11 1.31.33.39.23.69.54.9.93.22.39.32.83.32 1.33 0 .52-.12.97-.36 1.37-.22.4-.55.7-.97.91a3 3 0 0 1-1.42.33c-.9 0-1.6-.32-2.09-.94a4.14 4.14 0 0 1-.71-2.61c0-1.09.23-1.94.68-2.55a3.26 3.26 0 0 1 2.06-1.21l2.42-.53.14.88-2.24.47c-.69.15-1.2.4-1.55.77a2.5 2.5 0 0 0-.59 1.57c.23-.33.52-.6.88-.78a2.6 2.6 0 0 1 1.22-.27Zm-.2 4.4c.34 0 .64-.08.9-.23.27-.15.48-.36.63-.63.15-.27.22-.58.22-.92 0-.53-.15-.95-.47-1.28a1.7 1.7 0 0 0-1.26-.48c-.52 0-.94.15-1.27.47-.32.32-.48.74-.49 1.27a1.68 1.68 0 0 0 .84 1.56c.27.16.57.23.9.24Zm8.63-4.53-.03 5.3h-.96l.03-4.47-2.28-.01-.07 1.18c-.04.71-.1 1.3-.2 1.79-.1.47-.25.85-.47 1.13-.21.29-.51.43-.9.43-.16 0-.36-.03-.58-.1l.06-.8.24.03c.27 0 .47-.12.6-.35.14-.23.23-.5.27-.83.04-.32.08-.77.12-1.37l.1-1.96 4.07.03Zm6.55-.02c.51 0 .97.13 1.37.36.41.23.73.55.96.97.23.4.34.87.34 1.39 0 .52-.12.99-.36 1.4a2.57 2.57 0 0 1-2.34 1.29c-.47 0-.9-.1-1.27-.3a2.57 2.57 0 0 1-1.38-2.01h-1.07l-.01 2.23h-.97l.04-5.3h.96l-.02 2.17h1.08c.07-.43.23-.82.47-1.15.25-.34.56-.6.94-.77.38-.19.8-.28 1.26-.28Zm-.03 4.57a1.7 1.7 0 0 0 1.52-.87c.15-.28.23-.61.23-.99 0-.36-.07-.69-.22-.97a1.7 1.7 0 0 0-1.5-.9c-.34 0-.63.08-.9.23-.27.15-.48.37-.63.66-.15.27-.23.6-.23.96 0 .38.07.7.22 1 .15.28.35.5.62.65.27.15.56.23.89.23Zm9.42 0-.01 2.07h-.9v-1.24l-4.42-.02-.01 1.23h-.91l.01-2.08h.28c.34-.01.58-.25.7-.71.13-.46.23-1.11.28-1.95l.09-1.79 4.1.02-.02 4.46h.81Zm-4.1-2.62c-.03.66-.1 1.21-.18 1.65a1.6 1.6 0 0 1-.46.94l2.97.02.02-3.62-2.3-.01-.05 1.02Zm10.15.87c0 .08 0 .17-.02.3l-4.3-.03c.06.47.26.84.6 1.13.36.28.8.43 1.31.43.63 0 1.15-.2 1.53-.63l.53.62c-.24.28-.54.5-.9.64s-.75.21-1.2.21c-.55 0-1.05-.12-1.48-.35a2.52 2.52 0 0 1-1-.97 2.8 2.8 0 0 1-.35-1.4 2.62 2.62 0 0 1 1.3-2.35c.41-.23.87-.34 1.38-.34.5 0 .95.12 1.34.36.4.23.71.55.93.96.22.42.33.9.33 1.42Zm-2.6-1.93c-.47 0-.85.13-1.17.41-.3.28-.49.65-.55 1.1l3.4.02a1.67 1.67 0 0 0-1.69-1.53Zm4.1-.74h.97l-.02 2.26 3.02.02.02-2.25h.96l-.03 5.3h-.97l.02-2.22-3.02-.02-.02 2.22h-.96l.04-5.3Zm6.81.04h.96l-.02 3.87 3.27-3.84h.87l-.03 5.3h-.96l.02-3.86-3.26 3.84h-.88l.03-5.3Zm11.72 2.75c0 .07 0 .17-.02.3l-4.3-.03c.06.46.26.84.6 1.13.35.28.79.42 1.31.43a2 2 0 0 0 1.53-.63l.53.62c-.24.28-.54.49-.9.63-.36.15-.75.22-1.2.22-.56 0-1.05-.12-1.48-.35a2.52 2.52 0 0 1-1-.98 2.8 2.8 0 0 1-.35-1.4c0-.51.12-.98.35-1.39.24-.41.55-.73.95-.95.41-.23.87-.35 1.38-.34.5 0 .95.12 1.34.35.4.23.71.55.93.97.22.41.33.89.33 1.42Zm-2.6-1.93c-.47 0-.86.13-1.17.4-.3.29-.5.65-.55 1.1l3.4.03a1.67 1.67 0 0 0-1.69-1.53Z" fill="#fff"/></g><defs><clipPath id="a"><path fill="#fff" d="M0 0h381v379h-381z"/></clipPath></defs></svg>