<svg viewBox="0 0 283 206" fill="none" xmlns="http://www.w3.org/2000/svg"><g opacity=".8" clip-path="url(#a)"><path d="m25.99 53.58 9.32 132a9.8 9.8 0 0 0 2.82 6.24 9.23 9.23 0 0 0 6.13 2.72l206.06 9.16a9.2 9.2 0 0 0 6.35-2.2 9.75 9.75 0 0 0 3.32-5.99l22.9-152.6a9.98 9.98 0 0 0-2.3-7.94 9.12 9.12 0 0 0-7.4-3.2l-238.3 11.45a9.14 9.14 0 0 0-6.57 3.24 9.74 9.74 0 0 0-2.33 7.12Z" fill="#FAF7F5"/><path d="M195.94 41.08a15.08 15.08 0 0 0 9.76-18.66 14.44 14.44 0 0 0-18.26-9.72 15.08 15.08 0 0 0-9.75 18.66 14.45 14.45 0 0 0 18.25 9.72Zm-156.87 84.98c-3.03 12.06-14.08 19.53-24.66 16.7-10.57-2.84-16.68-14.93-13.65-26.99 3.04-12.05 14.09-19.53 24.66-16.69 10.58 2.84 16.7 14.92 13.65 26.98Z" fill="#FAF7F5"/><path d="M254.44 128.28a3.03 3.03 0 0 1-2.38-1.13 3.24 3.24 0 0 1-.7-2.6l14.05-93.74a11.89 11.89 0 0 0-2.72-9.46 11.17 11.17 0 0 0-4-2.93 10.85 10.85 0 0 0-4.83-.88l-41.2 1.98a3.04 3.04 0 0 1-2.25-.84 3.22 3.22 0 0 1-1.02-2.23 3.33 3.33 0 0 1 .82-2.32 3.14 3.14 0 0 1 2.16-1.05l41.2-1.98c2.58-.12 5.16.35 7.54 1.37a17.44 17.44 0 0 1 6.24 4.58 18.51 18.51 0 0 1 4.25 14.77l-14.07 93.73a3.24 3.24 0 0 1-1.05 1.95c-.57.5-1.3.78-2.04.78Zm-46.29 63.32h-.14l-172.98-7.69a17.14 17.14 0 0 1-11.37-5.06 18.22 18.22 0 0 1-5.24-11.58l-1.12-15.95a3.32 3.32 0 0 1 .7-2.4 3.14 3.14 0 0 1 2.17-1.16 3.05 3.05 0 0 1 2.31.82 3.23 3.23 0 0 1 1.04 2.28l1.13 15.92c.2 2.81 1.4 5.46 3.36 7.43a11 11 0 0 0 7.3 3.24l172.98 7.7a3.04 3.04 0 0 1 2.19 1 3.24 3.24 0 0 1 .86 2.3 3.3 3.3 0 0 1-.96 2.25 3.12 3.12 0 0 1-2.23.9Zm-192.66-106.82c-.79 0-1.55-.31-2.13-.87a3.26 3.26 0 0 1-.98-2.12l-2.6-36.83c-.17-2.39.13-4.8.87-7.07a18.11 18.11 0 0 1 3.47-6.16 17.48 17.48 0 0 1 5.52-4.28 16.99 16.99 0 0 1 6.7-1.74l139.48-6.7a3.03 3.03 0 0 1 2.31.8 3.23 3.23 0 0 1 1.06 2.26 3.31 3.31 0 0 1-.85 2.36 3.13 3.13 0 0 1-2.23 1.02l-139.49 6.7a10.88 10.88 0 0 0-7.83 3.86 11.6 11.6 0 0 0-2.79 8.48l2.6 36.83c.06.85-.2 1.7-.75 2.34a3.1 3.1 0 0 1-2.13 1.1l-.23.02Zm174.33-54.08a14.6 14.6 0 0 1-8.85-2.96 15.37 15.37 0 0 1-5.43-7.8c-.82-2.92-.8-6.03.08-8.95.87-2.91 2.55-5.5 4.83-7.43a14.71 14.71 0 0 1 16.53-1.82c1.75.92 3.3 2.19 4.56 3.74a15.3 15.3 0 0 1 2.8 5.28 15.9 15.9 0 0 1-1.16 11.75 15.1 15.1 0 0 1-13.36 8.19Zm.27-24.25c-.91 0-1.82.14-2.68.42a8.79 8.79 0 0 0-5.2 4.32 9.27 9.27 0 0 0-.72 6.85 9.03 9.03 0 0 0 4.35 5.15 8.58 8.58 0 0 0 6.6.57 8.89 8.89 0 0 0 5.13-4.32 9.37 9.37 0 0 0 .78-6.78 8.77 8.77 0 0 0-4.25-5.22 8.61 8.61 0 0 0-4.01-1Zm-167.12 130.15c-1.65 0-3.3-.2-4.9-.64a19.8 19.8 0 0 1-7.5-3.94 20.57 20.57 0 0 1-5.26-6.78 25.91 25.91 0 0 1-1.81-17.63c1.49-5.9 5-11.06 9.9-14.5a19.45 19.45 0 0 1 16.21-2.92c11.24 3.04 17.77 15.75 14.59 28.36-2.75 10.79-11.68 18.06-21.23 18.06Zm1.74-40.57a14 14 0 0 0-7.87 2.5 18.79 18.79 0 0 0-7.28 10.73 19.32 19.32 0 0 0 1.28 13.03 14.28 14.28 0 0 0 3.63 4.7 13.76 13.76 0 0 0 5.18 2.75c7.89 2.13 16.18-3.62 18.5-12.79 2.31-9.17-2.22-18.36-10.11-20.48-1.09-.3-2.2-.44-3.33-.44Z" fill="#F6A6BF"/><path d="M272.35 180.61c-.08 14.08-10.16 25.46-22.53 25.39-12.36-.07-22.32-11.56-22.24-25.65.08-14.1 10.16-25.46 22.52-25.39 12.36.07 22.32 11.56 22.25 25.65Z" fill="#FAF7F5"/><path d="M249 197.07h-.12a21.72 21.72 0 0 1-9.12-2.12 22.37 22.37 0 0 1-7.48-5.8 27.94 27.94 0 0 1-6.63-18.53c.07-14.46 10.56-26.17 23.4-26.17h.12c3.15.03 6.26.76 9.12 2.12a22.34 22.34 0 0 1 7.47 5.8 27.95 27.95 0 0 1 6.64 18.53c-.08 14.45-10.56 26.17-23.4 26.17Zm.04-46.18c-9.4 0-17.09 8.86-17.15 19.76a21.41 21.41 0 0 0 5.05 14.2 16.2 16.2 0 0 0 5.4 4.21c2.06 1 4.3 1.53 6.58 1.56h.09c9.4 0 17.09-8.87 17.15-19.77a21.39 21.39 0 0 0-5.06-14.19 16.17 16.17 0 0 0-5.38-4.2c-2.07-1-4.31-1.53-6.59-1.57h-.09Z" fill="#F6A6BF"/></g><defs><clipPath id="a"><path fill="#fff" d="M0 0h283v206h-283z"/></clipPath></defs></svg>