<svg viewBox="0 0 627 596" fill="none" xmlns="http://www.w3.org/2000/svg"><path fill-rule="evenodd" clip-rule="evenodd" d="M313.17 509.93c-56.16-5.78-103.1 57.69-158.95 49.5-60.47-8.86-141.56-35.18-153-95.21-13.1-68.7 83.75-112.2 100.48-180.11 11.13-45.16-48.32-96.37-22.8-135.25 26.08-39.7 94.7-11.53 135.34-36.11 41.99-25.41 52.29-90.38 98.93-105.64 47.48-15.55 105.69-5 145.05 25.77 38.98 30.47 32.41 91.68 58.8 133.54 27.86 44.22 83.88 67.82 99.53 117.69 17.28 55.02 12.17 116.27-9.28 169.8-22.9 57.12-54.58 128.84-115.03 140.35-65.94 12.56-112.3-77.45-179.07-84.33Z" fill="#F9EAEF" fill-opacity=".3"/><path d="M434.64 252.47c-21.35-7.9-48.01 7.16-52.32 29.5-5.42 28.27 25.56 45.77 52.8 29.91 5.75-3.38 6.77-4.34 11.94-11.72 5-7.15 5.72-8.68 6.63-14.14a33 33 0 0 0-3.31-20.14c-2.34-4.5-10.48-11.4-15.74-13.41Zm2.6 22.5c2.05 5.75 1.73 9.71-1.25 14.8-11.12 18.89-40.71 15.75-38.57-4.16 1.97-18.84 33.6-27.3 39.81-10.64Zm-92.94-83.73c-6.03-1.58-16.09.1-22.44 3.67-4.83 2.72-6.02 3.92-11.02 11.06-5.17 7.39-5.72 8.68-6.93 15.24-2.66 14.65 2.16 28.8 12.67 36.98 7.09 5.57 13.2 7.34 21.56 6.25 19.83-2.62 33.4-23.15 29.8-45.04-1.67-10.14-5.52-16.66-13.35-22.5-4.04-3.08-7.54-4.93-10.3-5.66Zm6.12 23.79c4 7.82 3.55 16.96-1.16 25.02-11.34 19.21-34.5 6.22-29.96-16.79 1.87-9.34 9.75-17.1 17.59-17.1 5.22.05 10.9 3.8 13.53 8.87Zm90.41 122.39c-12.18-4.46-23.71-3.68-34.75 2.58-6.82 3.72-7.6 4.5-12.31 11.24-4.22 6.02-5.25 8.16-5.9 12.25a32.69 32.69 0 0 0 3.1 19.76c2.27 4.46 3.43 5.63 10.1 10.3 7.05 4.94 7.87 5.27 15.4 6.36 30.06 4.3 53.95-23.47 41.06-47.45-3.72-7.03-9.83-12.5-16.7-15.04Zm3.81 23.6c2.4 7.42.01 14-6.9 19.21-10.5 7.97-27.85 5.38-33.3-5.02-5.42-10.12 2.88-22.14 17.12-24.61 9.71-1.7 20.8 3.33 23.08 10.42Zm-183.18-144.77a29.56 29.56 0 0 0-23.07 2.74c-4.64 2.61-6.07 4-10.23 9.94-4.39 6.26-4.88 7.47-6.07 15-4.98 30.5 22.71 54.19 47.82 41.03 4.35-2.21 5.54-3.41 10.26-10.16 4.6-6.71 5.42-8.4 6.27-13.79 2.17-12.6-1.65-26.51-9.73-35.16-4.88-5.22-8.44-7.47-15.25-9.6Zm7.3 24.96c5.92 10.73 2.67 25.56-6.65 30.52-4.22 2.18-11.63 1.42-16.02-1.65-9.4-6.6-12.02-23.73-5.22-33.44 3.1-4.42 10.03-6.98 15.71-5.75 3.51.67 9.8 6.03 12.18 10.32Zm65.24 52.86c-12.32-4.44-28.64-2.82-40.67 4.18-6.8 3.86-7.06 3.9-14.68 2.76-5.56-.9-10.32-.77-16.57.48-37.97 7.5-54.04 52.47-29.3 81.88 8.47 10.11 23.9 16.96 37.25 16.75l6.08-.17 1.92 5.77c4.2 12.51 15.32 24 27.94 29.01 21.36 8.38 45.83.64 59.38-18.7 10.5-15.01 11.63-36.48 2.83-52.45-3.78-6.95-3.8-7.09-2.42-14.73 2.63-13.95-1.91-30.65-11.17-40.96-4.18-4.71-14.62-11.67-20.6-13.82Zm11.35 27.69c5.74 8.32 7.15 21.16 3.58 31.1-2.04 5.74-1.8 8.07 1.7 12.43 4.66 6.01 6.7 10.79 7.66 17.92 1.32 10.14.08 15.25-6.05 24-4.27 6.1-5.82 7.64-10.24 10.29-7.35 4.3-14.54 5.73-22.7 4.55-6.4-.88-7.74-1.47-14.17-5.97-6.12-4.28-7.39-5.65-9.94-10.18-1.53-2.99-3.37-8.7-4.11-12.81-1.72-10.06-3.53-11.32-13.72-9.61-4.18.78-10.26.95-13.45.51-5.06-.79-6.77-1.51-12.89-5.8-5.96-4.17-7.54-5.75-9.99-10.1a33.23 33.23 0 0 1-4.02-22.79c1.08-6.54 1.63-7.83 6.24-14.41 6.2-8.7 10.64-11.7 20.47-13.9 7.04-1.53 12.22-1.25 19.47 1.08 5.3 1.79 7.56 1.22 12.26-2.66 8.06-6.68 20.6-9.74 30.22-7.43 7.08 1.73 15.6 7.58 19.68 13.78Z" fill="#fff"/></svg>