<svg viewBox="0 0 249 237" fill="none" xmlns="http://www.w3.org/2000/svg"><path d="M112.39 33.13c-11.47 11.37-9.76 33.07 3.33 42.57 16.57 12 37.1-2.68 35.04-24.98-.46-4.73-.77-5.67-3.97-11.22-3.1-5.37-3.87-6.3-7.12-8.53a23.43 23.43 0 0 0-13.95-3.93c-3.6.15-10.47 3.31-13.33 6.09Zm15.25 5.11c4.31.4 6.77 1.8 9.15 5.26 8.83 12.84-2.04 30.94-14.21 23.57-11.53-6.94-7.52-29.85 5.06-28.83Zm-81.68 34.61c-2.82 3.4-4.74 10.38-4.35 15.54.31 3.93.73 5.06 3.83 10.43 3.2 5.55 3.87 6.3 7.73 9.05 8.63 6.12 19.17 7.27 27.59 2.98 5.7-2.89 8.67-6.3 10.47-12 4.24-13.55-4.91-28.46-20.08-32.74-7.02-1.98-12.37-1.47-18.47 1.81-3.18 1.68-5.42 3.38-6.72 4.93Zm17.14 3.22c6.23-.22 11.98 2.82 15.76 8.28 8.97 13.09-6.32 24.08-19.77 14.23-5.45-4.02-8.08-11.43-5.75-16.48 1.6-3.33 5.7-5.86 9.76-6.03Zm105.8-21.34c-6.52 6.5-9.46 14.15-8.74 23.15.36 5.5.63 6.23 3.55 11.3 2.61 4.53 3.69 5.84 6.13 7.49a23.21 23.21 0 0 0 13.64 3.95c3.54-.12 4.65-.51 9.64-3.4 5.3-3.05 5.75-3.48 8.7-8 11.77-18.05 1.04-41.79-18.25-40.71-5.64.28-10.98 2.56-14.67 6.22Zm16.33 4.65c5.49.7 9.01 4.21 10.3 10.23 1.98 9.15-4.87 19.54-13.2 19.92-8.13.44-13.38-8.52-10.72-18.43 1.82-6.76 8.37-12.39 13.62-11.72Zm-147.95 74.32a20.98 20.98 0 0 0-5.14 15.67c.3 3.77.76 5.12 3.34 9.58 2.72 4.7 3.35 5.4 7.84 8.43 18.13 12.38 41.66 1.7 40.7-18.43-.12-3.47-.54-4.6-3.46-9.67-2.95-4.97-3.8-6.02-7-8.19-7.47-5.18-17.56-6.92-25.54-4.32-4.82 1.58-7.33 3.19-10.74 6.93Zm18.24 2.82c8.68-.59 17.25 5.97 17.65 13.46.15 3.38-2.56 7.92-5.85 9.82-7.05 4.07-18.86.59-23.08-6.71-1.91-3.32-1.49-8.56 1-11.84 1.48-2.06 6.81-4.5 10.28-4.73Zm53.53-26.08c-6.54 6.6-10.38 17.58-9.47 27.44.45 5.53.4 5.72-2.61 10.27a30.78 30.78 0 0 0-4.66 10.82c-6.53 26.7 17.6 50.58 43.93 43.5 9.04-2.4 18.06-10.26 21.92-18.92l1.7-3.97 4.3.5c9.3 1.07 20.03-2.63 27.02-9.24 11.78-11.23 14.12-29.31 5.72-43.86-6.51-11.28-19.99-18.47-32.9-17.61-5.6.34-5.7.31-10.2-2.88-8.19-5.9-20.3-8-29.7-5.14-4.28 1.27-11.88 5.9-15.05 9.1Zm21.21 1.03c7.07-1.19 15.75 1.77 21.08 7.06 3.1 3.04 4.66 3.59 8.51 2.65 5.27-1.19 8.95-1.06 13.83.47 6.91 2.2 9.83 4.54 13.63 11.11 2.65 4.59 3.18 6.05 3.56 9.7a23.64 23.64 0 0 1-3.86 15.98c-2.49 3.85-3.26 4.54-8.08 7.32-4.59 2.65-5.84 3.05-9.53 3.33-2.38.09-6.6-.45-9.47-1.2-6.99-1.93-8.34-1.15-10.29 5.93a35.97 35.97 0 0 1-3.7 8.81c-2.01 3.02-2.99 3.9-7.57 6.55-4.47 2.58-5.96 3.12-9.5 3.39a23.6 23.6 0 0 1-15.86-4.28c-3.9-2.66-4.56-3.4-7.41-8.35-3.74-6.61-4.34-10.37-2.82-17.36 1.12-5 2.85-8.24 6.52-12.21 2.73-2.87 3.04-4.5 1.95-8.7-1.88-7.2-.1-16.19 4.26-21.68 3.23-4.04 9.54-7.76 14.75-8.52Z" opacity=".5" fill="#fff"/></svg>