<svg viewBox="0 0 541 406" fill="none" xmlns="http://www.w3.org/2000/svg"><g clip-path="url(#a)"><path d="m181.62 73.05 222.6 19.22c72.29 6.26 125.79 69.93 119.54 142.22-6.27 72.3-69.92 125.84-142.19 119.6l-222.64-19.26c-72.27-6.26-125.77-69.93-119.53-142.23 6.27-72.3 69.93-125.84 142.22-119.55Z" fill="#FAF7F5"/><path d="M384.81 368.45c-4.22 10.2.8 21.96 11.18 26.29 10.38 4.33 22.25-.49 26.47-10.71 4.23-10.22-.8-21.96-11.17-26.28-10.39-4.33-22.26.49-26.48 10.7Z" fill="#FFFEF1"/><path d="M405.75 381.6a20.71 20.71 0 0 0 21.1-12.6 20.41 20.41 0 0 0-.12-15.88 21 21 0 0 0-38.6-.13 20.84 20.84 0 0 0 11.45 27.09c1.97.81 4.05 1.33 6.17 1.52Zm2.69-32.56a12.56 12.56 0 0 1 10.32 7.48 11.73 11.73 0 0 1 .07 9.19 12.27 12.27 0 1 1-10.4-16.65l.01-.02Z" fill="#28AFC9"/><path d="M80.24 88.2c-18.1-11.85-41.46-8.17-52.19 8.22-10.72 16.4-4.75 39.3 13.35 51.14 18.1 11.85 41.46 8.16 52.19-8.22 10.72-16.38 4.75-39.28-13.35-51.14Z" fill="#FFFEF1"/><path d="M71.8 164.66c13.4 1.24 26.55-4.22 33.92-15.49 11-16.81 5.02-40.27-13.32-52.28a41.44 41.44 0 0 0-29.17-6.52c-10.15 1.6-18.7 7-24.07 15.21-5.37 8.21-6.9 18.22-4.3 28.15a41.47 41.47 0 0 0 17.64 24.13 42.29 42.29 0 0 0 19.3 6.8Zm15.84-60.5c14.34 9.4 19.2 27.45 10.82 40.25-8.38 12.8-26.84 15.58-41.2 6.18a32.82 32.82 0 0 1-14-19.05c-1.97-7.54-.85-15.07 3.17-21.2 4.02-6.14 10.46-10.18 18.15-11.4a32.83 32.83 0 0 1 23.06 5.21Z" fill="#28AFC9"/><path d="m460.37 95.6 17.61 4.02a14.45 14.45 0 0 1 10.89 17.34l-5.16 22.58a14.48 14.48 0 0 1-17.33 10.9l-17.62-4.03a33.9 33.9 0 0 0-12.8-.43l-62.84 9.9 23.2-101.64 52.32 36.19a33.81 33.81 0 0 0 11.73 5.17Z" fill="#FFFEF1"/><path d="m367.46 161.16 69.17-10.89a29.5 29.5 0 0 1 11.18.38l17.62 4.03a18.84 18.84 0 0 0 22.53-14.16l5.15-22.59a18.86 18.86 0 0 0-14.15-22.54l-17.62-4.01a29.46 29.46 0 0 1-10.24-4.48l-57.59-39.88-26.05 114.14Zm77.27-19.78a37.86 37.86 0 0 0-9.45.31l-56.5 8.91 20.34-89.14 47.05 32.58a38 38 0 0 0 13.24 5.83l17.62 3.99a10.15 10.15 0 0 1 7.62 12.14l-5.15 22.58a10.15 10.15 0 0 1-12.14 7.63l-17.61-4.03a38.54 38.54 0 0 0-5.02-.8Z" fill="#EA4385"/><path d="m489.2 115.53 4.24.96a8.67 8.67 0 0 1 6.53 10.41l-1.94 8.5a8.7 8.7 0 0 1-10.4 6.52l-4.23-.96 5.8-25.43Z" fill="#FAF7F5"/><path d="M488.38 146.43a13.04 13.04 0 0 0 13.88-10.08l1.94-8.47a13.03 13.03 0 0 0-9.8-15.6l-8.46-1.93-7.74 33.88 8.47 1.94c.56.12 1.13.21 1.7.26Zm4.09-25.66a4.34 4.34 0 0 1 3.26 5.2l-1.93 8.47a4.36 4.36 0 0 1-5.2 3.27l3.87-16.94Z" fill="#28AFC9"/><path d="m467.8 150.76-5.8 25.4a13.05 13.05 0 0 1-25.56-.71c-.28-1.69-.23-3.42.15-5.08l5.82-25.41 25.4 5.8Z" fill="#fff"/><path d="M447.72 190.57a17.38 17.38 0 0 0 18.53-13.43l6.76-29.65-33.87-7.73-6.75 29.65a17.4 17.4 0 0 0 15.33 21.16Zm14.88-36.55-4.83 21.17a8.69 8.69 0 0 1-16.93-3.86l4.83-21.17 16.93 3.86Z" fill="#F6A6BF"/><path d="M448.2 119.55a85.4 85.4 0 0 0 1.9-28.21 33.67 33.67 0 0 0 10.27 4.26l17.61 4.02a14.45 14.45 0 0 1 11.05 11.7c.32 1.87.26 3.79-.16 5.64l-5.16 22.58a14.48 14.48 0 0 1-17.33 10.9l-17.62-4.03a34.06 34.06 0 0 0-11.12-.62 85.6 85.6 0 0 0 10.57-26.24Z" fill="#FAF7F5"/><path d="M467.93 155.08a18.83 18.83 0 0 0 20.04-14.57l5.16-22.58a18.86 18.86 0 0 0-14.15-22.54l-17.62-4.02c-3.18-.74-6.2-2-8.97-3.73l-7.6-4.7 1 8.88c.89 8.96.3 18-1.77 26.77a81.45 81.45 0 0 1-10 24.9l-4.74 7.57 8.88-.94c3.23-.36 6.51-.18 9.69.54l17.62 4.02c.81.19 1.63.32 2.45.4Zm-13.06-56.6c1.48.55 3 1 4.54 1.36l17.62 4.02a10.15 10.15 0 0 1 7.62 12.13l-5.15 22.6a10.15 10.15 0 0 1-12.14 7.62l-17.61-4.03c-1.55-.35-3.11-.6-4.69-.75a96.58 96.58 0 0 0 9.8-42.94Z" fill="#F6A6BF"/><path d="M352.12 97.61c-6.94 30.42.93 58.14 17.57 61.94 16.63 3.8 35.78-17.76 42.72-48.17 6.94-30.4-.93-58.13-17.57-61.93-16.64-3.8-35.78 17.76-42.72 48.16Z" fill="#fff"/><path d="M371.6 164.24c18.46 1.7 37.85-20.27 45.07-51.89 3.53-15.4 3.54-30.73 0-43.06-3.79-13.3-11.19-21.83-20.86-24.04-19.31-4.42-40.33 18.17-47.93 51.43-3.53 15.4-3.54 30.73 0 43.1 3.78 13.29 11.19 21.83 20.86 24.04.94.2 1.9.34 2.86.42Zm20.56-110.83c.58.05 1.15.14 1.72.28 6.44 1.47 11.56 7.84 14.43 17.94 3.13 11 3.09 24.78-.11 38.81-6.29 27.55-23.49 48.1-37.52 44.9-6.44-1.47-11.57-7.85-14.44-17.95-3.13-11.01-3.09-24.79.11-38.82 6.03-26.43 22.1-46.43 35.81-45.16Z" fill="#F6A6BF"/><path d="M366.12 100.8c-4.63 20.28-1.15 38.36 7.78 40.4 8.93 2.04 19.91-12.74 24.54-33.03 4.63-20.3 1.14-38.36-7.78-40.4-8.92-2.03-19.93 12.77-24.54 33.04Z" fill="#F6A6BF"/><path d="M374.5 145.69c5.6.51 11.52-3 16.76-10.04 4.99-6.7 9.04-16.11 11.4-26.48 2.37-10.37 2.81-20.62 1.25-28.83-1.81-9.42-6.17-15.4-12.27-16.77-6.1-1.37-12.6 2.09-18.32 9.79-5 6.7-9.04 16.1-11.42 26.47-5.32 23.34-.57 42.94 11.05 45.6.51.12 1.03.2 1.55.26Zm14.8-73.72c.13 0 .26.02.39.04 2.43.55 4.6 4.36 5.68 9.94 1.36 7.05.94 16.02-1.17 25.25-2.1 9.23-5.62 17.48-9.9 23.24-3.4 4.56-7 7.06-9.43 6.5-4.83-1.1-9.04-15.38-4.51-35.19 2.1-9.23 5.63-17.49 9.9-23.25 3.2-4.29 6.62-6.75 9.03-6.53Z" fill="#F6A6BF"/><path d="M371.29 100.67a19.7 19.7 0 0 1 29.1-12.65 75.94 75.94 0 0 1-1.98 20.16 78.6 78.6 0 0 1-5.64 16.43 19.67 19.67 0 0 1-21.5-23.94h.02Z" fill="#fff"/><path d="M388.21 129c1.7.15 3.4.12 5.1-.08l2.36-.28 1.04-2.15a82.33 82.33 0 0 0 5.96-17.33 80.32 80.32 0 0 0 2.08-21.34l-.11-2.36-2.04-1.2a24.05 24.05 0 0 0-32.46 33.6 24.06 24.06 0 0 0 15 10.67c1.01.22 2.04.38 3.07.46Zm1.74-8.6a15.34 15.34 0 0 1-12.58-23.33 15.35 15.35 0 0 1 18.77-6.3 73.8 73.8 0 0 1-1.94 16.45 77.23 77.23 0 0 1-4.25 13.18Z" fill="#F6A6BF"/><path d="m202.02 366.16 86.5 7.48a4.34 4.34 0 1 0 .8-8.65l-86.5-7.48a4.34 4.34 0 0 0-.8 8.65Z" fill="#EA4385"/><path d="M447.75 358.36c1 .1 2-.16 2.82-.72a135.8 135.8 0 0 0 42.43-179.88 4.36 4.36 0 0 0-7.24-.55 4.35 4.35 0 0 0-.3 4.85 127.1 127.1 0 0 1-39.71 168.37 4.34 4.34 0 0 0 2.02 7.95l-.01-.02Z" fill="#F6A6BF"/><path d="M123.8 101.6c.44.05.89.02 1.33-.08a126.67 126.67 0 0 1 38.23-2.46 4.34 4.34 0 0 0 .8-8.65c-13.67-1.2-27.44-.3-40.85 2.63a4.35 4.35 0 0 0 .48 8.57Z" fill="#FFFEF1"/><path d="m139.92 360.79.77.07 27.3 2.36a4.34 4.34 0 0 0 .8-8.64l-27.3-2.37-.7-.07c-69.4-6.4-120.86-67.9-114.84-137.45a126.47 126.47 0 0 1 13.97-47.97 4.34 4.34 0 0 0-7.7-4.02 135.18 135.18 0 0 0-15 51.2c-6.46 74.33 48.56 140.05 122.7 146.89Z" fill="#F6A6BF"/><path fill-rule="evenodd" clip-rule="evenodd" d="M268.93 172.09v.26a.25.25 0 0 0 0-.26Zm-.03.26c-1.35 2.04-35.86-3.9-35.86-3.9s-18.96 32.79-2.94 67.87c10.97 22.86 20.19 37.77 18.83 63.51-10.41 2.15-9.55 9.68-2.97 9.38 1.23 0 7.24.1 8.09.03 8.03-.72 2.85-33.57.98-43.85-.4-1.9-.56-3.04-.56-3.04s.22 1.13.56 3.04c1.6 7.56 6.93 27.08 20.67 34.23-1.02-.57-6.34-.21-9.98 1.49-6.9 3.21-11.6 9.16 3.4 8.1 18.71.42 36.73-.05 36.73-.05s49.54-26.6 6.93-70.27c-21.56-22.08-48.72-9.61-43.87-66.54Z" fill="#241D50"/><path fill-rule="evenodd" clip-rule="evenodd" d="M255.03 265.43c-.34-1.92-.56-3.06-.56-3.06s.16 1.15.56 3.06Z" fill="#241D50"/><path d="M361.3 183.28c-23.06 7.14-29.8 41.59-34.3 91.14-.64 7.01-3.89 28.22-25.96 33.85l.22.53c30.62 2.85 43.85-25.9 45.74-51.1 3.42-37.54 8.17-62.58 28.42-56.08 8.8 3.9 13.52-26.46-14.12-18.34Z" fill="#2A2460"/><path fill-rule="evenodd" clip-rule="evenodd" d="M292.13 144.82c-5.95.68-16.25 2.03-17.35 3.37-8.86-10.43-26.6-11.32-31.69-11.34l-21.88-18.39a2.6 2.6 0 0 0-4.22 1.48c-1.5 7.56-4.42 22.47-4.18 22.9-25.19 36.77 24.1 53.84 43.53 52.05 22.7-4.35 28.02-11.9 30.66-19.3 3.04-8.56 1.8-10.08 1.8-10.08l6.1-17.14a2.65 2.65 0 0 0-2.77-3.55Z" fill="#2A2460"/><path d="M255.18 177.68c-1.97.9-3.38 1-3.97.32-.71-.81-.36-2.61-.13-3.15l.12-.15a.7.7 0 0 0 0-.87.71.71 0 0 0-.84-.27c-.21.1-.38.26-.49.47-1.42 1.84-2.9 2.7-4.28 2.53-3.27-.36-5.64-5.78-5.64-5.85a.74.74 0 0 0-.4-.4.72.72 0 0 0-.79.17.71.71 0 0 0-.2.52c0 .1.02.19.06.28.1.25 2.7 6.24 6.78 6.73a5.15 5.15 0 0 0 3.95-1.33 3.38 3.38 0 0 0 1.17 2.64 3.6 3.6 0 0 0 2.9.46c.82-.17 1.6-.43 2.36-.78a.71.71 0 0 0 .44-.69c0-.1-.03-.18-.07-.27a.7.7 0 0 0-.4-.39.72.72 0 0 0-.57.03Z" fill="#fff"/><path fill-rule="evenodd" clip-rule="evenodd" d="M252.28 169.2c.15 0-8.03-6.68-1.37 4.9 0 0 11.53-5.66 1.37-4.9Z" fill="url(#b)"/><path fill-rule="evenodd" clip-rule="evenodd" d="M195.84 156.77c.91-.18 14.8-1.37 30.65 9.54 0 0-16.38-14.38-30.65-9.54Zm-.76 11.14c.79-.43 13.16-5.61 30.71-.25 0 0-19.01-8.38-30.7.25Zm72.37 10.61c14.1 1.2 21.2 8.64 21.1 8.64-5.65-9.15-21.1-8.64-21.1-8.64Zm-.22 1.05c12.5 5.19 16.83 14.1 16.74 14.07-2.53-10.08-16.74-14.06-16.74-14.06Z" fill="#fff"/><path opacity=".21" fill-rule="evenodd" clip-rule="evenodd" d="M220.47 124.52c-3.63.68-1.38 15.86-1.38 15.86a26.2 26.2 0 0 1 14.45-4.44s-9.45-12.1-13.07-11.42Zm67.53 25.25c-2.43-.71-9.98 2.14-9.98 2.14 4.77.85 7.59 6.68 7.59 6.68s4.83-8.12 2.4-8.82Z" fill="#fff"/></g><defs><linearGradient id="b" x1="248.297" y1="170.689" x2="256.467" y2="170.69" gradientUnits="userSpaceOnUse"><stop stop-color="#EC6588"/><stop offset="1" stop-color="#E71A80"/></linearGradient><clipPath id="a"><path fill="#fff" transform="matrix(-.99578 -.09181 -.09188 .99577 541 47.598)" d="M0 0h510.08v359.92h-510.08z"/></clipPath></defs></svg>