<svg viewBox="0 0 511 350" fill="none" xmlns="http://www.w3.org/2000/svg"><path d="m155.03 47.76 223.43-1.3c72.55-.4 131.67 58.09 132.08 130.64.4 72.58-58.06 131.73-130.6 132.16l-223.47 1.25c-72.53.41-131.66-58.08-132.09-130.64-.38-72.57 58.1-131.73 130.65-132.1Z" fill="#FAF7F5"/><path d="M384.49 323.26c-3.27 10.54 2.8 21.79 13.54 25.15 10.74 3.36 22.11-2.53 25.38-13.1 3.27-10.56-2.8-21.79-13.55-25.14-10.73-3.35-22.1 2.53-25.37 13.09Z" fill="#FFFEF1"/><path d="M406.55 334.43a20.71 20.71 0 0 0 19.85-14.49 20.4 20.4 0 0 0-1.58-15.8 21.02 21.02 0 0 0-38.46 3.42 20.84 20.84 0 0 0 13.9 25.92c2.04.63 4.16.95 6.29.95Zm-.32-32.67a12.51 12.51 0 0 1 10.96 6.5 11.73 11.73 0 0 1 .92 9.14 12.28 12.28 0 1 1-11.88-15.61v-.03Z" fill="#28AFC9"/><path d="M55.48 72.16c-19.11-10.14-42.04-4.33-51.22 12.97-9.17 17.3-1.12 39.56 17.99 49.7 19.1 10.14 42.03 4.32 51.21-12.98 9.18-17.29 1.13-39.55-17.98-49.7Z" fill="#FFFEF1"/><path d="M54.08 149.07c13.46 0 26.06-6.65 32.36-18.54 9.41-17.75 1.3-40.56-18.06-50.84a41.44 41.44 0 0 0-29.65-3.8c-9.95 2.52-17.97 8.68-22.57 17.35-4.6 8.67-5.2 18.77-1.7 28.42a41.46 41.46 0 0 0 19.78 22.4 42.29 42.29 0 0 0 19.84 5.01Zm10.22-61.7c15.15 8.03 21.64 25.57 14.47 39.09-7.17 13.52-25.3 17.97-40.46 9.93a32.82 32.82 0 0 1-15.7-17.68c-2.64-7.33-2.21-14.93 1.23-21.4 3.43-6.48 9.47-11.1 17.02-13.01a32.83 32.83 0 0 1 23.45 3.06h-.01Z" fill="#28AFC9"/><path d="m434.67 44.62 17.91 2.4a14.47 14.47 0 0 1 12.44 16.26l-3.07 22.96a14.48 14.48 0 0 1-16.26 12.44l-17.9-2.4a33.9 33.9 0 0 0-12.8.75l-61.66 15.62 13.77-103.33 55.42 31.23a33.81 33.81 0 0 0 12.15 4.07Z" fill="#FFFEF1"/><path d="m348.18 118.44 67.88-17.2a29.5 29.5 0 0 1 11.17-.64l17.9 2.39a18.84 18.84 0 0 0 21.14-16.17l3.06-22.96a18.85 18.85 0 0 0-16.16-21.15l-17.92-2.38a29.46 29.46 0 0 1-10.6-3.52l-61-34.43-15.47 116.06Zm75.12-26.8c-3.16 0-6.31.4-9.37 1.18l-55.45 14.06 12.07-90.63 49.84 28.12a38 38 0 0 0 13.72 4.6l17.9 2.34a10.15 10.15 0 0 1 8.71 11.4l-3.05 22.96a10.15 10.15 0 0 1-11.39 8.7l-17.9-2.38a38.5 38.5 0 0 0-5.08-.34Z" fill="#EA4385"/><path d="m465.22 61.82 4.3.57a8.68 8.68 0 0 1 7.46 9.77l-1.15 8.64a8.69 8.69 0 0 1-9.75 7.45l-4.3-.57 3.44-25.86Z" fill="#FAF7F5"/><path d="M467.23 92.67a13.04 13.04 0 0 0 12.9-11.31l1.15-8.61a13.03 13.03 0 0 0-11.18-14.64l-8.61-1.14-4.6 34.44 8.62 1.15c.57.08 1.15.11 1.72.1Zm1.72-25.93a4.34 4.34 0 0 1 3.72 4.88l-1.14 8.61a4.36 4.36 0 0 1-4.88 3.74l2.3-17.23Z" fill="#28AFC9"/><path d="m447.15 98.87-3.45 25.83a13.04 13.04 0 0 1-25.84-3.44l3.46-25.84 25.83 3.45Z" fill="#fff"/><path d="M430.8 140.35a17.38 17.38 0 0 0 17.22-15.07l4-30.14-34.42-4.6-4.01 30.15a17.4 17.4 0 0 0 17.21 19.66Zm11.46-37.76-2.87 21.53a8.7 8.7 0 0 1-17.2-2.3l2.86-21.52 17.21 2.3Z" fill="#F6A6BF"/><path d="M424.76 69.6a85.41 85.41 0 0 0-.7-28.28 33.68 33.68 0 0 0 10.61 3.3l17.91 2.4a14.47 14.47 0 0 1 12.44 16.26l-3.07 22.96a14.48 14.48 0 0 1-16.26 12.44l-17.9-2.4a34.42 34.42 0 0 0-11.14.4 85.61 85.61 0 0 0 8.11-27.09Z" fill="#FAF7F5"/><path d="M447.66 103.16a18.83 18.83 0 0 0 18.63-16.35l3.05-22.96a18.85 18.85 0 0 0-16.15-21.15l-17.92-2.38a29.58 29.58 0 0 1-9.27-2.89l-8-3.98 1.8 8.75a81.58 81.58 0 0 1 .7 26.82 81.47 81.47 0 0 1-7.67 25.7l-4.02 7.99 8.75-1.76c3.2-.65 6.47-.77 9.7-.35l17.92 2.39c.82.1 1.65.16 2.48.17Zm-18.2-55.16c1.53.41 3.08.72 4.65.93l17.9 2.38a10.15 10.15 0 0 1 8.71 11.4l-3.06 22.96a10.14 10.14 0 0 1-11.38 8.7l-17.9-2.38a36.74 36.74 0 0 0-4.74-.33 96.59 96.59 0 0 0 5.82-43.66Z" fill="#F6A6BF"/><path d="M327.07 56.57c-4.12 30.93 6.27 57.8 23.18 60.05 16.91 2.26 34-20.96 38.12-51.88 4.12-30.91-6.26-57.8-23.18-60.06-16.92-2.25-34 20.98-38.12 51.89Z" fill="#fff"/><path d="M352.58 121.12c18.54 0 35.84-23.66 40.12-55.8 2.1-15.66.7-30.93-3.96-42.88-4.98-12.9-13.14-20.72-22.98-22.03-19.63-2.62-38.49 21.8-43 55.61-2.1 15.67-.7 30.93 3.97 42.93 4.98 12.88 13.13 20.7 22.96 22.02.96.11 1.93.16 2.89.15Zm10.3-112.25a13 13 0 0 1 1.74.12c6.55.87 12.24 6.75 16.01 16.54 4.13 10.68 5.36 24.4 3.46 38.66-3.73 28-18.97 50.04-33.24 48.15-6.55-.87-12.24-6.75-16.03-16.54-4.12-10.68-5.34-24.4-3.45-38.67 3.58-26.87 17.75-48.26 31.51-48.26Z" fill="#F6A6BF"/><path d="M341.3 58.46c-2.75 20.61 2.38 38.3 11.46 39.5 9.07 1.22 18.65-14.5 21.4-35.14 2.75-20.63-2.39-38.3-11.46-39.5-9.07-1.21-18.66 14.53-21.4 35.14Z" fill="#F6A6BF"/><path d="M353.77 102.38c5.62 0 11.2-4.03 15.77-11.53 4.34-7.14 7.51-16.87 8.92-27.42 1.4-10.54.9-20.78-1.4-28.82-2.68-9.21-7.56-14.76-13.77-15.57-6.2-.8-12.36 3.24-17.34 11.43-4.36 7.13-7.52 16.87-8.94 27.41-3.16 23.73 3.37 42.8 15.2 44.39.51.07 1.03.11 1.56.11Zm7.96-74.76h.4c2.46.33 4.99 3.92 6.57 9.38 2 6.9 2.4 15.86 1.15 25.25-1.25 9.38-3.99 17.92-7.73 24.05-2.95 4.86-6.32 7.67-8.79 7.34-4.91-.66-10.42-14.48-7.72-34.63 1.25-9.38 4-17.93 7.73-24.06 2.8-4.56 5.97-7.33 8.39-7.33Z" fill="#F6A6BF"/><path d="M346.44 57.85a19.69 19.69 0 0 1 27.8-15.27 76 76 0 0 1-.1 20.26 78.55 78.55 0 0 1-4.12 16.87 19.66 19.66 0 0 1-23.61-21.86h.03Z" fill="#fff"/><path d="M365.89 84.5c1.7 0 3.4-.18 5.06-.54l2.33-.5.84-2.23a82.41 82.41 0 0 0 4.34-17.81c1-7.11 1.04-14.32.12-21.44l-.33-2.34-2.15-1.01a24.05 24.05 0 0 0-33.96 18.65 24.08 24.08 0 0 0 20.64 27.04c1.03.13 2.07.19 3.11.18Zm.94-8.72a15.34 15.34 0 0 1-14.67-22.08 15.36 15.36 0 0 1 18.11-8c.48 5.53.34 11.08-.42 16.57a76.08 76.08 0 0 1-3.03 13.51Z" fill="#F6A6BF"/><path d="m202.25 337.76 86.83-.5a4.34 4.34 0 0 0 0-8.68l-86.82.5a4.34 4.34 0 1 0 0 8.68Z" fill="#EA4385"/><path d="M446.24 307.43c1 0 1.96-.34 2.74-.97a135.8 135.8 0 0 0 25.73-183.02 4.34 4.34 0 1 0-7.11 4.97 127.11 127.11 0 0 1-24.09 171.3 4.34 4.34 0 0 0 2.74 7.74l-.01-.02Z" fill="#F6A6BF"/><path d="M100.07 81.5c.45 0 .9-.06 1.32-.2 12.24-3.9 25-5.9 37.85-5.96a4.34 4.34 0 0 0 0-8.69 135.62 135.62 0 0 0-40.43 6.37 4.34 4.34 0 0 0 1.26 8.49Z" fill="#FFFEF1"/><path d="M139.93 338.11h.77l27.4-.15a4.34 4.34 0 0 0 0-8.68l-27.4.14h-.7c-69.7 0-126.59-56.52-126.98-126.33a126.46 126.46 0 0 1 9.51-49.04 4.35 4.35 0 0 0-8.03-3.3 135.17 135.17 0 0 0-10.23 52.36c.39 74.61 61.2 135 135.66 135Z" fill="#F6A6BF"/><path fill-rule="evenodd" clip-rule="evenodd" d="m251.06 138.36.03.27a.25.25 0 0 0-.03-.27Zm.01.27c-1.17 2.15-36.08-.59-36.08-.59s-15.86 34.39 3.3 67.85c13.03 21.75 23.58 35.76 24.6 61.52-10.18 3.09-8.63 10.5-2.1 9.6 1.22-.11 7.21-.56 8.05-.7 7.94-1.46-.24-33.7-3.05-43.76-.57-1.85-.84-2.98-.84-2.98s.33 1.1.84 2.98c2.29 7.38 9.4 26.33 23.73 32.18-1.07-.47-6.34.38-9.8 2.4-6.57 3.84-10.72 10.2 4.13 7.75 18.67-1.3 36.56-3.4 36.56-3.4s46.9-31.05.45-70.62c-23.49-20-49.4-5.1-49.8-62.23Z" fill="#241D50"/><path fill-rule="evenodd" clip-rule="evenodd" d="m245.8 232.58-.84-2.98s.27 1.13.84 2.98Z" fill="#241D50"/><path d="M344.08 141.02c-22.31 9.24-25.85 44.15-25.8 93.91.01 7.05-1.27 28.46-22.74 36.09.1.17.19.33.27.5 30.75.04 41.3-29.8 40.85-55.08-.04-37.7 2.4-63.06 23.16-58.45 9.13 3.08 11.03-27.58-15.74-16.97Z" fill="#2A2460"/><path fill-rule="evenodd" clip-rule="evenodd" d="M271.66 109.08c-5.86 1.22-16 3.51-16.96 4.95-9.78-9.57-27.52-8.83-32.6-8.39l-23.47-16.3a2.6 2.6 0 0 0-4.07 1.87c-.8 7.66-2.34 22.77-2.06 23.2-21.7 38.9 28.94 51.38 48.12 47.81 22.21-6.41 26.81-14.42 28.76-22.02 2.24-8.81.87-10.2.87-10.2l4.5-17.64a2.66 2.66 0 0 0-3.09-3.28Z" fill="#2A2460"/><path d="M237.89 145.2c-1.88 1.07-3.28 1.3-3.92.68-.79-.74-.6-2.57-.42-3.12l.1-.16a.72.72 0 0 0-.08-.87.71.71 0 0 0-.86-.2c-.2.12-.36.3-.44.51-1.25 1.98-2.65 2.96-4.03 2.92-3.3-.06-6.15-5.24-6.16-5.31a.73.73 0 0 0-.71-.38.71.71 0 0 0-.49.26.74.74 0 0 0-.16.54c.01.1.04.19.09.27.13.25 3.26 5.97 7.36 6.08a5.14 5.14 0 0 0 3.82-1.7 3.38 3.38 0 0 0 1.4 2.53 3.6 3.6 0 0 0 2.94.2c.8-.24 1.56-.58 2.28-1a.7.7 0 0 0 .35-.43.74.74 0 0 0-.26-.78.72.72 0 0 0-.54-.14.72.72 0 0 0-.27.1Z" fill="#fff"/><path fill-rule="evenodd" clip-rule="evenodd" d="M234.22 137.01c.15-.01-8.61-5.9-.91 5.02 0 0 10.96-6.7.91-5.02Z" fill="url(#a)"/><path fill-rule="evenodd" clip-rule="evenodd" d="M176.88 129.82c.89-.26 14.6-2.72 31.4 6.69 0 0-17.63-12.81-31.4-6.69Zm.27 11.17c.74-.5 12.58-6.8 30.56-3.07 0 0-19.71-6.6-30.56 3.07Zm73.03 3.91c14.15-.1 21.9 6.67 21.8 6.67-6.46-8.6-21.8-6.67-21.8-6.67Zm-.12 1.08c12.92 4.01 18.05 12.49 17.96 12.46-3.44-9.8-17.96-12.46-17.96-12.46Z" fill="#fff"/><path opacity=".21" fill-rule="evenodd" clip-rule="evenodd" d="M198.44 95.44c-3.55 1.01.08 15.92.08 15.92a26.2 26.2 0 0 1 13.98-5.74s-10.51-11.18-14.06-10.18Zm69.57 18.95c-2.49-.49-9.74 3.05-9.74 3.05 4.83.4 8.17 5.95 8.17 5.95s4.06-8.53 1.57-9Z" fill="#fff"/><defs><linearGradient id="a" x1="230.392" y1="138.866" x2="238.527" y2="138.117" gradientUnits="userSpaceOnUse"><stop stop-color="#EC6588"/><stop offset="1" stop-color="#E71A80"/></linearGradient></defs></svg>