<svg xmlns="http://www.w3.org/2000/svg" viewBox="0 0 182.82 182.83" data-guides="{&quot;vertical&quot;:[],&quot;horizontal&quot;:[]}"><path fill="#F6A6BF" d="M178.17 81.55a15.03 15.03 0 0 1-2.88-14.4 15.05 15.05 0 0 0-7.5-18.03c-4.67-2.37-7.77-7-8.18-12.22a15.04 15.04 0 0 0-13.83-13.8 15.06 15.06 0 0 1-12.25-8.19 15.05 15.05 0 0 0-18.06-7.46 15.06 15.06 0 0 1-14.42-2.85 15 15 0 0 0-19.53.02 15.05 15.05 0 0 1-14.41 2.88c-7.04-2.28-14.7.9-18.05 7.5-2.37 4.68-7 7.79-12.22 8.2a15.05 15.05 0 0 0-13.8 13.83 15 15 0 0 1-8.19 12.26 15.05 15.05 0 0 0-7.45 18.06c1.62 4.96.56 10.4-2.8 14.38a15.07 15.07 0 0 0 0 19.55 15 15 0 0 1 2.88 14.4c-2.28 7.05.9 14.7 7.5 18.06a15.01 15.01 0 0 1 8.18 12.2 15.04 15.04 0 0 0 13.82 13.8c5.24.41 9.88 3.51 12.26 8.2a15.05 15.05 0 0 0 18.06 7.44 15.03 15.03 0 0 1 14.44 2.86 15.04 15.04 0 0 0 19.54-.03 15.05 15.05 0 0 1 14.4-2.88c7.04 2.3 14.7-.89 18.05-7.5 2.38-4.66 7-7.75 12.22-8.17a15.06 15.06 0 0 0 13.8-13.84c.41-5.21 3.5-9.84 8.17-12.2a15.05 15.05 0 0 0 7.47-18.07 15.01 15.01 0 0 1 2.86-14.42 15.07 15.07 0 0 0-.08-19.58Zm-86.7 86.1c-58.67.05-95.4-63.43-66.1-114.26 29.28-50.83 102.61-50.9 132-.12a76.2 76.2 0 0 1 10.24 38.08 76.3 76.3 0 0 1-76.14 76.3Z"/><path fill="#F6A6BF" d="M20.59 90.37c0 54.9 59.42 89.2 106.96 61.75a71.3 71.3 0 0 0 35.65-61.75c0-54.9-59.42-89.2-106.96-61.76a71.3 71.3 0 0 0-35.65 61.76Z" pointer-events="none"/><path fill="#fff" d="m91.82 34.91 2.45 7.3h7.86l-6.35 4.52 2.44 7.3-6.37-4.5-6.36 4.52 2.42-7.3-6.37-4.5 7.87-.03 2.41-7.3Zm6.76 91.72-2.36 7.33 6.34 4.65-7.8-.12-2.36 7.33-2.46-7.4-7.8-.12 6.28-4.46-2.47-7.4 6.35 4.65 6.28-4.46Zm13.5-86.78 1.7 5.1h5.5l-4.44 3.16 1.7 5.1-4.44-3.14-4.45 3.16 1.7-5.1-4.46-3.16h5.5l1.69-5.12Zm-40.42.01 1.7 5.1h5.5l-4.44 3.16 1.71 5.1-4.45-3.14-4.44 3.16 1.69-5.1-4.46-3.16h5.5l1.69-5.12Zm4.53 88.43-1.65 5.12 4.44 3.25-5.46-.08-1.64 5.12-1.73-5.17-5.45-.08 4.39-3.12-1.73-5.17 4.44 3.25 4.39-3.12Zm40.35-.13-1.65 5.12 4.43 3.25-5.45-.08-1.65 5.12-1.72-5.17-5.45-.08 4.39-3.12-1.73-5.17 4.44 3.24 4.39-3.1Z" pointer-events="none"/></svg>