<svg viewBox="0 0 371 384" fill="none" xmlns="http://www.w3.org/2000/svg"><g clip-path="url(#a)"><path d="M314.45 278.4c8.02-18.12 29.77-25.96 40.81-42.4 14.74-21.98 5.74-52.75-11.27-72.58-17.02-19.83-40.53-32.63-60.13-49.84-19.6-17.2-36.17-42.28-31.44-68.32 3.78-20.91 21.56-37.95 41.95-43.25 20.39-5.31 42.56.16 59.8 12.07 29.5 20.36 43.95 56.28 54.77 90.77 6.65 21.16 12.8 43.08 22.06 63.07v216.08h-90.5l-20.8-54.62c-6.23-16.34-12.43-34.84-5.25-50.98Z" fill="url(#b)"/><path d="m314.53 68.5 4.02-3.73c102.17 111.32 100.99 245.03 92.32 319.23h-5.46c8.59-73.26 9.98-205.55-90.88-315.5Z" fill="#fff"/><path d="m413.11 350.2-67.18-67.1 3.86-3.95 62.09 62.05c5.46-9.9 12.4-22.44 19.12-34.65v11.28a23444.5 23444.5 0 0 1-16.13 29.2l-1.76 3.17Zm-26.49-174.53-3.8-77.74 5.45-.35 4.55 93.29-67.46-75.36 4.07-3.73 57.19 63.9Z" fill="#fff"/><path d="M328.8 365.65c-13.56 5.55-60.7 23.24-55.6-1.74 4.4-21.67 34.97-11 50.37-4.1a537.78 537.78 0 0 1-33.5-42.86c-17.7 9.6-84.12 43.28-80.58 6.17 3.29-34.38 56.05-19.04 76.69-11.7-5.75-8.17-11.36-16.4-16.91-24.5-5.46-7.92-10.85-15.85-16.39-23.7a1041.7 1041.7 0 0 0-8.58-12.03c-14.17 15.15-65.54 66.97-73.88 30.73-7.98-34.88 50.42-35.76 70.71-35.04-12.85-17.37-27.21-35-43.52-50.81-11.7 12.67-66.7 69.86-75.3 32.26-8.24-35.95 54.08-35.79 72.47-34.97a225.81 225.81 0 0 0-40.58-30.88 165.9 165.9 0 0 0-13.88-7.28c-8.53 13.27-35.65 52.34-45.63 29.25-8.94-20.72 22.84-29.18 39.16-32.1a152.94 152.94 0 0 0-51.24-11.7c-4.82 11.08-20.29 43.41-30.48 27.31-8.3-13.03 9.51-22.6 21.76-27.38a114.87 114.87 0 0 0-40.5 7.85c-10.01 9.36-30.12 25.75-33.12 10.2-2.93-15.23 18.97-16.62 31.09-16.26a122.3 122.3 0 0 1 43.91-8.15c-12.43-8.18-34.59-24.92-19.23-31.64 16.6-7.27 23.76 20.51 25.93 31.76 19.6.9 38.85 5.4 56.8 13.27-8.42-14.98-28.92-55.26-4.57-53 25.33 2.35 13.26 42.78 9.06 55.02a166.8 166.8 0 0 1 14.15 7.42 231.37 231.37 0 0 1 41.01 31.08c-3.3-22.24-11.29-91.95 21.53-75.6 33.8 16.83-6.56 66.48-17.74 79.22 16.01 15.56 30.16 32.77 42.83 49.79-3.42-24.02-10.18-89.65 21.81-73.77 33.82 16.85-6.58 66.51-17.75 79.24a606.7 606.7 0 0 1 9.03 12.63c5.53 7.87 10.93 15.82 16.39 23.77 5.46 7.95 10.92 15.96 16.52 23.93-3.44-24.07-10.1-89.52 21.84-73.63 33.9 16.87-6.73 66.7-17.8 79.31 11.45 16.06 23.48 31.84 36.66 46.45-2.1-14.94-7.47-64.28 15.37-52.64 23.62 12.06-5.78 46.94-13.13 55.1a286.5 286.5 0 0 0 10.7 11.1 253.8 253.8 0 0 0 11.99 10.97h-9.55a235.6 235.6 0 0 1-6.9-6.5c-3.91-3.85-7.72-7.8-11.43-11.85Zm52.94-10.25c11.37 5.69 6.73 18.42.38 28.6h-13.06c-1.2-14.98-.61-35.23 12.68-28.6Z" fill="#2F296C"/><path d="M96.32 319.83c32.21-20.61 77.34-29.54 115.4-20.18 37.46 9.2 63.6 33.56 87.8 56.84l28.58 27.5h-283.23c8.19-24.54 25.73-47.66 51.45-64.16Z" fill="url(#c)"/><path d="M136.8 342.3c11.6-6.71 25.12-9.37 40.16-7.88 45.6 4.47 91.3 30 120.45 49.58h-9.4c-28.83-18.68-71.01-41.15-112.12-45.18-13.49-1.32-25.51 1.02-35.79 6.97-14.66 8.47-24.3 23.28-30.8 38.23h-5.95c6.8-16.07 17.2-32.32 33.44-41.72Z" fill="#fff"/></g><defs><linearGradient id="b" x1="458.552" y1="192.004" x2="251.596" y2="192.004" gradientUnits="userSpaceOnUse"><stop stop-color="#82CDE4"/><stop offset=".23" stop-color="#69C2D8"/><stop offset=".72" stop-color="#28A6BA"/><stop offset="1" stop-color="#0094A7"/></linearGradient><linearGradient id="c" x1="329.41" y1="339.981" x2="44.389" y2="339.981" gradientUnits="userSpaceOnUse"><stop stop-color="#E71A80"/><stop offset="1" stop-color="#EC6588"/></linearGradient><clipPath id="a"><path fill="#fff" d="M0 0h431v384h-431z"/></clipPath></defs></svg>