<svg viewBox="0 0 381 379" fill="none" xmlns="http://www.w3.org/2000/svg"><path fill-rule="evenodd" clip-rule="evenodd" d="M380.23 157.6c-3.26 36.71-35.2 64.4-60.52 62.14-25.33-2.25-50.91-33.84-47.65-70.56 3.26-36.72 34.13-64.66 59.45-62.41 25.33 2.25 51.98 34.1 48.72 70.83Zm-143.62-24.06c-25.38 1.53-55.47-27.05-57.73-63.85-2.25-36.8 24.2-67.87 49.57-69.4 25.38-1.54 55.47 27.04 57.73 63.84 2.25 36.8-24.2 67.87-49.57 69.4Zm-100.54 17.97c-24.26 7.58-58.27-8.64-69.32-43.83-11.04-35.18 5.06-76 29.32-83.57 24.26-7.58 56.73 8.65 67.78 43.83 11.04 35.18-3.52 76-27.78 83.57Zm-36.46 27.6c15.45 33.48 5.93 73.53-17.17 84.13-23.09 10.62-59.95-3.33-75.4-36.82-15.46-33.48-3.64-73.83 19.45-84.44 23.1-10.6 57.67 3.64 73.12 37.12Zm29.93 67.48c34.61-102.8 82.1-109.13 140.24-35.48 6.71 8.5 14.8 15.86 24.17 21.3 74.25 42.98 60.97 113.43.93 115.66-7.19.27-14.34-.82-21.31-2.61-23.76-6.12-46.87-4.5-68.85 10.42-75.8 63.61-152.26-20.74-88.88-86.3a60.84 60.84 0 0 0 13.7-23Z" fill="#28AFC9"/></svg>