<svg viewBox="0 0 217 217" fill="none" xmlns="http://www.w3.org/2000/svg"><path d="M195.53 98.86a15.03 15.03 0 0 1-2.88-14.41 15.05 15.05 0 0 0-7.5-18.02 15.03 15.03 0 0 1-8.18-12.22 15.04 15.04 0 0 0-13.83-13.8 15.06 15.06 0 0 1-12.25-8.19 15.05 15.05 0 0 0-18.06-7.46 15.06 15.06 0 0 1-14.42-2.85 15 15 0 0 0-19.53.02 15.05 15.05 0 0 1-14.41 2.88 15.03 15.03 0 0 0-18.05 7.5 15.04 15.04 0 0 1-12.22 8.2 15.05 15.05 0 0 0-13.8 13.83 15.04 15.04 0 0 1-8.19 12.26 15.05 15.05 0 0 0-7.45 18.06 15.05 15.05 0 0 1-2.8 14.38 15.07 15.07 0 0 0 0 19.55 15.02 15.02 0 0 1 2.88 14.4 15.05 15.05 0 0 0 7.5 18.06 15.01 15.01 0 0 1 8.18 12.2 15.04 15.04 0 0 0 13.82 13.8 15.06 15.06 0 0 1 12.26 8.19 15.05 15.05 0 0 0 18.06 7.45 15.03 15.03 0 0 1 14.44 2.86 15.04 15.04 0 0 0 19.54-.03 15.05 15.05 0 0 1 14.4-2.88 15.02 15.02 0 0 0 18.05-7.5 15.05 15.05 0 0 1 12.22-8.17 15.06 15.06 0 0 0 13.8-13.84 15.02 15.02 0 0 1 8.17-12.21 15.05 15.05 0 0 0 7.47-18.06 15.01 15.01 0 0 1 2.86-14.42 15.07 15.07 0 0 0-.08-19.58Zm-86.7 86.09a76.21 76.21 0 1 1 76.14-76.29 76.3 76.3 0 0 1-76.13 76.29Z" fill="#F6A6BF"/><circle cx="108.73" cy="108.724" r="71.308" transform="rotate(13.519 108.73 108.724)" fill="#F6A6BF"/><path d="m109.18 52.22 2.45 7.3h7.86l-6.35 4.52 2.44 7.3-6.37-4.5-6.36 4.52 2.42-7.3-6.37-4.51 7.87-.02 2.41-7.3Zm6.76 91.72-2.36 7.33 6.34 4.65-7.8-.12-2.36 7.33-2.46-7.4-7.8-.12 6.28-4.46-2.47-7.4 6.35 4.65 6.28-4.46Zm13.5-86.78 1.7 5.1h5.5l-4.44 3.16 1.7 5.1-4.44-3.14-4.45 3.16 1.7-5.11-4.46-3.15h5.5l1.69-5.12Zm-40.42.01 1.7 5.1h5.5l-4.44 3.16 1.71 5.1-4.45-3.14-4.44 3.16 1.69-5.1-4.46-3.16h5.5l1.7-5.12Zm4.53 88.43-1.65 5.12 4.44 3.25-5.46-.08-1.64 5.12-1.73-5.17-5.45-.08 4.39-3.12-1.73-5.17 4.44 3.25 4.39-3.12Zm40.35-.13-1.65 5.12 4.43 3.25-5.45-.08-1.65 5.12-1.72-5.17-5.45-.08 4.39-3.12-1.73-5.17 4.44 3.24 4.39-3.11Z" fill="#fff"/></svg>