<svg viewBox="0 0 196 196" fill="none" xmlns="http://www.w3.org/2000/svg"><path d="M176.55 60.06a15.03 15.03 0 0 1-7.44-12.68 15.04 15.04 0 0 0-12.97-14.58 15.02 15.02 0 0 1-11.72-8.88 15.04 15.04 0 0 0-17.58-8.53 15.05 15.05 0 0 1-14.25-3.73 15.05 15.05 0 0 0-19.5-1.16 15.06 15.06 0 0 1-14.56 2.02 15 15 0 0 0-18.46 6.4 15.05 15.05 0 0 1-12.68 7.43 15.03 15.03 0 0 0-14.6 12.97 15.04 15.04 0 0 1-8.88 11.75 15.05 15.05 0 0 0-8.53 17.59 15.04 15.04 0 0 1-3.73 14.25 15.05 15.05 0 0 0-1.15 19.5 15.05 15.05 0 0 1 2.06 14.5 15.07 15.07 0 0 0 6.38 18.49 15.02 15.02 0 0 1 7.43 12.68 15.05 15.05 0 0 0 12.97 14.6 15.02 15.02 0 0 1 11.73 8.87 15.04 15.04 0 0 0 17.57 8.53 15.05 15.05 0 0 1 14.26 3.73 15.05 15.05 0 0 0 19.5 1.14 15.03 15.03 0 0 1 14.58-2.01 15.04 15.04 0 0 0 18.46-6.4 15.05 15.05 0 0 1 12.68-7.44 15.02 15.02 0 0 0 14.6-12.97 15.04 15.04 0 0 1 8.88-11.72 15.06 15.06 0 0 0 8.53-17.58 15 15 0 0 1 3.74-14.22 15.05 15.05 0 0 0 1.15-19.5 15.03 15.03 0 0 1-2-14.56 15.07 15.07 0 0 0-6.47-18.5Zm-53.82 109.68a76.22 76.22 0 1 1 47.04-96.97 76.3 76.3 0 0 1-47.04 96.97Z" fill="#F6A6BF"/><circle cx="97.728" cy="97.734" r="71.308" transform="rotate(-5.545 97.728 97.734)" fill="#F6A6BF"/><path d="m54.3 121.48-3.83 1.13 1.7 5.75-1.68.5-2.12-7.17 5.5-1.63.42 1.42Zm3.44-2.66c1.05-.31 1.93-.3 2.64.05.71.33 1.22 1 1.52 2.03l1.25 4.2-1.58.47-.26-.88c-.12.38-.34.7-.67 1-.33.27-.76.48-1.3.64a3.6 3.6 0 0 1-1.49.15 2.39 2.39 0 0 1-1.17-.48c-.3-.27-.53-.61-.65-1.02-.19-.65-.1-1.23.25-1.76.37-.53 1.07-.96 2.1-1.26l1.85-.55-.03-.11c-.15-.5-.42-.84-.8-1.02-.38-.18-.86-.18-1.45 0-.4.11-.78.3-1.14.54-.35.24-.62.5-.82.81l-1.02-1.02c.29-.4.67-.76 1.16-1.06a6.14 6.14 0 0 1 1.6-.73Zm1.59 6.19c.42-.13.76-.33 1.03-.62.27-.3.42-.64.45-1.04l-.25-.83-1.73.52c-.97.28-1.36.74-1.17 1.38.1.3.28.5.58.62.3.1.66.1 1.09-.03Zm7.72-8.96c.7-.2 1.36-.24 2-.1.64.14 1.2.44 1.68.9a4 4 0 0 1 1.04 1.79c.22.72.25 1.41.1 2.07-.14.65-.45 1.2-.91 1.67s-1.04.8-1.73 1.01c-.97.3-1.83.2-2.59-.28l1.04 3.47-1.68.5-2.9-9.77 1.6-.47.27.94c.18-.42.44-.78.8-1.07.36-.3.78-.51 1.28-.66Zm1.56 5.96a2.1 2.1 0 0 0 1.33-1.06c.29-.54.33-1.14.13-1.8a2.32 2.32 0 0 0-1.09-1.45 2.1 2.1 0 0 0-1.7-.17 2.2 2.2 0 0 0-1.54 1.61 2.72 2.72 0 0 0 .7 2.37c.3.28.63.47 1 .56.38.08.77.06 1.17-.06Zm6.32-8.3c1.06-.31 1.94-.3 2.64.05.72.33 1.22 1 1.53 2.03l1.24 4.2-1.58.47-.26-.87a2 2 0 0 1-.67.98c-.33.28-.76.5-1.3.65a3.6 3.6 0 0 1-1.48.15 2.4 2.4 0 0 1-1.17-.48 2.11 2.11 0 0 1-.65-1.02c-.2-.65-.11-1.23.25-1.76s1.06-.95 2.1-1.26l1.84-.55-.03-.1c-.15-.5-.41-.85-.8-1.03-.37-.18-.86-.18-1.45 0a3.8 3.8 0 0 0-1.96 1.35l-1.02-1.02c.3-.4.68-.75 1.16-1.06a6.3 6.3 0 0 1 1.61-.73Zm1.6 6.19c.41-.13.75-.33 1.02-.62s.42-.64.45-1.03l-.25-.84-1.73.52c-.96.28-1.35.75-1.16 1.38.09.3.28.51.57.62.3.1.66.1 1.1-.03Zm3.76-7.7 1.68-.5.86 2.92 3.61-1.07-.86-2.92 1.68-.5 2.13 7.17-1.68.5-.84-2.83-3.61 1.07.84 2.83-1.68.5-2.13-7.17Zm15.31-3-2.5.75 1.7 5.74-1.68.5-1.7-5.74-2.53.75-.42-1.42 6.71-2 .42 1.42Zm.8-1.78 1.68-.5 1.4 4.73 2.55-5.9 1.53-.46 2.13 7.17-1.67.5-1.4-4.73-2.55 5.9-1.54.46-2.13-7.17Zm13.37-4.06c.7-.2 1.37-.24 2-.1.65.14 1.2.44 1.69.9a4.2 4.2 0 0 1 1.04 1.78c.21.73.25 1.42.1 2.08-.15.64-.45 1.2-.92 1.67-.45.47-1.03.8-1.73 1.01-.97.29-1.83.2-2.58-.28l1.03 3.47-1.68.5-2.9-9.77 1.6-.47.28.94c.17-.43.44-.78.8-1.07.35-.3.78-.51 1.27-.66Zm1.57 5.96a2.1 2.1 0 0 0 1.33-1.07 2.3 2.3 0 0 0 .12-1.8 2.32 2.32 0 0 0-1.09-1.44 2.09 2.09 0 0 0-1.7-.17 2.2 2.2 0 0 0-1.53 1.6c-.09.4-.07.83.07 1.27.13.45.34.82.63 1.1.29.28.62.47 1 .57.38.08.76.06 1.17-.06Zm9.11-1.14c-.72.21-1.42.25-2.1.1a3.64 3.64 0 0 1-2.8-2.65 3.64 3.64 0 0 1 .9-3.74 4.3 4.3 0 0 1 1.82-1.06 4.27 4.27 0 0 1 2.11-.11 3.72 3.72 0 0 1 2.8 2.64c.21.71.24 1.4.07 2.06a3.55 3.55 0 0 1-.97 1.7c-.48.49-1.1.84-1.83 1.06Zm-.42-1.44a2.14 2.14 0 0 0 1.34-1.07 2.3 2.3 0 0 0 .12-1.8 2.32 2.32 0 0 0-1.08-1.45 2.1 2.1 0 0 0-1.72-.16c-.61.18-1.06.54-1.34 1.07a2.35 2.35 0 0 0-.11 1.8c.2.67.56 1.15 1.07 1.45.53.29 1.1.34 1.72.16Zm9.96-5.56c.97 0 1.58.45 1.84 1.32.2.65.1 1.22-.28 1.7a3.8 3.8 0 0 1-2 1.17l-3.64 1.08-2.13-7.16 3.5-1.04c.88-.26 1.6-.3 2.2-.13.58.18.97.56 1.14 1.15.11.37.1.71-.01 1.04-.1.32-.32.61-.62.87Zm-3.73.63 1.76-.53c.87-.25 1.21-.68 1.04-1.28-.18-.58-.7-.75-1.56-.49l-1.76.52.52 1.78Zm2.8 2.38c.92-.28 1.3-.71 1.11-1.31-.09-.31-.26-.52-.52-.6-.27-.1-.63-.08-1.08.05l-1.98.59.55 1.84 1.92-.57Zm5.67-8.25c1.06-.3 1.94-.3 2.65.05.7.34 1.22 1.01 1.52 2.03l1.25 4.2-1.59.47-.26-.87c-.1.38-.33.7-.67.99a3.6 3.6 0 0 1-1.3.65 3.7 3.7 0 0 1-1.48.15 2.4 2.4 0 0 1-1.17-.49 2.1 2.1 0 0 1-.65-1.02c-.2-.64-.1-1.23.25-1.75.37-.54 1.06-.96 2.1-1.27l1.84-.55-.03-.1c-.15-.5-.41-.84-.8-1.02-.37-.18-.85-.18-1.44 0-.4.11-.79.3-1.14.53-.35.24-.63.51-.83.82l-1.02-1.03c.3-.4.68-.75 1.16-1.06a6.3 6.3 0 0 1 1.61-.73Zm1.6 6.2c.41-.13.76-.34 1.02-.62.28-.3.43-.64.45-1.04l-.24-.83-1.74.51c-.96.29-1.35.75-1.16 1.39.09.3.28.5.58.61.3.11.65.1 1.08-.03Zm3.76-7.7 1.68-.5.87 2.91 3.6-1.07-.86-2.91 1.68-.5 2.13 7.17-1.68.5-.84-2.84-3.61 1.08.84 2.83-1.68.5-2.13-7.17Zm13.4-1.41c.92-.27 1.68-.27 2.28 0 .61.26 1.02.77 1.25 1.52a2.3 2.3 0 0 1-.27 2.07 3.59 3.59 0 0 1-2.06 1.3l-3.25.95-2.13-7.17 1.68-.5.7 2.35 1.8-.52Zm3.05-3.48 1.68-.5 2.13 7.17-1.68.5-2.13-7.17Zm-2.37 7.18c.5-.14.84-.35 1.04-.65.2-.29.23-.64.1-1.05-.11-.4-.32-.66-.63-.78-.3-.1-.72-.1-1.23.05l-1.42.4.72 2.44 1.42-.41Zm-111.96-.26 2.8 9.4-1.72.5-2.35-7.91-3.7 1.1.6 2.37c.35 1.33.56 2.43.64 3.3.07.87-.02 1.57-.27 2.11-.25.53-.7.9-1.36 1.1a4.8 4.8 0 0 1-1 .14l-.33-1.55c.13 0 .27-.02.42-.06.55-.17.84-.6.87-1.31.04-.72-.12-1.8-.49-3.2l-1.02-3.94 6.91-2.05Zm9.65-.53c.71-.2 1.4-.24 2.05-.1.66.14 1.23.44 1.72.91a4.1 4.1 0 0 1 1.13 3.8 3.59 3.59 0 0 1-.94 1.7c-.47.47-1.07.82-1.78 1.03-.63.2-1.24.24-1.83.15a3.65 3.65 0 0 1-2.72-2.02l-1.2.36.85 2.87-1.68.5-2.13-7.17 1.68-.5.82 2.78 1.24-.37a3.53 3.53 0 0 1 1.2-3.07c.44-.4.97-.68 1.59-.87Zm1.75 5.92a1.97 1.97 0 0 0 1.48-1.59c.08-.4.05-.83-.08-1.28a2.32 2.32 0 0 0-1.07-1.45 2 2 0 0 0-1.66-.17c-.6.17-1.03.53-1.3 1.05-.26.52-.3 1.12-.09 1.8.2.68.56 1.17 1.06 1.46a2 2 0 0 0 1.66.18Zm7.63-8.24c.68-.2 1.32-.23 1.93-.09.6.13 1.13.42 1.57.85.45.43.77.98.97 1.65a3.44 3.44 0 0 1-.93 3.62 4.4 4.4 0 0 1-1.85 1.04 3.69 3.69 0 0 1-3.25-.38c-.93-.62-1.62-1.7-2.08-3.25a5.91 5.91 0 0 1-.09-3.7 4.7 4.7 0 0 1 2.34-2.5l3.11-1.7.7 1.42-2.84 1.52a3.9 3.9 0 0 0-1.68 1.49c-.3.56-.37 1.23-.21 2.03a3.64 3.64 0 0 1 2.31-2Zm1.33 5.7a2.05 2.05 0 0 0 1.31-1.03c.27-.52.3-1.09.12-1.7a2.07 2.07 0 0 0-1.02-1.32 2.1 2.1 0 0 0-1.65-.12c-.63.18-1.08.52-1.35 1.01a2.07 2.07 0 0 0-.14 1.66 2.2 2.2 0 0 0 1.03 1.36c.52.28 1.08.32 1.7.14Zm8.99-1.24c-.73.21-1.42.25-2.1.11a3.64 3.64 0 0 1-2.8-2.66 3.64 3.64 0 0 1 .9-3.74c.49-.49 1.1-.84 1.82-1.05a4.27 4.27 0 0 1 2.11-.12c.68.14 1.26.44 1.74.9.5.46.85 1.04 1.06 1.75.21.7.23 1.39.07 2.05a3.54 3.54 0 0 1-.97 1.7c-.49.49-1.1.84-1.83 1.06Zm-.43-1.44a2.14 2.14 0 0 0 1.35-1.07 2.3 2.3 0 0 0 .12-1.8 2.32 2.32 0 0 0-1.09-1.45 2.13 2.13 0 0 0-1.7-.16c-.63.18-1.07.54-1.36 1.07-.27.53-.3 1.13-.1 1.8.2.67.55 1.16 1.07 1.45.52.3 1.1.35 1.71.16Zm9.97-5.56c.96 0 1.58.45 1.84 1.33.19.64.1 1.2-.28 1.7s-1.05.88-2 1.16l-3.65 1.09-2.13-7.17 3.5-1.04c.88-.26 1.62-.3 2.2-.13.6.18.97.56 1.15 1.15a1.75 1.75 0 0 1-.63 1.91Zm-3.73.63 1.76-.52c.87-.26 1.21-.69 1.03-1.29-.17-.58-.69-.74-1.56-.49l-1.76.53.53 1.77Zm2.8 2.38c.92-.27 1.29-.71 1.11-1.3-.1-.32-.27-.52-.53-.61-.26-.1-.62-.08-1.08.06l-1.97.58.55 1.84 1.92-.57Zm7.32-6.07c.91-.28 1.67-.28 2.28 0 .61.26 1.03.76 1.26 1.52a2.3 2.3 0 0 1-.27 2.06c-.4.59-1.1 1.02-2.08 1.3l-3.36.99-2.13-7.17 1.68-.5.7 2.35 1.92-.55Zm.68 3.7c.5-.14.84-.36 1.03-.65.2-.3.24-.64.11-1.05-.12-.4-.33-.66-.64-.78a2 2 0 0 0-1.22.05l-1.54.44.72 2.43 1.54-.45Zm6.64-8.45 1.67-.5 1.4 4.73 2.56-5.9 1.53-.46 2.13 7.17-1.68.5-1.4-4.73-2.54 5.9-1.55.46-2.12-7.17Zm18.43-1.73c.48-.01.89.1 1.22.3.33.2.55.5.67.9.13.44.1.87-.1 1.3-.2.42-.52.8-.98 1.14a5.4 5.4 0 0 1-1.7.8 6.1 6.1 0 0 1-3.28.16l.12-1.39a5.76 5.76 0 0 0 2.68-.12 2.9 2.9 0 0 0 1.23-.65c.27-.27.36-.56.27-.86a.75.75 0 0 0-.56-.54 2.03 2.03 0 0 0-1.1.08l-1.4.42-.34-1.13 1.27-.37a2 2 0 0 0 .91-.51.7.7 0 0 0 .18-.71c-.07-.26-.28-.42-.6-.5a2.65 2.65 0 0 0-1.26.13 5.9 5.9 0 0 0-2.11 1.2l-.8-1.1a6.82 6.82 0 0 1 2.65-1.51 5.08 5.08 0 0 1 1.72-.23c.53.01.97.14 1.33.36a1.57 1.57 0 0 1 .68 1.93c-.14.33-.37.63-.7.9Zm4.78-5.25c1.05-.31 1.93-.3 2.64.05.71.33 1.22 1 1.52 2.03l1.25 4.2-1.58.47-.26-.87c-.12.37-.34.7-.67.98s-.76.5-1.3.65a3.6 3.6 0 0 1-1.49.15 2.4 2.4 0 0 1-1.17-.48 2.1 2.1 0 0 1-.65-1.02c-.2-.65-.1-1.23.25-1.76.37-.53 1.07-.95 2.1-1.26l1.85-.55-.03-.1c-.15-.5-.42-.85-.8-1.03-.38-.18-.86-.18-1.45 0-.4.11-.78.3-1.14.54-.35.24-.62.5-.82.81l-1.02-1.02c.29-.4.67-.75 1.16-1.06a6.3 6.3 0 0 1 1.6-.73Zm1.59 6.19c.42-.13.76-.33 1.03-.62.27-.3.42-.64.45-1.03l-.25-.84-1.73.52c-.97.28-1.36.75-1.17 1.38.1.3.28.51.58.62.3.1.66.1 1.09-.03Zm7.75-8.5c.68-.2 1.32-.23 1.93-.09.6.13 1.12.42 1.56.85.45.43.78.98.98 1.65a3.44 3.44 0 0 1-.93 3.62c-.5.47-1.11.81-1.85 1.04a3.69 3.69 0 0 1-3.26-.38c-.92-.62-1.61-1.7-2.07-3.26a5.92 5.92 0 0 1-.1-3.7 4.7 4.7 0 0 1 2.35-2.5l3.11-1.7.7 1.43-2.84 1.52c-.82.43-1.38.93-1.68 1.49-.3.55-.37 1.23-.21 2.03a3.63 3.63 0 0 1 2.31-2Zm1.33 5.7a2.04 2.04 0 0 0 1.3-1.04 2.2 2.2 0 0 0 .13-1.7 2.07 2.07 0 0 0-1.02-1.31 2.1 2.1 0 0 0-1.66-.13c-.62.19-1.07.53-1.34 1.02a2.07 2.07 0 0 0-.14 1.66 2.2 2.2 0 0 0 1.03 1.36 2.2 2.2 0 0 0 1.7.14Zm8.99-1.24c-.73.21-1.43.25-2.1.11a3.64 3.64 0 0 1-2.8-2.66 3.63 3.63 0 0 1 .9-3.74c.49-.49 1.1-.84 1.82-1.05a4.27 4.27 0 0 1 2.11-.12c.67.14 1.25.44 1.74.9.5.46.85 1.04 1.06 1.74.21.71.23 1.4.07 2.06a3.54 3.54 0 0 1-.97 1.7c-.49.49-1.1.84-1.83 1.06Zm-.43-1.44a2.14 2.14 0 0 0 1.35-1.07 2.3 2.3 0 0 0 .12-1.8 2.32 2.32 0 0 0-1.09-1.45 2.15 2.15 0 0 0-1.71-.16c-.62.18-1.07.54-1.35 1.07-.27.53-.3 1.13-.1 1.8.2.67.55 1.15 1.07 1.45.52.29 1.1.34 1.71.16Zm9.6-7.64-2.52.75 1.7 5.74-1.67.5-1.7-5.74-2.53.75-.42-1.43 6.7-1.99.43 1.42Zm3.43-2.66c1.06-.3 1.94-.3 2.65.05.7.34 1.22 1.01 1.52 2.03l1.25 4.2-1.59.47-.26-.87c-.11.38-.33.7-.67.99-.33.27-.76.49-1.3.65a3.6 3.6 0 0 1-1.48.15 2.39 2.39 0 0 1-1.17-.49c-.31-.27-.53-.6-.65-1.02-.2-.64-.11-1.23.25-1.75.37-.54 1.06-.96 2.1-1.27l1.84-.55-.03-.1c-.15-.5-.41-.84-.8-1.02-.37-.18-.85-.19-1.44-.01-.4.12-.79.3-1.14.54-.35.24-.63.51-.83.82l-1.02-1.03c.3-.4.68-.75 1.16-1.06a6.3 6.3 0 0 1 1.61-.73Zm1.6 6.2a2.4 2.4 0 0 0 1.02-.62c.27-.3.42-.64.45-1.04l-.25-.83-1.73.51c-.96.29-1.35.75-1.16 1.39.09.3.28.5.57.61.3.11.66.1 1.1-.03Zm-72.18-28.72 4.7 6.1 7.43-2.57-4.53 6.35 4.7 6.1-7.5-2.17-4.53 6.35-.1-7.7-7.5-2.18 7.44-2.58-.1-7.7Zm36.35 84.49.16 7.7 7.51 2.32-7.4 2.43.16 7.7-4.75-6.2-7.41 2.44 4.48-6.26-4.75-6.2 7.52 2.33 4.48-6.26Zm-15.59-86.43 3.28 4.26 5.2-1.8-3.17 4.44 3.28 4.26-5.24-1.52-3.16 4.44-.08-5.38-5.23-1.52 5.2-1.8-.08-5.38Zm-38.2 13.21 3.29 4.26 5.19-1.8-3.17 4.44 3.28 4.27-5.23-1.52-3.17 4.44-.07-5.39-5.24-1.52 5.2-1.8-.08-5.38Zm33.16 82.09.12 5.39 5.25 1.62-5.18 1.7.12 5.38-3.32-4.33-5.18 1.7 3.13-4.37-3.32-4.33 5.26 1.62 3.13-4.38Zm38.1-13.3.11 5.38 5.26 1.62-5.18 1.7.11 5.39-3.32-4.33-5.18 1.7 3.13-4.37-3.31-4.33 5.25 1.62 3.13-4.38Z" fill="#fff"/></svg>