<svg viewBox="0 0 315 376" fill="none" xmlns="http://www.w3.org/2000/svg"><g opacity=".35" clip-path="url(#a)"><path opacity=".35" d="M164.16 64.5c34.43-6.7 45.08-59.42 79.83-64.19 14.82-2.04 29.56 6.17 39.25 17.53 9.7 11.37 15.34 25.57 20.8 39.48 5.86 14.83 11.72 30.15 10.88 46.02-.84 15.86-10.4 32.44-25.85 36.17-14.52 3.51-31.99-4.3-43.66 5-9.72 7.74-8.93 23-3.84 34.33 5.09 11.32 13.47 21.17 16.75 33.15a41.65 41.65 0 0 1-26.51 50.34 41.78 41.78 0 0 1-20.6 1.77c-6.14-1.02-12.3-3.41-18.4-2.16-10.03 2.06-15.62 13.29-16.17 23.53-.56 10.24 2.35 20.4 2.27 30.59-.25 25.52-20.33 48.25-44.62 56.16-24.3 7.9-51.45 2.77-74.03-9.15-22.6-11.92-41.24-30.08-58.26-49.1-23.8-26.6-45.93-57.34-49.67-92.8-3.74-35.47 17.36-75.66 52.55-81.78 18.05-3.14 39.75 1.79 52.53-11.37 16.86-17.36 2.35-50.98 19.62-68 10.8-10.67 28.6-8.86 43.03-4.19 14.44 4.68 29.2 11.62 44.1 8.68Z" fill="url(#b)"/><path opacity=".35" d="M251.5 67.09c-1.57 2.11-138.71 187.86-336.5 267.5l2.27 6.03c199.67-80.38 337.9-267.6 339.45-269.74l-5.22-3.8Z" fill="#fff"/><path opacity=".35" d="m218.8 201.22-96.58 4.45.3 6.44 96.58-4.45-.3-6.44Zm-107.29-89.3-36.43 129.91 6.21 1.74 36.43-129.9-6.2-1.75Z" fill="#fff"/><path opacity=".35" d="m143.8 302.12-111.56-22.95-5.65-109-6.44.34 5.9 113.96 116.44 23.96 1.3-6.3Z" fill="#fff"/></g><defs><linearGradient id="b" x1="202.405" y1="342.192" x2="92.38" y2="46.395" gradientUnits="userSpaceOnUse"><stop stop-color="#F9C8C3"/><stop offset="1" stop-color="#FCE4E2"/></linearGradient><clipPath id="a"><path fill="#fff" transform="translate(-85)" d="M0 0h400v376h-400z"/></clipPath></defs></svg>