<svg viewBox="0 0 248 179" fill="none" xmlns="http://www.w3.org/2000/svg"><path fill-rule="evenodd" clip-rule="evenodd" d="M68.4 50.8v.24a.23.23 0 0 0 0-.24Zm-.02.24c-1.26 1.89-33.22-3.61-33.22-3.61s-17.56 30.37-2.72 62.88c10.17 21.18 18.7 35 17.45 58.85-9.64 1.99-8.84 8.97-2.75 8.69 1.14 0 6.71.1 7.5.03 7.44-.66 2.64-31.1.9-40.63-.37-1.76-.52-2.82-.52-2.82l.52 2.82c1.48 7 6.43 25.1 19.15 31.71-.94-.52-5.88-.19-9.24 1.39-6.39 2.98-10.75 8.48 3.15 7.5 17.33.4 34.02-.04 34.02-.04s45.89-24.64 6.4-65.1c-19.96-20.47-45.12-8.92-40.64-61.67Z" fill="#241D50"/><path fill-rule="evenodd" clip-rule="evenodd" d="m55.54 137.28-.52-2.83s.15 1.07.52 2.83Z" fill="#241D50"/><path d="M153.97 61.17c-21.36 6.62-27.59 38.53-31.76 84.45-.6 6.5-3.6 26.15-24.05 31.36l.2.49c28.37 2.65 40.63-23.99 42.37-47.35 3.16-34.78 7.56-57.98 26.32-51.95 8.16 3.62 12.52-24.51-13.08-17Z" fill="#2A2460"/><path fill-rule="evenodd" clip-rule="evenodd" d="M89.9 25.53c-5.52.63-15.06 1.88-16.07 3.13-8.21-9.67-24.64-10.5-29.36-10.52l-20.27-17.04a2.4 2.4 0 0 0-3.9 1.37c-1.4 7-4.1 20.82-3.88 21.23-23.33 34.06 22.33 49.88 40.33 48.22 21.03-4.03 25.95-11.02 28.4-17.87 2.81-7.94 1.66-9.34 1.66-9.34l5.65-15.89a2.47 2.47 0 0 0-2.57-3.29Z" fill="#2A2460"/><path d="M55.67 55.98c-1.83.83-3.13.93-3.68.3-.66-.76-.33-2.43-.12-2.92l.11-.14a.66.66 0 0 0 0-.8.66.66 0 0 0-.78-.26.96.96 0 0 0-.45.43c-1.32 1.71-2.69 2.5-3.96 2.35-3.03-.34-5.23-5.36-5.23-5.43a.69.69 0 0 0-.37-.36.66.66 0 0 0-.51 0 .67.67 0 0 0-.36.38.68.68 0 0 0 0 .51c.1.24 2.51 5.79 6.29 6.24a4.77 4.77 0 0 0 3.66-1.23 3.13 3.13 0 0 0 1.08 2.44 3.34 3.34 0 0 0 2.7.43 9.9 9.9 0 0 0 2.18-.72.66.66 0 0 0 .34-.9.65.65 0 0 0-.64-.39.66.66 0 0 0-.26.07Z" fill="#fff"/><path fill-rule="evenodd" clip-rule="evenodd" d="M52.98 48.12c.14 0-7.44-6.2-1.26 4.54 0 0 10.67-5.25 1.26-4.54Z" fill="url(#a)"/><path fill-rule="evenodd" clip-rule="evenodd" d="M.7 36.6c.84-.17 13.7-1.27 28.4 8.84 0 0-15.18-13.32-28.4-8.84Zm-.7 10.32c.73-.4 12.18-5.2 28.45-.23 0 0-17.62-7.77-28.45.23Zm67.04 9.83c13.05 1.12 19.64 8.02 19.54 8.01-5.23-8.48-19.54-8-19.54-8Zm-.21.98c11.58 4.8 15.6 13.07 15.5 13.04-2.33-9.34-15.5-13.04-15.5-13.04Z" fill="#fff"/><path opacity=".21" fill-rule="evenodd" clip-rule="evenodd" d="M23.52 6.71c-3.37.63-1.29 14.7-1.29 14.7a24.2 24.2 0 0 1 13.39-4.1s-8.75-11.22-12.1-10.6Zm62.55 23.41c-2.25-.66-9.24 1.98-9.24 1.98 4.42.78 7.03 6.2 7.03 6.2s4.47-7.53 2.21-8.18Z" fill="#fff"/><path d="M211.74 176.67c-6 0-12.14-1.84-17.4-3.75l-1.89-.7c-8.35-3.08-17-6.25-25.25-4.08a41.24 41.24 0 0 0-7.74 3.23 73.12 73.12 0 0 1-4.8 2.24c-3.95 1.62-9.65 2.96-14.43.21a1.22 1.22 0 0 1 .29-2.25 1.22 1.22 0 0 1 .93.13c4.13 2.37 9.48.8 12.3-.36a86.9 86.9 0 0 0 4.62-2.16 43.33 43.33 0 0 1 8.2-3.4c9-2.38 18.01.93 26.72 4.14l1.88.67c8.2 2.99 18.67 5.8 26.75 1.04a1.24 1.24 0 0 1 1.41.02 1.23 1.23 0 0 1 .22 1.79c-.1.13-.24.23-.4.31a22.1 22.1 0 0 1-11.4 2.92Z" fill="url(#b)"/><path d="M240.05 169.87a24.66 24.66 0 0 0 0-34.81 24.52 24.52 0 0 0-34.73 0 24.66 24.66 0 0 0 0 34.8 24.52 24.52 0 0 0 34.73 0Z" fill="url(#c)"/><defs><linearGradient id="a" x1="49.294" y1="49.498" x2="56.861" y2="49.498" gradientUnits="userSpaceOnUse"><stop stop-color="#EC6588"/><stop offset="1" stop-color="#E71A80"/></linearGradient><linearGradient id="b" x1="17952.8" y1="3176.7" x2="28686.2" y2="3176.7" gradientUnits="userSpaceOnUse"><stop stop-color="#EC6588"/><stop offset="1" stop-color="#E71A80"/></linearGradient><linearGradient id="c" x1="198.132" y1="152.462" x2="247.24" y2="152.462" gradientUnits="userSpaceOnUse"><stop stop-color="#E71A80"/><stop offset="1" stop-color="#EC6588"/></linearGradient></defs></svg>