<svg viewBox="0 0 300 298" fill="none" xmlns="http://www.w3.org/2000/svg"><path fill-rule="evenodd" clip-rule="evenodd" d="M299.4 123.91c-2.57 28.88-27.72 50.64-47.66 48.87-19.94-1.77-40.09-26.6-37.52-55.48 2.56-28.87 26.87-50.84 46.81-49.07 19.94 1.76 40.93 26.81 38.36 55.68Zm-113.1-18.91c-19.98 1.2-43.67-21.27-45.45-50.2-1.77-28.93 19.05-53.37 39.03-54.58 19.98-1.2 43.68 21.27 45.46 50.2 1.77 28.93-19.05 53.37-39.03 54.58Zm-79.16 14.13c-19.1 5.96-45.88-6.8-54.58-34.46-8.7-27.66 3.98-59.75 23.08-65.71 19.1-5.96 44.67 6.8 53.37 34.46 8.7 27.66-2.77 59.75-21.87 65.71Zm-28.71 21.7c12.17 26.32 4.67 57.81-13.51 66.15-18.19 8.35-47.22-2.62-59.38-28.95-12.17-26.33-2.87-58.05 15.32-66.4 18.18-8.33 45.4 2.86 57.57 29.2Zm23.57 53.06c27.25-80.84 64.64-85.8 110.42-27.9a67.57 67.57 0 0 0 19.04 16.74c58.46 33.8 48 89.2.73 90.95a58.8 58.8 0 0 1-16.78-2.05c-18.71-4.81-36.9-3.55-54.21 8.2-59.7 50-119.9-16.31-69.99-67.86a47.83 47.83 0 0 0 10.79-18.08Z" fill="#28AFC9"/></svg>