<svg viewBox="0 0 313 304" fill="none" xmlns="http://www.w3.org/2000/svg"><path fill-rule="evenodd" clip-rule="evenodd" d="M153.15 43.67c28.66 2.95 52.62-29.45 81.13-25.27 30.87 4.52 72.26 17.96 78.1 48.6 6.69 35.08-42.75 57.28-51.3 91.95-5.67 23.06 24.68 49.2 11.64 69.05-13.3 20.27-48.33 5.89-69.07 18.44-21.43 12.97-26.7 46.14-50.5 53.93-24.24 7.94-53.94 2.55-74.04-13.16-19.9-15.55-16.54-46.8-30-68.17-14.23-22.58-42.82-34.63-50.81-60.09-8.82-28.08-6.22-59.36 4.73-86.68 11.7-29.16 27.86-65.78 58.72-71.66 33.65-6.41 57.32 39.54 91.4 43.06Z" fill="#F9EAEF" fill-opacity=".3"/><path d="M123.4 78.26c-7.52 8.86-4.95 24.28 5.01 30.25 12.62 7.53 26.42-4.27 23.57-20.1-.62-3.35-.9-4-3.54-7.78-2.56-3.64-3.16-4.26-5.63-5.65a16.84 16.84 0 0 0-10.23-1.92c-2.57.33-7.3 3.03-9.18 5.2Zm11.24 2.69c3.12.02 4.96.86 6.88 3.18 7.12 8.63.45 22.28-8.73 17.77-8.69-4.23-7.22-20.88 1.85-20.95Zm-56.38 29.96c-1.82 2.61-2.76 7.73-2.16 11.4.46 2.8.83 3.57 3.38 7.22 2.64 3.77 3.16 4.26 6.1 5.98 6.56 3.84 14.19 4 19.95.38 3.9-2.43 5.83-5.05 6.76-9.25 2.2-9.97-5.27-20.06-16.4-22.15-5.16-.97-8.96-.27-13.12 2.47-2.18 1.4-3.68 2.76-4.51 3.95Zm12.48 1.21c4.44-.55 8.75 1.26 11.8 4.93 7.23 8.8-3.04 17.64-13.29 11.44-4.15-2.53-6.5-7.66-5.13-11.43.94-2.49 3.72-4.56 6.62-4.94Zm74.49-21.99c-4.27 5.06-5.91 10.73-4.84 17.12.6 3.91.84 4.42 3.25 7.86 2.15 3.08 3 3.95 4.85 4.97a16.68 16.68 0 0 0 10.02 1.96c2.53-.3 3.3-.66 6.7-3.04 3.6-2.53 3.9-2.86 5.74-6.28 7.3-13.67-1.84-29.97-15.6-27.98a16.3 16.3 0 0 0-10.12 5.39Zm11.98 2.29c3.98.14 6.72 2.44 8 6.66 2 6.42-2.27 14.3-8.21 15.1-5.8.83-10.12-5.25-8.82-12.5.89-4.96 5.23-9.4 9.03-9.26Zm-101.42 62.58a15.09 15.09 0 0 0-2.71 11.55c.44 2.68.86 3.61 2.98 6.64 2.24 3.2 2.73 3.65 6.14 5.53 13.75 7.72 29.95-1.43 28.02-15.77-.3-2.48-.67-3.26-3.08-6.7-2.42-3.37-3.08-4.06-5.52-5.41-5.67-3.24-13-3.84-18.56-1.47a15.56 15.56 0 0 0-7.27 5.63Zm13.25.87c6.18-.97 12.72 3.17 13.47 8.5.32 2.41-1.34 5.84-3.59 7.4-4.8 3.37-13.47 1.63-16.94-3.33-1.58-2.25-1.6-6.03-.02-8.54.93-1.56 4.6-3.65 7.08-4.03Zm36.74-22.07c-4.28 5.13-6.35 13.24-5.1 20.24.67 3.93.65 4.07-1.23 7.52a22.15 22.15 0 0 0-2.67 8.03c-3.03 19.52 15.74 35.08 34.16 28.34 6.33-2.29 12.31-8.49 14.54-14.93l.98-2.95 3.1.09c6.74.16 14.2-3.16 18.8-8.34 7.74-8.78 8.3-21.87 1.39-31.75-5.37-7.66-15.47-11.94-24.66-10.51-4 .6-4.06.59-7.5-1.41-6.22-3.7-15.02-4.43-21.59-1.8-2.99 1.19-8.14 4.98-10.22 7.47Zm15.26-.61c5-1.3 11.4.26 15.54 3.71 2.4 1.98 3.56 2.27 6.26 1.36a17.19 17.19 0 0 1 9.94-.55c5.09 1.14 7.32 2.63 10.45 7.1 2.18 3.1 2.65 4.12 3.15 6.7.78 4.27.21 7.97-1.78 11.69-1.54 2.9-2.06 3.45-5.34 5.75-3.12 2.18-4 2.55-6.62 2.98-1.7.22-4.76.1-6.86-.26-5.12-.93-6.04-.28-7 4.9a25.86 25.86 0 0 1-2.1 6.55c-1.27 2.28-1.91 2.98-5.03 5.17-3.05 2.13-4.08 2.6-6.6 3.02-4.22.7-7.9.04-11.63-2.05-2.95-1.66-3.47-2.14-5.82-5.5-3.09-4.5-3.75-7.15-3.1-12.25.5-3.64 1.54-6.08 3.92-9.15 1.78-2.23 1.9-3.41.87-6.35-1.8-5.03-1.07-11.58 1.7-15.79 2.07-3.1 6.37-6.16 10.05-7.03Z" fill="#fff"/></svg>