<svg xmlns="http://www.w3.org/2000/svg" viewBox="0 0 285.01 208" data-guides="{&quot;vertical&quot;:[],&quot;horizontal&quot;:[]}"><mask x="1.016" y=".999" width="283" height="206" data-from-defs="true" maskUnits="userSpaceOnUse" maskContentUnits="userSpaceOnUse" id="a"><path fill="#fff" d="M1.02 1h283v206h-283v-206"/></mask><path fill="#FAF7F5" d="m27 54.58 9.33 132a9.8 9.8 0 0 0 2.82 6.24 9.23 9.23 0 0 0 6.13 2.72l206.06 9.16a9.2 9.2 0 0 0 6.35-2.2 9.75 9.75 0 0 0 3.32-6l22.9-152.6a9.98 9.98 0 0 0-2.3-7.93 9.12 9.12 0 0 0-7.4-3.2l-238.3 11.45a9.14 9.14 0 0 0-6.57 3.24 9.74 9.74 0 0 0-2.33 7.12Z" mask="url(#a)"/><path fill="#FAF7F5" d="M196.96 42.08a15.08 15.08 0 0 0 9.76-18.66 14.44 14.44 0 0 0-18.26-9.72 15.08 15.08 0 0 0-9.75 18.66 14.45 14.45 0 0 0 18.25 9.72Zm-156.87 84.98c-3.03 12.06-14.08 19.53-24.66 16.7-10.57-2.84-16.68-14.93-13.65-27 3.04-12.04 14.09-19.52 24.66-16.68 10.58 2.84 16.7 14.92 13.65 26.98Z" mask="url(#a)"/><path fill="#F6A6BF" d="M255.46 129.28c-.93 0-1.8-.41-2.38-1.13a3.24 3.24 0 0 1-.7-2.6l14.05-93.74c.5-3.4-.5-6.85-2.72-9.46a11.17 11.17 0 0 0-4-2.93 10.85 10.85 0 0 0-4.83-.88l-41.2 1.98a3.04 3.04 0 0 1-2.25-.84 3.22 3.22 0 0 1-1.02-2.23 3.3 3.3 0 0 1 .82-2.32c.55-.62 1.33-1 2.16-1.05l41.2-1.98a17.13 17.13 0 0 1 13.78 5.95 18.51 18.51 0 0 1 4.25 14.77c-4.7 31.24-9.38 62.49-14.07 93.73a3.24 3.24 0 0 1-1.05 1.95c-.57.5-1.3.78-2.04.78Zm-46.3 63.32h-.13l-172.98-7.7c-4.3-.2-8.35-2-11.37-5.05a18.22 18.22 0 0 1-5.24-11.58l-1.12-15.95c-.1-.86.16-1.72.7-2.4a3.05 3.05 0 0 1 4.48-.34 3.23 3.23 0 0 1 1.04 2.28l1.13 15.92c.2 2.8 1.4 5.46 3.36 7.43a11 11 0 0 0 7.3 3.24l172.98 7.7c.83.02 1.62.38 2.19 1a3.3 3.3 0 0 1-.1 4.55c-.6.58-1.4.9-2.23.9Zm-192.65-106.82c-.8 0-1.55-.31-2.13-.87a3.26 3.26 0 0 1-.98-2.12l-2.6-36.83c-.17-2.4.13-4.8.87-7.07a18.11 18.11 0 0 1 3.47-6.16 17.48 17.48 0 0 1 5.52-4.28 17 17 0 0 1 6.7-1.74l139.48-6.7a3 3 0 0 1 2.3.8c.65.58 1.03 1.4 1.07 2.26a3.3 3.3 0 0 1-.85 2.36c-.58.63-1.38 1-2.23 1.02l-139.5 6.7a10.88 10.88 0 0 0-7.82 3.86 11.6 11.6 0 0 0-2.8 8.48l2.6 36.83c.07.85-.2 1.7-.74 2.34a3.1 3.1 0 0 1-2.13 1.1l-.23.02Zm174.33-54.08c-3.2 0-6.3-1.03-8.85-2.96a15.37 15.37 0 0 1-5.43-7.8c-.82-2.92-.8-6.03.08-8.95.87-2.91 2.55-5.5 4.83-7.43a14.71 14.71 0 0 1 16.53-1.82c1.75.92 3.3 2.19 4.56 3.74a15.3 15.3 0 0 1 2.8 5.28 15.9 15.9 0 0 1-1.16 11.75 15.1 15.1 0 0 1-13.36 8.19Zm.27-24.25c-.91 0-1.82.14-2.68.42a8.79 8.79 0 0 0-5.2 4.32 9.27 9.27 0 0 0-.72 6.85 9.03 9.03 0 0 0 4.35 5.15 8.58 8.58 0 0 0 6.6.57 8.89 8.89 0 0 0 5.13-4.32 9.37 9.37 0 0 0 .78-6.78 8.61 8.61 0 0 0-8.26-6.22m-167.12 130.16c-1.65 0-3.3-.2-4.9-.64a19.8 19.8 0 0 1-7.5-3.94c-2.21-1.87-4-4.18-5.26-6.78a25.91 25.91 0 0 1-1.81-17.63c1.49-5.9 5-11.06 9.9-14.5a19.45 19.45 0 0 1 16.2-2.92c11.25 3.04 17.78 15.75 14.6 28.36-2.75 10.79-11.68 18.06-21.23 18.05Zm1.74-40.57a14 14 0 0 0-7.87 2.5c-3.63 2.6-6.2 6.4-7.28 10.73a19.32 19.32 0 0 0 1.28 13.03c.86 1.8 2.1 3.4 3.63 4.7a13.76 13.76 0 0 0 5.18 2.75c7.89 2.13 16.18-3.62 18.5-12.8 2.3-9.16-2.22-18.35-10.11-20.47-1.1-.3-2.2-.44-3.33-.44Z" mask="url(#a)"/><path fill="#FAF7F5" d="M273.37 181.6c-.08 14.09-10.16 25.47-22.53 25.4-12.36-.07-22.32-11.56-22.24-25.65.08-14.1 10.16-25.46 22.52-25.4 12.36.08 22.32 11.57 22.25 25.66Z" mask="url(#a)"/><path fill="#F6A6BF" d="M250.02 198.07h-.12a21.72 21.72 0 0 1-9.12-2.12 22.37 22.37 0 0 1-7.48-5.8 27.94 27.94 0 0 1-6.63-18.53c.07-14.46 10.56-26.17 23.4-26.17h.12c3.15.03 6.26.76 9.12 2.12a22.34 22.34 0 0 1 7.47 5.8 27.95 27.95 0 0 1 6.64 18.53c-.08 14.45-10.56 26.17-23.4 26.17Zm.04-46.18c-9.4 0-17.1 8.86-17.15 19.76a21.41 21.41 0 0 0 5.05 14.2 16.2 16.2 0 0 0 5.4 4.2c2.06 1 4.3 1.54 6.58 1.57h.09c9.4 0 17.09-8.87 17.15-19.77a21.39 21.39 0 0 0-5.06-14.2 16.17 16.17 0 0 0-5.38-4.2c-2.07-1-4.31-1.52-6.6-1.56h-.08Z" mask="url(#a)"/></svg>