<svg viewBox="0 0 60 60" fill="none" xmlns="http://www.w3.org/2000/svg"><path d="M33.57.16a7.1 7.1 0 0 0-3.8 2.05 9.12 9.12 0 0 0-2.48 4.35c-.22.9-.2 3.23.04 4.34.1.48.23 1.18.27 1.55l.08.65-.56.08a21.42 21.42 0 0 0-8.83 3.23c-1.2.8-2.94 2.4-3.6 3.29-.29.4-.46.55-.56.47-.31-.27-2.05-.85-3.03-1.03-1.27-.23-1.71-.17-2.45.3-.62.4-1.16 1.35-1.4 2.45-.22 1.08-.07 4.43.3 6.42a66.17 66.17 0 0 0 1.32 5.56c.1.24-.02.56-.67 1.81l-.76 1.53-.64-.09c-.86-.09-2.98-.11-3.23-.02-.29.12-.55.73-.46 1.1.14.65.4.74 2.06.84.84.04 1.56.1 1.58.14.04.02 0 .2-.07.38-.21.53-.59 2.94-.59 3.7 0 .69 0 .7-.37.83-.21.08-.84.36-1.4.63-1 .51-1.27.8-1.27 1.35 0 .3.6.92.91.92.14 0 .68-.2 1.2-.47 1.04-.49 1.16-.48 1.17.12.01.16.2.87.44 1.58l.44 1.28-1.01 1a6.4 6.4 0 0 0-1.37 1.78c-1.43 2.96-.72 5.32 2.03 6.68 1.45.72 2.82.96 5.39.97 2.46 0 3.24-.16 5.07-1.05l1.1-.53 1.36.35c3.5.9 6.24 1.23 10.28 1.23 4.04 0 6.77-.33 10.28-1.23l1.36-.35 1.1.52c1.83.9 2.61 1.06 5.07 1.06 2.56-.01 3.88-.25 5.37-.96 2.75-1.35 3.48-3.72 2.05-6.7a6.44 6.44 0 0 0-1.38-1.77l-1.02-1.02.23-.57c.12-.31.35-1.06.5-1.67.16-.61.31-1.13.33-1.15a4 4 0 0 1 1 .42 4.7 4.7 0 0 0 1.2.48c.3 0 .92-.6.92-.92 0-.55-.27-.84-1.28-1.35-.55-.27-1.18-.55-1.38-.63-.37-.13-.39-.14-.39-.82a19 19 0 0 0-.58-3.7c-.07-.2-.1-.37-.07-.4.02-.03.74-.09 1.58-.13 1.66-.1 1.92-.2 2.06-.84.08-.37-.17-.98-.47-1.1-.24-.1-2.36-.07-3.22.02l-.64.09-.75-1.51-.74-1.52.42-1.53c1.8-6.61 1.91-11.25.26-12.9-.68-.68-1.33-.85-2.55-.66-.98.15-2.21.53-3 .93l-.49.25-.4-.57a18.1 18.1 0 0 0-3.63-3.3c-2-1.33-4.65-2.43-7.02-2.9l-1.09-.22-.13-1.28c-.08-.7-.22-1.72-.34-2.27-.22-1.1-.17-1.76.17-2.44.3-.61.96-1.16 1.47-1.27.73-.13 1.98.32 3.2 1.15.75.52 1.3.7 2.03.7 2.23 0 3.6-2.28 2.62-4.3-.24-.51-.5-.8-1.1-1.24-1-.74-2.87-1.67-4-1.98-1.13-.31-3.09-.4-4.04-.19Zm3.92 2.25c1.02.34 2.63 1.23 3.2 1.77.4.39.43.93.08 1.37-.35.45-.95.43-1.64-.08a10.3 10.3 0 0 0-3.1-1.38 3.89 3.89 0 0 0-4.32 2.1c-.7 1.29-.78 2.2-.43 4.06.13.65.27 1.53.3 1.96l.08.8h-1.99l-.07-.68c-.05-.37-.19-1.26-.33-1.96-.42-2.28-.1-4.04 1.03-5.72 1.65-2.4 4.25-3.2 7.19-2.24Zm-4.76 12.77c4.51.58 8.45 2.56 10.88 5.46l.45.55-.85.5c-.46.27-1.47.92-2.23 1.42l-1.38.93-.85-.34a22.2 22.2 0 0 0-9.45-1.63c-2.86.08-5.29.57-7.75 1.55l-1.02.4-1.09-.73c-.6-.41-1.62-1.06-2.24-1.43l-1.13-.68.34-.43c.9-1.13 2.32-2.3 3.86-3.22 3.44-2.04 8.14-2.92 12.46-2.35Zm-21.52 6.03c.54.13 1.3.38 1.7.56 1.13.52 3.67 2 5.54 3.25a8.03 8.03 0 0 0 1.96 1.11c.17 0 .7-.16 1.16-.36a20.32 20.32 0 0 1 9.13-1.71c2.9.1 4.82.5 7.44 1.56.72.28 1.45.51 1.63.51.21 0 .75-.29 1.57-.86 4.18-2.88 8.09-4.7 9.04-4.19.6.33.83 2.81.5 5.4a48.13 48.13 0 0 1-1.27 5.9c-.63 2.12-.63 2.1.07 3.32.31.57.66 1.23.76 1.46l.17.41-1.36.4c-1.55.44-4.13 1.67-4.77 2.26-.44.42-.51.74-.28 1.17.38.72.87.72 2.16-.02 1.6-.93 4.75-2.06 4.98-1.8.2.23.82 3.7.68 3.84-.02.02-.55-.04-1.16-.13-1.4-.2-3.74-.34-4.14-.24-.33.09-.67.6-.67 1.01 0 .14.15.4.33.58.3.3.4.32 1.73.4 1.39.08 3.66.37 3.8.49.07.1-.2 1.37-.5 2.26-.27.83-.15.8-1.43.44a9.76 9.76 0 0 0-3.87 0c-3.49.9-6.25 4.16-6 7.07.05.42.1.91.14 1.08.09.3.06.3-1.3.6a33.8 33.8 0 0 1-8.9.96 34 34 0 0 1-8.87-.95c-1.38-.3-1.4-.32-1.32-.61.04-.17.1-.66.14-1.08.26-2.94-2.46-6.14-6-7.08a9.76 9.76 0 0 0-3.86.01c-1.25.34-1.16.37-1.37-.27a12.2 12.2 0 0 1-.57-2.22c0-.2.13-.26.8-.37a25.3 25.3 0 0 1 3.63-.37c.67 0 .79-.04 1.1-.34.18-.19.33-.46.33-.6 0-.4-.34-.92-.67-1-.4-.11-2.74.03-4.13.23-.61.1-1.14.15-1.16.13-.14-.14.48-3.61.68-3.85.23-.25 3.37.88 4.98 1.8 1.29.75 1.78.75 2.15.03.4-.71-.02-1.2-1.81-2.1a19.15 19.15 0 0 0-3.99-1.57l-.6-.14.17-.42c.1-.24.43-.89.75-1.45a4.8 4.8 0 0 0 .59-1.35c0-.19-.22-1.07-.48-1.97a47.63 47.63 0 0 1-1.3-6.17c-.18-1.62-.09-4.14.18-4.67.37-.68.4-.69 1.8-.35Zm2.51 29.02c2.56.75 4.64 3.29 4.28 5.23-.15.81-1.43 1.83-2.65 2.11l-.3.07v-1.5c0-1.44 0-1.53-.27-1.81a.97.97 0 0 0-1.43 0c-.25.27-.28.4-.32 1.55-.05 1.65-.07 1.75-.55 1.98-.34.16-.44.16-.77.03-.54-.22-.7-.7-.7-2.13 0-1.07-.02-1.22-.25-1.47-.37-.38-1.02-.36-1.4.04-.27.28-.28.37-.28 1.8v1.51l-.3-.07c-1.23-.28-2.48-1.26-2.64-2.08-.21-1.14.3-2.42 1.4-3.53a6.03 6.03 0 0 1 4.48-1.92c.64 0 1.32.07 1.7.19Zm35.98 0c2.14.63 4.1 2.6 4.29 4.32.1.82-.05 1.33-.56 1.88-.43.45-1.39.98-2.1 1.14l-.3.07v-1.5c0-1.44 0-1.53-.28-1.81a1 1 0 0 0-1.38-.05c-.24.24-.27.35-.27 1.47 0 1.44-.15 1.92-.69 2.14-.33.13-.43.13-.77-.03-.48-.23-.5-.33-.55-1.98-.04-1.14-.07-1.28-.32-1.55a.97.97 0 0 0-1.43 0c-.27.28-.28.37-.28 1.8l.01 1.51-.3-.07a4.9 4.9 0 0 1-2.16-1.23c-.67-.77-.7-1.74-.12-2.94a6.55 6.55 0 0 1 3.65-3.08 6.94 6.94 0 0 1 3.56-.1Z" fill="#241D50"/><path d="M18.06 35.29c-1.13.29-1.67.56-1.88.93-.31.57.17 1.4.81 1.4.18 0 .62-.1 1.01-.25a7.34 7.34 0 0 1 1.71-.3c1.71-.1 2.56.36 3.22 1.8.21.47.5.9.63.97.4.21.82.13 1.19-.23.43-.43.41-.79-.1-1.82a4.85 4.85 0 0 0-2.96-2.56 8.13 8.13 0 0 0-3.63.06Zm19.36-.07c-1.6.49-3.13 2.17-3.3 3.63-.04.43 0 .55.25.8.59.6 1.42.29 1.72-.63.21-.63.99-1.5 1.59-1.77.65-.3 1.99-.29 3.04.03 1.34.4 1.64.4 1.98.06.3-.3.39-.77.24-1.19-.1-.27-.81-.6-1.88-.88a8.73 8.73 0 0 0-3.64-.05Zm-9.94 5.96c-1.04.5-1.58 1.51-1.32 2.5.09.4.35.77 1.06 1.54.53.55 1.15 1.14 1.39 1.3l.44.3.01 1.75c0 1.6-.02 1.82-.26 2.29-.15.28-.4.6-.57.74-.64.47-1.69.47-2.32 0-.62-.47-.75-.79-.83-1.98-.07-1-.1-1.16-.34-1.35-.45-.36-1.02-.33-1.38.08-.24.26-.27.42-.27 1.34 0 1.33.29 2.17 1.04 2.96a3.94 3.94 0 0 0 5.55.32l.4-.34.26.27a3.95 3.95 0 0 0 5.65-.25c.75-.8 1.04-1.63 1.04-2.96 0-.92-.03-1.08-.26-1.34a.98.98 0 0 0-1.4-.08c-.23.19-.26.35-.33 1.35-.08 1.2-.21 1.5-.83 1.98-.64.47-1.68.47-2.32 0a2.59 2.59 0 0 1-.57-.74c-.24-.47-.27-.68-.27-2.29l.02-1.75.44-.3c.24-.16.86-.75 1.38-1.3.72-.77.98-1.13 1.07-1.53.22-.86-.15-1.74-.96-2.3-.46-.32-.46-.32-2.81-.34-1.84-.02-2.44 0-2.71.13Zm4.47 1.96c.1.17-1.61 1.86-1.9 1.86-.27 0-1.98-1.69-1.88-1.86.06-.09.66-.13 1.89-.13s1.83.04 1.89.13Z" fill="#241D50"/></svg>