<svg viewBox="0 0 15 19" fill="none" xmlns="http://www.w3.org/2000/svg"><path fill-rule="evenodd" clip-rule="evenodd" d="M3.08 3a6.23 6.23 0 0 1 10.67 4.46c0 2.87-1.6 5.48-3.26 7.4a21.56 21.56 0 0 1-2.99 2.84c-.18-.13-.42-.33-.72-.58-.81-.7-1.57-1.45-2.27-2.26-1.66-1.92-3.26-4.53-3.26-7.4 0-1.67.66-3.27 1.83-4.45Zm4.12 15.78.3-.43.3.43a.52.52 0 0 1-.6 0Zm0 0 .3-.43.3.43.02-.02.07-.04.22-.17.79-.64a22.6 22.6 0 0 0 2.38-2.37c1.72-1.99 3.51-4.83 3.51-8.08a7.35 7.35 0 0 0-7.29-7.33 7.27 7.27 0 0 0-7.3 7.33c0 3.25 1.8 6.1 3.52 8.08a22.6 22.6 0 0 0 3.46 3.22l.01.01.01.01Zm-1.78-11.36a2.08 2.08 0 1 1 4.16 0 2.08 2.08 0 0 1-4.16 0Zm2.08-3.13a3.13 3.13 0 1 0 0 6.25 3.13 3.13 0 0 0 0-6.25Z" fill="#F6A6BF"/></svg>