<svg viewBox="0 0 40 40" fill="none" xmlns="http://www.w3.org/2000/svg"><path d="M7.42 40h23.2a4.29 4.29 0 0 0 4.3-4.29v-19.03a5.3 5.3 0 0 0 4.27-8.09l-1.25-2.02a5.3 5.3 0 0 0-4.5-2.52h-3.6v-1.58a2.46 2.46 0 0 0-2.46-2.47 6.11 6.11 0 0 0-6.1 6.12v8.64a10.7 10.7 0 0 0-7.39 3.95c-1.95 2.35-3.1 5.41-3.8 8.36a42.76 42.76 0 0 0-1.02 10.43h-1.65a4.93 4.93 0 0 1-3.6-8.3l2.3-2.46a8.97 8.97 0 0 0-.21-12.46l-2.26-2.26a1.25 1.25 0 1 0-1.77 1.77l2.26 2.26a6.47 6.47 0 0 1 .16 8.98l-2.3 2.47a7.43 7.43 0 0 0 5.42 12.5Zm19.93-37.5v2.8a1.25 1.25 0 0 0 1.25 1.25h4.83c.97 0 1.87.5 2.38 1.33l1.26 2.03a2.8 2.8 0 0 1-2.38 4.28h-1.03a1.25 1.25 0 0 0-1.25 1.25v20.27c0 .99-.8 1.79-1.79 1.79h-1.79v-1.79a7.33 7.33 0 0 0-7.32-7.33h-2.54a1.25 1.25 0 0 0 0 2.5h2.54a4.83 4.83 0 0 1 4.83 4.83v1.79h-14.77a42.57 42.57 0 0 1 .96-9.87c.64-2.76 1.68-5.4 3.28-7.32a8.3 8.3 0 0 1 6.71-3.11 1.25 1.25 0 0 0 1.25-1.25v-9.83c0-1.99 1.6-3.6 3.58-3.62Z" fill="#F6A6BF"/></svg>