<svg viewBox="0 0 45 45" fill="none" xmlns="http://www.w3.org/2000/svg"><path d="M11.9 3.48c-2.74.4-4.65 1.13-6.47 2.5a13.68 13.68 0 0 0-5.11 13.85c.47 2.32 1.7 4.7 3.26 6.37.44.47 3.8 3.28 9.38 7.85l9 7.32c.42.29.71.26 1.22-.12.22-.18 4.18-3.4 8.78-7.17 5.97-4.88 8.6-7.1 9.23-7.74a13.58 13.58 0 0 0 3.55-6.83c.3-1.33.3-3.86 0-5.18a13.96 13.96 0 0 0-3.27-6.57 12.6 12.6 0 0 0-7.1-4.08 15.94 15.94 0 0 0-4.97-.04 12.92 12.92 0 0 0-6.24 3.01l-.71.62-.65-.6a12.65 12.65 0 0 0-5.97-2.99c-.82-.16-3.26-.3-3.92-.2Zm3.01 1.85c.51.07 1.33.26 1.83.43a10.5 10.5 0 0 1 4.43 2.72c.92.87.99.92 1.34.92.35 0 .41-.04 1.25-.87a10.86 10.86 0 0 1 5.77-3.13c1.03-.23 3.43-.23 4.47 0a11 11 0 0 1 5.9 3.27c.92.95 1.47 1.71 2.01 2.78 1.38 2.7 1.67 6.13.75 9.06a11.22 11.22 0 0 1-2.74 4.66c-.33.34-4.38 3.71-9.02 7.5l-8.42 6.89-.41-.34-8.59-7.03a235.6 235.6 0 0 1-8.7-7.27 12.08 12.08 0 0 1-2.78-5.57 14.69 14.69 0 0 1 0-4.92 11.8 11.8 0 0 1 1.93-4.43c.59-.82 1.72-2 2.44-2.54a11.32 11.32 0 0 1 8.54-2.13Z" fill="#F6A6BF"/><path d="M17.53 10.93a3.53 3.53 0 0 0-2.3 4.96 4.25 4.25 0 0 0 1.69 1.64c.47.24.61.26 1.45.27.82 0 .97-.03 1.43-.24a4.03 4.03 0 0 0 1.76-1.73c.25-.54.28-.64.27-1.46 0-1.12-.2-1.69-.87-2.4a3.48 3.48 0 0 0-3.43-1.04Zm1.84 1.96c.69.49.94 1.42.59 2.18-.67 1.45-2.86 1.3-3.27-.24-.18-.7.07-1.52.6-1.9a1.84 1.84 0 0 1 2.08-.04Zm6.47-1.99a3.55 3.55 0 0 0-2.4 1.93c-.26.53-.28.64-.28 1.5 0 .85.02.96.27 1.49a3.55 3.55 0 0 0 4.13 1.9 3.6 3.6 0 0 0 2.33-2.14 3.71 3.71 0 0 0-.48-3.39 3.73 3.73 0 0 0-3.57-1.3Zm1.45 1.84c.71.31 1.19 1.15 1.05 1.84a1.75 1.75 0 0 1-2.92 1.04c-.39-.34-.55-.72-.55-1.3 0-1.27 1.28-2.1 2.42-1.58Zm-15.56 3.99c-.92.3-1.55.84-1.92 1.63-.27.6-.27 2 .02 2.57.32.66.76 1.1 1.4 1.41.53.27.66.3 1.38.3.73 0 .84-.03 1.35-.3a3.03 3.03 0 0 0-.04-5.43 3.52 3.52 0 0 0-2.19-.18Zm1.4 1.76c.85.35.98 1.64.21 2.17-.35.26-.93.32-1.27.13-.49-.24-.73-.62-.73-1.12 0-1 .87-1.56 1.8-1.18Zm18.14-1.68a3.1 3.1 0 0 0-1.75 1.8 3.18 3.18 0 0 0 .71 3.19 3.1 3.1 0 0 0 4.62-.39 3.2 3.2 0 0 0 .32-2.98 3.63 3.63 0 0 0-1.5-1.53 3.18 3.18 0 0 0-2.4-.09Zm1.79 1.76c.82.55.77 1.75-.11 2.19-1.1.57-2.3-.7-1.66-1.76a1.27 1.27 0 0 1 1.77-.43Zm-11.33.95a8.75 8.75 0 0 0-7.51 6.46c-.16.56-.2.92-.2 1.93 0 1.2 0 1.23.28 1.82.54 1.14 1.7 2 2.9 2.17.37.06 1.2 0 3-.17l2.47-.26 2.05.22c2.58.28 3.39.3 4 .06a3.78 3.78 0 0 0 2.24-2.03c.68-1.44.3-4.06-.88-6.02a10.8 10.8 0 0 0-2.22-2.47 8.7 8.7 0 0 0-6.13-1.71Zm2.57 1.93c3 .73 5.23 3.5 5.23 6.5 0 .91-.2 1.38-.77 1.82-.61.46-.87.47-3.64.2l-2.48-.26-2.5.25c-2.16.22-2.55.25-2.92.15-.94-.24-1.49-1.03-1.49-2.12a6.89 6.89 0 0 1 8.57-6.54Z" fill="#F6A6BF"/></svg>