<svg viewBox="0 0 30 30" fill="none" xmlns="http://www.w3.org/2000/svg"><path d="M15 9a6 6 0 1 0-.02 12 6 6 0 0 0 .02-12Zm0 9.9a3.91 3.91 0 0 1 0-7.8 3.91 3.91 0 0 1 0 7.8Zm6.25-11.56a1.4 1.4 0 1 0 0 2.8 1.4 1.4 0 0 0 0-2.8Zm5.46 7.66c0-1.62.02-3.22-.07-4.83-.1-1.88-.52-3.54-1.9-4.91-1.37-1.38-3.03-1.8-4.9-1.9-1.62-.08-3.22-.07-4.84-.07-1.62 0-3.22-.01-4.83.08-1.88.09-3.54.51-4.91 1.89-1.38 1.37-1.8 3.03-1.9 4.9-.08 1.62-.07 3.23-.07 4.84 0 1.61-.01 3.22.08 4.83.09 1.88.52 3.54 1.89 4.91 1.37 1.38 3.03 1.8 4.9 1.9 1.63.08 3.23.07 4.84.07 1.62 0 3.22.01 4.84-.08 1.87-.09 3.53-.51 4.9-1.89 1.38-1.37 1.8-3.03 1.9-4.9.09-1.62.07-3.22.07-4.84Zm-2.58 6.9c-.21.54-.47.94-.88 1.35-.41.41-.81.67-1.34.88-1.54.62-5.2.48-6.91.48-1.7 0-5.37.14-6.91-.47a3.72 3.72 0 0 1-1.34-.89c-.42-.41-.67-.8-.89-1.34-.6-1.54-.47-5.2-.47-6.91 0-1.7-.14-5.37.47-6.91.22-.53.47-.93.89-1.34.4-.41.8-.67 1.34-.89 1.54-.6 5.2-.47 6.9-.47 1.72 0 5.38-.14 6.92.47.53.22.93.47 1.34.89.41.41.67.8.89 1.34.6 1.54.47 5.2.47 6.91 0 1.7.14 5.37-.48 6.9Z" fill="#fff"/></svg>