<svg viewBox="0 0 187 36" fill="none" xmlns="http://www.w3.org/2000/svg"><path fill-rule="evenodd" clip-rule="evenodd" d="M170.94 23.4c.17-1.76.7-3.47 1.54-5.03a3.14 3.14 0 0 1 2.99-1.8 2.82 2.82 0 0 1 2.48 2.2c.47 1.69.57 3.45.29 5.18a13.18 13.18 0 0 1-1.52 5.08 3.1 3.1 0 0 1-2.97 1.75 2.82 2.82 0 0 1-2.48-2.23 12.24 12.24 0 0 1-.33-5.14Zm15.95 1.18a11.35 11.35 0 0 0-6.2-11.85 11.3 11.3 0 0 0-4.6-1.2 12.6 12.6 0 0 0-9.21 2.93 12.28 12.28 0 0 0-4.6 8.32 11.32 11.32 0 0 0 6.24 11.86c1.44.72 3.01 1.12 4.62 1.19 3.34.31 6.66-.73 9.25-2.9a12.37 12.37 0 0 0 4.5-8.35Zm-26.1 6.98c-3.31-2.22-5.38-4.83-6.2-7.83 3.75-1.8 5.77-3.96 6.07-6.48a5.2 5.2 0 0 0-1.1-4.05 4.86 4.86 0 0 0-3.91-1.62c-1.2 0-2.36.36-3.34 1.04a3.07 3.07 0 0 0-1.63 2.2l.4.72c.29.48.53.98.72 1.5.2.62.18 1.27-.04 1.87-.29.81-.84 1.5-1.56 1.94-.87.57-1.84.95-2.86 1.12l.53-3.69a6.58 6.58 0 0 0-1.12-4.99 5.1 5.1 0 0 0-4.2-1.84 6.76 6.76 0 0 0-3.47 1 5.25 5.25 0 0 0-2.24 2.2.45.45 0 0 0-.04.33l.08.16a27.64 27.64 0 0 0 .97.67c.46.48.73 1.11.77 1.78.2 1.29.2 2.6.03 3.89l-1.81 13.35v.1l.13.08h8.44a.27.27 0 0 0 .18-.18l1.27-9.22a5 5 0 0 1 .8-.09 291.1 291.1 0 0 1 .11 2.32c0 .28.05.72.13 1.32a9.6 9.6 0 0 0 1.38 3.99c.31.36.64.7 1 1.03.37.37.82.65 1.31.83a10.08 10.08 0 0 0 3.93.6 8.02 8.02 0 0 0 5.23-2.48c.3-.25.5-.6.57-.97-.1-.26-.29-.47-.53-.6Zm-28.26-5.67c.24-2.07.88-6.53 1.94-13.36v-.1l-.13-.13h-8.84l-.22.27-1.5 12.37a7.43 7.43 0 0 1-1.14 3.15c-.73 1.17-1.49 1.68-2.28 1.53-.8-.15-1.1-1.02-.92-2.6l1.05-8.73a6.15 6.15 0 0 0-1.3-4.97 5.65 5.65 0 0 0-4.41-1.87 6.65 6.65 0 0 0-3.45 1.01 5.26 5.26 0 0 0-2.22 2.18.42.42 0 0 0-.05.27c.02.09.07.17.14.23.2.15.42.28.66.38.34.19.63.47.83.81.31.55.51 1.17.57 1.8.12 1.12.1 2.24-.04 3.35l-.84 7.02a7.3 7.3 0 0 0 1.13 5.35 4.8 4.8 0 0 0 4.01 2.07 7.75 7.75 0 0 0 4.04-1.26 11.45 11.45 0 0 0 3.7-3.91c.03 1.43.61 2.8 1.62 3.8a5.22 5.22 0 0 0 3.74 1.37 6.66 6.66 0 0 0 3.45-1.01 5.26 5.26 0 0 0 2.28-2.34l-.01-.17a.42.42 0 0 0-.2-.26c-.23-.15-.5-.35-.84-.6a2.88 2.88 0 0 1-.77-1.74 14.3 14.3 0 0 1 0-3.92Zm-27.2-24.61c-.22.11-.43.25-.64.4a8.33 8.33 0 0 1-3.3 1.42c-.95.2-1.93.28-2.91.24-2.02-.1-4.02-.4-5.98-.9a35.33 35.33 0 0 0-6.77-.94h-1.01c-3.9.12-6.77 1.53-8.61 4.23-.94 1.38-1.34 2.53-1.19 3.46.06.33.2.47.44.4.3-.16.6-.34.9-.53a9.72 9.72 0 0 1 2.4-1c1.17-.31 2.38-.47 3.6-.45 1.99.07 3.96.32 5.9.75 2.12.43 4.25.73 6.4.87 5.01.12 8.45-1.12 10.33-3.73a4.4 4.4 0 0 0 1.01-3.65c-.11-.5-.3-.7-.57-.57Zm-.4 24.56.84-7.02a7.16 7.16 0 0 0-1.08-5.35 4.84 4.84 0 0 0-4.06-2.07c-1.46.04-2.88.5-4.1 1.3a11.1 11.1 0 0 0-3.72 4.05 6.13 6.13 0 0 0-1.65-3.91 4.82 4.82 0 0 0-3.53-1.44 7.9 7.9 0 0 0-4.05 1.26c-1.53.97-2.8 2.32-3.69 3.91a5.62 5.62 0 0 0-1.6-3.8 5.2 5.2 0 0 0-3.76-1.37 6.76 6.76 0 0 0-3.47 1.01 4.95 4.95 0 0 0-2.26 2.34.42.42 0 0 0 .08.32 22.23 22.23 0 0 1 .96.72c.45.46.71 1.08.76 1.72.16 1.3.15 2.62-.03 3.92a454.2 454.2 0 0 1-1.89 13.36v.09l.13.13h8.84a.57.57 0 0 0 .15-.1.21.21 0 0 0 .07-.17l1.45-12.05a9.1 9.1 0 0 1 1.14-3.47c.76-1.16 1.52-1.67 2.29-1.52.85.15 1.17 1.02.96 2.6-.06.78-.17 1.85-.35 3.2a558.16 558.16 0 0 0-1.32 11.38l.13.13h8.84l.15-.1a.22.22 0 0 0 .07-.17l1.01-11.24.09-.81a7.9 7.9 0 0 1 1.14-3.47c.76-1.17 1.53-1.68 2.29-1.53.85.15 1.17 1.02.96 2.61l-1.05 8.73a6.16 6.16 0 0 0 1.3 4.97 5.6 5.6 0 0 0 4.37 1.87 6.77 6.77 0 0 0 3.47-1.01 5.04 5.04 0 0 0 2.2-2.14.38.38 0 0 0-.05-.52c-.2-.17-.42-.3-.66-.4a2.13 2.13 0 0 1-.83-.81 4.83 4.83 0 0 1-.6-1.8c-.12-1.12-.1-2.24.07-3.35Zm-53.47-2.43c.17-1.77.69-3.49 1.53-5.04a3.14 3.14 0 0 1 3-1.8 2.82 2.82 0 0 1 2.48 2.2c.47 1.68.57 3.45.28 5.17a13.18 13.18 0 0 1-1.52 5.08 3.1 3.1 0 0 1-2.96 1.76 2.83 2.83 0 0 1-2.48-2.23 12.26 12.26 0 0 1-.33-5.14Zm15.95 1.17a11.37 11.37 0 0 0-6.2-11.85 11.43 11.43 0 0 0-4.61-1.2 12.6 12.6 0 0 0-9.2 2.93 12.28 12.28 0 0 0-4.6 8.32 11.32 11.32 0 0 0 6.23 11.86c1.44.72 3.02 1.12 4.62 1.19 3.34.31 6.67-.73 9.25-2.9a12.37 12.37 0 0 0 4.5-8.35Zm-25.88 5.72a10.44 10.44 0 0 1-3.4-2.25c-.92-.86-1.7-1.85-2.34-2.93-.55-.97-1.01-2-1.38-3.06a14.68 14.68 0 0 1-.92-3.47c4.65-2.33 7.24-5.63 7.77-9.9a6.57 6.57 0 0 0-1.16-4.9 5.04 5.04 0 0 0-4.25-2.02c-.94 0-1.87.2-2.74.56-.77.28-1.48.7-2.11 1.24-.48.45-.64.78-.46.99a5.97 5.97 0 0 1 1.1 3.49 9.63 9.63 0 0 1-.68 3.84 8.4 8.4 0 0 1-2.16 3.1 4.56 4.56 0 0 1-3.14 1.31l1.59-13.14a.18.18 0 0 0 0-.18l-.14-.04h-.04l-.1-.05c-.75-.3-1.68-.62-2.78-.96-1.1-.35-2.81-.75-5.14-1.22a34.87 34.87 0 0 0-6.55-.72 17 17 0 0 0-6.26 1.22 10.15 10.15 0 0 0-4.97 3.89 7.63 7.63 0 0 0-1.25 3.53 8.06 8.06 0 0 0 .57 3.87 6.94 6.94 0 0 0 2.49 3.13 7.7 7.7 0 0 0 6.41 1.21c.85-.23 1.67-.57 2.44-1.01.6-.33 1.12-.76 1.56-1.28.32-.37.56-.81.7-1.28a.65.65 0 0 0-.13-.66c-.14-.12-.4-.3-.75-.54-.32-.21-.6-.49-.83-.8a2.42 2.42 0 0 1-.79-2.05 4.06 4.06 0 0 1 2.86-3.49c.99-.33 2.05-.4 3.07-.18-.03.3-.66 4.87-1.89 13.7a653.06 653.06 0 0 0-2.07 15.72l.14.05h9.36a.24.24 0 0 0 .18-.06.25.25 0 0 0 .08-.17l1.63-13.67c.7-.1 1.11-.15 1.23-.18.09 2.52.18 4.07.27 4.67.38 3.54 1.33 6.23 2.85 8.06 1.53 1.83 3.78 2.58 6.77 2.25a5.81 5.81 0 0 0 3.34-1.58 7.24 7.24 0 0 0 1.93-2.63c.32-.86.35-1.33.08-1.42Z" fill="#F6A6BF"/></svg>