<svg viewBox="0 0 90 90" fill="none" xmlns="http://www.w3.org/2000/svg"><path d="M32.99 16.74c-2.93 5-.36 12.32 5.03 14.37 6.83 2.59 12.59-4.4 9.84-11.9-.59-1.6-.78-1.9-2.4-3.5-1.56-1.57-1.91-1.82-3.24-2.28a8.38 8.38 0 0 0-5.18-.05 9.74 9.74 0 0 0-4.05 3.36Zm-19.35 19.94c-.66 1.43-.69 4.02-.08 5.77.46 1.32.71 1.67 2.27 3.24 1.62 1.61 1.91 1.8 3.5 2.4 3.54 1.3 7.3.7 9.81-1.57a6.69 6.69 0 0 0 2.53-5.12c.23-5.08-4.3-9.36-9.93-9.41a8.12 8.12 0 0 0-6.22 2.36 8.14 8.14 0 0 0-1.88 2.33Zm40.86-17.8a10.06 10.06 0 0 0-.9 8.81c.62 1.87.78 2.1 2.25 3.57 1.32 1.32 1.8 1.67 2.8 2a8.3 8.3 0 0 0 5.08.09c1.21-.37 1.56-.61 3.02-2.08 1.55-1.55 1.67-1.74 2.28-3.58 2.42-7.33-3.45-14.51-10.02-12.33a8.16 8.16 0 0 0-4.51 3.52Zm-38.3 39.61a7.51 7.51 0 0 0-.35 5.89c.44 1.27.73 1.7 2.02 3a6.57 6.57 0 0 0 3.48 2.16c7.4 2.58 14.56-3.32 12.4-10.18-.36-1.18-.6-1.53-2.08-3-1.48-1.45-1.86-1.73-3.17-2.17a10.8 10.8 0 0 0-9.23.9 7.8 7.8 0 0 0-3.08 3.4Zm21.92-4.41a12.95 12.95 0 0 1 .77-10.35c.8-1.4 3-3.71 4.37-4.55a12.9 12.9 0 0 1 10.74-1.02c1.85.68 1.88.68 3.8.04a12.75 12.75 0 0 1 15 18.66 12.8 12.8 0 0 1-8.5 5.73l-1.53.23-.23 1.52a12.97 12.97 0 0 1-5.85 8.6 12.75 12.75 0 0 1-19.16-10.9 11.2 11.2 0 0 1 .62-4.17c.63-1.85.63-1.92-.03-3.79Z" opacity=".7" fill="#F6A6BF"/></svg>