<svg viewBox="0 0 71 58" fill="none" xmlns="http://www.w3.org/2000/svg"><path d="M47.4.56c-5.61 1.46-8.97 8.46-6.61 13.73 3 6.65 12.01 5.78 15.37-1.47.71-1.54.78-1.88.78-4.17 0-2.2-.07-2.63-.68-3.9a8.38 8.38 0 0 0-3.63-3.7c-1.14-.59-3.85-.84-5.24-.49Zm-27.79.42c-1.48.55-3.33 2.36-4.14 4.02-.6 1.27-.68 1.7-.68 3.9 0 2.28.07 2.63.78 4.17 1.58 3.43 4.65 5.66 8.04 5.83 2.29.13 3.83-.4 5.4-1.83 3.76-3.43 3.6-9.66-.36-13.68a8.12 8.12 0 0 0-6.06-2.73c-1.3-.05-2.3.07-2.98.32Zm41.48 16.32a10 10 0 0 0-6.88 5.58c-.87 1.76-.92 2.03-.92 4.12 0 1.86.1 2.45.56 3.4a8.3 8.3 0 0 0 3.53 3.65c1.12.6 1.54.67 3.6.67 2.2 0 2.42-.05 4.15-.92 6.9-3.48 7.82-12.71 1.63-15.81a8.16 8.16 0 0 0-5.67-.7Zm-55.09.9a7.51 7.51 0 0 0-4.42 3.93c-.58 1.22-.68 1.71-.68 3.55 0 1.94.07 2.26.93 4 3.4 7.05 12.64 7.94 15.96 1.56.58-1.1.65-1.51.65-3.6-.02-2.06-.1-2.53-.7-3.77-1.4-2.93-4.22-5.26-7.17-5.89a7.8 7.8 0 0 0-4.58.23Zm18.61 12.4a12.97 12.97 0 0 1 7.87-6.78c1.56-.42 4.75-.5 6.31-.13 3.44.8 6.82 3.6 8.31 6.88.83 1.79.85 1.81 2.66 2.7a12.96 12.96 0 0 1 7.06 11.3c0 5.98-3.97 11.15-9.65 12.51-3.36.8-7.36.03-10.06-1.96l-1.24-.92-1.25.92a12.97 12.97 0 0 1-10.2 1.94 12.75 12.75 0 0 1-5.85-21.25 11.04 11.04 0 0 1 3.38-2.5c1.76-.88 1.8-.93 2.66-2.71Z" fill="#F6A6BF"/></svg>