<svg viewBox="0 0 70 57" fill="none" xmlns="http://www.w3.org/2000/svg"><path d="M46.5.16c-5.61 1.46-8.97 8.46-6.61 13.73 3 6.65 12.01 5.78 15.37-1.47.71-1.54.78-1.89.78-4.17 0-2.2-.07-2.63-.68-3.9a8.38 8.38 0 0 0-3.63-3.7c-1.14-.59-3.85-.84-5.24-.5Zm3.82 4.3a3.9 3.9 0 0 1 1.9 3.24c.44 5.54-6.2 9.19-8.65 4.75-2.34-4.2 3.02-10.55 6.75-8Zm-31.61-3.88c-1.48.55-3.34 2.36-4.14 4.02-.6 1.27-.68 1.7-.68 3.9 0 2.28.07 2.63.78 4.17 1.58 3.43 4.65 5.66 8.04 5.83 2.29.13 3.82-.4 5.4-1.83 3.76-3.43 3.59-9.66-.36-13.68a8.12 8.12 0 0 0-6.06-2.73c-1.3-.05-2.3.07-2.98.32Zm4.75 4.05a6.51 6.51 0 0 1 3.42 5.36c.43 5.63-6.3 6.3-8.7.87-.98-2.21-.47-4.97 1.17-6.1 1.1-.75 2.82-.8 4.11-.13Zm36.73 12.26c-3.2.84-5.49 2.68-6.88 5.58-.87 1.77-.92 2.04-.92 4.13 0 1.86.1 2.45.56 3.4a8.3 8.3 0 0 0 3.53 3.64c1.12.6 1.54.67 3.6.67 2.2 0 2.42-.04 4.15-.91 6.9-3.48 7.82-12.71 1.63-15.82a8.16 8.16 0 0 0-5.67-.69Zm4.24 4.34c1.58 1.2 2.04 2.9 1.36 5-1.02 3.17-5.02 5.16-7.68 3.8-2.6-1.33-2.63-5.02-.02-7.6 1.78-1.77 4.82-2.34 6.34-1.2Zm-59.33-3.43a7.51 7.51 0 0 0-4.42 3.93c-.58 1.22-.68 1.71-.68 3.55 0 1.93.07 2.26.93 4 3.4 7.04 12.64 7.94 15.96 1.56.58-1.1.65-1.52.65-3.6-.02-2.06-.1-2.53-.7-3.77-1.4-2.93-4.22-5.27-7.17-5.89a7.8 7.8 0 0 0-4.58.23Zm5.16 4.13c2.8 1.36 4.29 4.91 3.07 7.3-.56 1.06-2.22 1.98-3.58 1.98-2.93 0-5.97-3.18-5.97-6.18a4.1 4.1 0 0 1 2.43-3.47c.83-.38 2.93-.18 4.05.37Zm21.32 1.49a12.95 12.95 0 0 0-7.87 6.77c-.85 1.8-.9 1.84-2.66 2.71a11.1 11.1 0 0 0-3.38 2.5 12.75 12.75 0 0 0 5.84 21.26c3.25.86 7.46.04 10.21-1.94l1.25-.92 1.24.92a12.8 12.8 0 0 0 10.06 1.96 12.75 12.75 0 0 0 9.65-12.51c0-4.64-2.9-9.26-7.06-11.3-1.8-.89-1.83-.91-2.66-2.7a12.88 12.88 0 0 0-8.3-6.88 16.8 16.8 0 0 0-6.32.13Zm6.4 4.1a9.23 9.23 0 0 1 5.3 5.93c.41 1.49.8 1.93 2.16 2.33a8.58 8.58 0 0 1 4.22 2.6c1.75 1.92 2.24 3.16 2.24 5.86 0 1.89-.1 2.44-.63 3.63a8.45 8.45 0 0 1-4.07 4.24c-1.46.75-1.83.82-3.83.82-1.9 0-2.36-.1-3.55-.67-.76-.4-1.98-1.31-2.73-2.06-1.83-1.84-2.4-1.84-4.27 0-.75.77-2 1.69-2.73 2.06-1.17.57-1.63.67-3.53.67-1.85 0-2.41-.1-3.56-.64a8.44 8.44 0 0 1-4.16-4.15c-.73-1.51-.8-1.86-.8-3.9.02-2.7.5-3.97 2.23-5.85a8.58 8.58 0 0 1 4.22-2.61c1.36-.4 1.75-.84 2.17-2.33a9.44 9.44 0 0 1 5.21-5.94 9.39 9.39 0 0 1 6.12 0Z" opacity=".7" fill="#F6A6BF"/></svg>