<svg viewBox="0 0 22 22" fill="none" xmlns="http://www.w3.org/2000/svg"><path d="M7.19 2.33a4.51 4.51 0 0 0-3.28.36 3.16 3.16 0 0 0-1.66 2.75c-.05 1.98.4 4.64 2.23 7.76a17.9 17.9 0 0 0 5.43 6.03c1.04.7 2.19.71 3.17.26a4.3 4.3 0 0 0 2.16-2.44 2.02 2.02 0 0 0-.13-1.69l-1.05-1.87a2.75 2.75 0 0 0-3.38-1.22l-.73.28c-.36.13-.69.07-.87-.11a4.75 4.75 0 0 1-1.27-2.34c-.06-.28.07-.6.38-.84l.66-.5a2.75 2.75 0 0 0 .73-3.57l-1.07-1.86a2.12 2.12 0 0 0-1.32-1Zm-3.84 3.14c.02-.85.45-1.46 1.1-1.82a3.42 3.42 0 0 1 2.47-.26c.27.07.5.25.64.49l1.06 1.86a1.65 1.65 0 0 1-.43 2.14l-.66.5a1.95 1.95 0 0 0-.8 1.97c.25 1.08.8 2.1 1.58 2.87.57.56 1.4.6 2.03.35l.73-.28a1.65 1.65 0 0 1 2.03.74l1.05 1.87c.13.24.15.52.06.77a3.2 3.2 0 0 1-1.59 1.82c-.66.3-1.4.3-2.1-.17a17 17 0 0 1-5.1-5.67c-1.71-2.95-2.12-5.4-2.07-7.18Zm10.67-3.2a.55.55 0 0 0-.54.96l.43.24a9.35 9.35 0 0 1 4.76 7.24l.03.34a.55.55 0 1 0 1.1-.1l-.04-.35a10.45 10.45 0 0 0-5.32-8.1l-.42-.23Z" fill="#F6A6BF"/><path d="M12.73 5.22a.55.55 0 0 1 .75-.2l.14.1a7.15 7.15 0 0 1 3.37 4.95l.05.29a.55.55 0 1 1-1.08.18l-.05-.3a6.05 6.05 0 0 0-2.86-4.19l-.13-.08a.55.55 0 0 1-.2-.75Z" fill="#F6A6BF"/></svg>